%TF.GenerationSoftware,Altium Limited,Altium Designer,22.5.1 (42)*%
G04 Layer_Color=0*
%FSLAX45Y45*%
%MOMM*%
%TF.SameCoordinates,BCC7A4F8-9605-4868-ACEC-D28EECC8EA53*%
%TF.FilePolarity,Positive*%
%TF.FileFunction,Profile,NP*%
%TF.Part,Single*%
G01*
G75*
%TA.AperFunction,Profile*%
%ADD223C,0.02540*%
G36*
X2745740Y4894440D02*
Y6895690D01*
X2847690D01*
Y4895617D01*
X2745740Y4894440D01*
D02*
G37*
G36*
X4995100Y9098032D02*
Y8262170D01*
X6494140D01*
Y9098032D01*
X4995100D01*
D02*
G37*
G36*
X12338945Y8526128D02*
Y8468083D01*
X12448755D01*
X12448755Y8526079D01*
X12338945Y8526128D01*
D02*
G37*
G36*
X11904760Y8524917D02*
Y8466870D01*
X11978920D01*
X11978920Y8524883D01*
X11904760Y8524917D01*
D02*
G37*
G36*
X12393850Y9000651D02*
Y8468083D01*
X12465530D01*
X12465530Y9000619D01*
X12393850Y9000651D01*
D02*
G37*
G36*
X11843990Y8999661D02*
Y8467093D01*
X11915670D01*
X11915670Y8999628D01*
X11843990Y8999661D01*
D02*
G37*
D223*
X12699998Y9000002D02*
X299998Y9000000D01*
X241471Y8994236D01*
X185193Y8977164D01*
X133327Y8949441D01*
X87866Y8912133D01*
X50557Y8866671D01*
X22834Y8814805D01*
X5763Y8758528D01*
X-2Y8700000D01*
X-0Y300000D01*
X5764Y241473D01*
X22836Y185195D01*
X50559Y133329D01*
X87868Y87868D01*
X133329Y50559D01*
X185195Y22836D01*
X241473Y5764D01*
X300000Y-0D01*
X12700000Y2D01*
X12758528Y5767D01*
X12814806Y22838D01*
X12866672Y50561D01*
X12912132Y87870D01*
X12949442Y133331D01*
X12977164Y185197D01*
X12994237Y241475D01*
X13000000Y300002D01*
X12999998Y8700002D01*
X12994234Y8758530D01*
X12977162Y8814807D01*
X12949438Y8866673D01*
X12912131Y8912135D01*
X12866669Y8949443D01*
X12814803Y8977166D01*
X12758526Y8994238D01*
X12699998Y9000002D01*
%TF.MD5,e40ec7e3bc6075589a055d77e43de5c3*%
M02*
