%TF.GenerationSoftware,Altium Limited,Altium Designer,22.5.1 (42)*%
G04 Layer_Physical_Order=4*
G04 Layer_Color=16711680*
%FSLAX45Y45*%
%MOMM*%
%TF.SameCoordinates,BCC7A4F8-9605-4868-ACEC-D28EECC8EA53*%
%TF.FilePolarity,Positive*%
%TF.FileFunction,Copper,L4,Bot,Signal*%
%TF.Part,Single*%
G01*
G75*
%TA.AperFunction,Conductor*%
%ADD82C,0.25400*%
%ADD84C,1.00000*%
%TA.AperFunction,ComponentPad*%
%ADD85O,1.20000X2.00000*%
%ADD86O,1.20000X1.80000*%
%ADD87C,0.70002*%
%ADD88C,3.30002*%
%ADD89C,2.50000*%
%ADD90C,2.49936*%
%ADD91C,1.99898*%
%TA.AperFunction,ViaPad*%
%ADD92C,4.00000*%
%TA.AperFunction,ComponentPad*%
%ADD93R,2.00000X1.70000*%
%ADD94O,2.00000X1.70000*%
%ADD95C,1.00000*%
%ADD96C,1.52400*%
%ADD97O,1.52400X2.00000*%
%ADD98C,1.50800*%
%ADD99R,1.50800X1.50800*%
%ADD100C,1.70000*%
%ADD101R,1.70000X1.70000*%
%ADD102C,1.50000*%
%ADD103R,1.50000X1.50000*%
%ADD104C,0.90002*%
%ADD105C,1.40800*%
%ADD106O,2.00000X1.50000*%
%TA.AperFunction,ViaPad*%
%ADD107C,0.40000*%
%ADD108C,0.60960*%
%TA.AperFunction,SMDPad,CuDef*%
%ADD109O,3.90000X4.18000*%
G04:AMPARAMS|DCode=110|XSize=3.9mm|YSize=4.18mm|CornerRadius=0.4875mm|HoleSize=0mm|Usage=FLASHONLY|Rotation=0.000|XOffset=0mm|YOffset=0mm|HoleType=Round|Shape=RoundedRectangle|*
%AMROUNDEDRECTD110*
21,1,3.90000,3.20500,0,0,0.0*
21,1,2.92500,4.18000,0,0,0.0*
1,1,0.97500,1.46250,-1.60250*
1,1,0.97500,-1.46250,-1.60250*
1,1,0.97500,-1.46250,1.60250*
1,1,0.97500,1.46250,1.60250*
%
%ADD110ROUNDEDRECTD110*%
G36*
X12758526Y8994238D02*
X12814803Y8977166D01*
X12866669Y8949443D01*
X12912131Y8912135D01*
X12949438Y8866673D01*
X12977162Y8814807D01*
X12994234Y8758530D01*
X12999998Y8700002D01*
X13000000Y300002D01*
X12994237Y241475D01*
X12977164Y185197D01*
X12949442Y133331D01*
X12912132Y87870D01*
X12866672Y50561D01*
X12814806Y22838D01*
X12758528Y5767D01*
X12700000Y2D01*
X300000Y-0D01*
X241473Y5764D01*
X185195Y22836D01*
X133329Y50559D01*
X87868Y87868D01*
X50559Y133329D01*
X22836Y185195D01*
X5764Y241473D01*
X-0Y300000D01*
X-1Y4620410D01*
X2815980D01*
X2818220Y4620520D01*
X2822615Y4621394D01*
X2826754Y4623109D01*
X2830479Y4625598D01*
X2832141Y4627104D01*
X2832142D01*
X2914087Y4709049D01*
X2915621Y4710716D01*
X2918157Y4714465D01*
X2919905Y4718639D01*
X2920796Y4723076D01*
X2920907Y4725339D01*
X2920908Y4725339D01*
X2920910Y6781781D01*
X3654324Y7515195D01*
X3655831Y7516857D01*
X3658321Y7520583D01*
X3660036Y7524724D01*
X3660910Y7529119D01*
X3661020Y7531360D01*
X3661020Y7531360D01*
Y9000001D01*
X4974708Y9000001D01*
Y8262170D01*
X4976260Y8254367D01*
X4980681Y8247751D01*
X4987296Y8243330D01*
X4995100Y8241778D01*
X6494140D01*
X6501944Y8243330D01*
X6508559Y8247751D01*
X6512980Y8254367D01*
X6514532Y8262170D01*
Y9000001D01*
X11811039Y9000002D01*
X11823598Y8987302D01*
Y8467093D01*
X11825150Y8459289D01*
X11829571Y8452673D01*
X11836186Y8448253D01*
X11843990Y8446701D01*
X11903640D01*
X11904760Y8446478D01*
X11978920D01*
X11986724Y8448030D01*
X11993339Y8452451D01*
X11997760Y8459066D01*
X11999312Y8466870D01*
X11999312Y8524883D01*
X11998552Y8528703D01*
X11997763Y8532679D01*
X11997760Y8532683D01*
X11997759Y8532687D01*
X11995587Y8535938D01*
X11993345Y8539296D01*
X11993342Y8539299D01*
X11993339Y8539303D01*
X11989989Y8541541D01*
X11986732Y8543720D01*
X11986727Y8543720D01*
X11986723Y8543723D01*
X11982757Y8544512D01*
X11978929Y8545275D01*
X11936062Y8545295D01*
X11936062Y8987302D01*
X11948607Y9000002D01*
X12373458D01*
Y8555487D01*
X12364476Y8546509D01*
X12338954Y8546520D01*
X12338950Y8546519D01*
X12338945Y8546520D01*
X12335126Y8545761D01*
X12331150Y8544972D01*
X12331146Y8544969D01*
X12331141Y8544968D01*
X12327956Y8542840D01*
X12324532Y8540554D01*
X12324530Y8540550D01*
X12324526Y8540548D01*
X12322244Y8537133D01*
X12320109Y8533941D01*
X12320108Y8533936D01*
X12320105Y8533932D01*
X12319316Y8529965D01*
X12318553Y8526138D01*
X12318554Y8526133D01*
X12318553Y8526128D01*
Y8468083D01*
X12320105Y8460279D01*
X12324526Y8453664D01*
X12331141Y8449243D01*
X12338945Y8447691D01*
X12465530D01*
X12473334Y8449243D01*
X12479949Y8453664D01*
X12484370Y8460279D01*
X12485922Y8468083D01*
Y8595280D01*
X12498378Y8597757D01*
X12500251Y8593235D01*
X12524918Y8556318D01*
X12556314Y8524922D01*
X12593231Y8500255D01*
X12634251Y8483264D01*
X12677798Y8474602D01*
X12722198D01*
X12765745Y8483264D01*
X12806766Y8500255D01*
X12843681Y8524922D01*
X12875078Y8556318D01*
X12899745Y8593235D01*
X12916736Y8634255D01*
X12925398Y8677802D01*
Y8722202D01*
X12916736Y8765749D01*
X12899745Y8806769D01*
X12875078Y8843686D01*
X12843681Y8875082D01*
X12806766Y8899749D01*
X12765745Y8916740D01*
X12722198Y8925402D01*
X12677798D01*
X12634251Y8916740D01*
X12593231Y8899749D01*
X12556314Y8875082D01*
X12524918Y8843686D01*
X12500251Y8806769D01*
X12498378Y8802246D01*
X12485922Y8804724D01*
Y9000002D01*
X12699998D01*
X12758526Y8994238D01*
D02*
G37*
%LPC*%
G36*
X11506256Y8793728D02*
X11487719D01*
X11469814Y8788930D01*
X11453760Y8779662D01*
X11440653Y8766554D01*
X11431384Y8750501D01*
X11426586Y8732595D01*
Y8714058D01*
X11431384Y8696153D01*
X11440653Y8680099D01*
X11453760Y8666992D01*
X11469814Y8657723D01*
X11487719Y8652926D01*
X11506256D01*
X11524162Y8657723D01*
X11540215Y8666992D01*
X11553323Y8680099D01*
X11562591Y8696153D01*
X11567389Y8714058D01*
Y8732595D01*
X11562591Y8750501D01*
X11553323Y8766554D01*
X11540215Y8779662D01*
X11524162Y8788930D01*
X11506256Y8793728D01*
D02*
G37*
G36*
X10656271D02*
X10637734D01*
X10619828Y8788930D01*
X10603775Y8779662D01*
X10590667Y8766554D01*
X10581398Y8750501D01*
X10576601Y8732595D01*
Y8714058D01*
X10581398Y8696153D01*
X10590667Y8680099D01*
X10603775Y8666992D01*
X10619828Y8657723D01*
X10637734Y8652926D01*
X10656271D01*
X10674176Y8657723D01*
X10690230Y8666992D01*
X10703337Y8680099D01*
X10712606Y8696153D01*
X10717403Y8714058D01*
Y8732595D01*
X10712606Y8750501D01*
X10703337Y8766554D01*
X10690230Y8779662D01*
X10674176Y8788930D01*
X10656271Y8793728D01*
D02*
G37*
G36*
X4585767Y8798563D02*
X4559015D01*
X4533175Y8791639D01*
X4510007Y8778263D01*
X4491091Y8759346D01*
X4477715Y8736179D01*
X4470791Y8710338D01*
Y8683587D01*
X4477715Y8657746D01*
X4491091Y8634579D01*
X4510007Y8615662D01*
X4533175Y8602286D01*
X4559015Y8595363D01*
X4585767D01*
X4611607Y8602286D01*
X4634775Y8615662D01*
X4653691Y8634579D01*
X4667067Y8657746D01*
X4673991Y8683587D01*
Y8710338D01*
X4667067Y8736179D01*
X4653691Y8759346D01*
X4634775Y8778263D01*
X4611607Y8791639D01*
X4585767Y8798563D01*
D02*
G37*
G36*
X8065154Y8654729D02*
X8045301D01*
X8026124Y8649591D01*
X8008931Y8639665D01*
X7994892Y8625626D01*
X7984965Y8608433D01*
X7979827Y8589256D01*
Y8569403D01*
X7984965Y8550226D01*
X7994892Y8533033D01*
X8008931Y8518994D01*
X8026124Y8509068D01*
X8045301Y8503930D01*
X8065154D01*
X8084331Y8509068D01*
X8101524Y8518994D01*
X8115562Y8533033D01*
X8125489Y8550226D01*
X8130627Y8569403D01*
Y8589256D01*
X8125489Y8608433D01*
X8115562Y8625626D01*
X8101524Y8639665D01*
X8084331Y8649591D01*
X8065154Y8654729D01*
D02*
G37*
G36*
X7267137D02*
X7247283D01*
X7228107Y8649591D01*
X7210913Y8639665D01*
X7196875Y8625626D01*
X7186948Y8608433D01*
X7181810Y8589256D01*
Y8569403D01*
X7186948Y8550226D01*
X7196875Y8533033D01*
X7210913Y8518994D01*
X7228107Y8509068D01*
X7247283Y8503930D01*
X7267137D01*
X7286313Y8509068D01*
X7303507Y8518994D01*
X7317545Y8533033D01*
X7327472Y8550226D01*
X7332610Y8569403D01*
Y8589256D01*
X7327472Y8608433D01*
X7317545Y8625626D01*
X7303507Y8639665D01*
X7286313Y8649591D01*
X7267137Y8654729D01*
D02*
G37*
G36*
X9674540Y8555671D02*
X9650512D01*
X9628311Y8546475D01*
X9611320Y8529484D01*
X9602125Y8507284D01*
Y8483255D01*
X9611320Y8461055D01*
X9628311Y8444064D01*
X9650512Y8434869D01*
X9674540D01*
X9696741Y8444064D01*
X9713732Y8461055D01*
X9722927Y8483255D01*
Y8507284D01*
X9713732Y8529484D01*
X9696741Y8546475D01*
X9674540Y8555671D01*
D02*
G37*
G36*
X9096538D02*
X9072509D01*
X9050309Y8546475D01*
X9033318Y8529484D01*
X9024122Y8507284D01*
Y8483255D01*
X9033318Y8461055D01*
X9050309Y8444064D01*
X9072509Y8434869D01*
X9096538D01*
X9118738Y8444064D01*
X9135729Y8461055D01*
X9144925Y8483255D01*
Y8507284D01*
X9135729Y8529484D01*
X9118738Y8546475D01*
X9096538Y8555671D01*
D02*
G37*
G36*
X9132221Y8316460D02*
X9114159D01*
X9097473Y8309549D01*
X9087760Y8299836D01*
X9078047Y8309549D01*
X9061361Y8316460D01*
X9043299D01*
X9026613Y8309549D01*
X9013842Y8296777D01*
X9006930Y8280091D01*
Y8262029D01*
X9013842Y8245343D01*
X9007595Y8233629D01*
X9002564Y8231545D01*
X8989793Y8218774D01*
X8982881Y8202088D01*
Y8184026D01*
X8989793Y8167340D01*
X9002564Y8154569D01*
X9019250Y8147657D01*
X9037312D01*
X9053998Y8154569D01*
X9064036Y8164606D01*
X9065944Y8162698D01*
X9082630Y8155787D01*
X9100692D01*
X9117378Y8162698D01*
X9130149Y8175470D01*
X9137061Y8192156D01*
Y8210218D01*
X9135525Y8213927D01*
X9142626Y8229970D01*
X9148907Y8232572D01*
X9161678Y8245343D01*
X9168590Y8262029D01*
Y8280091D01*
X9161678Y8296777D01*
X9148907Y8309549D01*
X9132221Y8316460D01*
D02*
G37*
G36*
X4712197Y8597350D02*
X4682571D01*
X4653514Y8591570D01*
X4626143Y8580233D01*
X4601510Y8563773D01*
X4580561Y8542825D01*
X4564102Y8518191D01*
X4552764Y8490820D01*
X4546985Y8461763D01*
Y8432137D01*
X4552764Y8403080D01*
X4564102Y8375709D01*
X4580561Y8351076D01*
X4601510Y8330127D01*
X4626143Y8313668D01*
X4653514Y8302330D01*
X4682571Y8296551D01*
X4712197D01*
X4741254Y8302330D01*
X4768625Y8313668D01*
X4793259Y8330127D01*
X4814207Y8351076D01*
X4830667Y8375709D01*
X4842004Y8403080D01*
X4847784Y8432137D01*
Y8461763D01*
X4842004Y8490820D01*
X4830667Y8518191D01*
X4814207Y8542825D01*
X4793259Y8563773D01*
X4768625Y8580233D01*
X4741254Y8591570D01*
X4712197Y8597350D01*
D02*
G37*
G36*
X4012199D02*
X3982573D01*
X3953516Y8591570D01*
X3926145Y8580233D01*
X3901511Y8563773D01*
X3880563Y8542825D01*
X3864103Y8518191D01*
X3852766Y8490820D01*
X3846986Y8461763D01*
Y8432137D01*
X3852766Y8403080D01*
X3864103Y8375709D01*
X3880563Y8351076D01*
X3901511Y8330127D01*
X3926145Y8313668D01*
X3953516Y8302330D01*
X3982573Y8296551D01*
X4012199D01*
X4041256Y8302330D01*
X4068627Y8313668D01*
X4093260Y8330127D01*
X4114209Y8351076D01*
X4130668Y8375709D01*
X4142006Y8403080D01*
X4147785Y8432137D01*
Y8461763D01*
X4142006Y8490820D01*
X4130668Y8518191D01*
X4114209Y8542825D01*
X4093260Y8563773D01*
X4068627Y8580233D01*
X4041256Y8591570D01*
X4012199Y8597350D01*
D02*
G37*
G36*
X9744611Y8309410D02*
X9726549D01*
X9709863Y8302499D01*
X9705200Y8297836D01*
X9696903Y8289907D01*
X9688607Y8297836D01*
X9683944Y8302499D01*
X9667258Y8309410D01*
X9649196D01*
X9632510Y8302499D01*
X9619738Y8289727D01*
X9612827Y8273041D01*
Y8254979D01*
X9619738Y8238293D01*
X9632510Y8225522D01*
X9647665Y8219244D01*
X9650124Y8216352D01*
X9654416Y8205910D01*
X9649007Y8192851D01*
Y8174789D01*
X9655918Y8158103D01*
X9668690Y8145332D01*
X9685376Y8138420D01*
X9703438D01*
X9720124Y8145332D01*
X9724787Y8149995D01*
X9733083Y8157923D01*
X9741380Y8149995D01*
X9746043Y8145332D01*
X9762729Y8138420D01*
X9780791D01*
X9797477Y8145332D01*
X9810248Y8158103D01*
X9817160Y8174789D01*
Y8192851D01*
X9810248Y8209537D01*
X9797477Y8222308D01*
X9782322Y8228586D01*
X9779863Y8231478D01*
X9775571Y8241920D01*
X9780980Y8254979D01*
Y8273041D01*
X9774068Y8289727D01*
X9761297Y8302499D01*
X9744611Y8309410D01*
D02*
G37*
G36*
X8543720Y8535143D02*
X8251220D01*
X8233272Y8532780D01*
X8216548Y8525853D01*
X8202187Y8514833D01*
X8191167Y8500472D01*
X8184239Y8483747D01*
X8181876Y8465800D01*
Y8145300D01*
X8184239Y8127353D01*
X8191167Y8110628D01*
X8202187Y8096267D01*
X8216548Y8085247D01*
X8233272Y8078320D01*
X8251220Y8075957D01*
X8543720D01*
X8561667Y8078320D01*
X8578391Y8085247D01*
X8592753Y8096267D01*
X8603772Y8110628D01*
X8610700Y8127353D01*
X8613063Y8145300D01*
Y8465800D01*
X8610700Y8483747D01*
X8603772Y8500472D01*
X8592753Y8514833D01*
X8578391Y8525853D01*
X8561667Y8532780D01*
X8543720Y8535143D01*
D02*
G37*
G36*
X12162051Y8139780D02*
X12143989D01*
X12127303Y8132868D01*
X12114532Y8120097D01*
X12107620Y8103411D01*
Y8085349D01*
X12114532Y8068663D01*
X12127303Y8055892D01*
X12143989Y8048980D01*
X12162051D01*
X12178737Y8055892D01*
X12191509Y8068663D01*
X12198420Y8085349D01*
Y8103411D01*
X12191509Y8120097D01*
X12178737Y8132868D01*
X12162051Y8139780D01*
D02*
G37*
G36*
X5081421Y7778990D02*
X5063359D01*
X5046673Y7772078D01*
X5037591Y7762996D01*
X5029637Y7760595D01*
X5021683Y7762996D01*
X5012601Y7772078D01*
X4995915Y7778990D01*
X4977853D01*
X4961167Y7772078D01*
X4951763Y7762675D01*
X4943904Y7760532D01*
X4936044Y7762675D01*
X4926640Y7772078D01*
X4909954Y7778990D01*
X4891893D01*
X4875206Y7772078D01*
X4862435Y7759307D01*
X4855523Y7742621D01*
Y7724559D01*
X4862435Y7707873D01*
X4875206Y7695102D01*
X4877267Y7694248D01*
Y7680502D01*
X4875206Y7679648D01*
X4862435Y7666877D01*
X4855523Y7650191D01*
Y7632129D01*
X4862435Y7615443D01*
X4875206Y7602672D01*
X4891893Y7595760D01*
X4909954D01*
X4926640Y7602672D01*
X4936044Y7612075D01*
X4943904Y7614218D01*
X4951763Y7612075D01*
X4961167Y7602672D01*
X4977853Y7595760D01*
X4995915D01*
X5012601Y7602672D01*
X5021683Y7611754D01*
X5029637Y7614155D01*
X5037591Y7611754D01*
X5046673Y7602672D01*
X5063359Y7595760D01*
X5081421D01*
X5098107Y7602672D01*
X5110879Y7615443D01*
X5117790Y7632129D01*
Y7650191D01*
X5110879Y7666877D01*
X5098107Y7679648D01*
X5096047Y7680502D01*
Y7694248D01*
X5098107Y7695102D01*
X5110879Y7707873D01*
X5117790Y7724559D01*
Y7742621D01*
X5110879Y7759307D01*
X5098107Y7772078D01*
X5081421Y7778990D01*
D02*
G37*
G36*
X6047221Y7849196D02*
X6029159D01*
X6012473Y7842285D01*
X5999702Y7829513D01*
X5992790Y7812827D01*
Y7794765D01*
X5999702Y7778079D01*
X6010785Y7766996D01*
X6011738Y7759628D01*
X6010785Y7752261D01*
X5999702Y7741177D01*
X5992790Y7724491D01*
Y7706429D01*
X5999702Y7689743D01*
X6012473Y7676972D01*
X6029159Y7670060D01*
X6047221D01*
X6063907Y7676972D01*
X6070540Y7683605D01*
X6078837Y7688476D01*
X6087133Y7683605D01*
X6093766Y7676972D01*
X6110453Y7670060D01*
X6128514D01*
X6145200Y7676972D01*
X6151833Y7683605D01*
X6160130Y7688476D01*
X6168427Y7683605D01*
X6175060Y7676972D01*
X6191746Y7670060D01*
X6209807D01*
X6226494Y7676972D01*
X6233126Y7683605D01*
X6241423Y7688476D01*
X6249720Y7683605D01*
X6256353Y7676972D01*
X6273039Y7670060D01*
X6291100D01*
X6307787Y7676972D01*
X6320558Y7689743D01*
X6327470Y7706429D01*
Y7724491D01*
X6320558Y7741177D01*
X6311087Y7750648D01*
X6308145Y7755657D01*
X6310441Y7766596D01*
X6317718Y7773873D01*
X6324630Y7790559D01*
Y7808621D01*
X6317718Y7825307D01*
X6304947Y7838078D01*
X6288261Y7844990D01*
X6270199D01*
X6253513Y7838078D01*
X6240742Y7825307D01*
X6233830Y7808621D01*
Y7790559D01*
X6240742Y7773873D01*
X6250213Y7764402D01*
X6252377Y7760718D01*
X6248922Y7748550D01*
X6238847Y7743957D01*
X6233126Y7747315D01*
X6226494Y7753948D01*
X6209807Y7760860D01*
X6191746D01*
X6175060Y7753948D01*
X6168427Y7747315D01*
X6160130Y7742445D01*
X6151833Y7747315D01*
X6145200Y7753948D01*
X6128514Y7760860D01*
X6110453D01*
X6093766Y7753948D01*
X6087133Y7747315D01*
X6078837Y7742445D01*
X6070540Y7747315D01*
X6065595Y7752261D01*
X6064642Y7759628D01*
X6065595Y7766996D01*
X6076678Y7778079D01*
X6083590Y7794765D01*
Y7812827D01*
X6076678Y7829513D01*
X6063907Y7842285D01*
X6047221Y7849196D01*
D02*
G37*
G36*
X11253761Y8080360D02*
X11235699D01*
X11219013Y8073448D01*
X11206242Y8060677D01*
X11199330Y8043991D01*
Y8025929D01*
X11205884Y8010108D01*
Y7660178D01*
X11201803Y7658488D01*
X11189032Y7645717D01*
X11182120Y7629031D01*
Y7610969D01*
X11189032Y7594283D01*
X11201803Y7581512D01*
X11218489Y7574600D01*
X11236551D01*
X11253237Y7581512D01*
X11266008Y7594283D01*
X11272920Y7610969D01*
Y7614771D01*
X11280620Y7626295D01*
X11283577Y7641161D01*
Y8010108D01*
X11290130Y8025929D01*
Y8043991D01*
X11283218Y8060677D01*
X11270447Y8073448D01*
X11253761Y8080360D01*
D02*
G37*
G36*
X6001011Y7505890D02*
X5982949D01*
X5966263Y7498978D01*
X5953492Y7486207D01*
X5946580Y7469521D01*
Y7451459D01*
X5953492Y7434773D01*
X5966263Y7422002D01*
X5982949Y7415090D01*
X6001011D01*
X6017697Y7422002D01*
X6030469Y7434773D01*
X6037380Y7451459D01*
Y7469521D01*
X6030469Y7486207D01*
X6017697Y7498978D01*
X6001011Y7505890D01*
D02*
G37*
G36*
X5753881Y7499410D02*
X5735819D01*
X5719133Y7492498D01*
X5706362Y7479727D01*
X5699450Y7463041D01*
Y7444979D01*
X5706362Y7428293D01*
X5719133Y7415522D01*
X5735819Y7408610D01*
X5753881D01*
X5770567Y7415522D01*
X5783338Y7428293D01*
X5790250Y7444979D01*
Y7463041D01*
X5783338Y7479727D01*
X5770567Y7492498D01*
X5753881Y7499410D01*
D02*
G37*
G36*
X8868710Y7517203D02*
X8838710D01*
X8809890Y7513408D01*
X8783033Y7502284D01*
X8759972Y7484588D01*
X8742276Y7461526D01*
X8731151Y7434670D01*
X8727357Y7405850D01*
X8731151Y7377030D01*
X8742276Y7350174D01*
X8759972Y7327112D01*
X8783033Y7309416D01*
X8809890Y7298292D01*
X8838710Y7294497D01*
X8868710D01*
X8897530Y7298292D01*
X8924387Y7309416D01*
X8947448Y7327112D01*
X8965144Y7350174D01*
X8976269Y7377030D01*
X8980063Y7405850D01*
X8976269Y7434670D01*
X8965144Y7461526D01*
X8947448Y7484588D01*
X8924387Y7502284D01*
X8897530Y7513408D01*
X8868710Y7517203D01*
D02*
G37*
G36*
X7748871Y7307720D02*
X7730809D01*
X7714123Y7300808D01*
X7701352Y7288037D01*
X7694440Y7271351D01*
Y7253289D01*
X7701352Y7236603D01*
X7714123Y7223832D01*
X7730809Y7216920D01*
X7748871D01*
X7765557Y7223832D01*
X7778328Y7236603D01*
X7785240Y7253289D01*
Y7271351D01*
X7778328Y7288037D01*
X7765557Y7300808D01*
X7748871Y7307720D01*
D02*
G37*
G36*
X8868710Y7263203D02*
X8838710D01*
X8809890Y7259408D01*
X8783033Y7248284D01*
X8759972Y7230588D01*
X8742276Y7207526D01*
X8731151Y7180670D01*
X8727357Y7151850D01*
X8731151Y7123030D01*
X8742276Y7096174D01*
X8759972Y7073112D01*
X8783033Y7055416D01*
X8809890Y7044292D01*
X8838710Y7040497D01*
X8868710D01*
X8897530Y7044292D01*
X8924387Y7055416D01*
X8947448Y7073112D01*
X8965144Y7096174D01*
X8976269Y7123030D01*
X8980063Y7151850D01*
X8976269Y7180670D01*
X8965144Y7207526D01*
X8947448Y7230588D01*
X8924387Y7248284D01*
X8897530Y7259408D01*
X8868710Y7263203D01*
D02*
G37*
G36*
X10400771Y7109380D02*
X10382709D01*
X10366023Y7102468D01*
X10353252Y7089697D01*
X10346340Y7073011D01*
Y7054949D01*
X10353252Y7038263D01*
X10366023Y7025492D01*
X10382709Y7018580D01*
X10400771D01*
X10417457Y7025492D01*
X10430228Y7038263D01*
X10437140Y7054949D01*
Y7073011D01*
X10430228Y7089697D01*
X10417457Y7102468D01*
X10400771Y7109380D01*
D02*
G37*
G36*
X7042691Y7001960D02*
X7024629D01*
X7007943Y6995048D01*
X6995172Y6982277D01*
X6984728Y6988427D01*
X6980507Y6992648D01*
X6963821Y6999560D01*
X6945759D01*
X6929073Y6992648D01*
X6916302Y6979877D01*
X6909390Y6963191D01*
Y6945129D01*
X6916302Y6928443D01*
X6928470Y6916275D01*
X6918152Y6905957D01*
X6911240Y6889271D01*
Y6871209D01*
X6918152Y6854523D01*
X6930923Y6841752D01*
X6947609Y6834840D01*
X6965671D01*
X6982357Y6841752D01*
X6986803Y6846198D01*
X6995772Y6853823D01*
X7008543Y6841052D01*
X7025229Y6834140D01*
X7043291D01*
X7059977Y6841052D01*
X7072748Y6853823D01*
X7079660Y6870509D01*
Y6888571D01*
X7072748Y6905257D01*
X7059977Y6918028D01*
X7059870Y6918565D01*
X7072148Y6930843D01*
X7079060Y6947529D01*
Y6965591D01*
X7072148Y6982277D01*
X7059377Y6995048D01*
X7042691Y7001960D01*
D02*
G37*
G36*
X7033720Y8535143D02*
X6741220D01*
X6723273Y8532780D01*
X6706548Y8525853D01*
X6692187Y8514833D01*
X6681167Y8500472D01*
X6674240Y8483747D01*
X6671877Y8465800D01*
Y8145300D01*
X6674240Y8127353D01*
X6677610Y8119215D01*
X6670943Y8109237D01*
X6667986Y8094371D01*
Y6644093D01*
X6456762Y6432869D01*
X6448341Y6420266D01*
X6445384Y6405400D01*
Y5766910D01*
X6446200Y5762806D01*
Y5746559D01*
X6453112Y5729873D01*
X6465883Y5717102D01*
X6482569Y5710190D01*
X6500631D01*
X6517317Y5717102D01*
X6530088Y5729873D01*
X6537000Y5746559D01*
Y5764621D01*
X6530088Y5781307D01*
X6523077Y5788319D01*
Y6149094D01*
X6535777Y6153768D01*
X6545243Y6144302D01*
X6561929Y6137390D01*
X6579991D01*
X6596677Y6144302D01*
X6609448Y6157073D01*
X6616360Y6173759D01*
Y6191821D01*
X6609806Y6207642D01*
Y6376259D01*
X6738571Y6505024D01*
X7459709D01*
X7571558Y6393175D01*
X7578112Y6377353D01*
X7590883Y6364582D01*
X7607569Y6357670D01*
X7625631D01*
X7642317Y6364582D01*
X7655088Y6377353D01*
X7662000Y6394039D01*
Y6412101D01*
X7655088Y6428787D01*
X7642317Y6441558D01*
X7626495Y6448112D01*
X7605027Y6469580D01*
X7610665Y6481902D01*
X7668456D01*
X7672880Y6475280D01*
Y6457219D01*
X7679792Y6440533D01*
X7682227Y6438098D01*
Y6409746D01*
X7683474Y6403479D01*
Y6381693D01*
X7502201Y6200420D01*
X7493781Y6187817D01*
X7490823Y6172952D01*
Y6058692D01*
X7479090Y6053832D01*
X7415195Y6117727D01*
X7408642Y6133549D01*
X7395870Y6146320D01*
X7379184Y6153232D01*
X7361122D01*
X7344436Y6146320D01*
X7331665Y6133549D01*
X7324753Y6116862D01*
Y6098801D01*
X7331665Y6082115D01*
X7344436Y6069343D01*
X7360258Y6062790D01*
X7449384Y5973664D01*
Y5740277D01*
X7437650Y5735417D01*
X7163526Y6009541D01*
Y6319508D01*
X7170080Y6335329D01*
Y6353391D01*
X7163168Y6370077D01*
X7150397Y6382848D01*
X7133711Y6389760D01*
X7115649D01*
X7098963Y6382848D01*
X7086192Y6370077D01*
X7083109Y6362635D01*
X7069363D01*
X7065588Y6371747D01*
X7052817Y6384518D01*
X7036130Y6391430D01*
X7018069D01*
X7001383Y6384518D01*
X6988611Y6371747D01*
X6982058Y6355926D01*
X6889882Y6263749D01*
X6881461Y6251146D01*
X6878504Y6236280D01*
Y5802841D01*
X6881461Y5787975D01*
X6889882Y5775372D01*
X6966594Y5698660D01*
X6961733Y5686927D01*
X5862262D01*
X5846441Y5693480D01*
X5828379D01*
X5811693Y5686569D01*
X5798922Y5673797D01*
X5798672Y5673196D01*
X5795436Y5671619D01*
X5783933Y5670798D01*
X5756707Y5698025D01*
Y5720196D01*
X5763260Y5736018D01*
Y5754079D01*
X5756348Y5770766D01*
X5743577Y5783537D01*
X5726891Y5790449D01*
X5708830D01*
X5698607Y5797279D01*
Y5860140D01*
X5695650Y5875006D01*
X5687229Y5887609D01*
X5605487Y5969351D01*
X5607436Y5972727D01*
X5614960Y6000806D01*
Y6029874D01*
X5607436Y6057953D01*
X5592902Y6083127D01*
X5572347Y6103682D01*
X5547173Y6118216D01*
X5519094Y6125740D01*
X5490026D01*
X5461947Y6118216D01*
X5458570Y6116267D01*
X5412506Y6162331D01*
Y6187304D01*
X5425206Y6192564D01*
X5436773Y6180998D01*
X5461947Y6166464D01*
X5490026Y6158940D01*
X5519094D01*
X5547173Y6166464D01*
X5572347Y6180998D01*
X5583914Y6192564D01*
X5596614Y6187304D01*
Y6138440D01*
X5599571Y6123574D01*
X5607992Y6110971D01*
X5657633Y6061330D01*
X5655684Y6057953D01*
X5648160Y6029874D01*
Y6000806D01*
X5655684Y5972727D01*
X5670218Y5947553D01*
X5690773Y5926998D01*
X5715947Y5912464D01*
X5744026Y5904940D01*
X5773094D01*
X5801173Y5912464D01*
X5826347Y5926998D01*
X5846902Y5947553D01*
X5861436Y5972727D01*
X5868960Y6000806D01*
Y6029874D01*
X5861436Y6057953D01*
X5846902Y6083127D01*
X5826347Y6103682D01*
X5801173Y6118216D01*
X5773094Y6125740D01*
X5744026D01*
X5715947Y6118216D01*
X5712570Y6116267D01*
X5674307Y6154530D01*
Y6180871D01*
X5686040Y6185731D01*
X5690773Y6180998D01*
X5715947Y6166464D01*
X5744026Y6158940D01*
X5773094D01*
X5801173Y6166464D01*
X5826347Y6180998D01*
X5846902Y6201553D01*
X5861436Y6226727D01*
X5868960Y6254806D01*
Y6283874D01*
X5861436Y6311953D01*
X5846902Y6337127D01*
X5826347Y6357682D01*
X5801173Y6372216D01*
X5773094Y6379740D01*
X5744026D01*
X5715947Y6372216D01*
X5690773Y6357682D01*
X5686040Y6352949D01*
X5674307Y6357809D01*
Y6390989D01*
X5772439Y6489120D01*
X5780859Y6501723D01*
X5783816Y6516589D01*
Y6624826D01*
X5796516Y6628230D01*
X5797190Y6627063D01*
X5815883Y6608370D01*
X5838777Y6595152D01*
X5864312Y6588310D01*
X5890748D01*
X5892250Y6588713D01*
X6156160Y6324803D01*
Y6158940D01*
X6376960D01*
Y6379740D01*
X6211097D01*
X5960031Y6630806D01*
X5971088Y6649957D01*
X5977930Y6675492D01*
Y6701928D01*
X5971088Y6727463D01*
X5957870Y6750357D01*
X5939177Y6769050D01*
X5923565Y6778063D01*
X5926969Y6790763D01*
X6018430D01*
X6033296Y6793720D01*
X6045898Y6802141D01*
X6092881Y6849124D01*
X6118312Y6842310D01*
X6144748D01*
X6170283Y6849152D01*
X6193177Y6862370D01*
X6211870Y6881063D01*
X6225088Y6903957D01*
X6231930Y6929492D01*
Y6955928D01*
X6225088Y6981463D01*
X6211870Y7004357D01*
X6193177Y7023050D01*
X6170283Y7036268D01*
X6144748Y7043110D01*
X6118312D01*
X6092777Y7036268D01*
X6069883Y7023050D01*
X6051190Y7004357D01*
X6037972Y6981463D01*
X6031130Y6955928D01*
Y6929492D01*
X6037944Y6904061D01*
X6002339Y6868456D01*
X5961857D01*
X5956997Y6880190D01*
X5957870Y6881063D01*
X5971088Y6903957D01*
X5977930Y6929492D01*
Y6955928D01*
X5971088Y6981463D01*
X5957870Y7004357D01*
X5939177Y7023050D01*
X5916283Y7036268D01*
X5890748Y7043110D01*
X5864312D01*
X5838777Y7036268D01*
X5815883Y7023050D01*
X5797190Y7004357D01*
X5783972Y6981463D01*
X5777130Y6955928D01*
Y6929492D01*
X5783972Y6903957D01*
X5797190Y6881063D01*
X5807711Y6870542D01*
X5806713Y6860414D01*
X5804223Y6856070D01*
X5717501Y6769348D01*
X5711629Y6760559D01*
X5699439Y6757599D01*
X5696356Y6757871D01*
X5685177Y6769050D01*
X5662283Y6782268D01*
X5636748Y6789110D01*
X5610312D01*
X5584777Y6782268D01*
X5561883Y6769050D01*
X5543190Y6750357D01*
X5529972Y6727463D01*
X5523130Y6701928D01*
Y6675492D01*
X5529972Y6649957D01*
X5543190Y6627063D01*
X5561883Y6608370D01*
X5584777Y6595152D01*
X5610312Y6588310D01*
X5636748D01*
X5662283Y6595152D01*
X5685177Y6608370D01*
X5693423Y6616616D01*
X5706123Y6611356D01*
Y6532680D01*
X5607992Y6434548D01*
X5599571Y6421945D01*
X5596614Y6407079D01*
Y6351376D01*
X5583914Y6346116D01*
X5572347Y6357682D01*
X5547173Y6372216D01*
X5519094Y6379740D01*
X5490026D01*
X5461947Y6372216D01*
X5436773Y6357682D01*
X5425206Y6346116D01*
X5412506Y6351376D01*
Y6597591D01*
X5431177Y6608370D01*
X5449870Y6627063D01*
X5463088Y6649957D01*
X5469930Y6675492D01*
Y6701928D01*
X5463088Y6727463D01*
X5449870Y6750357D01*
X5431177Y6769050D01*
X5408283Y6782268D01*
X5382748Y6789110D01*
X5356312D01*
X5330777Y6782268D01*
X5307883Y6769050D01*
X5289190Y6750357D01*
X5275972Y6727463D01*
X5269130Y6701928D01*
Y6675492D01*
X5275972Y6649957D01*
X5289190Y6627063D01*
X5307883Y6608370D01*
X5330777Y6595152D01*
X5334813Y6594071D01*
Y6357809D01*
X5323080Y6352949D01*
X5318347Y6357682D01*
X5293173Y6372216D01*
X5265094Y6379740D01*
X5236026D01*
X5207947Y6372216D01*
X5182773Y6357682D01*
X5162218Y6337127D01*
X5147684Y6311953D01*
X5140160Y6283874D01*
Y6254806D01*
X5147684Y6226727D01*
X5162218Y6201553D01*
X5182773Y6180998D01*
X5207947Y6166464D01*
X5236026Y6158940D01*
X5265094D01*
X5293173Y6166464D01*
X5318347Y6180998D01*
X5323080Y6185731D01*
X5334813Y6180871D01*
Y6146240D01*
X5337770Y6131374D01*
X5346191Y6118772D01*
X5403633Y6061330D01*
X5401684Y6057953D01*
X5394160Y6029874D01*
Y6000806D01*
X5401684Y5972727D01*
X5416218Y5947553D01*
X5436773Y5926998D01*
X5461947Y5912464D01*
X5490026Y5904940D01*
X5519094D01*
X5547173Y5912464D01*
X5550549Y5914413D01*
X5620914Y5844049D01*
Y5726256D01*
X5609180Y5721395D01*
X5455647Y5874929D01*
X5443044Y5883349D01*
X5428179Y5886306D01*
X5182941D01*
X5126757Y5942491D01*
Y7077760D01*
X5123800Y7092626D01*
X5115379Y7105229D01*
X4490819Y7729789D01*
X4478216Y7738210D01*
X4463350Y7741167D01*
X4364652D01*
X4348831Y7747720D01*
X4330769D01*
X4314083Y7740808D01*
X4301312Y7728037D01*
X4294400Y7711351D01*
Y7693289D01*
X4301312Y7676603D01*
X4314083Y7663832D01*
X4330769Y7656920D01*
X4348831D01*
X4364652Y7663474D01*
X4447259D01*
X5049064Y7061669D01*
Y5926400D01*
X5052021Y5911534D01*
X5060441Y5898932D01*
X5139382Y5819991D01*
X5151984Y5811571D01*
X5166850Y5808613D01*
X5412088D01*
X5644634Y5576068D01*
Y4136095D01*
X5644528Y4135989D01*
X5639446Y4132593D01*
X5564375Y4057522D01*
X5548553Y4050968D01*
X5535782Y4038197D01*
X5528870Y4021511D01*
Y4003449D01*
X5535782Y3986763D01*
X5548553Y3973992D01*
X5565239Y3967080D01*
X5583301D01*
X5599987Y3973992D01*
X5612758Y3986763D01*
X5619312Y4002585D01*
X5690988Y4074261D01*
X5696070Y4077656D01*
X5710949Y4092535D01*
X5719370Y4105138D01*
X5722327Y4120004D01*
Y4676514D01*
X5734060Y4681375D01*
X6056425Y4359009D01*
Y4306703D01*
X6059382Y4291837D01*
X6067803Y4279234D01*
X6298495Y4048542D01*
X6311098Y4040121D01*
X6325964Y4037164D01*
X7183432D01*
X7321018Y3899578D01*
X7327571Y3883757D01*
X7340342Y3870985D01*
X7357029Y3864074D01*
X7375090D01*
X7391776Y3870985D01*
X7404548Y3883757D01*
X7411459Y3900443D01*
Y3901786D01*
X7418029Y3905360D01*
X7424159Y3906383D01*
X7615151Y3715391D01*
X7627754Y3706970D01*
X7642619Y3704013D01*
X8899350D01*
X8914216Y3706970D01*
X8926819Y3715391D01*
X9507241Y4295814D01*
X10309079D01*
X10845839Y3759054D01*
X10852392Y3743233D01*
X10865163Y3730462D01*
X10881849Y3723550D01*
X10899911D01*
X10916597Y3730462D01*
X10929369Y3743233D01*
X10936280Y3759919D01*
Y3777981D01*
X10929369Y3794667D01*
X10916597Y3807438D01*
X10900776Y3813992D01*
X10352639Y4362129D01*
X10340036Y4370550D01*
X10325170Y4373507D01*
X9491150D01*
X9476284Y4370550D01*
X9463682Y4362129D01*
X8883259Y3781706D01*
X7946765D01*
X7944239Y3794406D01*
X7945837Y3795069D01*
X7958608Y3807840D01*
X7965520Y3824526D01*
Y3842588D01*
X7958608Y3859274D01*
X7952431Y3865452D01*
X7946960Y3873749D01*
X7952431Y3882045D01*
X7958608Y3888223D01*
X7965520Y3904909D01*
Y3922971D01*
X7958608Y3939657D01*
X7945837Y3952428D01*
X7929151Y3959340D01*
X7911089D01*
X7894403Y3952428D01*
X7889207Y3947232D01*
X7880910Y3940263D01*
X7872613Y3947232D01*
X7867417Y3952428D01*
X7850731Y3959340D01*
X7832669D01*
X7815983Y3952428D01*
X7803212Y3939657D01*
X7796300Y3922971D01*
Y3904909D01*
X7803212Y3888223D01*
X7809390Y3882045D01*
X7814860Y3873748D01*
X7809390Y3865452D01*
X7803212Y3859274D01*
X7796300Y3842588D01*
Y3824526D01*
X7803212Y3807840D01*
X7815983Y3795069D01*
X7817582Y3794406D01*
X7815055Y3781706D01*
X7658710D01*
X7586768Y3853648D01*
X7589167Y3865707D01*
X7601938Y3878478D01*
X7608850Y3895164D01*
Y3913226D01*
X7602296Y3929048D01*
Y3978645D01*
X7599339Y3993510D01*
X7590919Y4006113D01*
X7527077Y4069955D01*
Y4401133D01*
X7539777Y4409620D01*
X7548249Y4406110D01*
X7566310D01*
X7576533Y4399279D01*
Y4207375D01*
X7562053Y4201377D01*
X7549282Y4188605D01*
X7542370Y4171919D01*
Y4153858D01*
X7549282Y4137171D01*
X7562053Y4124400D01*
X7578739Y4117488D01*
X7596801D01*
X7613487Y4124400D01*
X7626258Y4137171D01*
X7632812Y4152993D01*
X7642849Y4163030D01*
X7651269Y4175632D01*
X7654227Y4190498D01*
Y4448141D01*
X7666927Y4457485D01*
X7673870Y4456104D01*
X7739800D01*
X7753859Y4450280D01*
X7771921D01*
X7788607Y4457192D01*
X7801378Y4469963D01*
X7808290Y4486649D01*
Y4504711D01*
X7801378Y4521397D01*
X7788607Y4534168D01*
X7771921Y4541080D01*
X7753859D01*
X7747592Y4538484D01*
X7737871Y4548204D01*
X7739170Y4551339D01*
Y4569401D01*
X7738826Y4570230D01*
X7748547Y4579951D01*
X7753859Y4577750D01*
X7771921D01*
X7788607Y4584662D01*
X7801378Y4597433D01*
X7807932Y4613255D01*
X8053211Y4858534D01*
X8137923D01*
X8142783Y4846800D01*
X8071723Y4775740D01*
X8068279D01*
X8051592Y4768828D01*
X8038821Y4756057D01*
X8031910Y4739371D01*
Y4721309D01*
X8038821Y4704623D01*
X8051592Y4691852D01*
X8052994Y4677525D01*
X8047910Y4665251D01*
Y4647189D01*
X8054822Y4630503D01*
X8067593Y4617732D01*
X8084279Y4610820D01*
X8102341D01*
X8119027Y4617732D01*
X8131798Y4630503D01*
X8138352Y4646325D01*
X8274361Y4782334D01*
X11631092D01*
X11645957Y4785291D01*
X11658560Y4793712D01*
X12209252Y5344404D01*
X12555398D01*
X12571219Y5337850D01*
X12589281D01*
X12605967Y5344762D01*
X12618739Y5357533D01*
X12625650Y5374219D01*
Y5392281D01*
X12618739Y5408967D01*
X12605967Y5421738D01*
X12589281Y5428650D01*
X12571219D01*
X12555398Y5422097D01*
X12249657D01*
X12244797Y5433830D01*
X12638685Y5827718D01*
X12647106Y5840321D01*
X12650063Y5855187D01*
Y5874268D01*
X12652498Y5876703D01*
X12659410Y5893389D01*
X12672110Y5899307D01*
X12679052Y5896432D01*
X12697113D01*
X12712650Y5902868D01*
X12725350Y5898301D01*
Y5897079D01*
X12732262Y5880393D01*
X12745033Y5867622D01*
X12761719Y5860710D01*
X12779781D01*
X12796467Y5867622D01*
X12809239Y5880393D01*
X12816150Y5897079D01*
Y5915141D01*
X12809239Y5931827D01*
X12796467Y5944598D01*
X12779781Y5951510D01*
X12761719D01*
X12746182Y5945074D01*
X12733482Y5949641D01*
Y5950863D01*
X12726571Y5967549D01*
X12713799Y5980321D01*
X12697113Y5987232D01*
X12679052D01*
X12662365Y5980321D01*
X12649594Y5967549D01*
X12642682Y5950863D01*
X12629982Y5944945D01*
X12623041Y5947820D01*
X12604979D01*
X12601526Y5946390D01*
X12590967Y5953446D01*
Y7280939D01*
X12591125Y7281098D01*
X12606947Y7287652D01*
X12619718Y7300423D01*
X12626630Y7317109D01*
Y7335171D01*
X12619718Y7351857D01*
X12606947Y7364628D01*
X12590261Y7371540D01*
X12572199D01*
X12563017Y7367736D01*
X12550317Y7376025D01*
Y7775470D01*
X12547359Y7790336D01*
X12538939Y7802939D01*
X12376109Y7965769D01*
X12363506Y7974190D01*
X12348640Y7977147D01*
X12163779D01*
X12149491Y7991434D01*
X12145731Y8000512D01*
X12132960Y8013283D01*
X12116273Y8020195D01*
X12098212D01*
X12081526Y8013283D01*
X12068754Y8000512D01*
X12061843Y7983826D01*
X12049143Y7979853D01*
X12044337Y7984658D01*
X12027651Y7991570D01*
X12009589D01*
X11992903Y7984658D01*
X11980132Y7971887D01*
X11973220Y7955201D01*
Y7937139D01*
X11980132Y7920453D01*
X11992903Y7907682D01*
X12008803Y7901096D01*
X12037167Y7872732D01*
X12049770Y7864311D01*
X12064636Y7861354D01*
X12316768D01*
X12434524Y7743598D01*
Y5898931D01*
X11565880Y5030287D01*
X7731741D01*
X7716875Y5027330D01*
X7704272Y5018909D01*
X7696483Y5011120D01*
X7693339D01*
X7690036Y5009752D01*
X7679477Y5016808D01*
Y5462568D01*
X7679859Y5463141D01*
X7682816Y5478007D01*
Y6109516D01*
X8296152Y6722851D01*
X8304572Y6735454D01*
X8307529Y6750320D01*
Y6901251D01*
X8314083Y6917073D01*
Y6935134D01*
X8307171Y6951820D01*
X8294400Y6964592D01*
X8277714Y6971503D01*
X8259652D01*
X8242966Y6964592D01*
X8230195Y6951820D01*
X8223283Y6935134D01*
Y6917073D01*
X8229836Y6901251D01*
Y6766411D01*
X8091880Y6628454D01*
X8080147Y6633314D01*
Y6909494D01*
X8092847Y6914508D01*
X8102073Y6905282D01*
X8118759Y6898370D01*
X8136821D01*
X8153507Y6905282D01*
X8166278Y6918053D01*
X8173190Y6934739D01*
Y6952801D01*
X8166278Y6969487D01*
X8153507Y6982258D01*
X8136821Y6989170D01*
X8118759D01*
X8102073Y6982258D01*
X8089302Y6969487D01*
X8088904Y6968527D01*
X8085158Y6967131D01*
X8074396Y6966689D01*
X8064224Y6976862D01*
X8047537Y6983773D01*
X8029476D01*
X8012790Y6976862D01*
X8000018Y6964090D01*
X7998784Y6961111D01*
X7985038D01*
X7981568Y6969487D01*
X7968797Y6982258D01*
X7952111Y6989170D01*
X7934049D01*
X7917363Y6982258D01*
X7905535Y6970430D01*
X7892036Y6969834D01*
X7891869Y6970237D01*
X7879097Y6983008D01*
X7862411Y6989920D01*
X7844350D01*
X7827663Y6983008D01*
X7814892Y6970237D01*
X7807980Y6953551D01*
Y6935489D01*
X7814892Y6918803D01*
X7824174Y6909521D01*
Y6468511D01*
X7772620Y6416957D01*
X7759920Y6422218D01*
Y6448142D01*
X7763680Y6457219D01*
Y6475281D01*
X7756768Y6491967D01*
X7743997Y6504738D01*
X7743449Y6504965D01*
X7740971Y6517422D01*
X7789209Y6565659D01*
X7797630Y6578262D01*
X7800587Y6593128D01*
Y6853950D01*
X7797630Y6868816D01*
X7789209Y6881419D01*
X7719312Y6951315D01*
X7712759Y6967137D01*
X7699987Y6979908D01*
X7683301Y6986820D01*
X7665239D01*
X7648553Y6979908D01*
X7635782Y6967137D01*
X7631765Y6957440D01*
X7618019D01*
X7614528Y6965867D01*
X7601757Y6978638D01*
X7585071Y6985550D01*
X7567009D01*
X7550323Y6978638D01*
X7537552Y6965867D01*
X7533717Y6956611D01*
X7518907Y6953461D01*
X7251952Y7220415D01*
X7245399Y7236237D01*
X7232627Y7249008D01*
X7215941Y7255920D01*
X7197879D01*
X7181193Y7249008D01*
X7168422Y7236237D01*
X7161510Y7219551D01*
Y7201489D01*
X7168422Y7184803D01*
X7181193Y7172032D01*
X7197015Y7165478D01*
X7342813Y7019680D01*
X7340414Y7007621D01*
X7327643Y6994850D01*
X7322383Y6982151D01*
X7319757Y6981628D01*
X7303071Y6988540D01*
X7285009D01*
X7268323Y6981628D01*
X7255552Y6968857D01*
X7248640Y6952171D01*
Y6934109D01*
X7255552Y6917423D01*
X7268323Y6904652D01*
X7285009Y6897740D01*
X7303071D01*
X7319757Y6904652D01*
X7332528Y6917423D01*
X7337788Y6930122D01*
X7340415Y6930644D01*
X7357101Y6923733D01*
X7374682D01*
Y6906152D01*
X7381594Y6889465D01*
X7394365Y6876694D01*
X7411051Y6869782D01*
X7429113D01*
X7445799Y6876694D01*
X7456819Y6887713D01*
X7465547Y6890853D01*
X7470629Y6891864D01*
X7657958Y6704534D01*
Y6635210D01*
X7651405Y6619389D01*
Y6601327D01*
X7658316Y6584641D01*
X7670662Y6572295D01*
X7670554Y6570028D01*
X7667534Y6559595D01*
X7605939D01*
X7590118Y6566149D01*
X7572056D01*
X7555370Y6559237D01*
X7542599Y6546466D01*
X7530540Y6544067D01*
X7503268Y6571339D01*
X7490666Y6579760D01*
X7475800Y6582717D01*
X6734444D01*
X6729184Y6595417D01*
X6734301Y6600534D01*
X6742722Y6613137D01*
X6745679Y6628003D01*
Y8075957D01*
X7033720D01*
X7051667Y8078320D01*
X7068392Y8085247D01*
X7082753Y8096267D01*
X7093773Y8110628D01*
X7100701Y8127353D01*
X7103063Y8145300D01*
Y8465800D01*
X7100701Y8483747D01*
X7093773Y8500472D01*
X7082753Y8514833D01*
X7068392Y8525853D01*
X7051667Y8532780D01*
X7033720Y8535143D01*
D02*
G37*
G36*
X5636748Y7043110D02*
X5610312D01*
X5584777Y7036268D01*
X5561883Y7023050D01*
X5543190Y7004357D01*
X5529972Y6981463D01*
X5523130Y6955928D01*
Y6929492D01*
X5529972Y6903957D01*
X5543190Y6881063D01*
X5561883Y6862370D01*
X5584777Y6849152D01*
X5610312Y6842310D01*
X5636748D01*
X5662283Y6849152D01*
X5685177Y6862370D01*
X5703870Y6881063D01*
X5717088Y6903957D01*
X5723930Y6929492D01*
Y6955928D01*
X5717088Y6981463D01*
X5703870Y7004357D01*
X5685177Y7023050D01*
X5662283Y7036268D01*
X5636748Y7043110D01*
D02*
G37*
G36*
X8979110Y7008250D02*
X8728310D01*
Y6787450D01*
X8979110D01*
Y7008250D01*
D02*
G37*
G36*
X12767571Y6679410D02*
X12749510D01*
X12732823Y6672498D01*
X12720052Y6659727D01*
X12713140Y6643041D01*
Y6624979D01*
X12720052Y6608293D01*
X12732823Y6595522D01*
X12749510Y6588610D01*
X12767571D01*
X12784257Y6595522D01*
X12797029Y6608293D01*
X12803940Y6624979D01*
Y6643041D01*
X12797029Y6659727D01*
X12784257Y6672498D01*
X12767571Y6679410D01*
D02*
G37*
G36*
X6144748Y6789110D02*
X6118312D01*
X6092777Y6782268D01*
X6069883Y6769050D01*
X6051190Y6750357D01*
X6037972Y6727463D01*
X6031130Y6701928D01*
Y6675492D01*
X6037972Y6649957D01*
X6051190Y6627063D01*
X6069883Y6608370D01*
X6092777Y6595152D01*
X6118312Y6588310D01*
X6144748D01*
X6170283Y6595152D01*
X6193177Y6608370D01*
X6211870Y6627063D01*
X6225088Y6649957D01*
X6231930Y6675492D01*
Y6701928D01*
X6225088Y6727463D01*
X6211870Y6750357D01*
X6193177Y6769050D01*
X6170283Y6782268D01*
X6144748Y6789110D01*
D02*
G37*
G36*
X7475361Y6452510D02*
X7457299D01*
X7440613Y6445598D01*
X7434792Y6439777D01*
X7427835Y6432832D01*
X7418198Y6439777D01*
X7413717Y6444258D01*
X7397031Y6451170D01*
X7378969D01*
X7362283Y6444258D01*
X7349512Y6431487D01*
X7342600Y6414801D01*
Y6396739D01*
X7349512Y6380053D01*
X7362283Y6367282D01*
X7378969Y6360370D01*
X7397031D01*
X7413717Y6367282D01*
X7419538Y6373103D01*
X7426495Y6380048D01*
X7436132Y6373103D01*
X7440613Y6368622D01*
X7457299Y6361710D01*
X7475361D01*
X7492047Y6368622D01*
X7504818Y6381393D01*
X7511730Y6398079D01*
Y6416141D01*
X7504818Y6432827D01*
X7492047Y6445598D01*
X7475361Y6452510D01*
D02*
G37*
G36*
X3188681Y6580047D02*
X3170619D01*
X3153933Y6573135D01*
X3141162Y6560364D01*
X3134250Y6543678D01*
Y6525616D01*
X3141162Y6508930D01*
X3150244Y6499848D01*
X3152645Y6491894D01*
X3150244Y6483940D01*
X3141162Y6474858D01*
X3134250Y6458171D01*
Y6440110D01*
X3141162Y6423424D01*
X3150565Y6414020D01*
X3152708Y6406160D01*
X3150565Y6398301D01*
X3141162Y6388897D01*
X3134250Y6372211D01*
Y6354149D01*
X3141162Y6337463D01*
X3153933Y6324692D01*
X3170619Y6317780D01*
Y6306000D01*
X3153933Y6299088D01*
X3141162Y6286317D01*
X3134250Y6269631D01*
Y6251569D01*
X3141162Y6234883D01*
X3153933Y6222112D01*
X3170619Y6215200D01*
X3188681D01*
X3205367Y6222112D01*
X3210270Y6227015D01*
X3218567Y6234496D01*
X3226864Y6227015D01*
X3231767Y6222112D01*
X3248453Y6215200D01*
X3266515D01*
X3283201Y6222112D01*
X3292283Y6231194D01*
X3300237Y6233595D01*
X3308191Y6231194D01*
X3317273Y6222112D01*
X3333959Y6215200D01*
X3352021D01*
X3368707Y6222112D01*
X3381478Y6234883D01*
X3388390Y6251569D01*
Y6269631D01*
X3381478Y6286317D01*
X3368707Y6299088D01*
X3352021Y6306000D01*
Y6317780D01*
X3368707Y6324692D01*
X3381478Y6337463D01*
X3388390Y6354149D01*
Y6372211D01*
X3381478Y6388897D01*
X3368707Y6401668D01*
X3352021Y6408580D01*
X3333959D01*
X3317273Y6401668D01*
X3308191Y6392586D01*
X3300237Y6390185D01*
X3292283Y6392586D01*
X3283201Y6401668D01*
X3266515Y6408580D01*
X3248453D01*
X3231767Y6401668D01*
X3226864Y6396765D01*
X3218567Y6389284D01*
X3210270Y6396765D01*
X3208735Y6398301D01*
X3206592Y6406160D01*
X3208735Y6414020D01*
X3218138Y6423424D01*
X3225050Y6440110D01*
Y6458171D01*
X3218138Y6474858D01*
X3209056Y6483940D01*
X3206655Y6491894D01*
X3209056Y6499848D01*
X3218138Y6508930D01*
X3225050Y6525616D01*
Y6543678D01*
X3218138Y6560364D01*
X3205367Y6573135D01*
X3188681Y6580047D01*
D02*
G37*
G36*
X6027094Y6379740D02*
X5998026D01*
X5969947Y6372216D01*
X5944773Y6357682D01*
X5924218Y6337127D01*
X5909684Y6311953D01*
X5902160Y6283874D01*
Y6254806D01*
X5909684Y6226727D01*
X5924218Y6201553D01*
X5944773Y6180998D01*
X5969947Y6166464D01*
X5998026Y6158940D01*
X6027094D01*
X6055173Y6166464D01*
X6080347Y6180998D01*
X6100902Y6201553D01*
X6115436Y6226727D01*
X6122960Y6254806D01*
Y6283874D01*
X6115436Y6311953D01*
X6100902Y6337127D01*
X6080347Y6357682D01*
X6055173Y6372216D01*
X6027094Y6379740D01*
D02*
G37*
G36*
X12879311Y6385082D02*
X12669310D01*
X12661506Y6383530D01*
X12654891Y6379109D01*
X12650470Y6372494D01*
X12648918Y6364690D01*
Y6174690D01*
X12650470Y6166886D01*
X12654891Y6160271D01*
X12661506Y6155850D01*
X12669310Y6154298D01*
X12879311D01*
X12887114Y6155850D01*
X12893729Y6160271D01*
X12898151Y6166886D01*
X12899702Y6174690D01*
Y6364690D01*
X12898151Y6372494D01*
X12893729Y6379109D01*
X12887114Y6383530D01*
X12879311Y6385082D01*
D02*
G37*
G36*
X6281094Y6125740D02*
X6252026D01*
X6223947Y6118216D01*
X6198773Y6103682D01*
X6178218Y6083127D01*
X6163684Y6057953D01*
X6156160Y6029874D01*
Y6000806D01*
X6163684Y5972727D01*
X6178218Y5947553D01*
X6198773Y5926998D01*
X6223947Y5912464D01*
X6252026Y5904940D01*
X6281094D01*
X6309173Y5912464D01*
X6334347Y5926998D01*
X6354902Y5947553D01*
X6369436Y5972727D01*
X6376960Y6000806D01*
Y6029874D01*
X6369436Y6057953D01*
X6354902Y6083127D01*
X6334347Y6103682D01*
X6309173Y6118216D01*
X6281094Y6125740D01*
D02*
G37*
G36*
X5265094D02*
X5236026D01*
X5207947Y6118216D01*
X5182773Y6103682D01*
X5162218Y6083127D01*
X5147684Y6057953D01*
X5140160Y6029874D01*
Y6000806D01*
X5147684Y5972727D01*
X5162218Y5947553D01*
X5182773Y5926998D01*
X5207947Y5912464D01*
X5236026Y5904940D01*
X5265094D01*
X5293173Y5912464D01*
X5318347Y5926998D01*
X5338902Y5947553D01*
X5353436Y5972727D01*
X5360960Y6000806D01*
Y6029874D01*
X5353436Y6057953D01*
X5338902Y6083127D01*
X5318347Y6103682D01*
X5293173Y6118216D01*
X5265094Y6125740D01*
D02*
G37*
G36*
X7788961Y5887180D02*
X7770899D01*
X7754213Y5880268D01*
X7741442Y5867497D01*
X7734530Y5850811D01*
Y5832749D01*
X7741442Y5816063D01*
X7754213Y5803292D01*
X7770035Y5796738D01*
X7823271Y5743501D01*
X7835874Y5735080D01*
X7850740Y5732123D01*
X7919308D01*
X7935129Y5725570D01*
X7953191D01*
X7969877Y5732482D01*
X7982648Y5745253D01*
X7989560Y5761939D01*
Y5780001D01*
X7982648Y5796687D01*
X7969877Y5809458D01*
X7953191Y5816370D01*
X7935129D01*
X7919308Y5809816D01*
X7866831D01*
X7824972Y5851675D01*
X7818418Y5867497D01*
X7805647Y5880268D01*
X7788961Y5887180D01*
D02*
G37*
G36*
X4376151Y5668517D02*
X4358089D01*
X4341403Y5661605D01*
X4328632Y5648834D01*
X4327778Y5646773D01*
X4314032D01*
X4313178Y5648834D01*
X4300407Y5661605D01*
X4283721Y5668517D01*
X4265659D01*
X4248973Y5661605D01*
X4236202Y5648834D01*
X4229290Y5632147D01*
Y5614086D01*
X4236202Y5597400D01*
X4245605Y5587996D01*
X4247748Y5580136D01*
X4245605Y5572277D01*
X4236202Y5562873D01*
X4229290Y5546187D01*
Y5528125D01*
X4236202Y5511439D01*
X4245284Y5502357D01*
X4247685Y5494403D01*
X4245284Y5486449D01*
X4236202Y5477367D01*
X4229290Y5460681D01*
Y5442619D01*
X4236202Y5425933D01*
X4248973Y5413162D01*
X4265659Y5406250D01*
X4283721D01*
X4300407Y5413162D01*
X4313178Y5425933D01*
X4314032Y5427993D01*
X4327778D01*
X4328632Y5425933D01*
X4341403Y5413162D01*
X4358089Y5406250D01*
X4376151D01*
X4392837Y5413162D01*
X4405608Y5425933D01*
X4412520Y5442619D01*
Y5460681D01*
X4405608Y5477367D01*
X4396526Y5486449D01*
X4394125Y5494403D01*
X4396526Y5502357D01*
X4405608Y5511439D01*
X4412520Y5528125D01*
Y5546187D01*
X4405608Y5562873D01*
X4396205Y5572277D01*
X4394062Y5580136D01*
X4396205Y5587996D01*
X4405608Y5597400D01*
X4412520Y5614086D01*
Y5632147D01*
X4405608Y5648834D01*
X4392837Y5661605D01*
X4376151Y5668517D01*
D02*
G37*
G36*
X4567900Y6685802D02*
X4560096Y6684250D01*
X4553480Y6679829D01*
X4398182Y6524531D01*
X3807370D01*
X3787687Y6521939D01*
X3769345Y6514342D01*
X3753594Y6502256D01*
X2973364Y5722026D01*
X2961278Y5706275D01*
X2953681Y5687934D01*
X2951089Y5668250D01*
Y3137509D01*
X957609Y1144029D01*
X934226Y1148680D01*
X904600D01*
X875543Y1142900D01*
X848172Y1131563D01*
X823538Y1115103D01*
X802590Y1094155D01*
X786130Y1069521D01*
X774793Y1042150D01*
X769013Y1013093D01*
Y983467D01*
X774793Y954410D01*
X786130Y927039D01*
X802590Y902406D01*
X823538Y881457D01*
X848172Y864998D01*
X875543Y853660D01*
X904600Y847880D01*
X934226D01*
X963283Y853660D01*
X990654Y864998D01*
X1015287Y881457D01*
X1036236Y902406D01*
X1052695Y927039D01*
X1064033Y954410D01*
X1069812Y983467D01*
Y1013093D01*
X1065161Y1036477D01*
X3080916Y3052232D01*
X3093002Y3067982D01*
X3100599Y3086324D01*
X3103191Y3106008D01*
Y3341895D01*
X3113510Y3348789D01*
X3131571D01*
X3148257Y3355701D01*
X3161028Y3368472D01*
X3167940Y3385159D01*
Y3403220D01*
X3161028Y3419906D01*
X3148257Y3432678D01*
X3131571Y3439589D01*
X3114773D01*
X3113510Y3441135D01*
Y3441842D01*
X3125570Y3454019D01*
X3131571D01*
X3148257Y3460931D01*
X3161028Y3473702D01*
X3167940Y3490388D01*
Y3508450D01*
X3161028Y3525136D01*
X3148257Y3537908D01*
X3147879Y3538064D01*
Y3551811D01*
X3152057Y3553542D01*
X3164829Y3566313D01*
X3171740Y3582999D01*
Y3601061D01*
X3164829Y3617747D01*
X3152057Y3630518D01*
X3135371Y3637430D01*
X3135805Y3649329D01*
X3152491Y3656241D01*
X3165262Y3669012D01*
X3172174Y3685698D01*
Y3703760D01*
X3165262Y3720446D01*
X3152491Y3733218D01*
X3143514Y3736936D01*
Y3750682D01*
X3152491Y3754401D01*
X3165262Y3767172D01*
X3172174Y3783859D01*
Y3801920D01*
X3165262Y3818606D01*
X3152491Y3831378D01*
X3135805Y3838289D01*
X3117743D01*
X3113750Y3836635D01*
X3103191Y3843691D01*
Y3879711D01*
X3113750Y3886767D01*
X3119103Y3884550D01*
X3137165D01*
X3153851Y3891461D01*
X3166623Y3904232D01*
X3173534Y3920919D01*
Y3938980D01*
X3166623Y3955666D01*
X3153851Y3968438D01*
X3137165Y3975349D01*
X3119103D01*
X3113750Y3973132D01*
X3103191Y3980188D01*
Y4003754D01*
X3115891Y4011774D01*
X3125533Y4007779D01*
X3143595D01*
X3160281Y4014691D01*
X3173053Y4027462D01*
X3179964Y4044149D01*
Y4062210D01*
X3173053Y4078896D01*
X3160281Y4091668D01*
X3143595Y4098579D01*
X3125533D01*
X3115891Y4094585D01*
X3103191Y4102605D01*
Y4129874D01*
X3115891Y4136798D01*
X3127403Y4132029D01*
X3145465D01*
X3162151Y4138941D01*
X3174923Y4151712D01*
X3181834Y4168399D01*
Y4183968D01*
X3188883Y4188704D01*
X3193567Y4190195D01*
X3283536Y4100226D01*
X3281137Y4088168D01*
X3268366Y4075396D01*
X3261454Y4058710D01*
Y4040649D01*
X3268366Y4023962D01*
X3281137Y4011191D01*
X3297823Y4004280D01*
X3315885D01*
X3332571Y4011191D01*
X3345342Y4023962D01*
X3357401Y4026361D01*
X3424803Y3958959D01*
Y3807441D01*
X3414823Y3804331D01*
X3412103Y3804172D01*
X3399857Y3816418D01*
X3383171Y3823330D01*
X3365109D01*
X3348423Y3816418D01*
X3335652Y3803647D01*
X3329098Y3787825D01*
X3229371Y3688099D01*
X3220951Y3675496D01*
X3217994Y3660630D01*
Y3004269D01*
X3220951Y2989403D01*
X3229371Y2976800D01*
X3244251Y2961921D01*
X3256853Y2953501D01*
X3271719Y2950544D01*
X4352210D01*
X4367076Y2953501D01*
X4379679Y2961921D01*
X4464475Y3046718D01*
X4480297Y3053272D01*
X4493068Y3066043D01*
X4499980Y3082729D01*
Y3100791D01*
X4499950Y3100864D01*
X4507006Y3111424D01*
X4535718D01*
X4551539Y3104870D01*
X4569601D01*
X4586287Y3111782D01*
X4599058Y3124553D01*
X4605970Y3141239D01*
Y3159301D01*
X4599058Y3175987D01*
X4586287Y3188758D01*
X4569601Y3195670D01*
X4551539D01*
X4535718Y3189117D01*
X4412405D01*
X4397539Y3186159D01*
X4384937Y3177739D01*
X4273535Y3066337D01*
X3333787D01*
Y3098898D01*
X3346487Y3103365D01*
X3362193Y3096859D01*
X3380255D01*
X3396941Y3103771D01*
X3409713Y3116542D01*
X3412709Y3123778D01*
X3426456D01*
X3430236Y3114652D01*
X3443007Y3101881D01*
X3459693Y3094969D01*
X3477755D01*
X3494441Y3101881D01*
X3507212Y3114652D01*
X3514124Y3131339D01*
Y3149400D01*
X3507212Y3166086D01*
X3494441Y3178858D01*
X3477755Y3185769D01*
X3459693D01*
X3443007Y3178858D01*
X3430236Y3166086D01*
X3427239Y3158851D01*
X3413492D01*
X3409713Y3167976D01*
X3396941Y3180748D01*
X3380255Y3187659D01*
X3362193D01*
X3346487Y3181153D01*
X3333787Y3185621D01*
Y3494653D01*
X3346487Y3497179D01*
X3347202Y3495453D01*
X3359973Y3482682D01*
X3376659Y3475770D01*
X3381447D01*
X3383973Y3463070D01*
X3373033Y3458538D01*
X3360262Y3445767D01*
X3353350Y3429081D01*
Y3411019D01*
X3360262Y3394333D01*
X3373033Y3381562D01*
X3389719Y3374650D01*
X3407781D01*
X3424467Y3381562D01*
X3437238Y3394333D01*
X3443792Y3410155D01*
X3529218Y3495581D01*
X3537639Y3508184D01*
X3540596Y3523050D01*
Y3990831D01*
X3537639Y4005697D01*
X3529218Y4018300D01*
X3191906Y4355612D01*
Y5595459D01*
X3339361Y5742914D01*
X4583077D01*
X4588338Y5730214D01*
X4582571Y5724447D01*
X4575660Y5707761D01*
Y5689699D01*
X4582571Y5673013D01*
X4595343Y5660242D01*
X4612029Y5653330D01*
X4630091D01*
X4646777Y5660242D01*
X4659013Y5672478D01*
X4671859Y5672073D01*
X4677425Y5662911D01*
X4673532Y5659017D01*
X4666620Y5642331D01*
Y5624269D01*
X4673532Y5607583D01*
X4686303Y5594812D01*
X4702989Y5587900D01*
X4721051D01*
X4737737Y5594812D01*
X4750508Y5607583D01*
X4757420Y5624269D01*
Y5642331D01*
X4750508Y5659017D01*
X4743836Y5665690D01*
X4751158Y5673013D01*
X4758070Y5689699D01*
Y5707761D01*
X4751158Y5724447D01*
X4745392Y5730214D01*
X4750652Y5742914D01*
X4836329D01*
X4862888Y5716355D01*
X4869442Y5700533D01*
X4882213Y5687762D01*
X4898899Y5680850D01*
X4916961D01*
X4933647Y5687762D01*
X4944667Y5698781D01*
X4953395Y5701921D01*
X4958477Y5702931D01*
X5004987Y5656421D01*
X5125820Y5535588D01*
Y5525739D01*
X5132732Y5509053D01*
X5145503Y5496282D01*
X5162189Y5489370D01*
X5180251D01*
X5196937Y5496282D01*
X5209708Y5509053D01*
X5216620Y5525739D01*
Y5543801D01*
X5209708Y5560487D01*
X5198085Y5572111D01*
X5195895Y5575387D01*
X5059926Y5711357D01*
X5059925Y5711358D01*
X4923954Y5847329D01*
X4911351Y5855750D01*
X4896486Y5858707D01*
X3341742D01*
X3336882Y5870440D01*
X3838871Y6372429D01*
X4423520D01*
X4443203Y6375021D01*
X4451695Y6378538D01*
X4735940D01*
X4743744Y6380090D01*
X4750359Y6384511D01*
X4754780Y6391126D01*
X4756332Y6398930D01*
Y6618222D01*
X4760010Y6623726D01*
X4761562Y6631530D01*
X4760010Y6639334D01*
X4755589Y6645949D01*
X4755589Y6645950D01*
X4721709Y6679829D01*
X4715094Y6684250D01*
X4707290Y6685802D01*
X4567901D01*
X4567900Y6685802D01*
D02*
G37*
G36*
X4752581Y5533740D02*
X4734519D01*
X4717833Y5526828D01*
X4705062Y5514057D01*
X4698150Y5497371D01*
Y5479309D01*
X4705062Y5462623D01*
X4717833Y5449852D01*
X4734519Y5442940D01*
X4752581D01*
X4769267Y5449852D01*
X4782038Y5462623D01*
X4788950Y5479309D01*
Y5497371D01*
X4782038Y5514057D01*
X4769267Y5526828D01*
X4752581Y5533740D01*
D02*
G37*
G36*
X5475532Y5434759D02*
X5457470D01*
X5440784Y5427847D01*
X5431702Y5418765D01*
X5423748Y5416364D01*
X5415794Y5418765D01*
X5406712Y5427847D01*
X5390026Y5434759D01*
X5371964D01*
X5355278Y5427847D01*
X5345874Y5418444D01*
X5338015Y5416301D01*
X5330155Y5418444D01*
X5320751Y5427847D01*
X5304065Y5434759D01*
X5286004D01*
X5269317Y5427847D01*
X5256546Y5415076D01*
X5249634Y5398390D01*
Y5380328D01*
X5256546Y5363642D01*
X5269317Y5350871D01*
X5271378Y5350017D01*
Y5336271D01*
X5269317Y5335417D01*
X5256546Y5322646D01*
X5249634Y5305960D01*
Y5287898D01*
X5256546Y5271212D01*
X5269317Y5258441D01*
X5286004Y5251529D01*
X5304065D01*
X5320751Y5258441D01*
X5330155Y5267844D01*
X5338015Y5269987D01*
X5345874Y5267844D01*
X5355278Y5258441D01*
X5371964Y5251529D01*
X5390026D01*
X5406712Y5258441D01*
X5415794Y5267523D01*
X5423748Y5269924D01*
X5431702Y5267523D01*
X5440784Y5258441D01*
X5457470Y5251529D01*
X5475532D01*
X5492218Y5258441D01*
X5504989Y5271212D01*
X5511901Y5287898D01*
Y5305960D01*
X5504989Y5322646D01*
X5492218Y5335417D01*
X5490158Y5336271D01*
Y5350017D01*
X5492218Y5350871D01*
X5504989Y5363642D01*
X5511901Y5380328D01*
Y5398390D01*
X5504989Y5415076D01*
X5492218Y5427847D01*
X5475532Y5434759D01*
D02*
G37*
G36*
X12748401Y5391760D02*
X12730339D01*
X12713653Y5384849D01*
X12700882Y5372077D01*
X12693970Y5355391D01*
Y5337329D01*
X12700882Y5320643D01*
X12713653Y5307872D01*
X12730339Y5300960D01*
X12748401D01*
X12765087Y5307872D01*
X12777858Y5320643D01*
X12784770Y5337329D01*
Y5355391D01*
X12777858Y5372077D01*
X12765087Y5384849D01*
X12748401Y5391760D01*
D02*
G37*
G36*
X7998211Y5233500D02*
X7980149D01*
X7963463Y5226588D01*
X7950692Y5213817D01*
X7943780Y5197131D01*
Y5179069D01*
X7950692Y5162383D01*
X7957753Y5155322D01*
X7962849Y5148441D01*
X7957753Y5138728D01*
X7952042Y5133017D01*
X7945130Y5116331D01*
Y5098269D01*
X7952042Y5081583D01*
X7964813Y5068812D01*
X7981499Y5061900D01*
X7999561D01*
X8016247Y5068812D01*
X8029018Y5081583D01*
X8042701Y5081428D01*
X8043772Y5078843D01*
X8056543Y5066072D01*
X8073229Y5059160D01*
X8091291D01*
X8107977Y5066072D01*
X8120748Y5078843D01*
X8127660Y5095529D01*
Y5113591D01*
X8120748Y5130277D01*
X8113687Y5137338D01*
X8108581Y5144200D01*
X8113687Y5153932D01*
X8119378Y5159623D01*
X8126290Y5176309D01*
Y5194371D01*
X8119378Y5211057D01*
X8106607Y5223829D01*
X8089921Y5230740D01*
X8071859D01*
X8055173Y5223829D01*
X8042402Y5211057D01*
X8028733Y5211246D01*
X8027668Y5213817D01*
X8014897Y5226588D01*
X7998211Y5233500D01*
D02*
G37*
G36*
X9118381Y4699013D02*
X9100319D01*
X9083633Y4692102D01*
X9076220Y4684689D01*
X9070410Y4679546D01*
X9059627Y4684689D01*
X9054647Y4689668D01*
X9037961Y4696580D01*
X9019899D01*
X9003213Y4689668D01*
X8998017Y4684472D01*
X8989720Y4677503D01*
X8981423Y4684472D01*
X8976227Y4689668D01*
X8959541Y4696580D01*
X8941479D01*
X8924793Y4689668D01*
X8912022Y4676897D01*
X8905110Y4660211D01*
Y4642149D01*
X8912022Y4625463D01*
X8918200Y4619285D01*
X8923670Y4610988D01*
X8918200Y4602692D01*
X8912022Y4596514D01*
X8905110Y4579828D01*
Y4561766D01*
X8912022Y4545080D01*
X8924793Y4532308D01*
X8941479Y4525397D01*
X8959541D01*
X8976227Y4532308D01*
X8981423Y4537505D01*
X8989720Y4544474D01*
X8998017Y4537505D01*
X9003213Y4532308D01*
X9019899Y4525397D01*
X9037961D01*
X9054647Y4532308D01*
X9062060Y4539721D01*
X9067870Y4544864D01*
X9078653Y4539721D01*
X9083633Y4534742D01*
X9100319Y4527830D01*
X9118381D01*
X9135067Y4534742D01*
X9147838Y4547513D01*
X9154750Y4564199D01*
Y4582261D01*
X9147838Y4598947D01*
X9141661Y4605125D01*
X9136190Y4613422D01*
X9141661Y4621718D01*
X9147838Y4627896D01*
X9154750Y4644583D01*
Y4662644D01*
X9147838Y4679330D01*
X9135067Y4692102D01*
X9118381Y4699013D01*
D02*
G37*
G36*
X12839432Y4567913D02*
X12821368D01*
X12804683Y4561002D01*
X12797270Y4553589D01*
X12791460Y4548446D01*
X12780677Y4553589D01*
X12775697Y4558568D01*
X12759011Y4565480D01*
X12740949D01*
X12724263Y4558568D01*
X12719067Y4553372D01*
X12710770Y4546403D01*
X12702473Y4553372D01*
X12697277Y4558568D01*
X12680591Y4565480D01*
X12662529D01*
X12645843Y4558568D01*
X12633072Y4545797D01*
X12626160Y4529111D01*
Y4511049D01*
X12633072Y4494363D01*
X12639250Y4488185D01*
X12644720Y4479888D01*
X12639250Y4471592D01*
X12633072Y4465414D01*
X12626160Y4448727D01*
Y4430666D01*
X12633072Y4413980D01*
X12645843Y4401208D01*
X12662529Y4394297D01*
X12680591D01*
X12697277Y4401208D01*
X12702473Y4406405D01*
X12710770Y4413373D01*
X12719067Y4406405D01*
X12724263Y4401208D01*
X12740949Y4394297D01*
X12759011D01*
X12775697Y4401208D01*
X12783110Y4408621D01*
X12788920Y4413764D01*
X12799703Y4408621D01*
X12804683Y4403642D01*
X12821368Y4396730D01*
X12839432D01*
X12856117Y4403642D01*
X12868887Y4416413D01*
X12875800Y4433099D01*
Y4451161D01*
X12868887Y4467847D01*
X12862711Y4474025D01*
X12857240Y4482322D01*
X12862711Y4490618D01*
X12868887Y4496796D01*
X12875800Y4513482D01*
Y4531544D01*
X12868887Y4548230D01*
X12856117Y4561002D01*
X12839432Y4567913D01*
D02*
G37*
G36*
X3466359Y5391672D02*
X3300130D01*
X3292326Y5390120D01*
X3285711Y5385699D01*
X3281290Y5379084D01*
X3279738Y5371280D01*
Y4877020D01*
X3281290Y4869216D01*
X3285711Y4862601D01*
X3285711Y4862600D01*
X3656031Y4492281D01*
X3662646Y4487860D01*
X3670450Y4486308D01*
X4871973Y4486308D01*
X5202130Y4156151D01*
X5208746Y4151730D01*
X5216550Y4150178D01*
X5386979D01*
X5386980Y4150178D01*
X5394784Y4151730D01*
X5401399Y4156151D01*
X5426599Y4181351D01*
X5431020Y4187966D01*
X5432572Y4195770D01*
Y4375240D01*
X5431020Y4383044D01*
X5426599Y4389659D01*
X5426598Y4389660D01*
X5074409Y4741849D01*
X5067794Y4746270D01*
X5059990Y4747822D01*
X4952940D01*
Y4939310D01*
X4751340D01*
Y4747822D01*
X3763527D01*
X3558572Y4952777D01*
Y5299458D01*
X3558572Y5299459D01*
X3557020Y5307262D01*
X3552599Y5313878D01*
X3552599Y5313879D01*
X3480778Y5385699D01*
X3474163Y5390120D01*
X3466359Y5391672D01*
D02*
G37*
G36*
X3318805Y3971259D02*
X3300743D01*
X3284057Y3964348D01*
X3271286Y3951576D01*
X3264374Y3934890D01*
Y3916829D01*
X3271286Y3900142D01*
X3284057Y3887371D01*
X3300743Y3880459D01*
X3318805D01*
X3335491Y3887371D01*
X3348263Y3900142D01*
X3355174Y3916829D01*
Y3934890D01*
X3348263Y3951576D01*
X3335491Y3964348D01*
X3318805Y3971259D01*
D02*
G37*
G36*
X6953073Y3877297D02*
X6935012D01*
X6918326Y3870385D01*
X6913129Y3865189D01*
X6905540Y3857627D01*
X6896536Y3865189D01*
X6892047Y3869678D01*
X6875361Y3876590D01*
X6857299D01*
X6840613Y3869678D01*
X6827842Y3856907D01*
X6820930Y3840221D01*
Y3822159D01*
X6827842Y3805473D01*
X6840613Y3792702D01*
X6857299Y3785790D01*
X6875361D01*
X6892047Y3792702D01*
X6897243Y3797898D01*
X6904833Y3805461D01*
X6913837Y3797898D01*
X6918326Y3793409D01*
X6935012Y3786497D01*
X6953073D01*
X6969760Y3793409D01*
X6982531Y3806180D01*
X6989443Y3822866D01*
Y3840928D01*
X6982531Y3857614D01*
X6969760Y3870385D01*
X6953073Y3877297D01*
D02*
G37*
G36*
X3989115Y3625179D02*
X3971054D01*
X3954367Y3618268D01*
X3941596Y3605496D01*
X3934684Y3588810D01*
Y3570749D01*
X3941596Y3554062D01*
X3954367Y3541291D01*
X3971054Y3534379D01*
X3989115D01*
X4005801Y3541291D01*
X4018573Y3554062D01*
X4025484Y3570749D01*
Y3588810D01*
X4018573Y3605496D01*
X4005801Y3618268D01*
X3989115Y3625179D01*
D02*
G37*
G36*
X4103155Y3624659D02*
X4085093D01*
X4068407Y3617748D01*
X4055636Y3604976D01*
X4048724Y3588290D01*
Y3570229D01*
X4055636Y3553542D01*
X4068407Y3540771D01*
X4085093Y3533859D01*
X4103155D01*
X4119841Y3540771D01*
X4132613Y3553542D01*
X4139524Y3570229D01*
Y3588290D01*
X4132613Y3604976D01*
X4119841Y3617748D01*
X4103155Y3624659D01*
D02*
G37*
G36*
X12860780Y3721402D02*
X12650780D01*
X12642976Y3719850D01*
X12636361Y3715429D01*
X12631940Y3708814D01*
X12630388Y3701010D01*
Y3511010D01*
X12631940Y3503206D01*
X12636361Y3496591D01*
X12642976Y3492170D01*
X12650780Y3490618D01*
X12860780D01*
X12868584Y3492170D01*
X12875200Y3496591D01*
X12879620Y3503206D01*
X12881172Y3511010D01*
Y3701010D01*
X12879620Y3708814D01*
X12875200Y3715429D01*
X12868584Y3719850D01*
X12860780Y3721402D01*
D02*
G37*
G36*
X9036003Y3612240D02*
X9010778D01*
X8986413Y3605711D01*
X8964568Y3593099D01*
X8946731Y3575263D01*
X8934119Y3553417D01*
X8927590Y3529052D01*
Y3503828D01*
X8934119Y3479463D01*
X8946731Y3457617D01*
X8964568Y3439781D01*
X8986413Y3427169D01*
X9010778Y3420640D01*
X9036003D01*
X9060367Y3427169D01*
X9082213Y3439781D01*
X9100049Y3457617D01*
X9112661Y3479463D01*
X9119190Y3503828D01*
Y3529052D01*
X9112661Y3553417D01*
X9100049Y3575263D01*
X9082213Y3593099D01*
X9060367Y3605711D01*
X9036003Y3612240D01*
D02*
G37*
G36*
X3984975Y3507509D02*
X3966913D01*
X3950227Y3500598D01*
X3937456Y3487826D01*
X3930544Y3471140D01*
Y3453078D01*
X3937456Y3436392D01*
X3950227Y3423621D01*
X3966913Y3416709D01*
X3984975D01*
X4001661Y3423621D01*
X4014432Y3436392D01*
X4021344Y3453078D01*
Y3471140D01*
X4014432Y3487826D01*
X4001661Y3500598D01*
X3984975Y3507509D01*
D02*
G37*
G36*
X4097455Y3506989D02*
X4079393D01*
X4062707Y3500078D01*
X4049936Y3487306D01*
X4043024Y3470620D01*
Y3452558D01*
X4049936Y3435872D01*
X4062707Y3423101D01*
X4079393Y3416189D01*
X4097455D01*
X4114141Y3423101D01*
X4126912Y3435872D01*
X4133824Y3452558D01*
Y3470620D01*
X4126912Y3487306D01*
X4114141Y3500078D01*
X4097455Y3506989D01*
D02*
G37*
G36*
X5898983Y3501565D02*
X5880921D01*
X5864235Y3494653D01*
X5851464Y3481882D01*
X5844552Y3465196D01*
Y3447134D01*
X5851464Y3430448D01*
X5864235Y3417676D01*
X5880921Y3410765D01*
X5898983D01*
X5915669Y3417676D01*
X5928440Y3430448D01*
X5935352Y3447134D01*
Y3465196D01*
X5928440Y3481882D01*
X5915669Y3494653D01*
X5898983Y3501565D01*
D02*
G37*
G36*
X6707671Y3439090D02*
X6689609D01*
X6672923Y3432178D01*
X6660152Y3419407D01*
X6653240Y3402721D01*
Y3384659D01*
X6660152Y3367973D01*
X6672923Y3355202D01*
X6689609Y3348290D01*
X6707671D01*
X6724357Y3355202D01*
X6737129Y3367973D01*
X6744040Y3384659D01*
Y3402721D01*
X6737129Y3419407D01*
X6724357Y3432178D01*
X6707671Y3439090D01*
D02*
G37*
G36*
X10231371Y3436350D02*
X10213309D01*
X10196623Y3429438D01*
X10183852Y3416667D01*
X10176940Y3399981D01*
Y3381919D01*
X10183852Y3365233D01*
X10196623Y3352462D01*
X10213309Y3345550D01*
X10231371D01*
X10248057Y3352462D01*
X10260828Y3365233D01*
X10267740Y3381919D01*
Y3399981D01*
X10260828Y3416667D01*
X10248057Y3429438D01*
X10231371Y3436350D01*
D02*
G37*
G36*
X7558591Y3324590D02*
X7540529D01*
X7523843Y3317678D01*
X7511072Y3304907D01*
X7499834Y3302672D01*
X7499527Y3302978D01*
X7482841Y3309890D01*
X7464779D01*
X7448093Y3302978D01*
X7435322Y3290207D01*
X7428410Y3273521D01*
Y3255459D01*
X7435322Y3238773D01*
X7448093Y3226002D01*
X7463915Y3219448D01*
X7679282Y3004081D01*
X7691884Y2995661D01*
X7706750Y2992703D01*
X12215891D01*
X12230757Y2995661D01*
X12243359Y3004081D01*
X12322970Y3083692D01*
X12332047Y3087452D01*
X12344818Y3100223D01*
X12351730Y3116909D01*
Y3134971D01*
X12344818Y3151657D01*
X12332047Y3164428D01*
X12315361Y3171340D01*
X12297299D01*
X12280613Y3164428D01*
X12267842Y3151657D01*
X12260930Y3134971D01*
Y3131526D01*
X12199800Y3070396D01*
X11875599D01*
X11873073Y3083096D01*
X11883587Y3087452D01*
X11896358Y3100223D01*
X11903270Y3116909D01*
Y3134971D01*
X11896358Y3151657D01*
X11883587Y3164428D01*
X11866901Y3171340D01*
X11848839D01*
X11832153Y3164428D01*
X11819382Y3151657D01*
X11812828Y3135835D01*
X11795260Y3118267D01*
X7765421D01*
X7594602Y3289085D01*
X7588048Y3304907D01*
X7575277Y3317678D01*
X7558591Y3324590D01*
D02*
G37*
G36*
X10999311Y3246310D02*
X10981249D01*
X10964563Y3239398D01*
X10951792Y3226627D01*
X10944880Y3209941D01*
Y3191879D01*
X10951792Y3175193D01*
X10964563Y3162422D01*
X10981249Y3155510D01*
X10999311D01*
X11015997Y3162422D01*
X11028768Y3175193D01*
X11035680Y3191879D01*
Y3209941D01*
X11028768Y3226627D01*
X11015997Y3239398D01*
X10999311Y3246310D01*
D02*
G37*
G36*
X3881531Y4283730D02*
X3863469D01*
X3846783Y4276818D01*
X3834012Y4264047D01*
X3827100Y4247361D01*
Y4229299D01*
X3833653Y4213478D01*
Y3231683D01*
X3836611Y3216818D01*
X3845031Y3204215D01*
X3925572Y3123674D01*
X3932126Y3107852D01*
X3944897Y3095081D01*
X3961583Y3088169D01*
X3979645D01*
X3996331Y3095081D01*
X4009102Y3107852D01*
X4016014Y3124539D01*
Y3142600D01*
X4009102Y3159286D01*
X3996331Y3172058D01*
X3980509Y3178611D01*
X3911347Y3247774D01*
Y4213478D01*
X3917900Y4229299D01*
Y4247361D01*
X3910988Y4264047D01*
X3898217Y4276818D01*
X3881531Y4283730D01*
D02*
G37*
G36*
X10871420Y2962507D02*
X10844897Y2959015D01*
X10820182Y2948777D01*
X10798958Y2932492D01*
X10782672Y2911268D01*
X10772435Y2886553D01*
X10768943Y2860030D01*
Y2812430D01*
X10772435Y2785907D01*
X10782672Y2761192D01*
X10798958Y2739968D01*
X10820182Y2723683D01*
X10844897Y2713445D01*
X10871420Y2709953D01*
X10897943Y2713445D01*
X10922658Y2723683D01*
X10943882Y2739968D01*
X10960168Y2761192D01*
X10970405Y2785907D01*
X10973897Y2812430D01*
Y2860030D01*
X10970405Y2886553D01*
X10960168Y2911268D01*
X10943882Y2932492D01*
X10922658Y2948777D01*
X10897943Y2959015D01*
X10871420Y2962507D01*
D02*
G37*
G36*
X10197930Y2955647D02*
X10171407Y2952155D01*
X10146692Y2941917D01*
X10125468Y2925632D01*
X10109183Y2904408D01*
X10098945Y2879693D01*
X10095454Y2853170D01*
Y2805570D01*
X10098945Y2779047D01*
X10109183Y2754332D01*
X10125468Y2733108D01*
X10146692Y2716823D01*
X10171407Y2706585D01*
X10197930Y2703093D01*
X10224453Y2706585D01*
X10249169Y2716823D01*
X10270392Y2733108D01*
X10286678Y2754332D01*
X10296915Y2779047D01*
X10300407Y2805570D01*
Y2853170D01*
X10296915Y2879693D01*
X10286678Y2904408D01*
X10270392Y2925632D01*
X10249169Y2941917D01*
X10224453Y2952155D01*
X10197930Y2955647D01*
D02*
G37*
G36*
X7290851Y2659670D02*
X7272789D01*
X7256103Y2652758D01*
X7256001Y2652657D01*
X7111329D01*
X7096618Y2658750D01*
X7078556D01*
X7061870Y2651838D01*
X7049099Y2639067D01*
X7042187Y2622381D01*
Y2604319D01*
X7049099Y2587633D01*
X7061870Y2574862D01*
X7078556Y2567950D01*
X7096618D01*
X7113304Y2574862D01*
X7113406Y2574964D01*
X7258078D01*
X7272789Y2568870D01*
X7290851D01*
X7307537Y2575782D01*
X7320308Y2588553D01*
X7327220Y2605239D01*
Y2623301D01*
X7320308Y2639987D01*
X7307537Y2652758D01*
X7290851Y2659670D01*
D02*
G37*
G36*
X4232821Y2889560D02*
X4214759D01*
X4198073Y2882648D01*
X4185302Y2869877D01*
X4178390Y2853191D01*
Y2835129D01*
X4185302Y2818443D01*
X4194384Y2809361D01*
X4196785Y2801407D01*
X4194384Y2793453D01*
X4185302Y2784371D01*
X4178390Y2767685D01*
Y2749623D01*
X4185302Y2732937D01*
X4194706Y2723533D01*
X4196848Y2715674D01*
X4194706Y2707814D01*
X4185302Y2698410D01*
X4178390Y2681724D01*
Y2663662D01*
X4185302Y2646976D01*
X4198073Y2634205D01*
X4214759Y2627293D01*
X4232821D01*
X4249507Y2634205D01*
X4262278Y2646976D01*
X4264661Y2652727D01*
X4278407D01*
X4281338Y2645651D01*
X4294110Y2632880D01*
X4310796Y2625968D01*
X4328857D01*
X4345544Y2632880D01*
X4358315Y2645651D01*
X4359168Y2647711D01*
X4372915D01*
X4373768Y2645651D01*
X4386540Y2632880D01*
X4403226Y2625968D01*
X4421287D01*
X4437974Y2632880D01*
X4450745Y2645651D01*
X4457657Y2662337D01*
Y2680399D01*
X4450745Y2697085D01*
X4441341Y2706489D01*
X4439198Y2714348D01*
X4441341Y2722208D01*
X4450745Y2731612D01*
X4457657Y2748298D01*
Y2766359D01*
X4450745Y2783046D01*
X4441663Y2792128D01*
X4439261Y2800082D01*
X4441663Y2808036D01*
X4450745Y2817118D01*
X4457657Y2833804D01*
Y2851866D01*
X4450745Y2868552D01*
X4437974Y2881323D01*
X4421287Y2888235D01*
X4403226D01*
X4386540Y2881323D01*
X4373768Y2868552D01*
X4372915Y2866491D01*
X4359168D01*
X4358315Y2868552D01*
X4345544Y2881323D01*
X4328857Y2888235D01*
X4310796D01*
X4294110Y2881323D01*
X4281338Y2868552D01*
X4278956Y2862801D01*
X4265209D01*
X4262278Y2869877D01*
X4249507Y2882648D01*
X4232821Y2889560D01*
D02*
G37*
G36*
X9205570Y2607219D02*
X9187509D01*
X9170822Y2600307D01*
X9158051Y2587536D01*
X9151139Y2570850D01*
Y2552788D01*
X9158051Y2536102D01*
X9170822Y2523330D01*
X9187509Y2516419D01*
X9205570D01*
X9222256Y2523330D01*
X9235028Y2536102D01*
X9241939Y2552788D01*
Y2570850D01*
X9235028Y2587536D01*
X9222256Y2600307D01*
X9205570Y2607219D01*
D02*
G37*
G36*
X9333840Y2603679D02*
X9315779D01*
X9299092Y2596767D01*
X9286321Y2583996D01*
X9279409Y2567310D01*
Y2549248D01*
X9286321Y2532562D01*
X9299092Y2519790D01*
X9315779Y2512879D01*
X9333840D01*
X9350526Y2519790D01*
X9363298Y2532562D01*
X9370209Y2549248D01*
Y2567310D01*
X9363298Y2583996D01*
X9350526Y2596767D01*
X9333840Y2603679D01*
D02*
G37*
G36*
X8084200Y2591209D02*
X8066139D01*
X8049452Y2584297D01*
X8036681Y2571526D01*
X8029769Y2554840D01*
Y2536778D01*
X8036681Y2520092D01*
X8049452Y2507321D01*
X8066139Y2500409D01*
X8084200D01*
X8100886Y2507321D01*
X8113658Y2520092D01*
X8120569Y2536778D01*
Y2554840D01*
X8113658Y2571526D01*
X8100886Y2584297D01*
X8084200Y2591209D01*
D02*
G37*
G36*
X5517541Y2588400D02*
X5499479D01*
X5482793Y2581488D01*
X5470022Y2568717D01*
X5463110Y2552031D01*
Y2533969D01*
X5470022Y2517283D01*
X5482793Y2504512D01*
X5499479Y2497600D01*
X5517541D01*
X5534227Y2504512D01*
X5546998Y2517283D01*
X5553910Y2533969D01*
Y2552031D01*
X5546998Y2568717D01*
X5534227Y2581488D01*
X5517541Y2588400D01*
D02*
G37*
G36*
X5389381Y2586910D02*
X5371319D01*
X5354633Y2579998D01*
X5341862Y2567227D01*
X5334950Y2550541D01*
Y2532479D01*
X5341862Y2515793D01*
X5354633Y2503022D01*
X5371319Y2496110D01*
X5389381D01*
X5406067Y2503022D01*
X5418838Y2515793D01*
X5425750Y2532479D01*
Y2550541D01*
X5418838Y2567227D01*
X5406067Y2579998D01*
X5389381Y2586910D01*
D02*
G37*
G36*
X8208621Y2585550D02*
X8190559D01*
X8173873Y2578638D01*
X8161102Y2565867D01*
X8154190Y2549181D01*
Y2531119D01*
X8161102Y2514433D01*
X8173873Y2501662D01*
X8190559Y2494750D01*
X8208621D01*
X8225307Y2501662D01*
X8238079Y2514433D01*
X8244990Y2531119D01*
Y2549181D01*
X8238079Y2565867D01*
X8225307Y2578638D01*
X8208621Y2585550D01*
D02*
G37*
G36*
X6803470Y2576189D02*
X6785409D01*
X6768722Y2569277D01*
X6755951Y2556506D01*
X6749039Y2539820D01*
Y2521758D01*
X6755951Y2505072D01*
X6768722Y2492301D01*
X6785409Y2485389D01*
X6803470D01*
X6820156Y2492301D01*
X6832928Y2505072D01*
X6839839Y2521758D01*
Y2539820D01*
X6832928Y2556506D01*
X6820156Y2569277D01*
X6803470Y2576189D01*
D02*
G37*
G36*
X6667611Y2573340D02*
X6649549D01*
X6632863Y2566428D01*
X6620092Y2553657D01*
X6613180Y2536971D01*
Y2518909D01*
X6620092Y2502223D01*
X6632863Y2489452D01*
X6649549Y2482540D01*
X6667611D01*
X6684297Y2489452D01*
X6697068Y2502223D01*
X6703980Y2518909D01*
Y2536971D01*
X6697068Y2553657D01*
X6684297Y2566428D01*
X6667611Y2573340D01*
D02*
G37*
G36*
X8561941Y2788570D02*
X8543879D01*
X8527193Y2781658D01*
X8514422Y2768887D01*
X8507510Y2752201D01*
Y2734139D01*
X8514063Y2718318D01*
Y2511881D01*
X8434319Y2432137D01*
X6003250D01*
X5988384Y2429180D01*
X5975781Y2420759D01*
X5843411Y2288388D01*
X5834990Y2275786D01*
X5832033Y2260920D01*
Y2190772D01*
X5825480Y2174951D01*
Y2156889D01*
X5832391Y2140203D01*
X5845163Y2127432D01*
X5861849Y2120520D01*
X5870496D01*
X5879954Y2110187D01*
X5879960Y2108787D01*
Y2092120D01*
X5871059Y2080420D01*
X5863409D01*
X5846723Y2073508D01*
X5833952Y2060737D01*
X5827040Y2044051D01*
Y2025989D01*
X5833952Y2009303D01*
X5846723Y1996531D01*
X5863409Y1989620D01*
X5881471D01*
X5897292Y1996173D01*
X6487397D01*
X6509709Y1973862D01*
X6522312Y1965441D01*
X6537177Y1962484D01*
X7100218D01*
X7115084Y1965441D01*
X7127687Y1973862D01*
X7138837Y1985012D01*
X7152910D01*
X7161988Y1981252D01*
X7180049D01*
X7195871Y1987805D01*
X7962448D01*
X7992101Y1958152D01*
X8004704Y1949731D01*
X8019570Y1946774D01*
X8386180D01*
X8401046Y1949731D01*
X8413649Y1958152D01*
X8459121Y2003624D01*
X8517543D01*
X8526676Y2001807D01*
X8556068D01*
X8558503Y1999372D01*
X8575189Y1992460D01*
X8593251D01*
X8609072Y1999014D01*
X9082900D01*
X9107741Y1974171D01*
X9120344Y1965750D01*
X9135210Y1962793D01*
X9523700D01*
X9538566Y1965750D01*
X9551168Y1974171D01*
X9566041Y1989044D01*
X9680398D01*
X9696219Y1982490D01*
X9714281D01*
X9730967Y1989402D01*
X9743738Y2002173D01*
X9750650Y2018859D01*
Y2036921D01*
X9743738Y2053607D01*
X9730967Y2066378D01*
X9725386Y2068690D01*
X9727912Y2081390D01*
X9742781D01*
X9759467Y2088302D01*
X9772239Y2101073D01*
X9779150Y2117759D01*
Y2135821D01*
X9779124Y2135884D01*
X9787118Y2149772D01*
X9793147Y2150972D01*
X9805750Y2159393D01*
X9820629Y2174272D01*
X9829049Y2186874D01*
X9832006Y2201740D01*
Y2284710D01*
X9829049Y2299576D01*
X9820629Y2312179D01*
X9742219Y2390589D01*
X9729616Y2399009D01*
X9714750Y2401966D01*
X8925921D01*
X8787096Y2540791D01*
Y2718238D01*
X8793650Y2734059D01*
Y2752121D01*
X8786738Y2768807D01*
X8773967Y2781578D01*
X8757281Y2788490D01*
X8739219D01*
X8722533Y2781578D01*
X8709762Y2768807D01*
X8702850Y2752121D01*
Y2734059D01*
X8709403Y2718238D01*
Y2524700D01*
X8712361Y2509834D01*
X8720781Y2497231D01*
X8882361Y2335651D01*
X8894964Y2327231D01*
X8909830Y2324273D01*
X9142263D01*
X9147123Y2312540D01*
X9107920Y2273337D01*
X8602462D01*
X8586641Y2279890D01*
X8568579D01*
X8552758Y2273337D01*
X8453771D01*
X8422497Y2304610D01*
X8427357Y2316344D01*
X8466192D01*
X8481057Y2319301D01*
X8493660Y2327722D01*
X8656155Y2490217D01*
X8664576Y2502819D01*
X8667533Y2517685D01*
Y2712068D01*
X8674087Y2727890D01*
Y2745952D01*
X8667175Y2762638D01*
X8654404Y2775409D01*
X8637718Y2782321D01*
X8619656D01*
X8602970Y2775409D01*
X8601858Y2774297D01*
X8585641Y2774644D01*
X8578627Y2781658D01*
X8561941Y2788570D01*
D02*
G37*
G36*
X10871420Y2200507D02*
X10844897Y2197015D01*
X10820182Y2186777D01*
X10798958Y2170492D01*
X10782672Y2149268D01*
X10772435Y2124553D01*
X10768943Y2098030D01*
Y2050430D01*
X10772435Y2023907D01*
X10782672Y1999192D01*
X10798958Y1977968D01*
X10820182Y1961683D01*
X10844897Y1951445D01*
X10871420Y1947953D01*
X10897943Y1951445D01*
X10922658Y1961683D01*
X10943882Y1977968D01*
X10960168Y1999192D01*
X10970405Y2023907D01*
X10973897Y2050430D01*
Y2098030D01*
X10970405Y2124553D01*
X10960168Y2149268D01*
X10943882Y2170492D01*
X10922658Y2186777D01*
X10897943Y2197015D01*
X10871420Y2200507D01*
D02*
G37*
G36*
X10197930Y2193647D02*
X10171407Y2190155D01*
X10146692Y2179917D01*
X10125468Y2163632D01*
X10109183Y2142408D01*
X10098945Y2117693D01*
X10095454Y2091170D01*
Y2043570D01*
X10098945Y2017047D01*
X10109183Y1992332D01*
X10125468Y1971108D01*
X10146692Y1954823D01*
X10171407Y1944585D01*
X10197930Y1941093D01*
X10224453Y1944585D01*
X10249169Y1954823D01*
X10270392Y1971108D01*
X10286678Y1992332D01*
X10296915Y2017047D01*
X10300407Y2043570D01*
Y2091170D01*
X10296915Y2117693D01*
X10286678Y2142408D01*
X10270392Y2163632D01*
X10249169Y2179917D01*
X10224453Y2190155D01*
X10197930Y2193647D01*
D02*
G37*
G36*
X1300620Y2176638D02*
X1271000D01*
X1241949Y2170859D01*
X1214584Y2159524D01*
X1189956Y2143068D01*
X1169012Y2122124D01*
X1152556Y2097496D01*
X1141221Y2070131D01*
X1135442Y2041080D01*
Y2011460D01*
X1141221Y1982409D01*
X1152556Y1955044D01*
X1169012Y1930416D01*
X1189956Y1909472D01*
X1214584Y1893016D01*
X1241949Y1881681D01*
X1271000Y1875902D01*
X1300620D01*
X1329671Y1881681D01*
X1357036Y1893016D01*
X1381664Y1909472D01*
X1402608Y1930416D01*
X1419064Y1955044D01*
X1430399Y1982409D01*
X1436178Y2011460D01*
Y2041080D01*
X1430399Y2070131D01*
X1419064Y2097496D01*
X1402608Y2122124D01*
X1381664Y2143068D01*
X1357036Y2159524D01*
X1329671Y2170859D01*
X1300620Y2176638D01*
D02*
G37*
G36*
X10822930Y1668406D02*
X2820692D01*
X2805826Y1665449D01*
X2793224Y1657028D01*
X2264912Y1128717D01*
X2260654Y1131563D01*
X2233283Y1142900D01*
X2204226Y1148680D01*
X2174600D01*
X2145543Y1142900D01*
X2118172Y1131563D01*
X2093538Y1115103D01*
X2072590Y1094155D01*
X2056130Y1069521D01*
X2044793Y1042150D01*
X2039013Y1013093D01*
Y983467D01*
X2044793Y954410D01*
X2056130Y927039D01*
X2072590Y902406D01*
X2093538Y881457D01*
X2118172Y864998D01*
X2145543Y853660D01*
X2174600Y847880D01*
X2204226D01*
X2233283Y853660D01*
X2260654Y864998D01*
X2285287Y881457D01*
X2306236Y902406D01*
X2322695Y927039D01*
X2334033Y954410D01*
X2339812Y983467D01*
Y1013093D01*
X2334033Y1042150D01*
X2322695Y1069521D01*
X2319850Y1073780D01*
X2836783Y1590713D01*
X3345315D01*
X3350175Y1578980D01*
X2899912Y1128717D01*
X2895654Y1131563D01*
X2868283Y1142900D01*
X2839226Y1148680D01*
X2809600D01*
X2780543Y1142900D01*
X2753172Y1131563D01*
X2728538Y1115103D01*
X2707590Y1094155D01*
X2691130Y1069521D01*
X2679793Y1042150D01*
X2674013Y1013093D01*
Y983467D01*
X2679793Y954410D01*
X2691130Y927039D01*
X2707590Y902406D01*
X2728538Y881457D01*
X2753172Y864998D01*
X2780543Y853660D01*
X2809600Y847880D01*
X2839226D01*
X2868283Y853660D01*
X2895654Y864998D01*
X2920287Y881457D01*
X2941236Y902406D01*
X2957695Y927039D01*
X2969033Y954410D01*
X2974812Y983467D01*
Y1013093D01*
X2969033Y1042150D01*
X2957695Y1069521D01*
X2954850Y1073780D01*
X3413683Y1532613D01*
X10168718D01*
X10184539Y1526060D01*
X10202601D01*
X10219287Y1532972D01*
X10232059Y1545743D01*
X10238970Y1562429D01*
Y1580490D01*
X10245801Y1590713D01*
X10806839D01*
X10822298Y1575255D01*
X10828852Y1559433D01*
X10841623Y1546662D01*
X10858309Y1539750D01*
X10876371D01*
X10893057Y1546662D01*
X10905828Y1559433D01*
X10912740Y1576119D01*
Y1594181D01*
X10905828Y1610867D01*
X10893057Y1623638D01*
X10877235Y1630192D01*
X10850399Y1657028D01*
X10837796Y1665449D01*
X10822930Y1668406D01*
D02*
G37*
G36*
X12089196Y1148680D02*
X12059569D01*
X12030513Y1142900D01*
X12003142Y1131563D01*
X11978508Y1115103D01*
X11957560Y1094155D01*
X11941100Y1069521D01*
X11929763Y1042150D01*
X11923983Y1013093D01*
Y983467D01*
X11929763Y954410D01*
X11941100Y927039D01*
X11957560Y902406D01*
X11978508Y881457D01*
X12003142Y864998D01*
X12030513Y853660D01*
X12059569Y847880D01*
X12089196D01*
X12118252Y853660D01*
X12145623Y864998D01*
X12170257Y881457D01*
X12191205Y902406D01*
X12207665Y927039D01*
X12219002Y954410D01*
X12224782Y983467D01*
Y1013093D01*
X12219002Y1042150D01*
X12207665Y1069521D01*
X12191205Y1094155D01*
X12170257Y1115103D01*
X12145623Y1131563D01*
X12118252Y1142900D01*
X12089196Y1148680D01*
D02*
G37*
G36*
X11454196D02*
X11424569D01*
X11395513Y1142900D01*
X11368142Y1131563D01*
X11343508Y1115103D01*
X11322560Y1094155D01*
X11306100Y1069521D01*
X11294763Y1042150D01*
X11288983Y1013093D01*
Y983467D01*
X11294763Y954410D01*
X11306100Y927039D01*
X11322560Y902406D01*
X11343508Y881457D01*
X11368142Y864998D01*
X11395513Y853660D01*
X11424569Y847880D01*
X11454196D01*
X11483252Y853660D01*
X11510623Y864998D01*
X11535257Y881457D01*
X11556205Y902406D01*
X11572665Y927039D01*
X11584002Y954410D01*
X11589782Y983467D01*
Y1013093D01*
X11584002Y1042150D01*
X11572665Y1069521D01*
X11556205Y1094155D01*
X11535257Y1115103D01*
X11510623Y1131563D01*
X11483252Y1142900D01*
X11454196Y1148680D01*
D02*
G37*
G36*
X10819196D02*
X10789569D01*
X10760513Y1142900D01*
X10733142Y1131563D01*
X10708508Y1115103D01*
X10687560Y1094155D01*
X10671100Y1069521D01*
X10659763Y1042150D01*
X10653983Y1013093D01*
Y983467D01*
X10659763Y954410D01*
X10671100Y927039D01*
X10687560Y902406D01*
X10708508Y881457D01*
X10733142Y864998D01*
X10760513Y853660D01*
X10789569Y847880D01*
X10819196D01*
X10848252Y853660D01*
X10875623Y864998D01*
X10900257Y881457D01*
X10921205Y902406D01*
X10937665Y927039D01*
X10949002Y954410D01*
X10954782Y983467D01*
Y1013093D01*
X10949002Y1042150D01*
X10937665Y1069521D01*
X10921205Y1094155D01*
X10900257Y1115103D01*
X10875623Y1131563D01*
X10848252Y1142900D01*
X10819196Y1148680D01*
D02*
G37*
G36*
X10184196D02*
X10154569D01*
X10125513Y1142900D01*
X10098142Y1131563D01*
X10073508Y1115103D01*
X10052560Y1094155D01*
X10036100Y1069521D01*
X10024763Y1042150D01*
X10018983Y1013093D01*
Y983467D01*
X10024763Y954410D01*
X10036100Y927039D01*
X10052560Y902406D01*
X10073508Y881457D01*
X10098142Y864998D01*
X10125513Y853660D01*
X10154569Y847880D01*
X10184196D01*
X10213252Y853660D01*
X10240623Y864998D01*
X10265257Y881457D01*
X10286205Y902406D01*
X10302665Y927039D01*
X10314002Y954410D01*
X10319782Y983467D01*
Y1013093D01*
X10314002Y1042150D01*
X10302665Y1069521D01*
X10286205Y1094155D01*
X10265257Y1115103D01*
X10240623Y1131563D01*
X10213252Y1142900D01*
X10184196Y1148680D01*
D02*
G37*
G36*
X9549196D02*
X9519569D01*
X9490513Y1142900D01*
X9463142Y1131563D01*
X9438508Y1115103D01*
X9417560Y1094155D01*
X9401100Y1069521D01*
X9389763Y1042150D01*
X9383983Y1013093D01*
Y983467D01*
X9389763Y954410D01*
X9401100Y927039D01*
X9417560Y902406D01*
X9438508Y881457D01*
X9463142Y864998D01*
X9490513Y853660D01*
X9519569Y847880D01*
X9549196D01*
X9578252Y853660D01*
X9605623Y864998D01*
X9630257Y881457D01*
X9651205Y902406D01*
X9667665Y927039D01*
X9679002Y954410D01*
X9684782Y983467D01*
Y1013093D01*
X9679002Y1042150D01*
X9667665Y1069521D01*
X9651205Y1094155D01*
X9630257Y1115103D01*
X9605623Y1131563D01*
X9578252Y1142900D01*
X9549196Y1148680D01*
D02*
G37*
G36*
X8914196D02*
X8884569D01*
X8855513Y1142900D01*
X8828142Y1131563D01*
X8803508Y1115103D01*
X8782560Y1094155D01*
X8766100Y1069521D01*
X8754763Y1042150D01*
X8748983Y1013093D01*
Y983467D01*
X8754763Y954410D01*
X8766100Y927039D01*
X8782560Y902406D01*
X8803508Y881457D01*
X8828142Y864998D01*
X8855513Y853660D01*
X8884569Y847880D01*
X8914196D01*
X8943252Y853660D01*
X8970623Y864998D01*
X8995257Y881457D01*
X9016205Y902406D01*
X9032665Y927039D01*
X9044002Y954410D01*
X9049782Y983467D01*
Y1013093D01*
X9044002Y1042150D01*
X9032665Y1069521D01*
X9016205Y1094155D01*
X8995257Y1115103D01*
X8970623Y1131563D01*
X8943252Y1142900D01*
X8914196Y1148680D01*
D02*
G37*
G36*
X8099211D02*
X8069585D01*
X8040528Y1142900D01*
X8013157Y1131563D01*
X7988523Y1115103D01*
X7967575Y1094155D01*
X7951115Y1069521D01*
X7939778Y1042150D01*
X7933998Y1013093D01*
Y983467D01*
X7939778Y954410D01*
X7951115Y927039D01*
X7967575Y902406D01*
X7988523Y881457D01*
X8013157Y864998D01*
X8040528Y853660D01*
X8069585Y847880D01*
X8099211D01*
X8128267Y853660D01*
X8155639Y864998D01*
X8180272Y881457D01*
X8201221Y902406D01*
X8217680Y927039D01*
X8229018Y954410D01*
X8234797Y983467D01*
Y1013093D01*
X8229018Y1042150D01*
X8217680Y1069521D01*
X8201221Y1094155D01*
X8180272Y1115103D01*
X8155639Y1131563D01*
X8128267Y1142900D01*
X8099211Y1148680D01*
D02*
G37*
G36*
X7464211D02*
X7434585D01*
X7405528Y1142900D01*
X7378157Y1131563D01*
X7353523Y1115103D01*
X7332575Y1094155D01*
X7316115Y1069521D01*
X7304778Y1042150D01*
X7298998Y1013093D01*
Y983467D01*
X7304778Y954410D01*
X7316115Y927039D01*
X7332575Y902406D01*
X7353523Y881457D01*
X7378157Y864998D01*
X7405528Y853660D01*
X7434585Y847880D01*
X7464211D01*
X7493267Y853660D01*
X7520639Y864998D01*
X7545272Y881457D01*
X7566221Y902406D01*
X7582680Y927039D01*
X7594018Y954410D01*
X7599797Y983467D01*
Y1013093D01*
X7594018Y1042150D01*
X7582680Y1069521D01*
X7566221Y1094155D01*
X7545272Y1115103D01*
X7520639Y1131563D01*
X7493267Y1142900D01*
X7464211Y1148680D01*
D02*
G37*
G36*
X6829211D02*
X6799585D01*
X6770528Y1142900D01*
X6743157Y1131563D01*
X6718523Y1115103D01*
X6697575Y1094155D01*
X6681115Y1069521D01*
X6669778Y1042150D01*
X6663998Y1013093D01*
Y983467D01*
X6669778Y954410D01*
X6681115Y927039D01*
X6697575Y902406D01*
X6718523Y881457D01*
X6743157Y864998D01*
X6770528Y853660D01*
X6799585Y847880D01*
X6829211D01*
X6858267Y853660D01*
X6885639Y864998D01*
X6910272Y881457D01*
X6931221Y902406D01*
X6947680Y927039D01*
X6959018Y954410D01*
X6964797Y983467D01*
Y1013093D01*
X6959018Y1042150D01*
X6947680Y1069521D01*
X6931221Y1094155D01*
X6910272Y1115103D01*
X6885639Y1131563D01*
X6858267Y1142900D01*
X6829211Y1148680D01*
D02*
G37*
G36*
X6194211D02*
X6164585D01*
X6135528Y1142900D01*
X6108157Y1131563D01*
X6083523Y1115103D01*
X6062575Y1094155D01*
X6046115Y1069521D01*
X6034778Y1042150D01*
X6028998Y1013093D01*
Y983467D01*
X6034778Y954410D01*
X6046115Y927039D01*
X6062575Y902406D01*
X6083523Y881457D01*
X6108157Y864998D01*
X6135528Y853660D01*
X6164585Y847880D01*
X6194211D01*
X6223267Y853660D01*
X6250639Y864998D01*
X6275272Y881457D01*
X6296221Y902406D01*
X6312680Y927039D01*
X6324018Y954410D01*
X6329797Y983467D01*
Y1013093D01*
X6324018Y1042150D01*
X6312680Y1069521D01*
X6296221Y1094155D01*
X6275272Y1115103D01*
X6250639Y1131563D01*
X6223267Y1142900D01*
X6194211Y1148680D01*
D02*
G37*
G36*
X5559211D02*
X5529585D01*
X5500528Y1142900D01*
X5473157Y1131563D01*
X5448523Y1115103D01*
X5427575Y1094155D01*
X5411115Y1069521D01*
X5399778Y1042150D01*
X5393998Y1013093D01*
Y983467D01*
X5399778Y954410D01*
X5411115Y927039D01*
X5427575Y902406D01*
X5448523Y881457D01*
X5473157Y864998D01*
X5500528Y853660D01*
X5529585Y847880D01*
X5559211D01*
X5588267Y853660D01*
X5615639Y864998D01*
X5640272Y881457D01*
X5661221Y902406D01*
X5677680Y927039D01*
X5689018Y954410D01*
X5694797Y983467D01*
Y1013093D01*
X5689018Y1042150D01*
X5677680Y1069521D01*
X5661221Y1094155D01*
X5640272Y1115103D01*
X5615639Y1131563D01*
X5588267Y1142900D01*
X5559211Y1148680D01*
D02*
G37*
G36*
X4924211D02*
X4894585D01*
X4865528Y1142900D01*
X4838157Y1131563D01*
X4813523Y1115103D01*
X4792575Y1094155D01*
X4776115Y1069521D01*
X4764778Y1042150D01*
X4758998Y1013093D01*
Y983467D01*
X4764778Y954410D01*
X4776115Y927039D01*
X4792575Y902406D01*
X4813523Y881457D01*
X4838157Y864998D01*
X4865528Y853660D01*
X4894585Y847880D01*
X4924211D01*
X4953267Y853660D01*
X4980639Y864998D01*
X5005272Y881457D01*
X5026221Y902406D01*
X5042680Y927039D01*
X5054018Y954410D01*
X5059797Y983467D01*
Y1013093D01*
X5054018Y1042150D01*
X5042680Y1069521D01*
X5026221Y1094155D01*
X5005272Y1115103D01*
X4980639Y1131563D01*
X4953267Y1142900D01*
X4924211Y1148680D01*
D02*
G37*
G36*
X4109226D02*
X4079600D01*
X4050543Y1142900D01*
X4023172Y1131563D01*
X3998538Y1115103D01*
X3977590Y1094155D01*
X3961130Y1069521D01*
X3949793Y1042150D01*
X3944013Y1013093D01*
Y983467D01*
X3949793Y954410D01*
X3961130Y927039D01*
X3977590Y902406D01*
X3998538Y881457D01*
X4023172Y864998D01*
X4050543Y853660D01*
X4079600Y847880D01*
X4109226D01*
X4138283Y853660D01*
X4165654Y864998D01*
X4190287Y881457D01*
X4211236Y902406D01*
X4227695Y927039D01*
X4239033Y954410D01*
X4244812Y983467D01*
Y1013093D01*
X4239033Y1042150D01*
X4227695Y1069521D01*
X4211236Y1094155D01*
X4190287Y1115103D01*
X4165654Y1131563D01*
X4138283Y1142900D01*
X4109226Y1148680D01*
D02*
G37*
G36*
X3474226D02*
X3444600D01*
X3415543Y1142900D01*
X3388172Y1131563D01*
X3363538Y1115103D01*
X3342590Y1094155D01*
X3326130Y1069521D01*
X3314793Y1042150D01*
X3309013Y1013093D01*
Y983467D01*
X3314793Y954410D01*
X3326130Y927039D01*
X3342590Y902406D01*
X3363538Y881457D01*
X3388172Y864998D01*
X3415543Y853660D01*
X3444600Y847880D01*
X3474226D01*
X3503283Y853660D01*
X3530654Y864998D01*
X3555287Y881457D01*
X3576236Y902406D01*
X3592695Y927039D01*
X3604033Y954410D01*
X3609812Y983467D01*
Y1013093D01*
X3604033Y1042150D01*
X3592695Y1069521D01*
X3576236Y1094155D01*
X3555287Y1115103D01*
X3530654Y1131563D01*
X3503283Y1142900D01*
X3474226Y1148680D01*
D02*
G37*
G36*
X12722200Y525402D02*
X12677800D01*
X12634253Y516740D01*
X12593233Y499749D01*
X12556316Y475082D01*
X12524920Y443686D01*
X12500253Y406769D01*
X12483262Y365749D01*
X12474600Y322202D01*
Y277802D01*
X12483262Y234255D01*
X12500253Y193235D01*
X12524920Y156318D01*
X12556316Y124922D01*
X12593233Y100255D01*
X12634253Y83264D01*
X12677800Y74602D01*
X12722200D01*
X12765747Y83264D01*
X12806767Y100255D01*
X12843684Y124922D01*
X12875079Y156318D01*
X12899747Y193235D01*
X12916737Y234255D01*
X12925400Y277802D01*
Y322202D01*
X12916737Y365749D01*
X12899747Y406769D01*
X12875079Y443686D01*
X12843684Y475082D01*
X12806767Y499749D01*
X12765747Y516740D01*
X12722200Y525402D01*
D02*
G37*
%LPD*%
G36*
X7996549Y6921032D02*
X8000018Y6912656D01*
X8002454Y6910221D01*
Y6592909D01*
X7913600Y6504056D01*
X7901867Y6508916D01*
Y6902818D01*
X7914567Y6908078D01*
X7917363Y6905282D01*
X7934049Y6898370D01*
X7952111D01*
X7968797Y6905282D01*
X7981568Y6918053D01*
X7982802Y6921032D01*
X7996549D01*
D02*
G37*
G36*
X7085833Y6316470D02*
Y5993450D01*
X7088790Y5978584D01*
X7097211Y5965982D01*
X7166813Y5896380D01*
X7159619Y5885613D01*
X7159530Y5885650D01*
X7141469D01*
X7124783Y5878739D01*
X7112011Y5865967D01*
X7107542Y5855176D01*
X7099161Y5849469D01*
X7092564Y5849678D01*
X7080170Y5854812D01*
X7062109D01*
X7045423Y5847900D01*
X7034967Y5837445D01*
X7025712Y5842241D01*
X7023650Y5844058D01*
Y5861371D01*
X7016738Y5878057D01*
X7003967Y5890828D01*
X6987281Y5897740D01*
X6969219D01*
X6966756Y5896720D01*
X6956197Y5903776D01*
Y6220190D01*
X7036995Y6300988D01*
X7052817Y6307542D01*
X7065588Y6320313D01*
X7066143Y6321653D01*
X7080404Y6323070D01*
X7085833Y6316470D01*
D02*
G37*
G36*
X6970151Y5603746D02*
X6963930Y5591046D01*
X5858726D01*
X5856742Y5593200D01*
X5860075Y5608328D01*
X5862262Y5609234D01*
X6965894D01*
X6970151Y5603746D01*
D02*
G37*
G36*
X7156488Y5337055D02*
X7163042Y5321233D01*
X7175813Y5308462D01*
X7192499Y5301550D01*
X7210561D01*
X7220784Y5294719D01*
Y5084511D01*
X6770362Y4634089D01*
X6761941Y4621486D01*
X6758984Y4606620D01*
Y4339060D01*
X6761941Y4324194D01*
X6770362Y4311591D01*
X6847038Y4234915D01*
X6853592Y4219093D01*
X6866363Y4206322D01*
X6883049Y4199410D01*
X6901111D01*
X6914513Y4204961D01*
X6927213Y4199144D01*
Y4158962D01*
X6920660Y4143141D01*
Y4125080D01*
X6913829Y4114857D01*
X6611109D01*
X6604053Y4125416D01*
X6605670Y4129319D01*
Y4147381D01*
X6598758Y4164067D01*
X6585987Y4176838D01*
X6569301Y4183750D01*
X6551239D01*
X6534553Y4176838D01*
X6521782Y4164067D01*
X6514870Y4147381D01*
Y4129319D01*
X6516487Y4125416D01*
X6509431Y4114857D01*
X6342055D01*
X6134118Y4322793D01*
Y4375100D01*
X6131161Y4389966D01*
X6122740Y4402569D01*
X6007550Y4517759D01*
X6012410Y4529492D01*
X6491345D01*
X6505475Y4523640D01*
X6523536D01*
X6540222Y4530552D01*
X6552994Y4543323D01*
X6559905Y4560009D01*
Y4578071D01*
X6552994Y4594757D01*
X6540222Y4607528D01*
X6523536Y4614440D01*
X6505475D01*
X6488788Y4607528D01*
X6488445Y4607185D01*
X5972005D01*
X5798527Y4780664D01*
Y5500071D01*
X5811227Y5508557D01*
X5815469Y5506800D01*
X5833531D01*
X5849353Y5513353D01*
X6980189D01*
X7156488Y5337055D01*
D02*
G37*
G36*
X7693339Y4920320D02*
X7711401D01*
X7711475Y4920351D01*
X7718337Y4903785D01*
X7731108Y4891014D01*
X7747795Y4884102D01*
X7765856D01*
X7781678Y4890656D01*
X7958865D01*
X7963725Y4878922D01*
X7752995Y4668192D01*
X7737173Y4661638D01*
X7724402Y4648867D01*
X7717490Y4632181D01*
Y4614119D01*
X7717834Y4613290D01*
X7708113Y4603569D01*
X7703666Y4605412D01*
X7679477Y4629601D01*
Y4914632D01*
X7690036Y4921688D01*
X7693339Y4920320D01*
D02*
G37*
G36*
X7296984Y4977923D02*
Y4710867D01*
X7252707Y4666590D01*
X7236885Y4660036D01*
X7224114Y4647265D01*
X7217202Y4630578D01*
Y4612517D01*
X7217546Y4611686D01*
X7210490Y4601126D01*
X6949912D01*
X6934091Y4607680D01*
X6928108D01*
X6922847Y4620380D01*
X7285250Y4982783D01*
X7296984Y4977923D01*
D02*
G37*
G36*
X7411284Y4562652D02*
Y3946415D01*
X7398584Y3941155D01*
X7391776Y3947962D01*
X7375955Y3954515D01*
X7226991Y4103479D01*
X7214389Y4111900D01*
X7199523Y4114857D01*
X7018290D01*
X7011459Y4125080D01*
Y4143141D01*
X7004906Y4158962D01*
Y4272251D01*
X7001949Y4287117D01*
X6993528Y4299719D01*
X6889187Y4404060D01*
X6894448Y4416760D01*
X6903061D01*
X6918883Y4423313D01*
X7239261D01*
X7254127Y4426271D01*
X7266730Y4434691D01*
X7399550Y4567512D01*
X7411284Y4562652D01*
D02*
G37*
%LPC*%
G36*
X6756981Y5350363D02*
X6738919D01*
X6722233Y5343451D01*
X6710327Y5331545D01*
X6703200Y5331085D01*
X6696073Y5331545D01*
X6684167Y5343451D01*
X6667481Y5350363D01*
X6649419D01*
X6632733Y5343451D01*
X6619962Y5330680D01*
X6613050Y5313994D01*
Y5295932D01*
X6619962Y5279246D01*
X6626139Y5273068D01*
X6631610Y5264771D01*
X6626139Y5256475D01*
X6619962Y5250297D01*
X6613050Y5233611D01*
Y5215549D01*
X6619962Y5198863D01*
X6632733Y5186091D01*
X6649419Y5179180D01*
X6667481D01*
X6684167Y5186091D01*
X6696073Y5197998D01*
X6703200Y5198458D01*
X6710327Y5197998D01*
X6722233Y5186091D01*
X6738919Y5179180D01*
X6756981D01*
X6773667Y5186091D01*
X6786439Y5198863D01*
X6793350Y5215549D01*
Y5233611D01*
X6786439Y5250297D01*
X6780261Y5256475D01*
X6774790Y5264772D01*
X6780261Y5273068D01*
X6786439Y5279246D01*
X6793350Y5295932D01*
Y5313994D01*
X6786439Y5330680D01*
X6773667Y5343451D01*
X6756981Y5350363D01*
D02*
G37*
G36*
X6568543Y4303089D02*
X6550481D01*
X6533795Y4296178D01*
X6521024Y4283406D01*
X6514112Y4266720D01*
Y4248659D01*
X6521024Y4231972D01*
X6533795Y4219201D01*
X6550481Y4212290D01*
X6568543D01*
X6585229Y4219201D01*
X6598001Y4231972D01*
X6604912Y4248659D01*
Y4266720D01*
X6598001Y4283406D01*
X6585229Y4296178D01*
X6568543Y4303089D01*
D02*
G37*
%LPD*%
G36*
X4741170Y6631530D02*
X4735940Y6626300D01*
Y6398930D01*
X4380610D01*
X4360480Y6419060D01*
X4359450Y6456960D01*
X4567900Y6665410D01*
X4707290D01*
X4741170Y6631530D01*
D02*
G37*
G36*
X3538180Y5299459D02*
Y4944330D01*
X3755080Y4727430D01*
X5059990D01*
X5412180Y4375240D01*
Y4195770D01*
X5386980Y4170570D01*
X5216550D01*
X4880420Y4506700D01*
X3670450Y4506700D01*
X3300130Y4877020D01*
Y5371280D01*
X3466359D01*
X3538180Y5299459D01*
D02*
G37*
G36*
X7486453Y2342710D02*
X7459596Y2315853D01*
X7391332D01*
X7388731Y2317590D01*
X7373866Y2320548D01*
X7299012D01*
X7283190Y2327101D01*
X7265129D01*
X7248442Y2320189D01*
X7235671Y2307418D01*
X7228759Y2290732D01*
Y2272671D01*
X7222113Y2262723D01*
X7168936D01*
X7153114Y2269277D01*
X7135053D01*
X7119231Y2262723D01*
X7073389D01*
X7011414Y2324698D01*
X6998811Y2333119D01*
X6983945Y2336076D01*
X6635130D01*
X6620264Y2333119D01*
X6607661Y2324698D01*
X6562799Y2279836D01*
X5962694D01*
X5957434Y2292536D01*
X6019341Y2354444D01*
X7481593D01*
X7486453Y2342710D01*
D02*
G37*
G36*
X8001603Y2304610D02*
X7959716Y2262723D01*
X7532934D01*
X7528074Y2274457D01*
X7569961Y2316344D01*
X7996743D01*
X8001603Y2304610D01*
D02*
G37*
G36*
X8410212Y2207021D02*
X8422814Y2198601D01*
X8437680Y2195644D01*
X8552758D01*
X8568579Y2189090D01*
X8586641D01*
X8602462Y2195644D01*
X9124010D01*
X9138876Y2198601D01*
X9151479Y2207021D01*
X9214961Y2270503D01*
X9288900D01*
X9291766Y2271073D01*
X9481570D01*
X9524672Y2227971D01*
X9537275Y2219551D01*
X9552140Y2216593D01*
X9643084D01*
X9651570Y2203893D01*
X9649212Y2198199D01*
Y2180138D01*
X9649730Y2178886D01*
X9642674Y2168327D01*
X9564960D01*
X9550094Y2165370D01*
X9537491Y2156949D01*
X9481049Y2100507D01*
X9203071D01*
X9172539Y2131039D01*
X9159936Y2139460D01*
X9145070Y2142417D01*
X8609842D01*
X8594021Y2148970D01*
X8575959D01*
X8560138Y2142417D01*
X8417290D01*
X8402424Y2139460D01*
X8389821Y2131039D01*
X8346539Y2087757D01*
X8081571D01*
X8048519Y2120809D01*
X8035916Y2129229D01*
X8021050Y2132186D01*
X7181082D01*
X7165261Y2138740D01*
X7147199D01*
X7131378Y2132186D01*
X7065360D01*
X7050494Y2129229D01*
X7037891Y2120809D01*
X6995360Y2078277D01*
X6649181D01*
X6585639Y2141819D01*
X6573036Y2150240D01*
X6558170Y2153197D01*
X5942511D01*
X5927645Y2150240D01*
X5927129Y2149895D01*
X5919587Y2154757D01*
X5916281Y2157918D01*
X5916280Y2158283D01*
Y2170656D01*
X5917997Y2176149D01*
X5926945Y2182390D01*
X5938010D01*
X5954697Y2189301D01*
X5967468Y2202073D01*
X5967497Y2202143D01*
X6578890D01*
X6593756Y2205100D01*
X6606358Y2213521D01*
X6651220Y2258383D01*
X6967854D01*
X7029829Y2196408D01*
X7042432Y2187987D01*
X7057298Y2185030D01*
X7119231D01*
X7135053Y2178477D01*
X7153114D01*
X7168936Y2185030D01*
X7247336D01*
X7248722Y2184755D01*
X7296854D01*
X7298241Y2185030D01*
X7975807D01*
X7990673Y2187987D01*
X8003276Y2196408D01*
X8085111Y2278244D01*
X8338989D01*
X8410212Y2207021D01*
D02*
G37*
D82*
X12215891Y3031550D02*
X12303536Y3119196D01*
X11811350Y3079420D02*
X11857870Y3125940D01*
X12303536Y3119196D02*
X12306330D01*
X7706750Y3031550D02*
X12215891D01*
X8748250Y2524700D02*
X8909830Y2363120D01*
X8748250Y2524700D02*
Y2743090D01*
X8909830Y2363120D02*
X9714750D01*
X8466192Y2355190D02*
X8628687Y2517685D01*
Y2736921D01*
X9714750Y2363120D02*
X9793160Y2284710D01*
X7473810Y3264490D02*
X7706750Y3031550D01*
X8450410Y2393290D02*
X8552910Y2495790D01*
Y2743170D01*
X7643970Y6125607D02*
X8268683Y6750320D01*
X7640630Y4613510D02*
X7693770Y4560370D01*
X7605870Y6141389D02*
X8041300Y6576819D01*
X7567770Y6157170D02*
X7863020Y6452420D01*
X7564430Y4550508D02*
X7615380Y4499558D01*
X7602530Y4566290D02*
X7673870Y4494950D01*
X7239261Y4462160D02*
X7412030Y4634929D01*
X7602530Y4566290D02*
Y5490449D01*
X6979832Y5794240D02*
X7297730Y5476342D01*
X7227167Y5600787D02*
X7335830Y5492124D01*
X6835930Y4588400D02*
X7297730Y5050200D01*
X7529670Y5525351D02*
Y6172952D01*
X7297730Y5050200D02*
Y5476342D01*
X7124680Y5993450D02*
X7450130Y5668000D01*
X7564430Y5506230D02*
X7567770Y5509570D01*
X7259630Y5068420D02*
Y5460561D01*
X7285500Y4562280D02*
X7373930Y4650710D01*
X7262602Y4621548D02*
X7335830Y4694776D01*
X7640630Y4613510D02*
Y5474667D01*
X7173319Y5837457D02*
X7412030Y5598746D01*
X7640630Y5474667D02*
X7643970Y5478007D01*
X7450130Y3935349D02*
Y5668000D01*
X6996280Y5552200D02*
X7201530Y5346950D01*
X7526330Y4534727D02*
Y5522012D01*
X6797830Y4606620D02*
X7259630Y5068420D01*
X7488230Y4053864D02*
X7563450Y3978645D01*
X7231021Y5489170D02*
X7259630Y5460561D01*
X7605870Y5493788D02*
Y6141389D01*
X7335830Y4694776D02*
Y5492124D01*
X7450130Y3935349D02*
X7642619Y3742860D01*
X7526330Y5522012D02*
X7529670Y5525351D01*
X7602530Y5490449D02*
X7605870Y5493788D01*
X7488230Y4053864D02*
Y5989755D01*
X7643970Y5478007D02*
Y6125607D01*
X7412030Y4634929D02*
Y5598746D01*
X7259600Y5669010D02*
X7373930Y5554680D01*
X7564430Y4550508D02*
Y5506230D01*
X7567770Y5509570D02*
Y6157170D01*
X7373930Y4650710D02*
Y5554680D01*
X7370153Y6107832D02*
X7488230Y5989755D01*
X7526330Y4534727D02*
X7554487Y4506570D01*
X7718280Y6466250D02*
X7721073Y6463456D01*
Y6409746D02*
Y6463456D01*
Y6409746D02*
X7722320Y6408500D01*
X7475800Y6543870D02*
X7616600Y6403070D01*
X7722320Y6365602D02*
Y6408500D01*
X7689361Y6520749D02*
X7761740Y6593128D01*
X7581087Y6520749D02*
X7689361D01*
X6570960Y6182790D02*
Y6392350D01*
X6722480Y6543870D01*
X5659760Y5669760D02*
Y5860140D01*
X5717860Y5681934D02*
Y5745049D01*
X5504560Y6015340D02*
X5659760Y5860140D01*
Y5669760D02*
X5721580Y5607940D01*
X5717860Y5681934D02*
X5759680Y5640114D01*
X12348640Y7938300D02*
X12511470Y7775470D01*
X12111193Y7974795D02*
X12147688Y7938300D01*
X12348640D01*
X12332858Y7900200D02*
X12473370Y7759689D01*
X12064636Y7900200D02*
X12332858D01*
X12018666Y7946170D02*
X12064636Y7900200D01*
X12018620Y7946170D02*
X12018666D01*
X12107243Y7974795D02*
X12111193D01*
X7749330Y3079420D02*
X11811350D01*
X7549560Y3279190D02*
X7749330Y3079420D01*
X7779930Y5841780D02*
X7850740Y5770970D01*
X7944160D01*
X7696805Y6610358D02*
Y6720625D01*
X7206910Y7210520D02*
X7696805Y6720625D01*
X7761740Y6593128D02*
Y6853950D01*
X7674270Y6941420D02*
X7761740Y6853950D01*
X8081260Y4730340D02*
X8210200Y4859280D01*
X8077309Y4730340D02*
X8081260D01*
X8258270Y4821180D02*
X11631092D01*
X8093310Y4656220D02*
X8258270Y4821180D01*
X12552120Y7297030D02*
X12581230Y7326140D01*
X12552120Y5852780D02*
Y7297030D01*
X6925060Y4562280D02*
X7285500D01*
X6095272Y4306703D02*
X6325964Y4076010D01*
X6095272Y4306703D02*
Y4375100D01*
X6325964Y4076010D02*
X7199523D01*
X5955914Y4568339D02*
X6513804D01*
X6514505Y4569040D01*
X6835930Y4402380D02*
Y4588400D01*
Y4402380D02*
X6966059Y4272251D01*
Y4134110D02*
Y4272251D01*
X6797830Y4339060D02*
X6892080Y4244810D01*
X6797830Y4339060D02*
Y4606620D01*
X9491150Y4334660D02*
X10325170D01*
X10890880Y3768950D01*
X8899350Y3742860D02*
X9491150Y4334660D01*
X7642619Y3742860D02*
X8899350D01*
X6722480Y6543870D02*
X7475800D01*
X7554487Y4454304D02*
Y4506570D01*
Y4454304D02*
X7557280Y4451510D01*
X7587770Y4162888D02*
X7615380Y4190498D01*
Y4499558D01*
X7756825Y4929502D02*
X8015361D01*
X7702370Y4965720D02*
X7706021D01*
X7529670Y6172952D02*
X7722320Y6365602D01*
X7150500Y5840250D02*
X7153293Y5837457D01*
X7173319D01*
X7124680Y5993450D02*
Y6344360D01*
X6706833Y6628003D02*
Y8094371D01*
X6484230Y6405400D02*
X6706833Y6628003D01*
X6887470Y8275008D02*
Y8305550D01*
X6706833Y8094371D02*
X6887470Y8275008D01*
X6484230Y5766910D02*
X6491600Y5759541D01*
Y5755590D02*
Y5759541D01*
X6484230Y5766910D02*
Y6405400D01*
X6917350Y5802841D02*
Y6236280D01*
X7027100Y6346030D01*
X6979832Y5794240D02*
Y5850758D01*
X6978250Y5852340D02*
X6979832Y5850758D01*
X6917350Y5802841D02*
X7231021Y5489170D01*
X7231021D01*
X7071140Y5756814D02*
X7227167Y5600787D01*
X7071140Y5756814D02*
Y5809412D01*
X7227167Y5600787D02*
X7227167D01*
X5824500Y5552200D02*
X6996280D01*
X6985670Y5648080D02*
X7160950Y5472800D01*
Y5469960D02*
Y5472800D01*
X5837410Y5648080D02*
X6985670D01*
X7731741Y4991440D02*
X11581970D01*
X7706021Y4965720D02*
X7731741Y4991440D01*
X8015361Y4929502D02*
X8021339Y4935480D01*
X11581970Y4991440D02*
X12473370Y5882840D01*
X6894030Y4462160D02*
X7239261D01*
X8021339Y4935480D02*
X9427234D01*
X9430824Y4939070D01*
X11583482D01*
X7199523Y4076010D02*
X7366059Y3909474D01*
X7563450Y3904195D02*
Y3978645D01*
X5721580Y4748792D02*
X6095272Y4375100D01*
X7863020Y6452420D02*
Y6930929D01*
X8268683Y6750320D02*
Y6926103D01*
X8041300Y6576819D02*
Y6935580D01*
X2820692Y1629560D02*
X10822930D01*
X2189413Y998280D02*
X2820692Y1629560D01*
X3397592Y1571460D02*
X10193570D01*
X2824413Y998280D02*
X3397592Y1571460D01*
X3256840Y3004269D02*
Y3660630D01*
X3374140Y3777930D01*
X3271719Y2989390D02*
X4352210D01*
X3294940Y3042369D02*
Y3614580D01*
X3309819Y3027490D02*
X4289625D01*
X3294940Y3614580D02*
X3370747Y3690387D01*
X3294940Y3042369D02*
X3309819Y3027490D01*
X3256840Y3004269D02*
X3271719Y2989390D01*
X10822930Y1629560D02*
X10867340Y1585150D01*
X4289625Y3027490D02*
X4412405Y3150270D01*
X4560570D01*
X4352210Y2989390D02*
X4454580Y3091760D01*
X3385690Y3521170D02*
X3463650Y3599130D01*
X3501750Y3523050D02*
Y3990831D01*
X3398750Y3420050D02*
X3501750Y3523050D01*
X3153060Y4339521D02*
X3501750Y3990831D01*
X3463650Y3599130D02*
Y3975049D01*
X3114960Y4323739D02*
X3463650Y3975049D01*
X5168427Y5537563D02*
Y5547919D01*
X5032456Y5683889D02*
X5168427Y5547919D01*
Y5537563D02*
X5171220Y5534770D01*
X5032456Y5683889D02*
Y5683890D01*
X4896486Y5819860D02*
X5032456Y5683890D01*
X3303050Y5819860D02*
X4896486D01*
X4852420Y5781760D02*
X4907930Y5726250D01*
X3323270Y5781760D02*
X4852420D01*
X3153060Y5611550D02*
X3323270Y5781760D01*
X5087910Y5926400D02*
X5166850Y5847460D01*
X5428179D01*
X5683480Y5592158D01*
X5721580Y4748792D02*
Y5607940D01*
X5087910Y5926400D02*
Y7077760D01*
X5683480Y4120004D02*
Y5592158D01*
X5759680Y4764573D02*
Y5640114D01*
Y4764573D02*
X5955914Y4568339D01*
X5373660Y6146240D02*
X5504560Y6015340D01*
X4463350Y7702320D02*
X5087910Y7077760D01*
X3114960Y5631770D02*
X3303050Y5819860D01*
X3153060Y4339521D02*
Y5611550D01*
X3114960Y4323739D02*
Y5631770D01*
X4339800Y7702320D02*
X4463350D01*
X7673870Y4494950D02*
X7762160D01*
X7762890Y4495680D01*
X7853380Y6940569D02*
X7863020Y6930929D01*
X7853380Y6940569D02*
Y6944520D01*
X2189408Y998280D02*
X2189413D01*
X2824408D02*
X2824413D01*
X5574270Y4012480D02*
X5666915Y4105125D01*
X5668601D02*
X5683480Y4120004D01*
X5666915Y4105125D02*
X5668601D01*
X3872500Y3231683D02*
Y4238330D01*
Y3231683D02*
X3970614Y3133569D01*
X7088047Y2613810D02*
X7281360D01*
X7087587Y2613350D02*
X7088047Y2613810D01*
X7281360D02*
X7281820Y2614270D01*
X7274159Y2281701D02*
X7373866D01*
X7156230Y2093340D02*
X8021050D01*
X7065360D02*
X7156230D01*
X7373866Y2281701D02*
X7378560Y2277007D01*
X7144084Y2223877D02*
X7248447D01*
X7296854Y2223601D02*
X7297130Y2223877D01*
X7975807D01*
X7378560Y2277007D02*
X7475687D01*
X7248447Y2223877D02*
X7248722Y2223601D01*
X7296854D01*
X7475687Y2277007D02*
X7553870Y2355190D01*
X7975807Y2223877D02*
X8069020Y2317090D01*
X7057298Y2223877D02*
X7144084D01*
X7172558Y2026652D02*
X7978538D01*
X8019570Y1985620D01*
X7168225Y2023858D02*
X7171018Y2026652D01*
X7122746Y2023858D02*
X7168225D01*
X7100218Y2001330D02*
X7122746Y2023858D01*
X6537177Y2001330D02*
X7100218D01*
X6983945Y2297230D02*
X7057298Y2223877D01*
X8021050Y2093340D02*
X8065480Y2048910D01*
X7011450Y2039430D02*
X7065360Y2093340D01*
X6633090Y2039430D02*
X7011450D01*
X6635130Y2297230D02*
X6983945D01*
X7553870Y2355190D02*
X8466192D01*
X6558170Y2114350D02*
X6633090Y2039430D01*
X6503488Y2035020D02*
X6537177Y2001330D01*
X5942511Y2114350D02*
X6558170D01*
X5872440Y2035020D02*
X6503488D01*
X6578890Y2240990D02*
X6635130Y2297230D01*
X5946131Y2240990D02*
X6578890D01*
X5929310Y2101150D02*
X5942511Y2114350D01*
X5925360Y2101150D02*
X5929310D01*
X5928980Y2227790D02*
X5932930D01*
X5946131Y2240990D01*
X5870880Y2165920D02*
Y2260920D01*
X6003250Y2393290D01*
X5877530Y6658370D02*
Y6688710D01*
Y6658370D02*
X6266560Y6269340D01*
X5832700Y6829610D02*
X6018430D01*
X5744970Y6741880D02*
X5832700Y6829610D01*
X5744970Y6516589D02*
Y6741880D01*
X5635460Y6407079D02*
X5744970Y6516589D01*
X6018430Y6829610D02*
X6131530Y6942710D01*
X5635460Y6138440D02*
Y6407079D01*
Y6138440D02*
X5758560Y6015340D01*
X5373660Y6146240D02*
Y6684580D01*
X5369530Y6688710D02*
X5373660Y6684580D01*
X11583482Y4939070D02*
X12511470Y5867058D01*
X11631092Y4821180D02*
X12193162Y5383250D01*
X7762890Y4623150D02*
X8037120Y4897380D01*
X11596720D01*
X11615310Y4859280D02*
X12611217Y5855187D01*
X8210200Y4859280D02*
X11615310D01*
X11596720Y4897380D02*
X12552120Y5852780D01*
X8038507Y6938373D02*
X8041300Y6935580D01*
X6003250Y2393290D02*
X8450410D01*
X9778281Y2186861D02*
X9793160Y2201740D01*
Y2284710D01*
X9694612Y2189168D02*
X9696919Y2186861D01*
X9778281D01*
X9289470Y2309920D02*
X9497660D01*
X9552140Y2255440D01*
X9124010Y2234490D02*
X9198870Y2309350D01*
X9288900D01*
X9289470Y2309920D01*
X9564960Y2129480D02*
X9731060D01*
X9733750Y2126790D01*
X9497140Y2061660D02*
X9564960Y2129480D01*
X9552140Y2255440D02*
X9726160D01*
X9549950Y2027890D02*
X9705250D01*
X9523700Y2001640D02*
X9549950Y2027890D01*
X9135210Y2001640D02*
X9523700D01*
X9186980Y2061660D02*
X9497140D01*
X9145070Y2103570D02*
X9186980Y2061660D01*
X8584990Y2103570D02*
X9145070D01*
X8417290D02*
X8584990D01*
X9098990Y2037860D02*
X9135210Y2001640D01*
X8584220Y2037860D02*
X9098990D01*
X8581427Y2040654D02*
X8584220Y2037860D01*
X8577610Y2234490D02*
X9124010D01*
X8069020Y2317090D02*
X8355080D01*
X8437680Y2234490D01*
X8577610D01*
X8019570Y1985620D02*
X8386180D01*
X8443030Y2042470D02*
X8524859D01*
X8386180Y1985620D02*
X8443030Y2042470D01*
X8526676Y2040654D02*
X8581427D01*
X8524859Y2042470D02*
X8526676Y2040654D01*
X8362630Y2048910D02*
X8417290Y2103570D01*
X8065480Y2048910D02*
X8362630D01*
X12611217Y5855187D02*
Y5899627D01*
X12614010Y5902420D01*
X12473370Y5882840D02*
Y7759689D01*
X12511470Y5867058D02*
Y7775470D01*
X12193162Y5383250D02*
X12580250D01*
X11227520Y7623951D02*
X11244730Y7641161D01*
X11227520Y7620000D02*
Y7623951D01*
X11244730Y7641161D02*
Y8034960D01*
D84*
X919413Y998280D02*
X3027140Y3106008D01*
Y5668250D02*
X3807370Y6448480D01*
X3027140Y3106008D02*
Y5668250D01*
X3807370Y6448480D02*
X4423520D01*
X919410Y998280D02*
X919413D01*
D85*
X9806031Y8443257D02*
D03*
X8941029Y8443261D02*
D03*
D86*
X9806031Y8863260D02*
D03*
X8941029D02*
D03*
D87*
X9662526Y8495270D02*
D03*
X9084524D02*
D03*
D88*
X1321690Y8364060D02*
D03*
X2621713D02*
D03*
D89*
X1541707Y7944071D02*
D03*
X2401716D02*
D03*
X4697384Y8446950D02*
D03*
X3997386D02*
D03*
X1554413Y998280D02*
D03*
X919413D02*
D03*
X2189413D02*
D03*
X2824413D02*
D03*
X3459413D02*
D03*
X4094413D02*
D03*
X4909398D02*
D03*
X5544398D02*
D03*
X6179398D02*
D03*
X6814398D02*
D03*
X7449398D02*
D03*
X8084398D02*
D03*
X8899383D02*
D03*
X9534383D02*
D03*
X10169383D02*
D03*
X10804383D02*
D03*
X11439383D02*
D03*
X12074383D02*
D03*
D90*
X650810Y5328270D02*
D03*
X2555810D02*
D03*
X1285810Y2026270D02*
D03*
X2555810D02*
D03*
D91*
X1425850Y6562510D02*
D03*
X2177550Y6366310D02*
D03*
D92*
X300000Y300000D02*
D03*
X12700000Y300002D02*
D03*
X12699998Y8700002D02*
D03*
X299998Y8700000D02*
D03*
D93*
X8853710Y6897850D02*
D03*
D94*
Y7151850D02*
D03*
Y7659850D02*
D03*
Y7405850D02*
D03*
D95*
X8055227Y8579330D02*
D03*
X7257210D02*
D03*
D96*
X4572391Y8696963D02*
D03*
X4122379D02*
D03*
D97*
X10451930Y2067370D02*
D03*
Y2829370D02*
D03*
X11125420Y2074230D02*
D03*
Y2836230D02*
D03*
X10871420D02*
D03*
X10197930Y2829370D02*
D03*
Y2067370D02*
D03*
X10871420Y2074230D02*
D03*
D98*
X4852140Y5088510D02*
D03*
D99*
Y4838510D02*
D03*
D100*
X5250560Y6015340D02*
D03*
Y6269340D02*
D03*
X5504560Y6015340D02*
D03*
Y6269340D02*
D03*
X5758560Y6015340D02*
D03*
Y6269340D02*
D03*
X6012560Y6015340D02*
D03*
Y6269340D02*
D03*
X6266560Y6015340D02*
D03*
D101*
Y6269340D02*
D03*
D102*
X6131530Y6688710D02*
D03*
X5877530D02*
D03*
X5623530D02*
D03*
X5369530D02*
D03*
X5623530Y6942710D02*
D03*
X5877530D02*
D03*
X6131530D02*
D03*
D103*
X5369530D02*
D03*
D104*
X11496988Y8723327D02*
D03*
X10647002D02*
D03*
D105*
X8373390Y3516440D02*
D03*
X9023390D02*
D03*
D106*
X2382910Y7539820D02*
D03*
Y7039821D02*
D03*
D107*
X5889952Y3456165D02*
D03*
X12306330Y3125940D02*
D03*
X9196539Y2561819D02*
D03*
X8628687Y2736921D02*
D03*
X9324809Y2558279D02*
D03*
X8748250Y2743090D02*
D03*
X8552910Y2743170D02*
D03*
X9329270Y2891980D02*
D03*
X8066000Y2864660D02*
D03*
X8214420Y2868430D02*
D03*
X9192110Y2898840D02*
D03*
X7201530Y5346950D02*
D03*
X7718280Y6466250D02*
D03*
X7616600Y6403070D02*
D03*
X6570960Y6182790D02*
D03*
X4900923Y7641160D02*
D03*
X5717860Y5745049D02*
D03*
X6698640Y3393690D02*
D03*
X9091661Y8201187D02*
D03*
X3179650Y6260600D02*
D03*
X3342990D02*
D03*
X3257484D02*
D03*
X3808730Y6750956D02*
D03*
Y6665450D02*
D03*
Y6579490D02*
D03*
X3257484Y6363180D02*
D03*
X3342990D02*
D03*
X3179650D02*
D03*
Y6449141D02*
D03*
Y6534647D02*
D03*
X12018620Y7946170D02*
D03*
X12107243Y7974795D02*
D03*
X12153020Y8094380D02*
D03*
X11857870Y3125940D02*
D03*
X7779930Y5841780D02*
D03*
X7808340Y5656770D02*
D03*
X6988152Y6643816D02*
D03*
X7176698D02*
D03*
X7365245D02*
D03*
X7553791D02*
D03*
X7581087Y6520749D02*
D03*
X7696805Y6610358D02*
D03*
X7822280Y6100460D02*
D03*
X7944160Y5770970D02*
D03*
X9959000Y7741700D02*
D03*
X10075202Y7758136D02*
D03*
X10033806Y8109756D02*
D03*
X9890480Y7479260D02*
D03*
X6837120Y3519280D02*
D03*
X7007060Y3507260D02*
D03*
X7039891Y4152723D02*
D03*
X6795980Y3934140D02*
D03*
X6883250Y3929200D02*
D03*
X6556773Y4433689D02*
D03*
X6467272D02*
D03*
X7262602Y4621548D02*
D03*
X7005310Y4944440D02*
D03*
X6915810D02*
D03*
X8077309Y4730340D02*
D03*
X8093310Y4656220D02*
D03*
X3767250Y3701180D02*
D03*
Y3837320D02*
D03*
Y3770263D02*
D03*
X3628060D02*
D03*
Y3701180D02*
D03*
Y3837320D02*
D03*
X4144945Y3868888D02*
D03*
X4043530Y3867320D02*
D03*
X12581230Y7326140D02*
D03*
X6925060Y4562280D02*
D03*
X6434909Y3791339D02*
D03*
X6202220Y4281920D02*
D03*
X6514505Y4569040D02*
D03*
X6892080Y4244810D02*
D03*
X4367120Y5451650D02*
D03*
X4274690Y5537156D02*
D03*
X4367120D02*
D03*
X4274690Y5451650D02*
D03*
X4367120Y5623117D02*
D03*
X4274690D02*
D03*
X6634226Y7516117D02*
D03*
X6548720Y7608547D02*
D03*
Y7516117D02*
D03*
X6634226Y7608547D02*
D03*
X5976294Y8140650D02*
D03*
X6061800D02*
D03*
X5339256Y8004360D02*
D03*
X5251864Y8144630D02*
D03*
X5253750Y8004360D02*
D03*
X5337370Y8144630D02*
D03*
X5072390Y7733590D02*
D03*
X4986884Y7641160D02*
D03*
Y7733590D02*
D03*
X5072390Y7641160D02*
D03*
X4900923Y7733590D02*
D03*
X6119483Y7715460D02*
D03*
X6200777D02*
D03*
X6038190D02*
D03*
X6279230Y7799590D02*
D03*
X6038190Y7803796D02*
D03*
X6282070Y7715460D02*
D03*
X9771760Y8183820D02*
D03*
X9735580Y8264010D02*
D03*
X9658227D02*
D03*
X9694407Y8183820D02*
D03*
X9028281Y8193057D02*
D03*
X9052330Y8271060D02*
D03*
X9123190D02*
D03*
X9868769Y4556356D02*
D03*
Y4475973D02*
D03*
X9947189D02*
D03*
Y4556356D02*
D03*
X9728832Y4079467D02*
D03*
X9693937Y4007478D02*
D03*
Y3927479D02*
D03*
Y3847479D02*
D03*
X9724140Y3773399D02*
D03*
X9753195Y3698862D02*
D03*
X9797152Y3632021D02*
D03*
X9856716Y3578616D02*
D03*
X9929917Y3546343D02*
D03*
X10009343Y3536778D02*
D03*
X10089343D02*
D03*
X10169343D02*
D03*
X10249342D02*
D03*
X10329342D02*
D03*
X10409342D02*
D03*
X10489342D02*
D03*
X10569342D02*
D03*
X10649342D02*
D03*
X10729342D02*
D03*
X10809341D02*
D03*
X10889341D02*
D03*
X10969341D02*
D03*
X11049341D02*
D03*
X11129341D02*
D03*
X11209341D02*
D03*
X11289340D02*
D03*
X11369340D02*
D03*
X11449340D02*
D03*
X11529340D02*
D03*
X11609340D02*
D03*
X11689340D02*
D03*
X11769339D02*
D03*
X11849339D02*
D03*
X11929339D02*
D03*
X12009339D02*
D03*
X12089339D02*
D03*
X12169339D02*
D03*
X12249338D02*
D03*
X12329338D02*
D03*
X12409338D02*
D03*
X12489236Y3532728D02*
D03*
X12559692Y3494835D02*
D03*
X12540152Y3716066D02*
D03*
X12471353Y3675242D02*
D03*
X12391353D02*
D03*
X12311353D02*
D03*
X12231353D02*
D03*
X12151354D02*
D03*
X12071354D02*
D03*
X11991354D02*
D03*
X11911354D02*
D03*
X11831354D02*
D03*
X11751354D02*
D03*
X11671355D02*
D03*
X11591355D02*
D03*
X11511355D02*
D03*
X11431355D02*
D03*
X11351355D02*
D03*
X11271355D02*
D03*
X11191356D02*
D03*
X11111356D02*
D03*
X11031356D02*
D03*
X10951356D02*
D03*
X10871356D02*
D03*
X10791356D02*
D03*
X10711357D02*
D03*
X10631357D02*
D03*
X10551357D02*
D03*
X10471357D02*
D03*
X10391357D02*
D03*
X10311357D02*
D03*
X10231357D02*
D03*
X10151358D02*
D03*
X10071358D02*
D03*
X9991361Y3675958D02*
D03*
X9917407Y3706466D02*
D03*
X9871788Y3772184D02*
D03*
X9848523Y4081384D02*
D03*
X10020877Y4240270D02*
D03*
X9942457D02*
D03*
X10020877Y4159887D02*
D03*
X9942457D02*
D03*
X7557280Y4451510D02*
D03*
X7756825Y4929502D02*
D03*
X7702370Y4965720D02*
D03*
X6491600Y5755590D02*
D03*
X6864280Y7214570D02*
D03*
X7027100Y6346030D02*
D03*
X6978250Y5852340D02*
D03*
X7587770Y4162888D02*
D03*
X7259600Y5669010D02*
D03*
X7160950Y5469960D02*
D03*
X6894030Y4462160D02*
D03*
X7071140Y5809412D02*
D03*
X7366059Y3909474D02*
D03*
X6866330Y3831190D02*
D03*
X6944043Y3831897D02*
D03*
X6560270Y4138350D02*
D03*
X6966059Y4134110D02*
D03*
X6559512Y4257689D02*
D03*
X7124680Y6344360D02*
D03*
X6332680Y5712230D02*
D03*
X10990280Y3200910D02*
D03*
X3122540Y3499419D02*
D03*
Y3394189D02*
D03*
X3126340Y3592030D02*
D03*
X10193570Y1571460D02*
D03*
X9585285Y7876868D02*
D03*
X9112725Y7869838D02*
D03*
X7388000Y6405770D02*
D03*
X7466330Y6407110D02*
D03*
X4560570Y3150270D02*
D03*
X4454580Y3091760D02*
D03*
X4253114Y3110319D02*
D03*
X4114694Y3112449D02*
D03*
X3773364Y3134499D02*
D03*
X3370747Y3690387D02*
D03*
X3374140Y3777930D02*
D03*
X3565824Y3139939D02*
D03*
X3667072Y3137391D02*
D03*
X3468724Y3140369D02*
D03*
X5480590Y3434397D02*
D03*
X5384554Y3435722D02*
D03*
Y3350216D02*
D03*
X3309774Y3925859D02*
D03*
X10222340Y3390950D02*
D03*
X7549560Y3279190D02*
D03*
X7473810Y3264490D02*
D03*
X12198270Y2220869D02*
D03*
Y2125439D02*
D03*
X11750551Y2128750D02*
D03*
Y2224179D02*
D03*
X12297440Y2276780D02*
D03*
X11859050Y2274420D02*
D03*
X5171220Y5534770D02*
D03*
X4907930Y5726250D02*
D03*
X4621060Y5698730D02*
D03*
X4712670D02*
D03*
X3211160Y4890360D02*
D03*
Y5232370D02*
D03*
X3306854Y4049679D02*
D03*
X3385690Y3521170D02*
D03*
X3350413Y4421153D02*
D03*
X4802550Y7188960D02*
D03*
X3398750Y3420050D02*
D03*
X5824500Y5552200D02*
D03*
X5837410Y5648080D02*
D03*
X6080360Y5706180D02*
D03*
X7370153Y6107832D02*
D03*
X6658450Y5304963D02*
D03*
Y5224580D02*
D03*
X5295034Y5389359D02*
D03*
X5380995Y5296929D02*
D03*
X4712020Y5633300D02*
D03*
X4743550Y5488340D02*
D03*
X4412257Y2671368D02*
D03*
X4319827D02*
D03*
X3334978Y5330794D02*
D03*
Y5238363D02*
D03*
X3420939Y5330794D02*
D03*
Y5238363D02*
D03*
X10867340Y1585150D02*
D03*
X4574194Y6618132D02*
D03*
Y6532626D02*
D03*
Y6446665D02*
D03*
X4670230Y6445340D02*
D03*
Y6531301D02*
D03*
Y6616807D02*
D03*
X3355290Y6905860D02*
D03*
X3275119Y6905608D02*
D03*
X5393680Y4009930D02*
D03*
X5486010Y4277030D02*
D03*
X6202850Y4104670D02*
D03*
X5485570Y4013120D02*
D03*
X5991980Y7460490D02*
D03*
X7366132Y6969133D02*
D03*
X7420082Y6915182D02*
D03*
X8268683Y6926103D02*
D03*
X7206910Y7210520D02*
D03*
X7150500Y5840250D02*
D03*
X8998200Y5278810D02*
D03*
X10890880Y3768950D02*
D03*
X8545255Y5398656D02*
D03*
Y5280876D02*
D03*
X8449500Y6397770D02*
D03*
X8450340Y6563140D02*
D03*
X8080890Y5185340D02*
D03*
X7989180Y5188100D02*
D03*
X12285127Y4104986D02*
D03*
X12363547D02*
D03*
Y4185370D02*
D03*
X12285127D02*
D03*
X11760267Y4202907D02*
D03*
X11838687D02*
D03*
Y4283290D02*
D03*
X11760267D02*
D03*
X10345627Y4488446D02*
D03*
X10424047D02*
D03*
Y4568830D02*
D03*
X10345627D02*
D03*
X9036847Y4380636D02*
D03*
X9115267D02*
D03*
Y4461020D02*
D03*
X9036847D02*
D03*
X10859477Y7101546D02*
D03*
X10937897D02*
D03*
Y7181930D02*
D03*
X10859477D02*
D03*
X11741607Y6311427D02*
D03*
X11820027D02*
D03*
Y6391810D02*
D03*
X11741607D02*
D03*
X9912017Y6343426D02*
D03*
X9990437D02*
D03*
Y6423810D02*
D03*
X9912017D02*
D03*
X10807442Y6398294D02*
D03*
X10885862D02*
D03*
Y6317911D02*
D03*
X10807442D02*
D03*
X11761852Y5457514D02*
D03*
X11840272D02*
D03*
Y5377131D02*
D03*
X11761852D02*
D03*
X11728532Y5987784D02*
D03*
X11806952D02*
D03*
Y5907401D02*
D03*
X11728532D02*
D03*
X9887582Y5899754D02*
D03*
X9966002D02*
D03*
Y5819371D02*
D03*
X9887582D02*
D03*
X9861552Y5273224D02*
D03*
X9939972D02*
D03*
Y5192841D02*
D03*
X9861552D02*
D03*
X11761600Y4569600D02*
D03*
X11840020D02*
D03*
Y4489217D02*
D03*
X11761600D02*
D03*
X10802610Y4578000D02*
D03*
X10881030D02*
D03*
Y4497617D02*
D03*
X10802610D02*
D03*
X8426040Y5049540D02*
D03*
Y5167320D02*
D03*
X4318850Y7215220D02*
D03*
X4124580Y7215210D02*
D03*
X4556280Y7274290D02*
D03*
X4340880Y8169020D02*
D03*
X4245690Y8171880D02*
D03*
X6864820Y7044130D02*
D03*
X4339800Y7702320D02*
D03*
X7034260Y6879540D02*
D03*
X6956640Y6880240D02*
D03*
X7033660Y6956560D02*
D03*
X6954790Y6954160D02*
D03*
X8199590Y2540150D02*
D03*
X6805260Y5724150D02*
D03*
X6629250Y5720090D02*
D03*
X5961810Y4692290D02*
D03*
X5854410Y4507680D02*
D03*
X6109770Y4866700D02*
D03*
X5480590Y3348891D02*
D03*
Y3262930D02*
D03*
X5384554Y3264255D02*
D03*
X5574270Y4012480D02*
D03*
X5084320Y4189880D02*
D03*
X5131490Y4080910D02*
D03*
X5132570Y4145970D02*
D03*
X5479680Y4422570D02*
D03*
X5392380Y4644790D02*
D03*
X5554280D02*
D03*
X5473330D02*
D03*
X3872500Y4238330D02*
D03*
X4223790Y2844160D02*
D03*
Y2758654D02*
D03*
Y2672693D02*
D03*
X4412257Y2842835D02*
D03*
X4319827Y2757329D02*
D03*
X4412257D02*
D03*
X4319827Y2842835D02*
D03*
X5352345Y4365639D02*
D03*
X5266384D02*
D03*
X5352345Y4273209D02*
D03*
X5180878Y4365639D02*
D03*
X5266384Y4273209D02*
D03*
X5180878D02*
D03*
X3511350Y5145000D02*
D03*
Y5237430D02*
D03*
X12758540Y6634010D02*
D03*
X12770750Y5906110D02*
D03*
X12688082Y5941832D02*
D03*
X12719429Y5165109D02*
D03*
X10344410Y7792440D02*
D03*
X11648029Y7804659D02*
D03*
X12722969Y7572109D02*
D03*
X12233169Y7579859D02*
D03*
X12486369Y8093579D02*
D03*
X12313429Y8089029D02*
D03*
X8075169Y2545809D02*
D03*
X6794439Y2530789D02*
D03*
X6658580Y2527940D02*
D03*
X5508510Y2543000D02*
D03*
X5380350Y2541510D02*
D03*
X7281820Y2614270D02*
D03*
X7274159Y2281701D02*
D03*
X7156230Y2093340D02*
D03*
X7171018Y2026652D02*
D03*
X7144084Y2223877D02*
D03*
X5925360Y2101150D02*
D03*
X5928980Y2227790D02*
D03*
X5862944Y2339015D02*
D03*
X7144170Y7059580D02*
D03*
X6866470Y7135100D02*
D03*
X6563000Y7264150D02*
D03*
X5485400Y3808600D02*
D03*
X5466501Y5296929D02*
D03*
X4073635Y4412129D02*
D03*
X3927195Y4410819D02*
D03*
X3778115Y4412129D02*
D03*
X3638895Y4410819D02*
D03*
X3491785Y4413449D02*
D03*
X5744850Y7454010D02*
D03*
X6747950Y5304963D02*
D03*
Y5224580D02*
D03*
X7563450Y3904195D02*
D03*
X7693770Y4560370D02*
D03*
X7576040Y6940150D02*
D03*
X7674270Y6941420D02*
D03*
X7853380Y6944520D02*
D03*
X7009870Y5033880D02*
D03*
X7294040Y6943140D02*
D03*
X7740620Y7106526D02*
D03*
X7739840Y7262320D02*
D03*
X8127790Y6943770D02*
D03*
X8038507Y6938373D02*
D03*
X7943080Y6943770D02*
D03*
X3126774Y3792889D02*
D03*
X3134564Y4053179D02*
D03*
X3136434Y4177429D02*
D03*
X3128134Y3929949D02*
D03*
X3126774Y3694729D02*
D03*
X3371224Y3142259D02*
D03*
X4094124Y3579259D02*
D03*
X3975944Y3462109D02*
D03*
X4088424Y3461589D02*
D03*
X3970614Y3133569D02*
D03*
X3871654Y3132549D02*
D03*
X3980084Y3579779D02*
D03*
X5466501Y5389359D02*
D03*
X5295034Y5296929D02*
D03*
X5380995Y5389359D02*
D03*
X7600560Y3529440D02*
D03*
X7841700Y3913940D02*
D03*
X7920120D02*
D03*
Y3833557D02*
D03*
X7841700D02*
D03*
X7919630Y3538840D02*
D03*
X7755050Y3527360D02*
D03*
X7990530Y5107300D02*
D03*
X8082260Y5104560D02*
D03*
X8755720Y5280500D02*
D03*
X8834140D02*
D03*
X8372560Y2489480D02*
D03*
X5673570Y2493760D02*
D03*
X5672050Y1844690D02*
D03*
X6951530Y2493100D02*
D03*
X9694612Y2189168D02*
D03*
X9733750Y2126790D02*
D03*
X9726160Y2255440D02*
D03*
X7087587Y2613350D02*
D03*
X5872440Y2035020D02*
D03*
X5870880Y2165920D02*
D03*
X9705250Y2027890D02*
D03*
X8584220Y2037860D02*
D03*
X8584990Y2103570D02*
D03*
X8577610Y2234490D02*
D03*
X12614010Y5902420D02*
D03*
X10391740Y7063980D02*
D03*
X12680870Y5398440D02*
D03*
X12739370Y5346360D02*
D03*
X12671560Y4439697D02*
D03*
X12749980D02*
D03*
Y4520080D02*
D03*
X12671560D02*
D03*
X12830400Y4522513D02*
D03*
Y4442130D02*
D03*
X9109350Y4573230D02*
D03*
Y4653613D02*
D03*
X8950510Y4651180D02*
D03*
X9028930D02*
D03*
Y4570797D02*
D03*
X8950510D02*
D03*
X7762890Y4623150D02*
D03*
Y4495680D02*
D03*
X8789159Y5200117D02*
D03*
X8867579D02*
D03*
X8945999D02*
D03*
X8912560Y5280500D02*
D03*
X10844420Y7611490D02*
D03*
X10843250Y7383000D02*
D03*
X11244730Y8034960D02*
D03*
X11227520Y7620000D02*
D03*
X12580250Y5383250D02*
D03*
X6656840Y2858090D02*
D03*
X6800310Y2859230D02*
D03*
X5515730Y2854460D02*
D03*
X5379680Y2855150D02*
D03*
D108*
X6769840Y2208010D02*
D03*
X6869840D02*
D03*
Y2108010D02*
D03*
X6769840D02*
D03*
X5491660Y2115440D02*
D03*
X5591660D02*
D03*
Y2215440D02*
D03*
X5491660D02*
D03*
X8190413Y2219972D02*
D03*
X8290413D02*
D03*
Y2119973D02*
D03*
X8190413D02*
D03*
X9315880Y2241340D02*
D03*
X9415880D02*
D03*
Y2141340D02*
D03*
X9315880D02*
D03*
D109*
X7642470Y8305550D02*
D03*
D110*
X8397470D02*
D03*
X6887470D02*
D03*
%TF.MD5,b6350dfeca4aca39c269b37e6c9370b4*%
M02*
