%TF.GenerationSoftware,Altium Limited,Altium Designer,22.5.1 (42)*%
G04 Layer_Color=0*
%FSLAX45Y45*%
%MOMM*%
%TF.SameCoordinates,BCC7A4F8-9605-4868-ACEC-D28EECC8EA53*%
%TF.FilePolarity,Positive*%
%TF.FileFunction,Plated,1,4,PTH,Drill*%
%TF.Part,Single*%
G01*
G75*
%TA.AperFunction,ComponentDrill*%
%ADD226C,1.00000*%
%ADD228O,0.60000X1.50000*%
%ADD229O,0.60000X1.20000*%
%ADD230O,0.60000X1.50002*%
%ADD231C,1.50002*%
%ADD232C,1.50114*%
%ADD233C,1.19888*%
%TA.AperFunction,OtherDrill,Pad Free-1 (3mm,3mm)*%
%ADD234C,2.50000*%
%TA.AperFunction,ComponentDrill*%
%ADD235C,1.10002*%
%ADD236C,1.70002*%
%ADD237C,1.00000*%
%ADD238C,1.10002*%
%ADD239C,0.80000*%
%TA.AperFunction,OtherDrill,Pad Free-1 (127mm,3mm)*%
%ADD240C,2.50000*%
%TA.AperFunction,OtherDrill,Pad Free-1 (127mm,87mm)*%
%ADD241C,2.50000*%
%TA.AperFunction,OtherDrill,Pad Free-1 (3mm,87mm)*%
%ADD242C,2.50000*%
%TA.AperFunction,ComponentDrill*%
%ADD243C,0.90000*%
%ADD244C,1.00000*%
%TA.AperFunction,ViaDrill,NotFilled*%
%ADD245C,0.20000*%
%ADD246C,0.30480*%
D226*
X4572401Y8696963D02*
D03*
X4122379D02*
D03*
X10451930Y2067370D02*
D03*
Y2829370D02*
D03*
X11125420Y2074230D02*
D03*
Y2836230D02*
D03*
X10871420D02*
D03*
X10197930Y2829370D02*
D03*
Y2067370D02*
D03*
X10871420Y2074230D02*
D03*
D228*
X9806031Y8443257D02*
D03*
D229*
Y8863260D02*
D03*
X8941029D02*
D03*
D230*
Y8443261D02*
D03*
D231*
X1541707Y7944071D02*
D03*
X2401716D02*
D03*
X4697389Y8446938D02*
D03*
X3997391D02*
D03*
D232*
X650810Y5328270D02*
D03*
X2555810D02*
D03*
X1285810Y2026270D02*
D03*
X2555810D02*
D03*
D233*
X1425850Y6562510D02*
D03*
X2177550Y6366310D02*
D03*
D234*
X300000Y300000D02*
D03*
D235*
X8853710Y6897850D02*
D03*
Y7151850D02*
D03*
Y7659850D02*
D03*
Y7405850D02*
D03*
D236*
X1554408Y998280D02*
D03*
X919410D02*
D03*
X2189408D02*
D03*
X2824408D02*
D03*
X3459408D02*
D03*
X4094408D02*
D03*
X4909395D02*
D03*
X5544393D02*
D03*
X6179393D02*
D03*
X6814393D02*
D03*
X7449393D02*
D03*
X8084393D02*
D03*
X8899380D02*
D03*
X9534377D02*
D03*
X10169377D02*
D03*
X10804377D02*
D03*
X11439377D02*
D03*
X12074377D02*
D03*
D237*
X4852140Y5088510D02*
D03*
Y4838510D02*
D03*
D238*
X5250560Y6015340D02*
D03*
Y6269340D02*
D03*
X5504560Y6015340D02*
D03*
Y6269340D02*
D03*
X5758560Y6015340D02*
D03*
Y6269340D02*
D03*
X6012560Y6015340D02*
D03*
Y6269340D02*
D03*
X6266560Y6015340D02*
D03*
Y6269340D02*
D03*
D239*
X6131530Y6688710D02*
D03*
X5877530D02*
D03*
X5623530D02*
D03*
X5369530D02*
D03*
Y6942710D02*
D03*
X5623530D02*
D03*
X5877530D02*
D03*
X6131530D02*
D03*
D240*
X12700000Y300002D02*
D03*
D241*
X12699998Y8700002D02*
D03*
D242*
X299998Y8700000D02*
D03*
D243*
X8373390Y3516440D02*
D03*
X9023390D02*
D03*
D244*
X2382910Y7539820D02*
D03*
Y7039821D02*
D03*
D245*
X5889952Y3456165D02*
D03*
X12306330Y3125940D02*
D03*
X9196539Y2561819D02*
D03*
X8628687Y2736921D02*
D03*
X9324809Y2558279D02*
D03*
X8748250Y2743090D02*
D03*
X8552910Y2743170D02*
D03*
X9329270Y2891980D02*
D03*
X8066000Y2864660D02*
D03*
X8214420Y2868430D02*
D03*
X9192110Y2898840D02*
D03*
X7201530Y5346950D02*
D03*
X7718280Y6466250D02*
D03*
X7616600Y6403070D02*
D03*
X6570960Y6182790D02*
D03*
X4900923Y7641160D02*
D03*
X5717860Y5745049D02*
D03*
X6698640Y3393690D02*
D03*
X9091661Y8201187D02*
D03*
X3179650Y6260600D02*
D03*
X3342990D02*
D03*
X3257484D02*
D03*
X3808730Y6750956D02*
D03*
Y6665450D02*
D03*
Y6579490D02*
D03*
X3257484Y6363180D02*
D03*
X3342990D02*
D03*
X3179650D02*
D03*
Y6449141D02*
D03*
Y6534647D02*
D03*
X12018620Y7946170D02*
D03*
X12107243Y7974795D02*
D03*
X12153020Y8094380D02*
D03*
X11857870Y3125940D02*
D03*
X7779930Y5841780D02*
D03*
X7808340Y5656770D02*
D03*
X6988152Y6643816D02*
D03*
X7176698D02*
D03*
X7365245D02*
D03*
X7553791D02*
D03*
X7581087Y6520749D02*
D03*
X7696805Y6610358D02*
D03*
X7822280Y6100460D02*
D03*
X7944160Y5770970D02*
D03*
X9959000Y7741700D02*
D03*
X10075202Y7758136D02*
D03*
X10033806Y8109756D02*
D03*
X9890480Y7479260D02*
D03*
X6837120Y3519280D02*
D03*
X7007060Y3507260D02*
D03*
X7039891Y4152723D02*
D03*
X6795980Y3934140D02*
D03*
X6883250Y3929200D02*
D03*
X6556773Y4433689D02*
D03*
X6467272D02*
D03*
X7262602Y4621548D02*
D03*
X7005310Y4944440D02*
D03*
X6915810D02*
D03*
X8077309Y4730340D02*
D03*
X8093310Y4656220D02*
D03*
X3767250Y3701180D02*
D03*
Y3837320D02*
D03*
Y3770263D02*
D03*
X3628060D02*
D03*
Y3701180D02*
D03*
Y3837320D02*
D03*
X4144945Y3868888D02*
D03*
X4043530Y3867320D02*
D03*
X12581230Y7326140D02*
D03*
X6925060Y4562280D02*
D03*
X6434909Y3791339D02*
D03*
X6202220Y4281920D02*
D03*
X6514505Y4569040D02*
D03*
X6892080Y4244810D02*
D03*
X4367120Y5451650D02*
D03*
X4274690Y5537156D02*
D03*
X4367120D02*
D03*
X4274690Y5451650D02*
D03*
X4367120Y5623117D02*
D03*
X4274690D02*
D03*
X6634226Y7516117D02*
D03*
X6548720Y7608547D02*
D03*
Y7516117D02*
D03*
X6634226Y7608547D02*
D03*
X5976294Y8140650D02*
D03*
X6061800D02*
D03*
X5339256Y8004360D02*
D03*
X5251864Y8144630D02*
D03*
X5253750Y8004360D02*
D03*
X5337370Y8144630D02*
D03*
X5072390Y7733590D02*
D03*
X4986884Y7641160D02*
D03*
Y7733590D02*
D03*
X5072390Y7641160D02*
D03*
X4900923Y7733590D02*
D03*
X6119483Y7715460D02*
D03*
X6200777D02*
D03*
X6038190D02*
D03*
X6279230Y7799590D02*
D03*
X6038190Y7803796D02*
D03*
X6282070Y7715460D02*
D03*
X9771760Y8183820D02*
D03*
X9735580Y8264010D02*
D03*
X9658227D02*
D03*
X9694407Y8183820D02*
D03*
X9028281Y8193057D02*
D03*
X9052330Y8271060D02*
D03*
X9123190D02*
D03*
X9868769Y4556356D02*
D03*
Y4475973D02*
D03*
X9947189D02*
D03*
Y4556356D02*
D03*
X9728832Y4079467D02*
D03*
X9693937Y4007478D02*
D03*
Y3927479D02*
D03*
Y3847479D02*
D03*
X9724140Y3773399D02*
D03*
X9753195Y3698862D02*
D03*
X9797152Y3632021D02*
D03*
X9856716Y3578616D02*
D03*
X9929917Y3546343D02*
D03*
X10009343Y3536778D02*
D03*
X10089343D02*
D03*
X10169343D02*
D03*
X10249342D02*
D03*
X10329342D02*
D03*
X10409342D02*
D03*
X10489342D02*
D03*
X10569342D02*
D03*
X10649342D02*
D03*
X10729342D02*
D03*
X10809341D02*
D03*
X10889341D02*
D03*
X10969341D02*
D03*
X11049341D02*
D03*
X11129341D02*
D03*
X11209341D02*
D03*
X11289340D02*
D03*
X11369340D02*
D03*
X11449340D02*
D03*
X11529340D02*
D03*
X11609340D02*
D03*
X11689340D02*
D03*
X11769339D02*
D03*
X11849339D02*
D03*
X11929339D02*
D03*
X12009339D02*
D03*
X12089339D02*
D03*
X12169339D02*
D03*
X12249338D02*
D03*
X12329338D02*
D03*
X12409338D02*
D03*
X12489236Y3532728D02*
D03*
X12559692Y3494835D02*
D03*
X12540152Y3716066D02*
D03*
X12471353Y3675242D02*
D03*
X12391353D02*
D03*
X12311353D02*
D03*
X12231353D02*
D03*
X12151354D02*
D03*
X12071354D02*
D03*
X11991354D02*
D03*
X11911354D02*
D03*
X11831354D02*
D03*
X11751354D02*
D03*
X11671355D02*
D03*
X11591355D02*
D03*
X11511355D02*
D03*
X11431355D02*
D03*
X11351355D02*
D03*
X11271355D02*
D03*
X11191356D02*
D03*
X11111356D02*
D03*
X11031356D02*
D03*
X10951356D02*
D03*
X10871356D02*
D03*
X10791356D02*
D03*
X10711357D02*
D03*
X10631357D02*
D03*
X10551357D02*
D03*
X10471357D02*
D03*
X10391357D02*
D03*
X10311357D02*
D03*
X10231357D02*
D03*
X10151358D02*
D03*
X10071358D02*
D03*
X9991361Y3675958D02*
D03*
X9917407Y3706466D02*
D03*
X9871788Y3772184D02*
D03*
X9848523Y4081384D02*
D03*
X10020877Y4240270D02*
D03*
X9942457D02*
D03*
X10020877Y4159887D02*
D03*
X9942457D02*
D03*
X7557280Y4451510D02*
D03*
X7756825Y4929502D02*
D03*
X7702370Y4965720D02*
D03*
X6491600Y5755590D02*
D03*
X6864280Y7214570D02*
D03*
X7027100Y6346030D02*
D03*
X6978250Y5852340D02*
D03*
X7587770Y4162888D02*
D03*
X7259600Y5669010D02*
D03*
X7160950Y5469960D02*
D03*
X6894030Y4462160D02*
D03*
X7071140Y5809412D02*
D03*
X7366059Y3909474D02*
D03*
X6866330Y3831190D02*
D03*
X6944043Y3831897D02*
D03*
X6560270Y4138350D02*
D03*
X6966059Y4134110D02*
D03*
X6559512Y4257689D02*
D03*
X7124680Y6344360D02*
D03*
X6332680Y5712230D02*
D03*
X10990280Y3200910D02*
D03*
X3122540Y3499419D02*
D03*
Y3394189D02*
D03*
X3126340Y3592030D02*
D03*
X10193570Y1571460D02*
D03*
X9585285Y7876868D02*
D03*
X9112725Y7869838D02*
D03*
X7388000Y6405770D02*
D03*
X7466330Y6407110D02*
D03*
X4560570Y3150270D02*
D03*
X4454580Y3091760D02*
D03*
X4253114Y3110319D02*
D03*
X4114694Y3112449D02*
D03*
X3773364Y3134499D02*
D03*
X3370747Y3690387D02*
D03*
X3374140Y3777930D02*
D03*
X3565824Y3139939D02*
D03*
X3667072Y3137391D02*
D03*
X3468724Y3140369D02*
D03*
X5480590Y3434397D02*
D03*
X5384554Y3435722D02*
D03*
Y3350216D02*
D03*
X3309774Y3925859D02*
D03*
X10222340Y3390950D02*
D03*
X7549560Y3279190D02*
D03*
X7473810Y3264490D02*
D03*
X12198270Y2220869D02*
D03*
Y2125439D02*
D03*
X11750551Y2128750D02*
D03*
Y2224179D02*
D03*
X12297440Y2276780D02*
D03*
X11859050Y2274420D02*
D03*
X5171220Y5534770D02*
D03*
X4907930Y5726250D02*
D03*
X4621060Y5698730D02*
D03*
X4712670D02*
D03*
X3211160Y4890360D02*
D03*
Y5232370D02*
D03*
X3306854Y4049679D02*
D03*
X3385690Y3521170D02*
D03*
X3350413Y4421153D02*
D03*
X4802550Y7188960D02*
D03*
X3398750Y3420050D02*
D03*
X5824500Y5552200D02*
D03*
X5837410Y5648080D02*
D03*
X6080360Y5706180D02*
D03*
X7370153Y6107832D02*
D03*
X6658450Y5304963D02*
D03*
Y5224580D02*
D03*
X5295034Y5389359D02*
D03*
X5380995Y5296929D02*
D03*
X4712020Y5633300D02*
D03*
X4743550Y5488340D02*
D03*
X4412257Y2671368D02*
D03*
X4319827D02*
D03*
X3334978Y5330794D02*
D03*
Y5238363D02*
D03*
X3420939Y5330794D02*
D03*
Y5238363D02*
D03*
X10867340Y1585150D02*
D03*
X4574194Y6618132D02*
D03*
Y6532626D02*
D03*
Y6446665D02*
D03*
X4670230Y6445340D02*
D03*
Y6531301D02*
D03*
Y6616807D02*
D03*
X3355290Y6905860D02*
D03*
X3275119Y6905608D02*
D03*
X5393680Y4009930D02*
D03*
X5486010Y4277030D02*
D03*
X6202850Y4104670D02*
D03*
X5485570Y4013120D02*
D03*
X5991980Y7460490D02*
D03*
X7366132Y6969133D02*
D03*
X7420082Y6915182D02*
D03*
X8268683Y6926103D02*
D03*
X7206910Y7210520D02*
D03*
X7150500Y5840250D02*
D03*
X8998200Y5278810D02*
D03*
X10890880Y3768950D02*
D03*
X8545255Y5398656D02*
D03*
Y5280876D02*
D03*
X8449500Y6397770D02*
D03*
X8450340Y6563140D02*
D03*
X8080890Y5185340D02*
D03*
X7989180Y5188100D02*
D03*
X12285127Y4104986D02*
D03*
X12363547D02*
D03*
Y4185370D02*
D03*
X12285127D02*
D03*
X11760267Y4202907D02*
D03*
X11838687D02*
D03*
Y4283290D02*
D03*
X11760267D02*
D03*
X10345627Y4488446D02*
D03*
X10424047D02*
D03*
Y4568830D02*
D03*
X10345627D02*
D03*
X9036847Y4380636D02*
D03*
X9115267D02*
D03*
Y4461020D02*
D03*
X9036847D02*
D03*
X10859477Y7101546D02*
D03*
X10937897D02*
D03*
Y7181930D02*
D03*
X10859477D02*
D03*
X11741607Y6311427D02*
D03*
X11820027D02*
D03*
Y6391810D02*
D03*
X11741607D02*
D03*
X9912017Y6343426D02*
D03*
X9990437D02*
D03*
Y6423810D02*
D03*
X9912017D02*
D03*
X10807442Y6398294D02*
D03*
X10885862D02*
D03*
Y6317911D02*
D03*
X10807442D02*
D03*
X11761852Y5457514D02*
D03*
X11840272D02*
D03*
Y5377131D02*
D03*
X11761852D02*
D03*
X11728532Y5987784D02*
D03*
X11806952D02*
D03*
Y5907401D02*
D03*
X11728532D02*
D03*
X9887582Y5899754D02*
D03*
X9966002D02*
D03*
Y5819371D02*
D03*
X9887582D02*
D03*
X9861552Y5273224D02*
D03*
X9939972D02*
D03*
Y5192841D02*
D03*
X9861552D02*
D03*
X11761600Y4569600D02*
D03*
X11840020D02*
D03*
Y4489217D02*
D03*
X11761600D02*
D03*
X10802610Y4578000D02*
D03*
X10881030D02*
D03*
Y4497617D02*
D03*
X10802610D02*
D03*
X8426040Y5049540D02*
D03*
Y5167320D02*
D03*
X4318850Y7215220D02*
D03*
X4124580Y7215210D02*
D03*
X4556280Y7274290D02*
D03*
X4340880Y8169020D02*
D03*
X4245690Y8171880D02*
D03*
X6864820Y7044130D02*
D03*
X4339800Y7702320D02*
D03*
X7034260Y6879540D02*
D03*
X6956640Y6880240D02*
D03*
X7033660Y6956560D02*
D03*
X6954790Y6954160D02*
D03*
X8199590Y2540150D02*
D03*
X6805260Y5724150D02*
D03*
X6629250Y5720090D02*
D03*
X5961810Y4692290D02*
D03*
X5854410Y4507680D02*
D03*
X6109770Y4866700D02*
D03*
X5480590Y3348891D02*
D03*
Y3262930D02*
D03*
X5384554Y3264255D02*
D03*
X5574270Y4012480D02*
D03*
X5084320Y4189880D02*
D03*
X5131490Y4080910D02*
D03*
X5132570Y4145970D02*
D03*
X5479680Y4422570D02*
D03*
X5392380Y4644790D02*
D03*
X5554280D02*
D03*
X5473330D02*
D03*
X3872500Y4238330D02*
D03*
X4223790Y2844160D02*
D03*
Y2758654D02*
D03*
Y2672693D02*
D03*
X4412257Y2842835D02*
D03*
X4319827Y2757329D02*
D03*
X4412257D02*
D03*
X4319827Y2842835D02*
D03*
X5352345Y4365639D02*
D03*
X5266384D02*
D03*
X5352345Y4273209D02*
D03*
X5180878Y4365639D02*
D03*
X5266384Y4273209D02*
D03*
X5180878D02*
D03*
X3511350Y5145000D02*
D03*
Y5237430D02*
D03*
X12758540Y6634010D02*
D03*
X12770750Y5906110D02*
D03*
X12688082Y5941832D02*
D03*
X12719429Y5165109D02*
D03*
X10344410Y7792440D02*
D03*
X11648029Y7804659D02*
D03*
X12722969Y7572109D02*
D03*
X12233169Y7579859D02*
D03*
X12486369Y8093579D02*
D03*
X12313429Y8089029D02*
D03*
X8075169Y2545809D02*
D03*
X6794439Y2530789D02*
D03*
X6658580Y2527940D02*
D03*
X5508510Y2543000D02*
D03*
X5380350Y2541510D02*
D03*
X7281820Y2614270D02*
D03*
X7274159Y2281701D02*
D03*
X7156230Y2093340D02*
D03*
X7171018Y2026652D02*
D03*
X7144084Y2223877D02*
D03*
X5925360Y2101150D02*
D03*
X5928980Y2227790D02*
D03*
X5862944Y2339015D02*
D03*
X7144170Y7059580D02*
D03*
X6866470Y7135100D02*
D03*
X6563000Y7264150D02*
D03*
X5485400Y3808600D02*
D03*
X5466501Y5296929D02*
D03*
X4073635Y4412129D02*
D03*
X3927195Y4410819D02*
D03*
X3778115Y4412129D02*
D03*
X3638895Y4410819D02*
D03*
X3491785Y4413449D02*
D03*
X5744850Y7454010D02*
D03*
X6747950Y5304963D02*
D03*
Y5224580D02*
D03*
X7563450Y3904195D02*
D03*
X7693770Y4560370D02*
D03*
X7576040Y6940150D02*
D03*
X7674270Y6941420D02*
D03*
X7853380Y6944520D02*
D03*
X7009870Y5033880D02*
D03*
X7294040Y6943140D02*
D03*
X7740620Y7106526D02*
D03*
X7739840Y7262320D02*
D03*
X8127790Y6943770D02*
D03*
X8038507Y6938373D02*
D03*
X7943080Y6943770D02*
D03*
X3126774Y3792889D02*
D03*
X3134564Y4053179D02*
D03*
X3136434Y4177429D02*
D03*
X3128134Y3929949D02*
D03*
X3126774Y3694729D02*
D03*
X3371224Y3142259D02*
D03*
X4094124Y3579259D02*
D03*
X3975944Y3462109D02*
D03*
X4088424Y3461589D02*
D03*
X3970614Y3133569D02*
D03*
X3871654Y3132549D02*
D03*
X3980084Y3579779D02*
D03*
X5466501Y5389359D02*
D03*
X5295034Y5296929D02*
D03*
X5380995Y5389359D02*
D03*
X7600560Y3529440D02*
D03*
X7841700Y3913940D02*
D03*
X7920120D02*
D03*
Y3833557D02*
D03*
X7841700D02*
D03*
X7919630Y3538840D02*
D03*
X7755050Y3527360D02*
D03*
X7990530Y5107300D02*
D03*
X8082260Y5104560D02*
D03*
X8755720Y5280500D02*
D03*
X8834140D02*
D03*
X8372560Y2489480D02*
D03*
X5673570Y2493760D02*
D03*
X5672050Y1844690D02*
D03*
X6951530Y2493100D02*
D03*
X9694612Y2189168D02*
D03*
X9733750Y2126790D02*
D03*
X9726160Y2255440D02*
D03*
X7087587Y2613350D02*
D03*
X5872440Y2035020D02*
D03*
X5870880Y2165920D02*
D03*
X9705250Y2027890D02*
D03*
X8584220Y2037860D02*
D03*
X8584990Y2103570D02*
D03*
X8577610Y2234490D02*
D03*
X12614010Y5902420D02*
D03*
X10391740Y7063980D02*
D03*
X12680870Y5398440D02*
D03*
X12739370Y5346360D02*
D03*
X12671560Y4439697D02*
D03*
X12749980D02*
D03*
Y4520080D02*
D03*
X12671560D02*
D03*
X12830400Y4522513D02*
D03*
Y4442130D02*
D03*
X9109350Y4573230D02*
D03*
Y4653613D02*
D03*
X8950510Y4651180D02*
D03*
X9028930D02*
D03*
Y4570797D02*
D03*
X8950510D02*
D03*
X7762890Y4623150D02*
D03*
Y4495680D02*
D03*
X8789159Y5200117D02*
D03*
X8867579D02*
D03*
X8945999D02*
D03*
X8912560Y5280500D02*
D03*
X10844420Y7611490D02*
D03*
X10843250Y7383000D02*
D03*
X11244730Y8034960D02*
D03*
X11227520Y7620000D02*
D03*
X12580250Y5383250D02*
D03*
X6656840Y2858090D02*
D03*
X6800310Y2859230D02*
D03*
X5515730Y2854460D02*
D03*
X5379680Y2855150D02*
D03*
D246*
X6769840Y2208010D02*
D03*
X6869840D02*
D03*
Y2108010D02*
D03*
X6769840D02*
D03*
X5491660Y2115440D02*
D03*
X5591660D02*
D03*
Y2215440D02*
D03*
X5491660D02*
D03*
X8190413Y2219972D02*
D03*
X8290413D02*
D03*
Y2119973D02*
D03*
X8190413D02*
D03*
X9315880Y2241340D02*
D03*
X9415880D02*
D03*
Y2141340D02*
D03*
X9315880D02*
D03*
%TF.MD5,f6e1042f4ff3d9582966d603c994bac7*%
M02*
