%TF.GenerationSoftware,Altium Limited,Altium Designer,22.5.1 (42)*%
G04 Layer_Color=8421504*
%FSLAX45Y45*%
%MOMM*%
%TF.SameCoordinates,BCC7A4F8-9605-4868-ACEC-D28EECC8EA53*%
%TF.FilePolarity,Positive*%
%TF.FileFunction,Paste,Top*%
%TF.Part,Single*%
G01*
G75*
%TA.AperFunction,SMDPad,CuDef*%
G04:AMPARAMS|DCode=11|XSize=1.21mm|YSize=0.59mm|CornerRadius=0.07375mm|HoleSize=0mm|Usage=FLASHONLY|Rotation=0.000|XOffset=0mm|YOffset=0mm|HoleType=Round|Shape=RoundedRectangle|*
%AMROUNDEDRECTD11*
21,1,1.21000,0.44250,0,0,0.0*
21,1,1.06250,0.59000,0,0,0.0*
1,1,0.14750,0.53125,-0.22125*
1,1,0.14750,-0.53125,-0.22125*
1,1,0.14750,-0.53125,0.22125*
1,1,0.14750,0.53125,0.22125*
%
%ADD11ROUNDEDRECTD11*%
%ADD13R,0.90000X0.80000*%
%ADD14R,0.60000X1.10000*%
%ADD15R,0.30000X1.10000*%
%ADD16R,1.90000X2.50000*%
%ADD18R,1.15000X0.60000*%
%ADD20R,1.00000X1.05320*%
%ADD22R,2.50000X1.90000*%
%ADD23R,0.73000X1.21000*%
%ADD25R,0.60000X1.20000*%
G04:AMPARAMS|DCode=27|XSize=0.6mm|YSize=0.24mm|CornerRadius=0.03mm|HoleSize=0mm|Usage=FLASHONLY|Rotation=270.000|XOffset=0mm|YOffset=0mm|HoleType=Round|Shape=RoundedRectangle|*
%AMROUNDEDRECTD27*
21,1,0.60000,0.18000,0,0,270.0*
21,1,0.54000,0.24000,0,0,270.0*
1,1,0.06000,-0.09000,-0.27000*
1,1,0.06000,-0.09000,0.27000*
1,1,0.06000,0.09000,0.27000*
1,1,0.06000,0.09000,-0.27000*
%
%ADD27ROUNDEDRECTD27*%
%ADD28R,0.40000X1.60000*%
%ADD29R,1.40000X2.90000*%
%ADD30R,1.21000X0.73000*%
%ADD31R,1.10000X0.60000*%
%ADD32R,0.70000X1.60000*%
%ADD33R,1.60000X1.40000*%
%ADD34R,1.20000X2.20000*%
%ADD35R,1.20000X1.40000*%
G04:AMPARAMS|DCode=36|XSize=1.475mm|YSize=0.3mm|CornerRadius=0.075mm|HoleSize=0mm|Usage=FLASHONLY|Rotation=90.000|XOffset=0mm|YOffset=0mm|HoleType=Round|Shape=RoundedRectangle|*
%AMROUNDEDRECTD36*
21,1,1.47500,0.15000,0,0,90.0*
21,1,1.32500,0.30000,0,0,90.0*
1,1,0.15000,0.07500,0.66250*
1,1,0.15000,0.07500,-0.66250*
1,1,0.15000,-0.07500,-0.66250*
1,1,0.15000,-0.07500,0.66250*
%
%ADD36ROUNDEDRECTD36*%
%ADD37R,1.47500X0.30000*%
%ADD38R,0.30000X1.47500*%
%ADD39R,0.75001X1.00000*%
G04:AMPARAMS|DCode=40|XSize=1.7mm|YSize=0.8mm|CornerRadius=0.2mm|HoleSize=0mm|Usage=FLASHONLY|Rotation=180.000|XOffset=0mm|YOffset=0mm|HoleType=Round|Shape=RoundedRectangle|*
%AMROUNDEDRECTD40*
21,1,1.70000,0.40000,0,0,180.0*
21,1,1.30000,0.80000,0,0,180.0*
1,1,0.40000,-0.65000,0.20000*
1,1,0.40000,0.65000,0.20000*
1,1,0.40000,0.65000,-0.20000*
1,1,0.40000,-0.65000,-0.20000*
%
%ADD40ROUNDEDRECTD40*%
%ADD41R,0.88900X1.29540*%
%ADD42R,0.71120X0.25400*%
%ADD43R,1.65100X4.50088*%
G04:AMPARAMS|DCode=44|XSize=1.21mm|YSize=0.59mm|CornerRadius=0.07375mm|HoleSize=0mm|Usage=FLASHONLY|Rotation=90.000|XOffset=0mm|YOffset=0mm|HoleType=Round|Shape=RoundedRectangle|*
%AMROUNDEDRECTD44*
21,1,1.21000,0.44250,0,0,90.0*
21,1,1.06250,0.59000,0,0,90.0*
1,1,0.14750,0.22125,0.53125*
1,1,0.14750,0.22125,-0.53125*
1,1,0.14750,-0.22125,-0.53125*
1,1,0.14750,-0.22125,0.53125*
%
%ADD44ROUNDEDRECTD44*%
G04:AMPARAMS|DCode=45|XSize=1.45mm|YSize=1.15mm|CornerRadius=0.2875mm|HoleSize=0mm|Usage=FLASHONLY|Rotation=0.000|XOffset=0mm|YOffset=0mm|HoleType=Round|Shape=RoundedRectangle|*
%AMROUNDEDRECTD45*
21,1,1.45000,0.57500,0,0,0.0*
21,1,0.87500,1.15000,0,0,0.0*
1,1,0.57500,0.43750,-0.28750*
1,1,0.57500,-0.43750,-0.28750*
1,1,0.57500,-0.43750,0.28750*
1,1,0.57500,0.43750,0.28750*
%
%ADD45ROUNDEDRECTD45*%
G04:AMPARAMS|DCode=46|XSize=0.94mm|YSize=1.02mm|CornerRadius=0.094mm|HoleSize=0mm|Usage=FLASHONLY|Rotation=180.000|XOffset=0mm|YOffset=0mm|HoleType=Round|Shape=RoundedRectangle|*
%AMROUNDEDRECTD46*
21,1,0.94000,0.83200,0,0,180.0*
21,1,0.75200,1.02000,0,0,180.0*
1,1,0.18800,-0.37600,0.41600*
1,1,0.18800,0.37600,0.41600*
1,1,0.18800,0.37600,-0.41600*
1,1,0.18800,-0.37600,-0.41600*
%
%ADD46ROUNDEDRECTD46*%
%ADD47R,0.80000X0.90000*%
G04:AMPARAMS|DCode=49|XSize=0.94mm|YSize=1.02mm|CornerRadius=0.094mm|HoleSize=0mm|Usage=FLASHONLY|Rotation=270.000|XOffset=0mm|YOffset=0mm|HoleType=Round|Shape=RoundedRectangle|*
%AMROUNDEDRECTD49*
21,1,0.94000,0.83200,0,0,270.0*
21,1,0.75200,1.02000,0,0,270.0*
1,1,0.18800,-0.41600,-0.37600*
1,1,0.18800,-0.41600,0.37600*
1,1,0.18800,0.41600,0.37600*
1,1,0.18800,0.41600,-0.37600*
%
%ADD49ROUNDEDRECTD49*%
%ADD50R,2.30000X2.45000*%
G04:AMPARAMS|DCode=51|XSize=0.86mm|YSize=0.27mm|CornerRadius=0.03375mm|HoleSize=0mm|Usage=FLASHONLY|Rotation=90.000|XOffset=0mm|YOffset=0mm|HoleType=Round|Shape=RoundedRectangle|*
%AMROUNDEDRECTD51*
21,1,0.86000,0.20250,0,0,90.0*
21,1,0.79250,0.27000,0,0,90.0*
1,1,0.06750,0.10125,0.39625*
1,1,0.06750,0.10125,-0.39625*
1,1,0.06750,-0.10125,-0.39625*
1,1,0.06750,-0.10125,0.39625*
%
%ADD51ROUNDEDRECTD51*%
G04:AMPARAMS|DCode=52|XSize=0.86mm|YSize=0.27mm|CornerRadius=0.03375mm|HoleSize=0mm|Usage=FLASHONLY|Rotation=0.000|XOffset=0mm|YOffset=0mm|HoleType=Round|Shape=RoundedRectangle|*
%AMROUNDEDRECTD52*
21,1,0.86000,0.20250,0,0,0.0*
21,1,0.79250,0.27000,0,0,0.0*
1,1,0.06750,0.39625,-0.10125*
1,1,0.06750,-0.39625,-0.10125*
1,1,0.06750,-0.39625,0.10125*
1,1,0.06750,0.39625,0.10125*
%
%ADD52ROUNDEDRECTD52*%
G04:AMPARAMS|DCode=54|XSize=1.24mm|YSize=0.55mm|CornerRadius=0.1375mm|HoleSize=0mm|Usage=FLASHONLY|Rotation=270.000|XOffset=0mm|YOffset=0mm|HoleType=Round|Shape=RoundedRectangle|*
%AMROUNDEDRECTD54*
21,1,1.24000,0.27500,0,0,270.0*
21,1,0.96500,0.55000,0,0,270.0*
1,1,0.27500,-0.13750,-0.48250*
1,1,0.27500,-0.13750,0.48250*
1,1,0.27500,0.13750,0.48250*
1,1,0.27500,0.13750,-0.48250*
%
%ADD54ROUNDEDRECTD54*%
G04:AMPARAMS|DCode=55|XSize=0.71mm|YSize=0.53mm|CornerRadius=0.06625mm|HoleSize=0mm|Usage=FLASHONLY|Rotation=0.000|XOffset=0mm|YOffset=0mm|HoleType=Round|Shape=RoundedRectangle|*
%AMROUNDEDRECTD55*
21,1,0.71000,0.39750,0,0,0.0*
21,1,0.57750,0.53000,0,0,0.0*
1,1,0.13250,0.28875,-0.19875*
1,1,0.13250,-0.28875,-0.19875*
1,1,0.13250,-0.28875,0.19875*
1,1,0.13250,0.28875,0.19875*
%
%ADD55ROUNDEDRECTD55*%
G04:AMPARAMS|DCode=56|XSize=1.12mm|YSize=0.27mm|CornerRadius=0.03375mm|HoleSize=0mm|Usage=FLASHONLY|Rotation=90.000|XOffset=0mm|YOffset=0mm|HoleType=Round|Shape=RoundedRectangle|*
%AMROUNDEDRECTD56*
21,1,1.12000,0.20250,0,0,90.0*
21,1,1.05250,0.27000,0,0,90.0*
1,1,0.06750,0.10125,0.52625*
1,1,0.06750,0.10125,-0.52625*
1,1,0.06750,-0.10125,-0.52625*
1,1,0.06750,-0.10125,0.52625*
%
%ADD56ROUNDEDRECTD56*%
%ADD57R,0.60000X1.30000*%
%ADD58R,0.80000X1.30000*%
%ADD59R,1.00000X2.10000*%
%ADD60R,2.20000X1.05000*%
%ADD61R,1.05000X1.00000*%
%TA.AperFunction,BGAPad,CuDef*%
%ADD62R,3.09999X3.09999*%
%TA.AperFunction,SMDPad,CuDef*%
%ADD63R,0.70000X2.00000*%
%ADD64R,2.00000X0.70000*%
%ADD65R,1.60000X1.10000*%
%ADD66R,1.10000X1.60000*%
%ADD67R,2.00000X0.70000*%
%ADD68R,2.45000X2.30000*%
%ADD70R,1.20000X0.60000*%
%ADD71R,0.30480X0.87630*%
%ADD72R,1.00000X1.80000*%
G04:AMPARAMS|DCode=73|XSize=0.94mm|YSize=1.02mm|CornerRadius=0.094mm|HoleSize=0mm|Usage=FLASHONLY|Rotation=45.000|XOffset=0mm|YOffset=0mm|HoleType=Round|Shape=RoundedRectangle|*
%AMROUNDEDRECTD73*
21,1,0.94000,0.83200,0,0,45.0*
21,1,0.75200,1.02000,0,0,45.0*
1,1,0.18800,0.56003,-0.02829*
1,1,0.18800,0.02829,-0.56003*
1,1,0.18800,-0.56003,0.02829*
1,1,0.18800,-0.02829,0.56003*
%
%ADD73ROUNDEDRECTD73*%
G04:AMPARAMS|DCode=74|XSize=0.94mm|YSize=1.02mm|CornerRadius=0.094mm|HoleSize=0mm|Usage=FLASHONLY|Rotation=315.000|XOffset=0mm|YOffset=0mm|HoleType=Round|Shape=RoundedRectangle|*
%AMROUNDEDRECTD74*
21,1,0.94000,0.83200,0,0,315.0*
21,1,0.75200,1.02000,0,0,315.0*
1,1,0.18800,-0.02829,-0.56003*
1,1,0.18800,-0.56003,-0.02829*
1,1,0.18800,0.02829,0.56003*
1,1,0.18800,0.56003,0.02829*
%
%ADD74ROUNDEDRECTD74*%
G04:AMPARAMS|DCode=75|XSize=0.94mm|YSize=1.77mm|CornerRadius=0.0658mm|HoleSize=0mm|Usage=FLASHONLY|Rotation=90.000|XOffset=0mm|YOffset=0mm|HoleType=Round|Shape=RoundedRectangle|*
%AMROUNDEDRECTD75*
21,1,0.94000,1.63840,0,0,90.0*
21,1,0.80840,1.77000,0,0,90.0*
1,1,0.13160,0.81920,0.40420*
1,1,0.13160,0.81920,-0.40420*
1,1,0.13160,-0.81920,-0.40420*
1,1,0.13160,-0.81920,0.40420*
%
%ADD75ROUNDEDRECTD75*%
G04:AMPARAMS|DCode=76|XSize=1.09mm|YSize=1.77mm|CornerRadius=0.0763mm|HoleSize=0mm|Usage=FLASHONLY|Rotation=90.000|XOffset=0mm|YOffset=0mm|HoleType=Round|Shape=RoundedRectangle|*
%AMROUNDEDRECTD76*
21,1,1.09000,1.61740,0,0,90.0*
21,1,0.93740,1.77000,0,0,90.0*
1,1,0.15260,0.80870,0.46870*
1,1,0.15260,0.80870,-0.46870*
1,1,0.15260,-0.80870,-0.46870*
1,1,0.15260,-0.80870,0.46870*
%
%ADD76ROUNDEDRECTD76*%
%ADD77O,0.84699X0.36401*%
%ADD78R,2.19240X2.04749*%
G04:AMPARAMS|DCode=79|XSize=1.4mm|YSize=1.2mm|CornerRadius=0mm|HoleSize=0mm|Usage=FLASHONLY|Rotation=225.000|XOffset=0mm|YOffset=0mm|HoleType=Round|Shape=Rectangle|*
%AMROTATEDRECTD79*
4,1,4,0.07071,0.91924,0.91924,0.07071,-0.07071,-0.91924,-0.91924,-0.07071,0.07071,0.91924,0.0*
%
%ADD79ROTATEDRECTD79*%

%ADD80R,3.25001X3.25001*%
%ADD81O,0.36401X0.84699*%
%ADD148R,1.55000X1.55000*%
G36*
X4172229Y7494057D02*
Y7415058D01*
X4167228Y7410059D01*
X4144431D01*
Y7448057D01*
X4111431D01*
Y7410059D01*
X4087228D01*
X4082229Y7415058D01*
Y7494057D01*
X4087228Y7499058D01*
X4167228D01*
X4172229Y7494057D01*
D02*
G37*
G36*
X4848629Y7484277D02*
Y7405278D01*
X4843628Y7400279D01*
X4820831D01*
Y7438277D01*
X4787831D01*
Y7400279D01*
X4763628D01*
X4758629Y7405278D01*
Y7484277D01*
X4763628Y7489278D01*
X4843628D01*
X4848629Y7484277D01*
D02*
G37*
G36*
X4172229Y7335058D02*
Y7255058D01*
X4167228Y7250059D01*
X4087228D01*
X4082229Y7255058D01*
Y7335058D01*
X4087228Y7340059D01*
X4111431D01*
Y7303059D01*
X4144431D01*
Y7340059D01*
X4167228D01*
X4172229Y7335058D01*
D02*
G37*
G36*
X4848629Y7325278D02*
Y7245278D01*
X4843628Y7240279D01*
X4763628D01*
X4758629Y7245278D01*
Y7325278D01*
X4763628Y7330279D01*
X4787831D01*
Y7293279D01*
X4820831D01*
Y7330279D01*
X4843628D01*
X4848629Y7325278D01*
D02*
G37*
G36*
X7170220Y7233214D02*
Y7183151D01*
X7166220Y7179150D01*
X7120220D01*
X7116220Y7183151D01*
Y7233214D01*
X7120220Y7237215D01*
X7166220D01*
X7170220Y7233214D01*
D02*
G37*
G36*
X7483309Y7242117D02*
Y7163118D01*
X7478308Y7158119D01*
X7455511D01*
Y7196117D01*
X7422511D01*
Y7158119D01*
X7398308D01*
X7393309Y7163118D01*
Y7242117D01*
X7398308Y7247118D01*
X7478308D01*
X7483309Y7242117D01*
D02*
G37*
G36*
X7342179D02*
Y7163118D01*
X7337178Y7158119D01*
X7314381D01*
Y7196117D01*
X7281382D01*
Y7158119D01*
X7257178D01*
X7252179Y7163118D01*
Y7242117D01*
X7257178Y7247118D01*
X7337178D01*
X7342179Y7242117D01*
D02*
G37*
G36*
X7623019Y7241433D02*
Y7162434D01*
X7618018Y7157435D01*
X7595221D01*
Y7195434D01*
X7562222D01*
Y7157435D01*
X7538018D01*
X7533019Y7162434D01*
Y7241433D01*
X7538018Y7246434D01*
X7618018D01*
X7623019Y7241433D01*
D02*
G37*
G36*
X8151369Y7238833D02*
Y7159834D01*
X8146368Y7154835D01*
X8123571D01*
Y7192834D01*
X8090572D01*
Y7154835D01*
X8066368D01*
X8061369Y7159834D01*
Y7238833D01*
X8066368Y7243834D01*
X8146368D01*
X8151369Y7238833D01*
D02*
G37*
G36*
X7986269D02*
Y7159834D01*
X7981268Y7154835D01*
X7958471D01*
Y7192834D01*
X7925472D01*
Y7154835D01*
X7901268D01*
X7896269Y7159834D01*
Y7238833D01*
X7901268Y7243834D01*
X7981268D01*
X7986269Y7238833D01*
D02*
G37*
G36*
X7170220Y7148150D02*
Y7098086D01*
X7166220Y7094086D01*
X7120220D01*
X7116220Y7098086D01*
Y7148150D01*
X7120220Y7152150D01*
X7166220D01*
X7170220Y7148150D01*
D02*
G37*
G36*
X7483309Y7083118D02*
Y7003118D01*
X7478308Y6998119D01*
X7398308D01*
X7393309Y7003118D01*
Y7083118D01*
X7398308Y7088119D01*
X7422511D01*
Y7051119D01*
X7455511D01*
Y7088119D01*
X7478308D01*
X7483309Y7083118D01*
D02*
G37*
G36*
X7342179D02*
Y7003118D01*
X7337178Y6998119D01*
X7257178D01*
X7252179Y7003118D01*
Y7083118D01*
X7257178Y7088119D01*
X7281382D01*
Y7051119D01*
X7314381D01*
Y7088119D01*
X7337178D01*
X7342179Y7083118D01*
D02*
G37*
G36*
X7623019Y7082434D02*
Y7002434D01*
X7618018Y6997436D01*
X7538018D01*
X7533019Y7002434D01*
Y7082434D01*
X7538018Y7087435D01*
X7562222D01*
Y7050435D01*
X7595221D01*
Y7087435D01*
X7618018D01*
X7623019Y7082434D01*
D02*
G37*
G36*
X8151369Y7079834D02*
Y6999834D01*
X8146368Y6994836D01*
X8066368D01*
X8061369Y6999834D01*
Y7079834D01*
X8066368Y7084835D01*
X8090572D01*
Y7047835D01*
X8123571D01*
Y7084835D01*
X8146368D01*
X8151369Y7079834D01*
D02*
G37*
G36*
X7986269D02*
Y6999834D01*
X7981268Y6994836D01*
X7901268D01*
X7896269Y6999834D01*
Y7079834D01*
X7901268Y7084835D01*
X7925472D01*
Y7047835D01*
X7958471D01*
Y7084835D01*
X7981268D01*
X7986269Y7079834D01*
D02*
G37*
G36*
X3554189Y6797954D02*
Y6718955D01*
X3549187Y6713956D01*
X3526391D01*
Y6751954D01*
X3493391D01*
Y6713956D01*
X3469188D01*
X3464189Y6718955D01*
Y6797954D01*
X3469188Y6802955D01*
X3549187D01*
X3554189Y6797954D01*
D02*
G37*
G36*
X3387513Y6833814D02*
Y6718813D01*
X3382512Y6713814D01*
X3341509Y6713311D01*
Y6758312D01*
X3296510D01*
Y6714312D01*
X3254514Y6713814D01*
X3249512Y6718813D01*
Y6833814D01*
X3254514Y6838815D01*
X3382512D01*
X3387513Y6833814D01*
D02*
G37*
G36*
X4310961Y6797959D02*
Y6717959D01*
X4305962Y6712958D01*
X4281759D01*
Y6749958D01*
X4248759D01*
Y6712958D01*
X4225962D01*
X4220961Y6717959D01*
Y6797959D01*
X4225962Y6802958D01*
X4305962D01*
X4310961Y6797959D01*
D02*
G37*
G36*
X4151591D02*
Y6717959D01*
X4146592Y6712958D01*
X4122389D01*
Y6749958D01*
X4089389D01*
Y6712958D01*
X4066593D01*
X4061591Y6717959D01*
Y6797959D01*
X4066593Y6802958D01*
X4146592D01*
X4151591Y6797959D01*
D02*
G37*
G36*
X3554189Y6638955D02*
Y6558955D01*
X3549187Y6553956D01*
X3469188D01*
X3464189Y6558955D01*
Y6638955D01*
X3469188Y6643956D01*
X3493391D01*
Y6606956D01*
X3526391D01*
Y6643956D01*
X3549187D01*
X3554189Y6638955D01*
D02*
G37*
G36*
X4310961Y6637959D02*
Y6558960D01*
X4305962Y6553959D01*
X4225962D01*
X4220961Y6558960D01*
Y6637959D01*
X4225962Y6642958D01*
X4248759D01*
Y6604960D01*
X4281759D01*
Y6642958D01*
X4305962D01*
X4310961Y6637959D01*
D02*
G37*
G36*
X4151591D02*
Y6558960D01*
X4146592Y6553959D01*
X4066593D01*
X4061591Y6558960D01*
Y6637959D01*
X4066593Y6642958D01*
X4089389D01*
Y6604960D01*
X4122389D01*
Y6642958D01*
X4146592D01*
X4151591Y6637959D01*
D02*
G37*
G36*
X3387513Y6618813D02*
Y6503815D01*
X3382512Y6498813D01*
X3254514D01*
X3249512Y6503815D01*
Y6618813D01*
X3254514Y6623814D01*
X3296510Y6623812D01*
Y6579313D01*
X3341509D01*
Y6623311D01*
X3382512Y6623814D01*
X3387513Y6618813D01*
D02*
G37*
G36*
X4695861Y6352410D02*
Y6223912D01*
X4685861Y6213912D01*
X4648835D01*
X4638835Y6223912D01*
Y6254402D01*
X4628835Y6264402D01*
X4590085D01*
X4580085Y6254402D01*
Y6223912D01*
X4570085Y6213912D01*
X4533059D01*
X4523059Y6223912D01*
Y6352410D01*
X4533059Y6362410D01*
X4685861D01*
X4695861Y6352410D01*
D02*
G37*
G36*
Y6033909D02*
Y5905411D01*
X4685861Y5895411D01*
X4533059D01*
X4523059Y5905411D01*
Y6033909D01*
X4533059Y6043909D01*
X4570085D01*
X4580085Y6033909D01*
Y6003419D01*
X4590085Y5993419D01*
X4628835D01*
X4638835Y6003419D01*
Y6033909D01*
X4648835Y6043909D01*
X4685861D01*
X4695861Y6033909D01*
D02*
G37*
G36*
X3901250Y4978010D02*
X3867250D01*
Y5003010D01*
X3901250D01*
Y4978010D01*
D02*
G37*
G36*
X3595250D02*
X3561250D01*
Y5003010D01*
X3595250D01*
Y4978010D01*
D02*
G37*
G36*
X3390912Y5020802D02*
Y4940802D01*
X3385911Y4935801D01*
X3306912D01*
X3301913Y4940802D01*
Y4963599D01*
X3339912D01*
Y4996598D01*
X3301913D01*
Y5020802D01*
X3306912Y5025801D01*
X3385911D01*
X3390912Y5020802D01*
D02*
G37*
G36*
X3231913D02*
Y4996598D01*
X3194913D01*
Y4963599D01*
X3231913D01*
Y4940802D01*
X3226912Y4935801D01*
X3146912D01*
X3141913Y4940802D01*
Y5020802D01*
X3146912Y5025801D01*
X3226912D01*
X3231913Y5020802D01*
D02*
G37*
G36*
X3901250Y4928010D02*
X3867250D01*
Y4953010D01*
X3901250D01*
Y4928010D01*
D02*
G37*
G36*
X3595250D02*
X3561250D01*
Y4953010D01*
X3595250D01*
Y4928010D01*
D02*
G37*
G36*
X3847250Y4890510D02*
X3741250D01*
Y5040510D01*
X3847250D01*
Y4890510D01*
D02*
G37*
G36*
X3721250D02*
X3615250D01*
Y5040510D01*
X3721250D01*
Y4890510D01*
D02*
G37*
G36*
X5602115Y4372020D02*
Y4326020D01*
X5598114Y4322020D01*
X5548051D01*
X5544050Y4326020D01*
Y4372020D01*
X5548051Y4376020D01*
X5598114D01*
X5602115Y4372020D01*
D02*
G37*
G36*
X5517050D02*
Y4326020D01*
X5513049Y4322020D01*
X5462986D01*
X5458986Y4326020D01*
Y4372020D01*
X5462986Y4376020D01*
X5513049D01*
X5517050Y4372020D01*
D02*
G37*
G36*
X3310049Y3816439D02*
Y3770440D01*
X3306048Y3766439D01*
X3255985D01*
X3251984Y3770440D01*
Y3816439D01*
X3255985Y3820440D01*
X3306048D01*
X3310049Y3816439D01*
D02*
G37*
G36*
X3224984D02*
Y3770440D01*
X3220984Y3766439D01*
X3170920D01*
X3166920Y3770440D01*
Y3816439D01*
X3170920Y3820440D01*
X3220984D01*
X3224984Y3816439D01*
D02*
G37*
G36*
X3310596Y3718910D02*
Y3672910D01*
X3306596Y3668910D01*
X3256532D01*
X3252532Y3672910D01*
Y3718910D01*
X3256532Y3722910D01*
X3306596D01*
X3310596Y3718910D01*
D02*
G37*
G36*
X3225532D02*
Y3672910D01*
X3221531Y3668910D01*
X3171468D01*
X3167467Y3672910D01*
Y3718910D01*
X3171468Y3722910D01*
X3221531D01*
X3225532Y3718910D01*
D02*
G37*
G36*
X3310845Y3618690D02*
Y3572690D01*
X3306844Y3568690D01*
X3256781D01*
X3252780Y3572690D01*
Y3618690D01*
X3256781Y3622690D01*
X3306844D01*
X3310845Y3618690D01*
D02*
G37*
G36*
X3225780D02*
Y3572690D01*
X3221779Y3568690D01*
X3171716D01*
X3167716Y3572690D01*
Y3618690D01*
X3171716Y3622690D01*
X3221779D01*
X3225780Y3618690D01*
D02*
G37*
G36*
X3310179Y3518339D02*
Y3472340D01*
X3306179Y3468339D01*
X3256115D01*
X3252115Y3472340D01*
Y3518339D01*
X3256115Y3522340D01*
X3306179D01*
X3310179Y3518339D01*
D02*
G37*
G36*
X3225114D02*
Y3472340D01*
X3221114Y3468339D01*
X3171051D01*
X3167050Y3472340D01*
Y3518339D01*
X3171051Y3522340D01*
X3221114D01*
X3225114Y3518339D01*
D02*
G37*
G36*
X3309699Y3417889D02*
Y3371890D01*
X3305698Y3367889D01*
X3255635D01*
X3251634Y3371890D01*
Y3417889D01*
X3255635Y3421890D01*
X3305698D01*
X3309699Y3417889D01*
D02*
G37*
G36*
X3224634D02*
Y3371890D01*
X3220634Y3367889D01*
X3170570D01*
X3166570Y3371890D01*
Y3417889D01*
X3170570Y3421890D01*
X3220634D01*
X3224634Y3417889D01*
D02*
G37*
G36*
X5948190Y3384654D02*
Y3334591D01*
X5944190Y3330590D01*
X5898190D01*
X5894190Y3334591D01*
Y3384654D01*
X5898190Y3388655D01*
X5944190D01*
X5948190Y3384654D01*
D02*
G37*
G36*
X3397304Y3319263D02*
Y3269200D01*
X3393304Y3265199D01*
X3347304D01*
X3343304Y3269200D01*
Y3319263D01*
X3347304Y3323264D01*
X3393304D01*
X3397304Y3319263D01*
D02*
G37*
G36*
X3697284Y3319223D02*
Y3269160D01*
X3693284Y3265159D01*
X3647285D01*
X3643284Y3269160D01*
Y3319223D01*
X3647285Y3323224D01*
X3693284D01*
X3697284Y3319223D01*
D02*
G37*
G36*
X3900364Y3319041D02*
Y3268978D01*
X3896364Y3264977D01*
X3850364D01*
X3846364Y3268978D01*
Y3319041D01*
X3850364Y3323042D01*
X3896364D01*
X3900364Y3319041D01*
D02*
G37*
G36*
X3798764D02*
Y3268978D01*
X3794764Y3264977D01*
X3748764D01*
X3744764Y3268978D01*
Y3319041D01*
X3748764Y3323042D01*
X3794764D01*
X3798764Y3319041D01*
D02*
G37*
G36*
X4000644Y3318943D02*
Y3268880D01*
X3996644Y3264879D01*
X3950644D01*
X3946644Y3268880D01*
Y3318943D01*
X3950644Y3322944D01*
X3996644D01*
X4000644Y3318943D01*
D02*
G37*
G36*
X3596124Y3318483D02*
Y3268420D01*
X3592124Y3264419D01*
X3546124D01*
X3542124Y3268420D01*
Y3318483D01*
X3546124Y3322484D01*
X3592124D01*
X3596124Y3318483D01*
D02*
G37*
G36*
X3497444Y3317833D02*
Y3267770D01*
X3493444Y3263769D01*
X3447444D01*
X3443444Y3267770D01*
Y3317833D01*
X3447444Y3321834D01*
X3493444D01*
X3497444Y3317833D01*
D02*
G37*
G36*
X5948190Y3299590D02*
Y3249526D01*
X5944190Y3245526D01*
X5898190D01*
X5894190Y3249526D01*
Y3299590D01*
X5898190Y3303590D01*
X5944190D01*
X5948190Y3299590D01*
D02*
G37*
G36*
X3397304Y3234199D02*
Y3184135D01*
X3393304Y3180135D01*
X3347304D01*
X3343304Y3184135D01*
Y3234199D01*
X3347304Y3238199D01*
X3393304D01*
X3397304Y3234199D01*
D02*
G37*
G36*
X3697284Y3234159D02*
Y3184095D01*
X3693284Y3180095D01*
X3647285D01*
X3643284Y3184095D01*
Y3234159D01*
X3647285Y3238159D01*
X3693284D01*
X3697284Y3234159D01*
D02*
G37*
G36*
X3900364Y3233977D02*
Y3183913D01*
X3896364Y3179913D01*
X3850364D01*
X3846364Y3183913D01*
Y3233977D01*
X3850364Y3237977D01*
X3896364D01*
X3900364Y3233977D01*
D02*
G37*
G36*
X3798764D02*
Y3183913D01*
X3794764Y3179913D01*
X3748764D01*
X3744764Y3183913D01*
Y3233977D01*
X3748764Y3237977D01*
X3794764D01*
X3798764Y3233977D01*
D02*
G37*
G36*
X4000644Y3233879D02*
Y3183815D01*
X3996644Y3179815D01*
X3950644D01*
X3946644Y3183815D01*
Y3233879D01*
X3950644Y3237879D01*
X3996644D01*
X4000644Y3233879D01*
D02*
G37*
G36*
X3596124Y3233419D02*
Y3183355D01*
X3592124Y3179355D01*
X3546124D01*
X3542124Y3183355D01*
Y3233419D01*
X3546124Y3237419D01*
X3592124D01*
X3596124Y3233419D01*
D02*
G37*
G36*
X3497444Y3232769D02*
Y3182705D01*
X3493444Y3178705D01*
X3447444D01*
X3443444Y3182705D01*
Y3232769D01*
X3447444Y3236769D01*
X3493444D01*
X3497444Y3232769D01*
D02*
G37*
G36*
X9810519Y8938098D02*
X9813496Y8937801D01*
X9816455Y8937354D01*
X9819386Y8936762D01*
X9822287Y8936023D01*
X9825144Y8935142D01*
X9827956Y8934118D01*
X9830712Y8932957D01*
X9833410Y8931660D01*
X9836036Y8930227D01*
X9838589Y8928667D01*
X9841060Y8926983D01*
X9843445Y8925175D01*
X9845736Y8923252D01*
X9847931Y8921218D01*
X9850019Y8919076D01*
X9852000Y8916834D01*
X9853864Y8914494D01*
X9855609Y8912066D01*
X9857232Y8909551D01*
X9858728Y8906961D01*
X9860095Y8904299D01*
X9861324Y8901573D01*
X9862416Y8898787D01*
X9863371Y8895952D01*
X9864182Y8893072D01*
X9864847Y8890156D01*
X9865365Y8887210D01*
X9865739Y8884240D01*
X9865962Y8881256D01*
X9866036Y8878266D01*
Y8848266D01*
X9865962Y8845277D01*
X9865739Y8842292D01*
X9865365Y8839323D01*
X9864847Y8836377D01*
X9864182Y8833461D01*
X9863371Y8830580D01*
X9862416Y8827746D01*
X9861324Y8824959D01*
X9860095Y8822234D01*
X9858728Y8819572D01*
X9857232Y8816981D01*
X9855609Y8814466D01*
X9853864Y8812038D01*
X9852000Y8809699D01*
X9850019Y8807456D01*
X9847931Y8805315D01*
X9845736Y8803280D01*
X9843445Y8801358D01*
X9841060Y8799549D01*
X9838589Y8797865D01*
X9836036Y8796305D01*
X9833410Y8794873D01*
X9830712Y8793575D01*
X9827956Y8792414D01*
X9825144Y8791391D01*
X9822287Y8790509D01*
X9819386Y8789770D01*
X9816455Y8789178D01*
X9813496Y8788731D01*
X9810519Y8788434D01*
X9807532Y8788284D01*
X9804540D01*
X9801553Y8788434D01*
X9798576Y8788731D01*
X9795617Y8789178D01*
X9792686Y8789770D01*
X9789785Y8790509D01*
X9786928Y8791391D01*
X9784116Y8792414D01*
X9781360Y8793575D01*
X9778662Y8794873D01*
X9776036Y8796305D01*
X9773483Y8797865D01*
X9771012Y8799549D01*
X9768627Y8801358D01*
X9766336Y8803280D01*
X9764141Y8805315D01*
X9762053Y8807456D01*
X9760072Y8809699D01*
X9758208Y8812038D01*
X9756463Y8814466D01*
X9754840Y8816981D01*
X9753344Y8819572D01*
X9751977Y8822234D01*
X9750748Y8824959D01*
X9749656Y8827746D01*
X9748701Y8830580D01*
X9747890Y8833461D01*
X9747225Y8836377D01*
X9746707Y8839323D01*
X9746333Y8842292D01*
X9746110Y8845277D01*
X9746036Y8848266D01*
Y8878266D01*
X9746110Y8881256D01*
X9746333Y8884240D01*
X9746707Y8887210D01*
X9747225Y8890156D01*
X9747890Y8893072D01*
X9748701Y8895952D01*
X9749656Y8898787D01*
X9750748Y8901573D01*
X9751977Y8904299D01*
X9753344Y8906961D01*
X9754840Y8909551D01*
X9756463Y8912066D01*
X9758208Y8914494D01*
X9760072Y8916834D01*
X9762053Y8919076D01*
X9764141Y8921218D01*
X9766336Y8923252D01*
X9768627Y8925175D01*
X9771012Y8926983D01*
X9773483Y8928667D01*
X9776036Y8930227D01*
X9778662Y8931660D01*
X9781360Y8932957D01*
X9784116Y8934118D01*
X9786928Y8935142D01*
X9789785Y8936023D01*
X9792686Y8936762D01*
X9795617Y8937354D01*
X9798576Y8937801D01*
X9801553Y8938098D01*
X9804540Y8938248D01*
X9807532D01*
X9810519Y8938098D01*
D02*
G37*
G36*
X8945522D02*
X8948499Y8937801D01*
X8951458Y8937354D01*
X8954389Y8936762D01*
X8957290Y8936023D01*
X8960147Y8935142D01*
X8962959Y8934118D01*
X8965715Y8932957D01*
X8968413Y8931660D01*
X8971039Y8930227D01*
X8973592Y8928667D01*
X8976063Y8926983D01*
X8978448Y8925175D01*
X8980739Y8923252D01*
X8982934Y8921218D01*
X8985022Y8919076D01*
X8987003Y8916834D01*
X8988867Y8914494D01*
X8990612Y8912066D01*
X8992235Y8909551D01*
X8993731Y8906961D01*
X8995098Y8904299D01*
X8996327Y8901573D01*
X8997419Y8898787D01*
X8998374Y8895952D01*
X8999185Y8893072D01*
X8999850Y8890156D01*
X9000368Y8887210D01*
X9000742Y8884240D01*
X9000965Y8881256D01*
X9001039Y8878266D01*
Y8848266D01*
X9000965Y8845277D01*
X9000742Y8842292D01*
X9000368Y8839323D01*
X8999850Y8836377D01*
X8999185Y8833461D01*
X8998374Y8830580D01*
X8997419Y8827746D01*
X8996327Y8824959D01*
X8995098Y8822234D01*
X8993731Y8819572D01*
X8992235Y8816981D01*
X8990612Y8814466D01*
X8988867Y8812038D01*
X8987003Y8809699D01*
X8985022Y8807456D01*
X8982934Y8805315D01*
X8980739Y8803280D01*
X8978448Y8801358D01*
X8976063Y8799549D01*
X8973592Y8797865D01*
X8971039Y8796305D01*
X8968413Y8794873D01*
X8965715Y8793575D01*
X8962959Y8792414D01*
X8960147Y8791391D01*
X8957290Y8790509D01*
X8954389Y8789770D01*
X8951458Y8789178D01*
X8948499Y8788731D01*
X8945522Y8788434D01*
X8942535Y8788284D01*
X8939543D01*
X8936556Y8788434D01*
X8933579Y8788731D01*
X8930620Y8789178D01*
X8927689Y8789770D01*
X8924788Y8790509D01*
X8921931Y8791391D01*
X8919119Y8792414D01*
X8916363Y8793575D01*
X8913665Y8794873D01*
X8911039Y8796305D01*
X8908486Y8797865D01*
X8906015Y8799549D01*
X8903630Y8801358D01*
X8901339Y8803280D01*
X8899144Y8805315D01*
X8897056Y8807456D01*
X8895075Y8809699D01*
X8893211Y8812038D01*
X8891466Y8814466D01*
X8889843Y8816981D01*
X8888347Y8819572D01*
X8886980Y8822234D01*
X8885751Y8824959D01*
X8884659Y8827746D01*
X8883704Y8830580D01*
X8882893Y8833461D01*
X8882228Y8836377D01*
X8881710Y8839323D01*
X8881336Y8842292D01*
X8881113Y8845277D01*
X8881039Y8848266D01*
Y8878266D01*
X8881113Y8881256D01*
X8881336Y8884240D01*
X8881710Y8887210D01*
X8882228Y8890156D01*
X8882893Y8893072D01*
X8883704Y8895952D01*
X8884659Y8898787D01*
X8885751Y8901573D01*
X8886980Y8904299D01*
X8888347Y8906961D01*
X8889843Y8909551D01*
X8891466Y8912066D01*
X8893211Y8914494D01*
X8895075Y8916834D01*
X8897056Y8919076D01*
X8899144Y8921218D01*
X8901339Y8923252D01*
X8903630Y8925175D01*
X8906015Y8926983D01*
X8908486Y8928667D01*
X8911039Y8930227D01*
X8913665Y8931660D01*
X8916363Y8932957D01*
X8919119Y8934118D01*
X8921931Y8935142D01*
X8924788Y8936023D01*
X8927689Y8936762D01*
X8930620Y8937354D01*
X8933579Y8937801D01*
X8936556Y8938098D01*
X8939543Y8938248D01*
X8942535D01*
X8945522Y8938098D01*
D02*
G37*
G36*
X9810519Y8543083D02*
X9813496Y8542786D01*
X9816455Y8542339D01*
X9819386Y8541747D01*
X9822287Y8541008D01*
X9825144Y8540126D01*
X9827956Y8539103D01*
X9830712Y8537942D01*
X9833410Y8536644D01*
X9836036Y8535211D01*
X9838589Y8533652D01*
X9841060Y8531968D01*
X9843445Y8530159D01*
X9845736Y8528236D01*
X9847931Y8526202D01*
X9850019Y8524061D01*
X9852000Y8521818D01*
X9853864Y8519479D01*
X9855609Y8517050D01*
X9857232Y8514536D01*
X9858728Y8511945D01*
X9860095Y8509283D01*
X9861324Y8506558D01*
X9862416Y8503771D01*
X9863371Y8500937D01*
X9864182Y8498056D01*
X9864847Y8495140D01*
X9865365Y8492194D01*
X9865739Y8489225D01*
X9865962Y8486240D01*
X9866036Y8483250D01*
Y8403251D01*
X9865962Y8400261D01*
X9865739Y8397277D01*
X9865365Y8394307D01*
X9864847Y8391361D01*
X9864182Y8388445D01*
X9863371Y8385565D01*
X9862416Y8382730D01*
X9861324Y8379944D01*
X9860095Y8377218D01*
X9858728Y8374556D01*
X9857232Y8371965D01*
X9855609Y8369451D01*
X9853864Y8367023D01*
X9852000Y8364683D01*
X9850019Y8362440D01*
X9847931Y8360299D01*
X9845736Y8358265D01*
X9843445Y8356342D01*
X9841060Y8354533D01*
X9838589Y8352849D01*
X9836036Y8351290D01*
X9833410Y8349857D01*
X9830712Y8348559D01*
X9827956Y8347399D01*
X9825144Y8346375D01*
X9822287Y8345494D01*
X9819386Y8344754D01*
X9816455Y8344163D01*
X9813496Y8343716D01*
X9810519Y8343418D01*
X9807532Y8343269D01*
X9804540D01*
X9801553Y8343418D01*
X9798576Y8343716D01*
X9795617Y8344163D01*
X9792686Y8344754D01*
X9789785Y8345494D01*
X9786928Y8346375D01*
X9784116Y8347399D01*
X9781360Y8348559D01*
X9778662Y8349857D01*
X9776036Y8351290D01*
X9773483Y8352849D01*
X9771012Y8354533D01*
X9768627Y8356342D01*
X9766336Y8358265D01*
X9764141Y8360299D01*
X9762053Y8362440D01*
X9760072Y8364683D01*
X9758208Y8367023D01*
X9756463Y8369451D01*
X9754840Y8371965D01*
X9753344Y8374556D01*
X9751977Y8377218D01*
X9750748Y8379944D01*
X9749656Y8382730D01*
X9748701Y8385565D01*
X9747890Y8388445D01*
X9747225Y8391361D01*
X9746707Y8394307D01*
X9746333Y8397277D01*
X9746110Y8400261D01*
X9746036Y8403251D01*
Y8483250D01*
X9746110Y8486240D01*
X9746333Y8489225D01*
X9746707Y8492194D01*
X9747225Y8495140D01*
X9747890Y8498056D01*
X9748701Y8500937D01*
X9749656Y8503771D01*
X9750748Y8506558D01*
X9751977Y8509283D01*
X9753344Y8511945D01*
X9754840Y8514536D01*
X9756463Y8517050D01*
X9758208Y8519479D01*
X9760072Y8521818D01*
X9762053Y8524061D01*
X9764141Y8526202D01*
X9766336Y8528236D01*
X9768627Y8530159D01*
X9771012Y8531968D01*
X9773483Y8533652D01*
X9776036Y8535211D01*
X9778662Y8536644D01*
X9781360Y8537942D01*
X9784116Y8539103D01*
X9786928Y8540126D01*
X9789785Y8541008D01*
X9792686Y8541747D01*
X9795617Y8542339D01*
X9798576Y8542786D01*
X9801553Y8543083D01*
X9804540Y8543233D01*
X9807532D01*
X9810519Y8543083D01*
D02*
G37*
G36*
X8945522D02*
X8948499Y8542786D01*
X8951458Y8542339D01*
X8954389Y8541747D01*
X8957290Y8541008D01*
X8960147Y8540126D01*
X8962959Y8539103D01*
X8965715Y8537942D01*
X8968413Y8536644D01*
X8971039Y8535211D01*
X8973592Y8533652D01*
X8976063Y8531968D01*
X8978448Y8530159D01*
X8980739Y8528236D01*
X8982934Y8526202D01*
X8985022Y8524061D01*
X8987003Y8521818D01*
X8988867Y8519479D01*
X8990612Y8517050D01*
X8992235Y8514536D01*
X8993731Y8511945D01*
X8995098Y8509283D01*
X8996327Y8506558D01*
X8997419Y8503771D01*
X8998374Y8500937D01*
X8999185Y8498056D01*
X8999850Y8495140D01*
X9000368Y8492194D01*
X9000742Y8489225D01*
X9000965Y8486240D01*
X9001039Y8483250D01*
Y8403251D01*
X9000965Y8400261D01*
X9000742Y8397277D01*
X9000368Y8394307D01*
X8999850Y8391361D01*
X8999185Y8388445D01*
X8998374Y8385565D01*
X8997419Y8382730D01*
X8996327Y8379944D01*
X8995098Y8377218D01*
X8993731Y8374556D01*
X8992235Y8371965D01*
X8990612Y8369451D01*
X8988867Y8367023D01*
X8987003Y8364683D01*
X8985022Y8362440D01*
X8982934Y8360299D01*
X8980739Y8358265D01*
X8978448Y8356342D01*
X8976063Y8354533D01*
X8973592Y8352849D01*
X8971039Y8351290D01*
X8968413Y8349857D01*
X8965715Y8348559D01*
X8962959Y8347399D01*
X8960147Y8346375D01*
X8957290Y8345494D01*
X8954389Y8344754D01*
X8951458Y8344163D01*
X8948499Y8343716D01*
X8945522Y8343418D01*
X8942535Y8343269D01*
X8939543D01*
X8936556Y8343418D01*
X8933579Y8343716D01*
X8930620Y8344163D01*
X8927689Y8344754D01*
X8924788Y8345494D01*
X8921931Y8346375D01*
X8919119Y8347399D01*
X8916363Y8348559D01*
X8913665Y8349857D01*
X8911039Y8351290D01*
X8908486Y8352849D01*
X8906015Y8354533D01*
X8903630Y8356342D01*
X8901339Y8358265D01*
X8899144Y8360299D01*
X8897056Y8362440D01*
X8895075Y8364683D01*
X8893211Y8367023D01*
X8891466Y8369451D01*
X8889843Y8371965D01*
X8888347Y8374556D01*
X8886980Y8377218D01*
X8885751Y8379944D01*
X8884659Y8382730D01*
X8883704Y8385565D01*
X8882893Y8388445D01*
X8882228Y8391361D01*
X8881710Y8394307D01*
X8881336Y8397277D01*
X8881113Y8400261D01*
X8881039Y8403251D01*
Y8483250D01*
X8881113Y8486240D01*
X8881336Y8489225D01*
X8881710Y8492194D01*
X8882228Y8495140D01*
X8882893Y8498056D01*
X8883704Y8500937D01*
X8884659Y8503771D01*
X8885751Y8506558D01*
X8886980Y8509283D01*
X8888347Y8511945D01*
X8889843Y8514536D01*
X8891466Y8517050D01*
X8893211Y8519479D01*
X8895075Y8521818D01*
X8897056Y8524061D01*
X8899144Y8526202D01*
X8901339Y8528236D01*
X8903630Y8530159D01*
X8906015Y8531968D01*
X8908486Y8533652D01*
X8911039Y8535211D01*
X8913665Y8536644D01*
X8916363Y8537942D01*
X8919119Y8539103D01*
X8921931Y8540126D01*
X8924788Y8541008D01*
X8927689Y8541747D01*
X8930620Y8542339D01*
X8933579Y8542786D01*
X8936556Y8543083D01*
X8939543Y8543233D01*
X8942535D01*
X8945522Y8543083D01*
D02*
G37*
G36*
X9723539Y8333258D02*
X9663539D01*
Y8443258D01*
X9723539D01*
Y8333258D01*
D02*
G37*
G36*
X9643529D02*
X9583529D01*
Y8443258D01*
X9643529D01*
Y8333258D01*
D02*
G37*
G36*
X9563532D02*
X9533530D01*
Y8443258D01*
X9563532D01*
Y8333258D01*
D02*
G37*
G36*
X9513519D02*
X9483517D01*
Y8443258D01*
X9513519D01*
Y8333258D01*
D02*
G37*
G36*
X9463532D02*
X9433530D01*
Y8443258D01*
X9463532D01*
Y8333258D01*
D02*
G37*
G36*
X9413545D02*
X9383543D01*
Y8443258D01*
X9413545D01*
Y8333258D01*
D02*
G37*
G36*
X9363532D02*
X9333530D01*
Y8443258D01*
X9363532D01*
Y8333258D01*
D02*
G37*
G36*
X9313545D02*
X9283543D01*
Y8443258D01*
X9313545D01*
Y8333258D01*
D02*
G37*
G36*
X9263533D02*
X9233530D01*
Y8443258D01*
X9263533D01*
Y8333258D01*
D02*
G37*
G36*
X9213520D02*
X9183518D01*
Y8443258D01*
X9213520D01*
Y8333258D01*
D02*
G37*
G36*
X9163520D02*
X9103520D01*
Y8443258D01*
X9163520D01*
Y8333258D01*
D02*
G37*
G36*
X9083536D02*
X9023536D01*
Y8443258D01*
X9083536D01*
Y8333258D01*
D02*
G37*
G36*
X12198059Y8382487D02*
Y8303488D01*
X12193057Y8298489D01*
X12170261D01*
Y8336488D01*
X12137261D01*
Y8298489D01*
X12113058D01*
X12108059Y8303488D01*
Y8382487D01*
X12113058Y8387488D01*
X12193057D01*
X12198059Y8382487D01*
D02*
G37*
G36*
Y8223488D02*
Y8143488D01*
X12193057Y8138489D01*
X12113058D01*
X12108059Y8143488D01*
Y8223488D01*
X12113058Y8228489D01*
X12137261D01*
Y8191489D01*
X12170261D01*
Y8228489D01*
X12193057D01*
X12198059Y8223488D01*
D02*
G37*
G36*
X9612010Y8070086D02*
Y8020022D01*
X9608010Y8016022D01*
X9562010D01*
X9558010Y8020022D01*
Y8070086D01*
X9562010Y8074086D01*
X9608010D01*
X9612010Y8070086D01*
D02*
G37*
G36*
X9138060Y8062326D02*
Y8012262D01*
X9134060Y8008262D01*
X9088060D01*
X9084060Y8012262D01*
Y8062326D01*
X9088060Y8066326D01*
X9134060D01*
X9138060Y8062326D01*
D02*
G37*
G36*
X9612010Y7985021D02*
Y7934958D01*
X9608010Y7930957D01*
X9562010D01*
X9558010Y7934958D01*
Y7985021D01*
X9562010Y7989022D01*
X9608010D01*
X9612010Y7985021D01*
D02*
G37*
G36*
X9138060Y7977261D02*
Y7927198D01*
X9134060Y7923197D01*
X9088060D01*
X9084060Y7927198D01*
Y7977261D01*
X9088060Y7981262D01*
X9134060D01*
X9138060Y7977261D01*
D02*
G37*
G36*
X10214940Y7712564D02*
Y7662501D01*
X10210940Y7658500D01*
X10164941D01*
X10160940Y7662501D01*
Y7712564D01*
X10164941Y7716564D01*
X10210940D01*
X10214940Y7712564D01*
D02*
G37*
G36*
X10100811D02*
Y7662501D01*
X10096810Y7658500D01*
X10050811D01*
X10046810Y7662501D01*
Y7712564D01*
X10050811Y7716564D01*
X10096810D01*
X10100811Y7712564D01*
D02*
G37*
G36*
X9988521D02*
Y7662501D01*
X9984520Y7658500D01*
X9938521D01*
X9934520Y7662501D01*
Y7712564D01*
X9938521Y7716564D01*
X9984520D01*
X9988521Y7712564D01*
D02*
G37*
G36*
X10214940Y7627499D02*
Y7577436D01*
X10210940Y7573435D01*
X10164941D01*
X10160940Y7577436D01*
Y7627499D01*
X10164941Y7631500D01*
X10210940D01*
X10214940Y7627499D01*
D02*
G37*
G36*
X10100811D02*
Y7577436D01*
X10096810Y7573435D01*
X10050811D01*
X10046810Y7577436D01*
Y7627499D01*
X10050811Y7631500D01*
X10096810D01*
X10100811Y7627499D01*
D02*
G37*
G36*
X9988521D02*
Y7577436D01*
X9984520Y7573435D01*
X9938521D01*
X9934520Y7577436D01*
Y7627499D01*
X9938521Y7631500D01*
X9984520D01*
X9988521Y7627499D01*
D02*
G37*
G36*
X12694748Y7613292D02*
Y7533292D01*
X12689747Y7528291D01*
X12610748D01*
X12605749Y7533292D01*
Y7556089D01*
X12643748D01*
Y7589088D01*
X12605749D01*
Y7613292D01*
X12610748Y7618291D01*
X12689747D01*
X12694748Y7613292D01*
D02*
G37*
G36*
X12535749D02*
Y7589088D01*
X12498749D01*
Y7556089D01*
X12535749D01*
Y7533292D01*
X12530748Y7528291D01*
X12450748D01*
X12445750Y7533292D01*
Y7613292D01*
X12450748Y7618291D01*
X12530748D01*
X12535749Y7613292D01*
D02*
G37*
G36*
X9902980Y7433702D02*
Y7383639D01*
X9898980Y7379638D01*
X9852981D01*
X9848980Y7383639D01*
Y7433702D01*
X9852981Y7437703D01*
X9898980D01*
X9902980Y7433702D01*
D02*
G37*
G36*
X10002180Y7433364D02*
Y7383300D01*
X9998180Y7379300D01*
X9952181D01*
X9948180Y7383300D01*
Y7433364D01*
X9952181Y7437364D01*
X9998180D01*
X10002180Y7433364D01*
D02*
G37*
G36*
X10204650Y7433225D02*
Y7383162D01*
X10200650Y7379162D01*
X10154651D01*
X10150650Y7383162D01*
Y7433225D01*
X10154651Y7437226D01*
X10200650D01*
X10204650Y7433225D01*
D02*
G37*
G36*
X10100310Y7433024D02*
Y7382960D01*
X10096310Y7378960D01*
X10050310D01*
X10046310Y7382960D01*
Y7433024D01*
X10050310Y7437024D01*
X10096310D01*
X10100310Y7433024D01*
D02*
G37*
G36*
X12694748Y7443832D02*
Y7363832D01*
X12689747Y7358831D01*
X12610748D01*
X12605749Y7363832D01*
Y7386629D01*
X12643748D01*
Y7419628D01*
X12605749D01*
Y7443832D01*
X12610748Y7448831D01*
X12689747D01*
X12694748Y7443832D01*
D02*
G37*
G36*
X12535749D02*
Y7419628D01*
X12498749D01*
Y7386629D01*
X12535749D01*
Y7363832D01*
X12530748Y7358831D01*
X12450748D01*
X12445750Y7363832D01*
Y7443832D01*
X12450748Y7448831D01*
X12530748D01*
X12535749Y7443832D01*
D02*
G37*
G36*
X9902980Y7348638D02*
Y7298574D01*
X9898980Y7294574D01*
X9852981D01*
X9848980Y7298574D01*
Y7348638D01*
X9852981Y7352638D01*
X9898980D01*
X9902980Y7348638D01*
D02*
G37*
G36*
X10002180Y7348299D02*
Y7298236D01*
X9998180Y7294235D01*
X9952181D01*
X9948180Y7298236D01*
Y7348299D01*
X9952181Y7352300D01*
X9998180D01*
X10002180Y7348299D01*
D02*
G37*
G36*
X10204650Y7348161D02*
Y7298097D01*
X10200650Y7294097D01*
X10154651D01*
X10150650Y7298097D01*
Y7348161D01*
X10154651Y7352161D01*
X10200650D01*
X10204650Y7348161D01*
D02*
G37*
G36*
X10100310Y7347959D02*
Y7297896D01*
X10096310Y7293895D01*
X10050310D01*
X10046310Y7297896D01*
Y7347959D01*
X10050310Y7351960D01*
X10096310D01*
X10100310Y7347959D01*
D02*
G37*
G36*
X8316472Y7238838D02*
Y7158838D01*
X8311473Y7153837D01*
X8287269D01*
Y7190837D01*
X8254269D01*
Y7153837D01*
X8231473D01*
X8226472Y7158838D01*
Y7238838D01*
X8231473Y7243837D01*
X8311473D01*
X8316472Y7238838D01*
D02*
G37*
G36*
Y7078839D02*
Y6999839D01*
X8311473Y6994838D01*
X8231473D01*
X8226472Y6999839D01*
Y7078839D01*
X8231473Y7083837D01*
X8254269D01*
Y7045839D01*
X8287269D01*
Y7083837D01*
X8311473D01*
X8316472Y7078839D01*
D02*
G37*
G36*
X12870538Y6828831D02*
Y6749832D01*
X12865536Y6744833D01*
X12842741D01*
Y6782831D01*
X12809741D01*
Y6744833D01*
X12785538D01*
X12780539Y6749832D01*
Y6828831D01*
X12785538Y6833832D01*
X12865536D01*
X12870538Y6828831D01*
D02*
G37*
G36*
X12711543Y6815060D02*
Y6764733D01*
X12682168Y6737313D01*
X12654517D01*
X12625142Y6764733D01*
Y6815060D01*
X12631543Y6821461D01*
X12705142D01*
X12711543Y6815060D01*
D02*
G37*
G36*
X12870538Y6669832D02*
Y6589832D01*
X12865536Y6584833D01*
X12785538D01*
X12780539Y6589832D01*
Y6669832D01*
X12785538Y6674833D01*
X12809741D01*
Y6637833D01*
X12842741D01*
Y6674833D01*
X12865536D01*
X12870538Y6669832D01*
D02*
G37*
G36*
X12712668Y6658330D02*
Y6608002D01*
X12706267Y6601601D01*
X12632668D01*
X12626267Y6608002D01*
Y6658330D01*
X12655642Y6685749D01*
X12683293D01*
X12712668Y6658330D01*
D02*
G37*
G36*
X10241401Y3253782D02*
X10241401Y3173782D01*
X10236402Y3168781D01*
X10212199D01*
Y3205781D01*
X10179199Y3205781D01*
Y3168781D01*
X10156403D01*
X10151401Y3173782D01*
Y3253782D01*
X10156402Y3258781D01*
X10236402D01*
X10241401Y3253782D01*
D02*
G37*
G36*
X10915801Y3244952D02*
X10915801Y3164952D01*
X10910802Y3159951D01*
X10886599D01*
Y3196951D01*
X10853599Y3196951D01*
Y3159951D01*
X10830803D01*
X10825801Y3164952D01*
Y3244952D01*
X10830802Y3249951D01*
X10910802D01*
X10915801Y3244952D01*
D02*
G37*
G36*
X10241401Y3093782D02*
X10241401Y3014783D01*
X10236402Y3009782D01*
X10156403Y3009782D01*
X10151401Y3014783D01*
Y3093782D01*
X10156403Y3098781D01*
X10179199D01*
Y3060783D01*
X10212199Y3060783D01*
Y3098781D01*
X10236402D01*
X10241401Y3093782D01*
D02*
G37*
G36*
X10915801Y3084952D02*
X10915801Y3005953D01*
X10910802Y3000952D01*
X10830803Y3000952D01*
X10825801Y3005953D01*
Y3084952D01*
X10830803Y3089951D01*
X10853599D01*
Y3051952D01*
X10886599Y3051953D01*
Y3089951D01*
X10910802D01*
X10915801Y3084952D01*
D02*
G37*
G36*
X12057031Y2537187D02*
Y2457187D01*
X12052032Y2452188D01*
X11972032D01*
X11967031Y2457187D01*
Y2481391D01*
X12004031D01*
Y2514390D01*
X11967031D01*
Y2537187D01*
X11972032Y2542188D01*
X12052032D01*
X12057031Y2537187D01*
D02*
G37*
G36*
X11897031D02*
Y2514390D01*
X11859033D01*
Y2481391D01*
X11897031D01*
Y2457187D01*
X11892033Y2452188D01*
X11813034D01*
X11808032Y2457187D01*
Y2537187D01*
X11813034Y2542188D01*
X11892033D01*
X11897031Y2537187D01*
D02*
G37*
G36*
X12498614Y2536387D02*
Y2456388D01*
X12493615Y2451389D01*
X12413615D01*
X12408614Y2456388D01*
Y2480591D01*
X12445614D01*
Y2513591D01*
X12408614D01*
Y2536387D01*
X12413615Y2541389D01*
X12493615D01*
X12498614Y2536387D01*
D02*
G37*
G36*
X12338614D02*
Y2513591D01*
X12300615D01*
Y2480591D01*
X12338614D01*
Y2456388D01*
X12333615Y2451389D01*
X12254616D01*
X12249615Y2456388D01*
Y2536387D01*
X12254616Y2541389D01*
X12333615D01*
X12338614Y2536387D01*
D02*
G37*
G36*
X12497737Y2383987D02*
Y2303988D01*
X12492739Y2298989D01*
X12412739D01*
X12407737Y2303988D01*
Y2328191D01*
X12444738D01*
Y2361191D01*
X12407737D01*
Y2383987D01*
X12412739Y2388989D01*
X12492739D01*
X12497737Y2383987D01*
D02*
G37*
G36*
X12337738D02*
Y2361191D01*
X12299739D01*
Y2328191D01*
X12337738D01*
Y2303988D01*
X12332739Y2298989D01*
X12253740D01*
X12248739Y2303988D01*
Y2383987D01*
X12253740Y2388989D01*
X12332739D01*
X12337738Y2383987D01*
D02*
G37*
G36*
X12059627Y2383977D02*
Y2303977D01*
X12054629Y2298979D01*
X11974629D01*
X11969628Y2303977D01*
Y2328181D01*
X12006628D01*
Y2361181D01*
X11969628D01*
Y2383977D01*
X11974629Y2388978D01*
X12054629D01*
X12059627Y2383977D01*
D02*
G37*
G36*
X11899628D02*
Y2361181D01*
X11861629D01*
Y2328181D01*
X11899628D01*
Y2303977D01*
X11894629Y2298979D01*
X11815630D01*
X11810629Y2303977D01*
Y2383977D01*
X11815630Y2388978D01*
X11894629D01*
X11899628Y2383977D01*
D02*
G37*
G36*
X10905867Y1861958D02*
X10910869Y1856957D01*
Y1777958D01*
X10905867Y1772959D01*
X10883071D01*
Y1810958D01*
X10850071Y1810957D01*
Y1772959D01*
X10825868D01*
X10820869Y1777958D01*
X10820869Y1856957D01*
X10825868Y1861958D01*
X10905867Y1861958D01*
D02*
G37*
G36*
X10233197D02*
X10238199Y1856957D01*
Y1777958D01*
X10233197Y1772959D01*
X10210401D01*
Y1810958D01*
X10177401Y1810957D01*
Y1772959D01*
X10153198D01*
X10148199Y1777958D01*
X10148199Y1856957D01*
X10153198Y1861958D01*
X10233197Y1861958D01*
D02*
G37*
G36*
X10910869Y1697958D02*
Y1617958D01*
X10905868Y1612959D01*
X10825868D01*
X10820869Y1617958D01*
X10820869Y1697958D01*
X10825868Y1702959D01*
X10850071D01*
Y1665959D01*
X10883071Y1665959D01*
Y1702959D01*
X10905867D01*
X10910869Y1697958D01*
D02*
G37*
G36*
X10238199D02*
Y1617958D01*
X10233198Y1612959D01*
X10153198D01*
X10148199Y1617958D01*
X10148199Y1697958D01*
X10153198Y1702959D01*
X10177401D01*
Y1665959D01*
X10210401Y1665959D01*
Y1702959D01*
X10233197D01*
X10238199Y1697958D01*
D02*
G37*
D11*
X6147260Y3422540D02*
D03*
Y3327540D02*
D03*
Y3232540D02*
D03*
X6398260D02*
D03*
Y3327540D02*
D03*
Y3422540D02*
D03*
X6737170Y7043420D02*
D03*
Y7138420D02*
D03*
Y7233420D02*
D03*
X6988170D02*
D03*
Y7138420D02*
D03*
Y7043420D02*
D03*
D13*
X6586580Y3263770D02*
D03*
Y3403750D02*
D03*
X4432120Y6754020D02*
D03*
Y6614040D02*
D03*
X4405490Y6124770D02*
D03*
Y6264749D02*
D03*
X6160130Y7848700D02*
D03*
X6160130Y7988680D02*
D03*
X5501431Y7851063D02*
D03*
Y7991043D02*
D03*
X4620920Y5591870D02*
D03*
Y5451891D02*
D03*
X6561180Y7046100D02*
D03*
Y7186080D02*
D03*
X4319540Y7303600D02*
D03*
Y7443579D02*
D03*
X5594884Y4985009D02*
D03*
Y5124989D02*
D03*
X3354040Y5632779D02*
D03*
Y5492800D02*
D03*
X4261554Y3331179D02*
D03*
Y3191199D02*
D03*
X4118954Y3190599D02*
D03*
Y3330579D02*
D03*
X3497354Y4182280D02*
D03*
Y4322259D02*
D03*
X3791604Y4183590D02*
D03*
Y4323569D02*
D03*
X3934144Y4182280D02*
D03*
Y4322259D02*
D03*
X4076014Y4184910D02*
D03*
Y4324889D02*
D03*
X3648414Y4182930D02*
D03*
Y4322909D02*
D03*
X7596990Y3758910D02*
D03*
Y3618930D02*
D03*
X7743120Y7051947D02*
D03*
Y7191926D02*
D03*
X12489990Y8327407D02*
D03*
Y8187428D02*
D03*
X12723945Y5089400D02*
D03*
Y4949420D02*
D03*
X6839709Y3741080D02*
D03*
Y3601101D02*
D03*
X7918430Y3753880D02*
D03*
Y3613901D02*
D03*
X6803930Y5462710D02*
D03*
Y5602690D02*
D03*
X9334150Y2786100D02*
D03*
Y2646120D02*
D03*
X9192970Y2786890D02*
D03*
Y2646910D02*
D03*
X8215640Y2768600D02*
D03*
Y2628620D02*
D03*
X8073180Y2769180D02*
D03*
Y2629200D02*
D03*
X6659180Y2750600D02*
D03*
Y2610621D02*
D03*
X6806720Y2751380D02*
D03*
Y2611401D02*
D03*
X5517060Y2616950D02*
D03*
Y2756930D02*
D03*
X5377360Y2616950D02*
D03*
Y2756930D02*
D03*
D14*
X9693529Y8388260D02*
D03*
X9053531D02*
D03*
X9613529D02*
D03*
X9133530D02*
D03*
D15*
X9498531D02*
D03*
X9198532D02*
D03*
X9448531D02*
D03*
X9348531D02*
D03*
X9398531D02*
D03*
X9298531D02*
D03*
X9548531D02*
D03*
X9248531D02*
D03*
D16*
X3505323Y6166710D02*
D03*
X3915330D02*
D03*
X3543343Y5546180D02*
D03*
X3953350D02*
D03*
D18*
X3684530Y6570200D02*
D03*
Y6760200D02*
D03*
X3934530D02*
D03*
Y6665200D02*
D03*
Y6570200D02*
D03*
D20*
X4201100Y6301550D02*
D03*
Y5996230D02*
D03*
D22*
X4767840Y4214603D02*
D03*
Y3804596D02*
D03*
D23*
X4151570Y5590929D02*
D03*
Y5254930D02*
D03*
D25*
X12357490Y1921750D02*
D03*
X12262490Y2171750D02*
D03*
X12452490D02*
D03*
X11915951Y1921750D02*
D03*
X11820950Y2171750D02*
D03*
X12010951D02*
D03*
D27*
X3831250Y4825510D02*
D03*
X3781250D02*
D03*
X3731250D02*
D03*
X3681250D02*
D03*
X3631250D02*
D03*
Y5105510D02*
D03*
X3681250D02*
D03*
X3731250D02*
D03*
X3781250D02*
D03*
X3831250D02*
D03*
D28*
X6972120Y5980070D02*
D03*
X7022120Y6220070D02*
D03*
X7072120Y5980070D02*
D03*
X7122120Y6220070D02*
D03*
X7172120Y5980070D02*
D03*
X7222120Y6220070D02*
D03*
X7272120Y5980070D02*
D03*
X7322120Y6220070D02*
D03*
X7372120Y5980070D02*
D03*
X7422120Y6220070D02*
D03*
X7472120Y5980070D02*
D03*
X7522120Y6220070D02*
D03*
X7572120Y5980070D02*
D03*
X7622120Y6220070D02*
D03*
X7672120Y5980070D02*
D03*
X7722120Y6220070D02*
D03*
X7772120Y5980070D02*
D03*
X7822120Y6220070D02*
D03*
D29*
X6802120Y6100070D02*
D03*
X7992120Y6100070D02*
D03*
D30*
X5282460Y7860140D02*
D03*
X4946460D02*
D03*
D31*
X5678632Y7827897D02*
D03*
X5678632Y8017889D02*
D03*
X5938651Y8017889D02*
D03*
Y7922893D02*
D03*
Y7827897D02*
D03*
D32*
X8107221Y7529332D02*
D03*
X7337223D02*
D03*
X7447222D02*
D03*
X7557222D02*
D03*
X7997221D02*
D03*
X7777222D02*
D03*
X8217221D02*
D03*
X7667222D02*
D03*
X7887221D02*
D03*
D33*
X6877223Y7579334D02*
D03*
D34*
X6787221Y8539332D02*
D03*
X8337218D02*
D03*
D35*
X8336918Y7579332D02*
D03*
D36*
X7066060Y5159740D02*
D03*
X7116059D02*
D03*
X7216059D02*
D03*
X7266059D02*
D03*
X7316060D02*
D03*
X7366059D02*
D03*
X7416060D02*
D03*
X7466059D02*
D03*
X7516059D02*
D03*
X7566060D02*
D03*
X7616059D02*
D03*
X7666060D02*
D03*
X7716059D02*
D03*
X6966059D02*
D03*
X7166060D02*
D03*
X7016059D02*
D03*
D37*
X7914859Y4610940D02*
D03*
Y4560940D02*
D03*
Y4510940D02*
D03*
Y4460940D02*
D03*
Y4410940D02*
D03*
Y4360940D02*
D03*
Y4310940D02*
D03*
Y4260940D02*
D03*
Y4210940D02*
D03*
X6767260Y4460940D02*
D03*
Y4510940D02*
D03*
Y4560940D02*
D03*
Y4610940D02*
D03*
Y4910940D02*
D03*
X7914859Y4960940D02*
D03*
X6767260Y4360940D02*
D03*
X7914859Y4660940D02*
D03*
Y4710940D02*
D03*
X6767260Y4810940D02*
D03*
Y4860940D02*
D03*
X7914859D02*
D03*
Y4760940D02*
D03*
X6767260Y4660940D02*
D03*
Y4210940D02*
D03*
Y4260940D02*
D03*
Y4310940D02*
D03*
Y4710940D02*
D03*
Y4760940D02*
D03*
X7914859Y4910940D02*
D03*
X6767260Y4410940D02*
D03*
X7914859Y4810940D02*
D03*
X6767260Y4960940D02*
D03*
D38*
X7566060Y4012140D02*
D03*
X7516059D02*
D03*
X7466059D02*
D03*
X7416060D02*
D03*
X7366059D02*
D03*
X7316060D02*
D03*
X7716059D02*
D03*
X7066060D02*
D03*
X7616059D02*
D03*
X7116059D02*
D03*
X7166060D02*
D03*
X6966059D02*
D03*
X7266059D02*
D03*
X7216059D02*
D03*
X7666060D02*
D03*
X7016059D02*
D03*
D39*
X6491710Y5428461D02*
D03*
Y5662979D02*
D03*
D40*
X4561580Y7189460D02*
D03*
Y7529460D02*
D03*
D41*
X4927880Y5525080D02*
D03*
D42*
X5028210Y5600080D02*
D03*
Y5550080D02*
D03*
Y5500080D02*
D03*
Y5450080D02*
D03*
X4827550D02*
D03*
Y5500080D02*
D03*
Y5550080D02*
D03*
Y5600080D02*
D03*
D43*
X3647400Y2694338D02*
D03*
Y1794162D02*
D03*
D44*
X5383524Y4776489D02*
D03*
X5478524D02*
D03*
X5573524D02*
D03*
Y4525489D02*
D03*
X5478524D02*
D03*
X5383524D02*
D03*
X5388304Y3896639D02*
D03*
X5483304D02*
D03*
X5578304D02*
D03*
Y4147639D02*
D03*
X5483304D02*
D03*
X5388304D02*
D03*
X9366250Y8108300D02*
D03*
X9461250Y7857300D02*
D03*
Y8108300D02*
D03*
X9271250Y7857300D02*
D03*
Y8108300D02*
D03*
X9366250Y7857300D02*
D03*
D45*
X5382494Y5161649D02*
D03*
Y4981649D02*
D03*
D46*
X4135214Y5097299D02*
D03*
X4293214D02*
D03*
X4136894Y4854260D02*
D03*
X4294894D02*
D03*
X3343804Y5140999D02*
D03*
X3185804D02*
D03*
X6448060Y4277410D02*
D03*
X6290060D02*
D03*
X8187449Y5008230D02*
D03*
X8345450D02*
D03*
D47*
X3335644Y4802989D02*
D03*
X3195664D02*
D03*
X8640561Y4600200D02*
D03*
X8780540D02*
D03*
X6441929Y4105850D02*
D03*
X6301950D02*
D03*
X8196310Y5174080D02*
D03*
X8336289D02*
D03*
X4672780Y2712890D02*
D03*
X4532801D02*
D03*
X6772040Y1701310D02*
D03*
X6912020D02*
D03*
X9295903Y1734153D02*
D03*
X9435882D02*
D03*
X8183136Y1712785D02*
D03*
X8323115D02*
D03*
X5624362Y1670153D02*
D03*
X5484383D02*
D03*
D49*
X5214544Y3951709D02*
D03*
Y4109710D02*
D03*
X3349564Y4332919D02*
D03*
Y4174919D02*
D03*
X5993140Y7373850D02*
D03*
Y7215850D02*
D03*
X5745090Y7366320D02*
D03*
Y7208320D02*
D03*
X12316960Y8193959D02*
D03*
Y8351959D02*
D03*
X7011119Y3746360D02*
D03*
Y3588360D02*
D03*
X7754700Y3761870D02*
D03*
Y3603870D02*
D03*
X6635010Y5455930D02*
D03*
Y5613930D02*
D03*
X6344020Y5466280D02*
D03*
Y5624280D02*
D03*
X6083270Y5464280D02*
D03*
Y5622280D02*
D03*
D50*
X4561994Y3345379D02*
D03*
X5181994D02*
D03*
D51*
X3569034Y3570769D02*
D03*
X3619034D02*
D03*
X3669034D02*
D03*
X3719034D02*
D03*
X3769034D02*
D03*
X3819034D02*
D03*
Y3957769D02*
D03*
X3769034D02*
D03*
X3719034D02*
D03*
X3669034D02*
D03*
X3619034D02*
D03*
X3569034D02*
D03*
D52*
X3500534Y3889269D02*
D03*
Y3839269D02*
D03*
Y3789269D02*
D03*
Y3739269D02*
D03*
Y3689269D02*
D03*
Y3639269D02*
D03*
X3887534D02*
D03*
Y3689269D02*
D03*
Y3739269D02*
D03*
Y3789269D02*
D03*
Y3839269D02*
D03*
Y3889269D02*
D03*
D54*
X4433880Y8063310D02*
D03*
X4338880D02*
D03*
X4243880D02*
D03*
Y7831310D02*
D03*
X4338880D02*
D03*
X4433880D02*
D03*
D55*
X12070050Y8834900D02*
D03*
Y8734900D02*
D03*
Y8634900D02*
D03*
X12267050D02*
D03*
Y8734900D02*
D03*
Y8834900D02*
D03*
D56*
X12640380Y5780510D02*
D03*
X12690380D02*
D03*
X12740380D02*
D03*
X12790380D02*
D03*
Y5499510D02*
D03*
X12740380D02*
D03*
X12690380D02*
D03*
X12640380D02*
D03*
D57*
X10749999Y7500317D02*
D03*
X10845000D02*
D03*
D58*
X10972000D02*
D03*
X11099000D02*
D03*
X11226000D02*
D03*
X11353000D02*
D03*
X11480000D02*
D03*
D59*
X11647000Y7648317D02*
D03*
X10347000D02*
D03*
X11647000Y8848318D02*
D03*
X10347000D02*
D03*
D60*
X12750780Y3753510D02*
D03*
Y3458510D02*
D03*
X12769310Y6417190D02*
D03*
Y6122190D02*
D03*
D61*
X12598280Y3606010D02*
D03*
X12616810Y6269690D02*
D03*
D62*
X10241521Y5619858D02*
D03*
Y4819860D02*
D03*
X11041520Y5219859D02*
D03*
X10641521D02*
D03*
Y5619858D02*
D03*
X11041520D02*
D03*
X11441519D02*
D03*
Y5219859D02*
D03*
Y4819860D02*
D03*
X11041520D02*
D03*
X10641521D02*
D03*
X10241521Y5219859D02*
D03*
Y6019857D02*
D03*
X10641521D02*
D03*
X11041520D02*
D03*
X11441519D02*
D03*
X10241521Y5619858D02*
D03*
Y4819860D02*
D03*
X11041520Y5219859D02*
D03*
X10641521D02*
D03*
Y5619858D02*
D03*
X11041520D02*
D03*
X11441519D02*
D03*
Y5219859D02*
D03*
Y4819860D02*
D03*
X11041520D02*
D03*
X10641521D02*
D03*
X10241521Y5219859D02*
D03*
Y6019857D02*
D03*
X10641521D02*
D03*
X11041520D02*
D03*
X11441519D02*
D03*
D63*
X9790112Y3924865D02*
D03*
X9890112D02*
D03*
X9990112D02*
D03*
X10090112D02*
D03*
X10190112D02*
D03*
X10290111D02*
D03*
X10390111D02*
D03*
X10490111D02*
D03*
X10590111D02*
D03*
X10690111D02*
D03*
X10790111D02*
D03*
X10890110D02*
D03*
X10990110D02*
D03*
X11090135D02*
D03*
X11190135D02*
D03*
X11290109D02*
D03*
X11390109D02*
D03*
X11490109D02*
D03*
X11590109D02*
D03*
X11690109D02*
D03*
X11790108D02*
D03*
X11890108D02*
D03*
X9790112Y6914852D02*
D03*
X9890112D02*
D03*
X9990112D02*
D03*
X10090112D02*
D03*
X10190112D02*
D03*
X10290111D02*
D03*
X10390111D02*
D03*
X10490111D02*
D03*
X10590111D02*
D03*
X10690111D02*
D03*
X10790111D02*
D03*
X10890110D02*
D03*
X10990110D02*
D03*
X11090135D02*
D03*
X11190135D02*
D03*
X11290109D02*
D03*
X11490109D02*
D03*
X11390109D02*
D03*
X11590109D02*
D03*
X11690109D02*
D03*
X11790108D02*
D03*
X9790112Y3924865D02*
D03*
X9890112D02*
D03*
X9990112D02*
D03*
X10090112D02*
D03*
X10190112D02*
D03*
X10290111D02*
D03*
X10390111D02*
D03*
X10490111D02*
D03*
X10590111D02*
D03*
X10690111D02*
D03*
X10790111D02*
D03*
X10890110D02*
D03*
X10990110D02*
D03*
X11090135D02*
D03*
X11190135D02*
D03*
X11290109D02*
D03*
X11390109D02*
D03*
X11490109D02*
D03*
X11590109D02*
D03*
X11690109D02*
D03*
X11790108D02*
D03*
X11890108D02*
D03*
X9790112Y6914852D02*
D03*
X9890112D02*
D03*
X9990112D02*
D03*
X10090112D02*
D03*
X10190112D02*
D03*
X10290111D02*
D03*
X10390111D02*
D03*
X10490111D02*
D03*
X10590111D02*
D03*
X10690111D02*
D03*
X10790111D02*
D03*
X10890110D02*
D03*
X10990110D02*
D03*
X11090135D02*
D03*
X11190135D02*
D03*
X11290109D02*
D03*
X11490109D02*
D03*
X11390109D02*
D03*
X11590109D02*
D03*
X11690109D02*
D03*
X11790108D02*
D03*
D64*
X12336513Y4368451D02*
D03*
Y4468451D02*
D03*
Y4568451D02*
D03*
Y4668450D02*
D03*
Y4768450D02*
D03*
Y4868450D02*
D03*
Y4968450D02*
D03*
Y5068450D02*
D03*
Y5168449D02*
D03*
Y5268449D02*
D03*
Y5368449D02*
D03*
Y5468449D02*
D03*
Y5568449D02*
D03*
Y5668474D02*
D03*
Y5768474D02*
D03*
Y5868448D02*
D03*
Y5968448D02*
D03*
Y6068448D02*
D03*
Y6168447D02*
D03*
Y6268447D02*
D03*
Y6368447D02*
D03*
Y6468447D02*
D03*
Y4368451D02*
D03*
Y4468451D02*
D03*
Y4568451D02*
D03*
Y4668450D02*
D03*
Y4768450D02*
D03*
Y4868450D02*
D03*
Y4968450D02*
D03*
Y5068450D02*
D03*
Y5168449D02*
D03*
Y5268449D02*
D03*
Y5368449D02*
D03*
Y5468449D02*
D03*
Y5568449D02*
D03*
Y5668474D02*
D03*
Y5768474D02*
D03*
Y5868448D02*
D03*
Y5968448D02*
D03*
Y6068448D02*
D03*
Y6168447D02*
D03*
Y6268447D02*
D03*
Y6368447D02*
D03*
Y6468447D02*
D03*
D65*
X12041518Y4788465D02*
D03*
Y4968450D02*
D03*
Y5148460D02*
D03*
Y5328469D02*
D03*
Y5508454D02*
D03*
Y5688464D02*
D03*
Y5868448D02*
D03*
Y6048458D02*
D03*
X9641523D02*
D03*
Y5868448D02*
D03*
Y5688464D02*
D03*
Y5508454D02*
D03*
Y5328469D02*
D03*
Y5148460D02*
D03*
Y4968450D02*
D03*
Y4788465D02*
D03*
X12041518D02*
D03*
Y4968450D02*
D03*
Y5148460D02*
D03*
Y5328469D02*
D03*
Y5508454D02*
D03*
Y5688464D02*
D03*
Y5868448D02*
D03*
Y6048458D02*
D03*
X9641523D02*
D03*
Y5868448D02*
D03*
Y5688464D02*
D03*
Y5508454D02*
D03*
Y5328469D02*
D03*
Y5148460D02*
D03*
Y4968450D02*
D03*
Y4788465D02*
D03*
D66*
X11470119Y6619856D02*
D03*
X11290109D02*
D03*
X11110125D02*
D03*
X10930115D02*
D03*
X10750131D02*
D03*
X10570121D02*
D03*
X10390111D02*
D03*
X10210127D02*
D03*
Y4219861D02*
D03*
X10390111D02*
D03*
X10570121D02*
D03*
X10750131D02*
D03*
X10930115D02*
D03*
X11110125D02*
D03*
X11290109D02*
D03*
X11470119D02*
D03*
Y6619856D02*
D03*
X11290109D02*
D03*
X11110125D02*
D03*
X10930115D02*
D03*
X10750131D02*
D03*
X10570121D02*
D03*
X10390111D02*
D03*
X10210127D02*
D03*
Y4219861D02*
D03*
X10390111D02*
D03*
X10570121D02*
D03*
X10750131D02*
D03*
X10930115D02*
D03*
X11110125D02*
D03*
X11290109D02*
D03*
X11470119D02*
D03*
D67*
X9346527Y4368451D02*
D03*
Y4468451D02*
D03*
Y4568451D02*
D03*
Y4668450D02*
D03*
Y4768450D02*
D03*
Y4868450D02*
D03*
Y4968450D02*
D03*
Y5068450D02*
D03*
Y5168449D02*
D03*
Y5268449D02*
D03*
Y5368449D02*
D03*
Y5568449D02*
D03*
Y5468449D02*
D03*
Y5668474D02*
D03*
Y5768474D02*
D03*
Y5868448D02*
D03*
Y5968448D02*
D03*
Y6068448D02*
D03*
Y6168447D02*
D03*
Y6268447D02*
D03*
Y6368447D02*
D03*
Y6468447D02*
D03*
Y4368451D02*
D03*
Y4468451D02*
D03*
Y4568451D02*
D03*
Y4668450D02*
D03*
Y4768450D02*
D03*
Y4868450D02*
D03*
Y4968450D02*
D03*
Y5068450D02*
D03*
Y5168449D02*
D03*
Y5268449D02*
D03*
Y5368449D02*
D03*
Y5568449D02*
D03*
Y5468449D02*
D03*
Y5668474D02*
D03*
Y5768474D02*
D03*
Y5868448D02*
D03*
Y5968448D02*
D03*
Y6068448D02*
D03*
Y6168447D02*
D03*
Y6268447D02*
D03*
Y6368447D02*
D03*
Y6468447D02*
D03*
D68*
X8852480Y4831930D02*
D03*
Y5451930D02*
D03*
X12747830Y4092900D02*
D03*
Y4712900D02*
D03*
D70*
X12333710Y7390930D02*
D03*
Y7580930D02*
D03*
X12083710Y7485930D02*
D03*
D71*
X10000840Y8024145D02*
D03*
X10065840D02*
D03*
X10130840D02*
D03*
Y8246395D02*
D03*
X10000840D02*
D03*
D72*
X6092711Y5244172D02*
D03*
X6342711D02*
D03*
D73*
X6128234Y5015504D02*
D03*
X6016511Y4903781D02*
D03*
D74*
X6079484Y4408326D02*
D03*
X5967761Y4520049D02*
D03*
D75*
X6286453Y2337423D02*
D03*
X7726970Y2339880D02*
D03*
X4995572Y2344853D02*
D03*
X8836790Y2366460D02*
D03*
D76*
X6286453Y2036923D02*
D03*
X7726970Y2039380D02*
D03*
X4995572Y2044353D02*
D03*
X8836790Y2065960D02*
D03*
D77*
X9116043Y2191353D02*
D03*
Y2126352D02*
D03*
Y2321352D02*
D03*
Y2256354D02*
D03*
X5291823Y2165453D02*
D03*
Y2100451D02*
D03*
Y2295452D02*
D03*
Y2230454D02*
D03*
X7990576Y2169985D02*
D03*
Y2104984D02*
D03*
Y2299985D02*
D03*
Y2234986D02*
D03*
X6570003Y2158023D02*
D03*
Y2093022D02*
D03*
Y2288023D02*
D03*
Y2223024D02*
D03*
X7069702Y2288023D02*
D03*
Y2223024D02*
D03*
Y2158023D02*
D03*
Y2093022D02*
D03*
Y2028023D02*
D03*
X6570003D02*
D03*
X5291823Y2035453D02*
D03*
X5791522D02*
D03*
Y2100451D02*
D03*
Y2165453D02*
D03*
Y2230454D02*
D03*
Y2295452D02*
D03*
X8490275Y2299985D02*
D03*
Y2234986D02*
D03*
Y2169985D02*
D03*
Y2104984D02*
D03*
Y2039986D02*
D03*
X7990576D02*
D03*
X9615742Y2321352D02*
D03*
Y2256354D02*
D03*
Y2191353D02*
D03*
Y2126352D02*
D03*
Y2061353D02*
D03*
X9116043D02*
D03*
D78*
X4459290Y1973980D02*
D03*
Y2446115D02*
D03*
D79*
X6086759Y4696830D02*
D03*
X6366053Y4728649D02*
D03*
X6242319Y4852390D02*
D03*
X6210504Y4573093D02*
D03*
D80*
X6819853Y2158023D02*
D03*
X5541672Y2165453D02*
D03*
X8240425Y2169985D02*
D03*
X9365893Y2191353D02*
D03*
D81*
X6689853Y2407873D02*
D03*
X6754851D02*
D03*
X6819853D02*
D03*
X6884854D02*
D03*
X6949852D02*
D03*
Y1908173D02*
D03*
X6884854D02*
D03*
X6819853D02*
D03*
X6754851D02*
D03*
X6689853D02*
D03*
X5411673Y1915603D02*
D03*
X5476671D02*
D03*
X5541672D02*
D03*
X5606674D02*
D03*
X5671672D02*
D03*
Y2415302D02*
D03*
X5606674D02*
D03*
X5541672D02*
D03*
X5476671D02*
D03*
X5411673D02*
D03*
X8110426Y2419835D02*
D03*
X8175424D02*
D03*
X8240425D02*
D03*
X8305427D02*
D03*
X8370425D02*
D03*
Y1920136D02*
D03*
X8305427D02*
D03*
X8240425D02*
D03*
X8175424D02*
D03*
X8110426D02*
D03*
X9235893Y2441202D02*
D03*
X9300891D02*
D03*
X9365893D02*
D03*
X9430894D02*
D03*
X9495892D02*
D03*
Y1941503D02*
D03*
X9430894D02*
D03*
X9365893D02*
D03*
X9300891D02*
D03*
X9235893D02*
D03*
D148*
X3694034Y3764269D02*
D03*
%TF.MD5,e882835731cadf9fcfe7cc22a6d4f47d*%
M02*
