%TF.GenerationSoftware,Altium Limited,Altium Designer,22.5.1 (42)*%
G04 Layer_Color=65535*
%FSLAX45Y45*%
%MOMM*%
%TF.SameCoordinates,BCC7A4F8-9605-4868-ACEC-D28EECC8EA53*%
%TF.FilePolarity,Positive*%
%TF.FileFunction,Legend,Top*%
%TF.Part,Single*%
G01*
G75*
%TA.AperFunction,NonConductor*%
%ADD111C,0.25400*%
%ADD112C,0.12700*%
%ADD138C,0.20000*%
%ADD139C,0.15240*%
%ADD140C,0.10000*%
%ADD141C,0.25000*%
%ADD142C,0.30000*%
%ADD143C,0.40000*%
%ADD144C,0.15001*%
%ADD145C,0.15199*%
%ADD146C,0.07620*%
%ADD147C,0.15000*%
G36*
X3425912Y2681892D02*
X3513542D01*
Y2651158D01*
X3425912D01*
Y2604676D01*
X3395178D01*
Y2651158D01*
X3307548D01*
X3307549Y2681892D01*
X3395178D01*
Y2728374D01*
X3425912D01*
Y2681892D01*
D02*
G37*
G36*
Y1760126D02*
X3395178D01*
Y1883824D01*
X3425912D01*
Y1760126D01*
D01*
D02*
G37*
G36*
X4263050Y2476798D02*
X4334431D01*
Y2522518D01*
X4263050D01*
Y2476798D01*
D01*
D02*
G37*
G36*
X4655530D02*
X4584149D01*
Y2522518D01*
X4655530D01*
Y2476798D01*
D01*
D02*
G37*
G36*
X6411469Y5468222D02*
X6446709D01*
Y5437742D01*
X6411469D01*
Y5468222D01*
D01*
D02*
G37*
G36*
X6571951D02*
X6536711D01*
Y5437742D01*
X6571951D01*
Y5468222D01*
D01*
D02*
G37*
G36*
X12340120Y6689859D02*
X12111520Y6918459D01*
X12340120D01*
Y6689859D01*
D02*
G37*
D111*
X6657583Y3441778D02*
G03*
X6626600Y3472761I-30983J0D01*
G01*
X6546603D02*
G03*
X6515617Y3441778I-3J-30983D01*
G01*
X6626016Y3193209D02*
G03*
X6657001Y3224192I3J30983D01*
G01*
X6515036D02*
G03*
X6546019Y3193209I30983J0D01*
G01*
X4361117Y6576011D02*
G03*
X4392100Y6545028I30983J0D01*
G01*
X4472097D02*
G03*
X4503082Y6576011I3J30983D01*
G01*
X4392684Y6824581D02*
G03*
X4361698Y6793598I-3J-30983D01*
G01*
X4503664D02*
G03*
X4472681Y6824581I-30983J0D01*
G01*
X4476493Y6302778D02*
G03*
X4445510Y6333761I-30983J0D01*
G01*
X4365513D02*
G03*
X4334528Y6302778I-3J-30983D01*
G01*
X4444926Y6054209D02*
G03*
X4475912Y6085192I3J30983D01*
G01*
X4333946D02*
G03*
X4364929Y6054209I30983J0D01*
G01*
X6231133Y8026709D02*
G03*
X6200150Y8057692I-30983J0D01*
G01*
X6120153D02*
G03*
X6089167Y8026709I-3J-30983D01*
G01*
X6199566Y7778139D02*
G03*
X6230551Y7809122I3J30983D01*
G01*
X6088586D02*
G03*
X6119569Y7778139I30983J0D01*
G01*
X5572434Y8029072D02*
G03*
X5541451Y8060054I-30983J0D01*
G01*
X5461454D02*
G03*
X5430468Y8029072I-3J-30983D01*
G01*
X5540867Y7780502D02*
G03*
X5571852Y7811485I3J30983D01*
G01*
X5429887D02*
G03*
X5460870Y7780502I30983J0D01*
G01*
X1754412Y548268D02*
G03*
X1754412Y548268I-200000J0D01*
G01*
X1119412D02*
G03*
X1119412Y548268I-200000J0D01*
G01*
X2389412D02*
G03*
X2389412Y548268I-200000J0D01*
G01*
X3024412D02*
G03*
X3024412Y548268I-200000J0D01*
G01*
X3659412D02*
G03*
X3659412Y548268I-200000J0D01*
G01*
X4294412D02*
G03*
X4294412Y548268I-200000J0D01*
G01*
X4549376Y5412312D02*
G03*
X4580359Y5381329I30983J0D01*
G01*
X4660356D02*
G03*
X4691342Y5412312I3J30983D01*
G01*
X4580943Y5660882D02*
G03*
X4549958Y5629899I-3J-30983D01*
G01*
X4691923D02*
G03*
X4660940Y5660882I-30983J0D01*
G01*
X6632724Y7225658D02*
G03*
X6601741Y7256641I-30983J0D01*
G01*
X6521744D02*
G03*
X6490758Y7225658I-3J-30983D01*
G01*
X6601157Y6977089D02*
G03*
X6632142Y7008072I3J30983D01*
G01*
X6490177D02*
G03*
X6521160Y6977089I30983J0D01*
G01*
X4247996Y7264022D02*
G03*
X4278979Y7233039I30983J0D01*
G01*
X4358976D02*
G03*
X4389962Y7264022I3J30983D01*
G01*
X4279563Y7512591D02*
G03*
X4248578Y7481608I-3J-30983D01*
G01*
X4390543D02*
G03*
X4359560Y7512591I-30983J0D01*
G01*
X5666428Y5164567D02*
G03*
X5635445Y5195550I-30983J0D01*
G01*
X5555448D02*
G03*
X5524463Y5164567I-3J-30983D01*
G01*
X5634861Y4915998D02*
G03*
X5665847Y4946980I3J30983D01*
G01*
X5523881D02*
G03*
X5554864Y4915998I30983J0D01*
G01*
X3156086Y4874534D02*
G03*
X3125103Y4843551I0J-30983D01*
G01*
Y4763553D02*
G03*
X3156086Y4732568I30983J-3D01*
G01*
X3404656Y4842966D02*
G03*
X3373673Y4873952I-30983J3D01*
G01*
Y4731986D02*
G03*
X3404656Y4762969I0J30983D01*
G01*
X3283037Y5454771D02*
G03*
X3314020Y5423788I30983J0D01*
G01*
X3394017D02*
G03*
X3425003Y5454771I3J30983D01*
G01*
X3314604Y5703341D02*
G03*
X3283619Y5672358I-3J-30983D01*
G01*
X3425584D02*
G03*
X3394601Y5703341I-30983J0D01*
G01*
X4190010Y3151621D02*
G03*
X4220993Y3120638I30983J0D01*
G01*
X4300990D02*
G03*
X4331976Y3151621I3J30983D01*
G01*
X4221577Y3400190D02*
G03*
X4190592Y3369207I-3J-30983D01*
G01*
X4332557D02*
G03*
X4301574Y3400190I-30983J0D01*
G01*
X4189957Y3368607D02*
G03*
X4158974Y3399590I-30983J0D01*
G01*
X4078977D02*
G03*
X4047991Y3368607I-3J-30983D01*
G01*
X4158390Y3120038D02*
G03*
X4189375Y3151021I3J30983D01*
G01*
X4047410D02*
G03*
X4078393Y3120038I30983J0D01*
G01*
X3568898Y4361837D02*
G03*
X3537915Y4392820I-30983J0D01*
G01*
X3457918D02*
G03*
X3426933Y4361837I-3J-30983D01*
G01*
X3537331Y4113268D02*
G03*
X3568317Y4144251I3J30983D01*
G01*
X3426351D02*
G03*
X3457334Y4113268I30983J0D01*
G01*
X3863148Y4363147D02*
G03*
X3832165Y4394130I-30983J0D01*
G01*
X3752168D02*
G03*
X3721183Y4363147I-3J-30983D01*
G01*
X3831581Y4114578D02*
G03*
X3862567Y4145561I3J30983D01*
G01*
X3720601D02*
G03*
X3751584Y4114578I30983J0D01*
G01*
X4005688Y4361837D02*
G03*
X3974705Y4392820I-30983J0D01*
G01*
X3894708D02*
G03*
X3863723Y4361837I-3J-30983D01*
G01*
X3974121Y4113268D02*
G03*
X4005107Y4144251I3J30983D01*
G01*
X3863141D02*
G03*
X3894124Y4113268I30983J0D01*
G01*
X4147558Y4364467D02*
G03*
X4116575Y4395450I-30983J0D01*
G01*
X4036578D02*
G03*
X4005593Y4364467I-3J-30983D01*
G01*
X4115991Y4115898D02*
G03*
X4146977Y4146881I3J30983D01*
G01*
X4005011D02*
G03*
X4035994Y4115898I30983J0D01*
G01*
X3719958Y4362487D02*
G03*
X3688975Y4393470I-30983J0D01*
G01*
X3608978D02*
G03*
X3577993Y4362487I-3J-30983D01*
G01*
X3688391Y4113918D02*
G03*
X3719377Y4144901I3J30983D01*
G01*
X3577411D02*
G03*
X3608394Y4113918I30983J0D01*
G01*
X7667993Y3796939D02*
G03*
X7637010Y3827921I-30983J0D01*
G01*
X7557013D02*
G03*
X7526028Y3796939I-3J-30983D01*
G01*
X7636426Y3548369D02*
G03*
X7667412Y3579352I3J30983D01*
G01*
X7525446D02*
G03*
X7556429Y3548369I30983J0D01*
G01*
X7671576Y7012368D02*
G03*
X7702559Y6981385I30983J0D01*
G01*
X7782556D02*
G03*
X7813542Y7012368I3J30983D01*
G01*
X7703143Y7260938D02*
G03*
X7672158Y7229955I-3J-30983D01*
G01*
X7814124D02*
G03*
X7783141Y7260938I-30983J0D01*
G01*
X5744397Y548268D02*
G03*
X5744397Y548268I-200000J0D01*
G01*
X5109397D02*
G03*
X5109397Y548268I-200000J0D01*
G01*
X6379397D02*
G03*
X6379397Y548268I-200000J0D01*
G01*
X7014397D02*
G03*
X7014397Y548268I-200000J0D01*
G01*
X7649397D02*
G03*
X7649397Y548268I-200000J0D01*
G01*
X8284397D02*
G03*
X8284397Y548268I-200000J0D01*
G01*
X9734382D02*
G03*
X9734382Y548268I-200000J0D01*
G01*
X9099382D02*
G03*
X9099382Y548268I-200000J0D01*
G01*
X10369382D02*
G03*
X10369382Y548268I-200000J0D01*
G01*
X11004382D02*
G03*
X11004382Y548268I-200000J0D01*
G01*
X11639382D02*
G03*
X11639382Y548268I-200000J0D01*
G01*
X12274382D02*
G03*
X12274382Y548268I-200000J0D01*
G01*
X12418446Y8147849D02*
G03*
X12449429Y8116866I30983J0D01*
G01*
X12529426D02*
G03*
X12560412Y8147849I3J30983D01*
G01*
X12450013Y8396419D02*
G03*
X12419027Y8365436I-3J-30983D01*
G01*
X12560993D02*
G03*
X12530010Y8396419I-30983J0D01*
G01*
X8818569Y4529197D02*
G03*
X8849552Y4560180I0J30983D01*
G01*
Y4640177D02*
G03*
X8818569Y4671163I-30983J3D01*
G01*
X8569999Y4560764D02*
G03*
X8600982Y4529779I30983J-3D01*
G01*
Y4671744D02*
G03*
X8569999Y4640761I0J-30983D01*
G01*
X12652942Y4911391D02*
G03*
X12683925Y4880408I30983J0D01*
G01*
X12763922D02*
G03*
X12794908Y4911391I3J30983D01*
G01*
X12684509Y5159961D02*
G03*
X12653524Y5128978I-3J-30983D01*
G01*
X12795489D02*
G03*
X12764506Y5159961I-30983J0D01*
G01*
X6479958Y4034847D02*
G03*
X6510941Y4065830I0J30983D01*
G01*
Y4145827D02*
G03*
X6479958Y4176813I-30983J3D01*
G01*
X6231389Y4066414D02*
G03*
X6262372Y4035429I30983J-3D01*
G01*
Y4177394D02*
G03*
X6231389Y4146411I0J-30983D01*
G01*
X6910712Y3779109D02*
G03*
X6879729Y3810092I-30983J0D01*
G01*
X6799732D02*
G03*
X6768747Y3779109I-3J-30983D01*
G01*
X6879145Y3530540D02*
G03*
X6910131Y3561522I3J30983D01*
G01*
X6768165D02*
G03*
X6799148Y3530540I30983J0D01*
G01*
X7989433Y3791909D02*
G03*
X7958450Y3822892I-30983J0D01*
G01*
X7878453D02*
G03*
X7847467Y3791909I-3J-30983D01*
G01*
X7957866Y3543340D02*
G03*
X7988851Y3574323I3J30983D01*
G01*
X7846885D02*
G03*
X7877868Y3543340I30983J0D01*
G01*
X8158281Y5245083D02*
G03*
X8127298Y5214100I0J-30983D01*
G01*
Y5134103D02*
G03*
X8158281Y5103117I30983J-3D01*
G01*
X8406851Y5213516D02*
G03*
X8375868Y5244501I-30983J3D01*
G01*
Y5102536D02*
G03*
X8406851Y5133519I0J30983D01*
G01*
X6732927Y5424681D02*
G03*
X6763910Y5393698I30983J0D01*
G01*
X6843907D02*
G03*
X6874893Y5424681I3J30983D01*
G01*
X6764494Y5673251D02*
G03*
X6733509Y5642268I-3J-30983D01*
G01*
X6875474D02*
G03*
X6844491Y5673251I-30983J0D01*
G01*
X4712358Y2641346D02*
G03*
X4743341Y2672329I0J30983D01*
G01*
Y2752326D02*
G03*
X4712358Y2783311I-30983J3D01*
G01*
X4463789Y2672913D02*
G03*
X4494772Y2641927I30983J-3D01*
G01*
Y2783893D02*
G03*
X4463789Y2752910I0J-30983D01*
G01*
X9263147Y2608091D02*
G03*
X9294130Y2577108I30983J0D01*
G01*
X9374127D02*
G03*
X9405113Y2608091I3J30983D01*
G01*
X9294714Y2856661D02*
G03*
X9263728Y2825678I-3J-30983D01*
G01*
X9405694D02*
G03*
X9374711Y2856661I-30983J0D01*
G01*
X9121967Y2608881D02*
G03*
X9152950Y2577899I30983J0D01*
G01*
X9232947D02*
G03*
X9263932Y2608881I3J30983D01*
G01*
X9153534Y2857451D02*
G03*
X9122548Y2826468I-3J-30983D01*
G01*
X9264514D02*
G03*
X9233531Y2857451I-30983J0D01*
G01*
X6950049Y1630307D02*
G03*
X6981032Y1661290I0J30983D01*
G01*
Y1741287D02*
G03*
X6950049Y1772273I-30983J3D01*
G01*
X6701479Y1661874D02*
G03*
X6732462Y1630889I30983J-3D01*
G01*
Y1772854D02*
G03*
X6701479Y1741872I0J-30983D01*
G01*
X9473911Y1663150D02*
G03*
X9504894Y1694133I0J30983D01*
G01*
Y1774130D02*
G03*
X9473911Y1805115I-30983J3D01*
G01*
X9225342Y1694717D02*
G03*
X9256325Y1663731I30983J-3D01*
G01*
Y1805697D02*
G03*
X9225342Y1774714I0J-30983D01*
G01*
X8144637Y2590591D02*
G03*
X8175620Y2559609I30983J0D01*
G01*
X8255617D02*
G03*
X8286603Y2590591I3J30983D01*
G01*
X8176204Y2839161D02*
G03*
X8145219Y2808178I-3J-30983D01*
G01*
X8287184D02*
G03*
X8256201Y2839161I-30983J0D01*
G01*
X8002177Y2591171D02*
G03*
X8033160Y2560188I30983J0D01*
G01*
X8113157D02*
G03*
X8144143Y2591171I3J30983D01*
G01*
X8033744Y2839741D02*
G03*
X8002759Y2808758I-3J-30983D01*
G01*
X8144724D02*
G03*
X8113741Y2839741I-30983J0D01*
G01*
X6588177Y2572592D02*
G03*
X6619160Y2541609I30983J0D01*
G01*
X6699157D02*
G03*
X6730142Y2572592I3J30983D01*
G01*
X6619744Y2821161D02*
G03*
X6588758Y2790178I-3J-30983D01*
G01*
X6730724D02*
G03*
X6699741Y2821161I-30983J0D01*
G01*
X6735717Y2573372D02*
G03*
X6766700Y2542389I30983J0D01*
G01*
X6846697D02*
G03*
X6877682Y2573372I3J30983D01*
G01*
X6767284Y2821941D02*
G03*
X6736298Y2790958I-3J-30983D01*
G01*
X6878264D02*
G03*
X6847281Y2821941I-30983J0D01*
G01*
X8361144Y1641782D02*
G03*
X8392127Y1672765I0J30983D01*
G01*
Y1752762D02*
G03*
X8361144Y1783748I-30983J3D01*
G01*
X8112575Y1673349D02*
G03*
X8143558Y1642364I30983J-3D01*
G01*
Y1784329D02*
G03*
X8112575Y1753347I0J-30983D01*
G01*
X5444804Y1741697D02*
G03*
X5413822Y1710714I0J-30983D01*
G01*
Y1630717D02*
G03*
X5444804Y1599731I30983J-3D01*
G01*
X5693374Y1710130D02*
G03*
X5662391Y1741115I-30983J3D01*
G01*
Y1599149D02*
G03*
X5693374Y1630132I0J30983D01*
G01*
X5588604Y2796508D02*
G03*
X5557621Y2827491I-30983J0D01*
G01*
X5477624D02*
G03*
X5446638Y2796508I-3J-30983D01*
G01*
X5557037Y2547939D02*
G03*
X5588022Y2578921I3J30983D01*
G01*
X5446057D02*
G03*
X5477040Y2547939I30983J0D01*
G01*
X5448904Y2796508D02*
G03*
X5417921Y2827491I-30983J0D01*
G01*
X5337924D02*
G03*
X5306938Y2796508I-3J-30983D01*
G01*
X5417337Y2547939D02*
G03*
X5448322Y2578921I3J30983D01*
G01*
X5306357D02*
G03*
X5337340Y2547939I30983J0D01*
G01*
X6656996Y3224197D02*
Y3304197D01*
X6546019Y3193214D02*
X6626016D01*
X6515036Y3224197D02*
Y3304197D01*
X6657583Y3361786D02*
Y3441784D01*
X6515617Y3361786D02*
Y3441784D01*
X6546603Y3472761D02*
X6626605D01*
X8916330Y8566062D02*
Y8765457D01*
Y8961063D02*
Y9108360D01*
X9823529Y8566372D02*
Y8765145D01*
Y8961375D02*
Y9123259D01*
X8923531D02*
X9823529D01*
X1702134Y7879072D02*
X2241269D01*
X2562117Y7879083D02*
X2991697D01*
X2991702Y7880076D02*
Y8789073D01*
X3021699D01*
Y8939075D01*
X2896698D02*
X3021699D01*
X2896698D02*
Y9109075D01*
X3071699D01*
Y9309075D01*
X871704D02*
X3071699D01*
X871704Y9109075D02*
Y9309075D01*
Y9109075D02*
X1046702D01*
Y8939075D02*
Y9109075D01*
X921706Y8939075D02*
X1046702D01*
X921706Y8789073D02*
Y8939075D01*
Y8789073D02*
X951703D01*
Y7879075D02*
Y8789073D01*
Y7879075D02*
X1381271D01*
X3440327Y5906711D02*
X3980326Y5906713D01*
X3440327Y6426710D02*
X3980326Y6426707D01*
X3440327Y6314825D02*
Y6426710D01*
Y5906711D02*
Y6018595D01*
X3980326Y5906713D02*
Y6018595D01*
Y6314825D02*
Y6426707D01*
X4361703Y6713593D02*
Y6793593D01*
X4392684Y6824576D02*
X4472681D01*
X4503664Y6713593D02*
Y6793593D01*
X4361117Y6576006D02*
Y6656003D01*
X4503082Y6576006D02*
Y6656003D01*
X4392095Y6545028D02*
X4472097D01*
X4475906Y6085197D02*
Y6165197D01*
X4364929Y6054214D02*
X4444926D01*
X4333946Y6085197D02*
Y6165197D01*
X4476493Y6222786D02*
Y6302783D01*
X4334528Y6222786D02*
Y6302783D01*
X4365513Y6333761D02*
X4445515D01*
X333310Y5677266D02*
X2873310D01*
X333310Y1677274D02*
X2873310D01*
Y1683370D02*
Y5677266D01*
X333310Y1677274D02*
Y5677266D01*
X2639334Y6125077D02*
Y6805289D01*
X939566Y6125077D02*
Y6805289D01*
X1359428D01*
X1469410D02*
X2639334D01*
X939566Y6125077D02*
X2109490D01*
X2219472D02*
X2639334D01*
X4507841Y4279599D02*
X4507843Y3739600D01*
X5027837D02*
X5027840Y4279599D01*
X4915955D02*
X5027840D01*
X4507841D02*
X4619725D01*
X4507843Y3739600D02*
X4619725D01*
X4915955D02*
X5027837D01*
X3478347Y5286180D02*
X4018346Y5286183D01*
X3478347Y5806179D02*
X4018346Y5806177D01*
X3478347Y5694295D02*
Y5806179D01*
Y5286180D02*
Y5398065D01*
X4018346Y5286183D02*
Y5398065D01*
Y5694295D02*
Y5806177D01*
X6230546Y7809127D02*
Y7889127D01*
X6119569Y7778144D02*
X6199566D01*
X6088586Y7809127D02*
Y7889127D01*
X6231133Y8026714D02*
X6231133Y7946716D01*
X6089167Y7946716D02*
Y8026714D01*
X6120153Y8057692D02*
X6200155D01*
X5571847Y7811490D02*
Y7891490D01*
X5460870Y7780507D02*
X5540867D01*
X5429887Y7811490D02*
Y7891490D01*
X5572434Y7949079D02*
X5572434Y8029077D01*
X5430468Y7949079D02*
Y8029077D01*
X5461454Y8060054D02*
X5541457D01*
X8726710Y6749849D02*
X8980710D01*
Y7807851D01*
X8726710Y7027202D02*
X8980710D01*
X8726710Y6749849D02*
Y7807851D01*
X8980710D01*
X8375021Y7752455D02*
Y8406218D01*
X6749421Y8672446D02*
Y9002532D01*
X8375021D01*
Y8672446D02*
Y9002532D01*
X6749421Y7503932D02*
X6774757D01*
X6749421D02*
Y8406218D01*
X6979690Y7503932D02*
X7279105D01*
X3982379Y8593285D02*
Y8941961D01*
X4712380Y8593285D02*
Y8941961D01*
X3982379Y8593285D02*
X4712380D01*
X4195287Y8941961D02*
Y9384762D01*
X4499780D01*
Y8941961D02*
Y9384762D01*
X4497380Y9081963D02*
Y9308562D01*
X4197380Y9081963D02*
Y9308562D01*
X3982379Y8941961D02*
X4712380D01*
X4497380D02*
Y9081963D01*
X4197380Y8941961D02*
Y9081963D01*
X526983Y13268D02*
Y1423222D01*
X4488113D01*
Y13268D02*
Y1423222D01*
X530031Y13268D02*
X4488113D01*
X3894413Y548279D02*
X4294412D01*
X4094413Y348279D02*
Y748281D01*
X3259413Y548279D02*
X3659412D01*
X3459413Y348279D02*
Y748281D01*
X2624413Y548279D02*
X3024412D01*
X2824413Y348279D02*
Y748281D01*
X1989413Y548279D02*
X2389412D01*
X2189413Y348279D02*
Y748281D01*
X1354413Y548281D02*
X1754412D01*
X1554413Y348281D02*
Y748281D01*
X919413Y348281D02*
Y748281D01*
X719413Y548281D02*
X1119412D01*
X4580943Y5660882D02*
X4660945D01*
X4549958Y5549907D02*
Y5629904D01*
X4691923Y5549907D02*
Y5629904D01*
X4549376Y5412317D02*
Y5492317D01*
X4580359Y5381334D02*
X4660356D01*
X4691337Y5412317D02*
Y5492317D01*
X4766570Y1541130D02*
Y2437190D01*
X5781930Y3452550D01*
Y5833000D01*
X6521155Y6977089D02*
X6601157D01*
X6632142Y7008067D02*
Y7088064D01*
X6490177Y7008067D02*
Y7088064D01*
X6632724Y7145653D02*
Y7225653D01*
X6521744Y7256636D02*
X6601741D01*
X6490763Y7145653D02*
Y7225653D01*
X2873310Y5677266D02*
Y6809360D01*
X4279563Y7512591D02*
X4359566D01*
X4248578Y7401616D02*
Y7481613D01*
X4390543Y7401616D02*
Y7481613D01*
X4247996Y7264027D02*
Y7344026D01*
X4278979Y7233044D02*
X4358976D01*
X4389957Y7264027D02*
Y7344026D01*
X5554859Y4915998D02*
X5634861D01*
X5665847Y4946975D02*
Y5026973D01*
X5523881Y4946975D02*
Y5026973D01*
X5666428Y5084562D02*
Y5164562D01*
X5555448Y5195545D02*
X5635445D01*
X5524468Y5084562D02*
Y5164562D01*
X3404656Y4762964D02*
Y4842966D01*
X3293680Y4873952D02*
X3373678D01*
X3293680Y4731986D02*
X3373678D01*
X3156091Y4874534D02*
X3236091D01*
X3125108Y4763553D02*
Y4843551D01*
X3156091Y4732573D02*
X3236091D01*
X3283624Y5592353D02*
Y5672353D01*
X3314604Y5703336D02*
X3394601D01*
X3425584Y5592353D02*
Y5672353D01*
X3283037Y5454766D02*
Y5534763D01*
X3425003Y5454766D02*
Y5534763D01*
X3314015Y5423788D02*
X3394017D01*
X4221577Y3400190D02*
X4301579D01*
X4190592Y3289215D02*
Y3369212D01*
X4332557Y3289215D02*
Y3369212D01*
X4190010Y3151626D02*
Y3231626D01*
X4220993Y3120643D02*
X4300990D01*
X4331971Y3151626D02*
Y3231626D01*
X4189370Y3151026D02*
Y3231026D01*
X4078393Y3120043D02*
X4158390D01*
X4047410Y3151026D02*
Y3231026D01*
X4189957Y3288615D02*
Y3368613D01*
X4047991Y3288615D02*
Y3368613D01*
X4078977Y3399590D02*
X4158979D01*
X3457329Y4113268D02*
X3537331D01*
X3568317Y4144246D02*
Y4224243D01*
X3426351Y4144246D02*
Y4224243D01*
X3568898Y4281832D02*
Y4361832D01*
X3457918Y4392815D02*
X3537915D01*
X3426938Y4281832D02*
Y4361832D01*
X3751579Y4114578D02*
X3831581D01*
X3862567Y4145556D02*
Y4225553D01*
X3720601Y4145556D02*
Y4225553D01*
X3863148Y4283142D02*
Y4363142D01*
X3752168Y4394125D02*
X3832165D01*
X3721188Y4283142D02*
Y4363142D01*
X3894119Y4113268D02*
X3974121D01*
X4005107Y4144246D02*
Y4224243D01*
X3863141Y4144246D02*
Y4224243D01*
X4005688Y4281832D02*
Y4361832D01*
X3894708Y4392815D02*
X3974705D01*
X3863728Y4281832D02*
Y4361832D01*
X4035989Y4115898D02*
X4115991D01*
X4146977Y4146876D02*
Y4226873D01*
X4005011Y4146876D02*
Y4226873D01*
X4147558Y4284462D02*
Y4364462D01*
X4036578Y4395445D02*
X4116575D01*
X4005598Y4284462D02*
Y4364462D01*
X3608389Y4113918D02*
X3688391D01*
X3719377Y4144896D02*
Y4224893D01*
X3577411Y4144896D02*
Y4224893D01*
X3719958Y4282482D02*
Y4362482D01*
X3608978Y4393465D02*
X3688975D01*
X3577998Y4282482D02*
Y4362482D01*
X2873310Y6809360D02*
X3644470Y7580520D01*
X7667407Y3579357D02*
Y3659357D01*
X7556429Y3548374D02*
X7636426D01*
X7525446Y3579357D02*
Y3659357D01*
X7667993Y3716946D02*
Y3796944D01*
X7526028Y3716946D02*
Y3796944D01*
X7557013Y3827921D02*
X7637015D01*
X5123560Y5888340D02*
Y6396340D01*
X6393560Y5888340D02*
Y6396340D01*
X5123560Y5888340D02*
X6393560D01*
X6139560Y6141634D02*
Y6396340D01*
Y6141634D02*
X6393560Y6142340D01*
X5123560Y6396340D02*
X6393560D01*
X7703143Y7260938D02*
X7783146D01*
X7672158Y7149963D02*
Y7229960D01*
X7814124Y7149963D02*
Y7229960D01*
X7671576Y7012373D02*
Y7092373D01*
X7702559Y6981390D02*
X7782556D01*
X7813537Y7012373D02*
Y7092373D01*
X4516968Y13268D02*
Y1423222D01*
X8478098D01*
Y13268D02*
Y1423222D01*
X4520016Y13268D02*
X8478098D01*
X7884398Y548279D02*
X8284397D01*
X8084398Y348279D02*
Y748281D01*
X7249398Y548279D02*
X7649397D01*
X7449398Y348279D02*
Y748281D01*
X6614398Y548279D02*
X7014397D01*
X6814398Y348279D02*
Y748281D01*
X5979398Y548279D02*
X6379397D01*
X6179398Y348279D02*
Y748281D01*
X5344398Y548281D02*
X5744397D01*
X5544398Y348281D02*
Y748281D01*
X4909398Y348281D02*
Y748281D01*
X4709398Y548281D02*
X5109397D01*
X8506953Y13268D02*
Y1423222D01*
X12468083D01*
Y13268D02*
Y1423222D01*
X8510001Y13268D02*
X12468083D01*
X11874383Y548279D02*
X12274382D01*
X12074383Y348279D02*
Y748281D01*
X11239383Y548279D02*
X11639382D01*
X11439383Y348279D02*
Y748281D01*
X10604383Y548279D02*
X11004382D01*
X10804383Y348279D02*
Y748281D01*
X9969383Y548279D02*
X10369382D01*
X10169383Y348279D02*
Y748281D01*
X9334383Y548281D02*
X9734382D01*
X9534383Y348281D02*
Y748281D01*
X8899383Y348281D02*
Y748281D01*
X8699383Y548281D02*
X9099382D01*
X12450013Y8396419D02*
X12530015D01*
X12419027Y8285444D02*
Y8365441D01*
X12560993Y8285444D02*
Y8365441D01*
X12418446Y8147854D02*
Y8227854D01*
X12449429Y8116871D02*
X12529426D01*
X12560406Y8147854D02*
Y8227854D01*
X11545398Y7495920D02*
X11646998D01*
Y7521320D01*
X10338898Y7495920D02*
Y7521320D01*
Y7495920D02*
X10681798D01*
X11646998Y7775320D02*
Y8715120D01*
X10338898Y8981820D02*
X11646998D01*
X10338898Y7775320D02*
Y8715120D01*
X8600987Y4529784D02*
X8680987D01*
X8570004Y4560764D02*
Y4640761D01*
X8600987Y4671744D02*
X8680987D01*
X8738577Y4529197D02*
X8818574D01*
X8738577Y4671163D02*
X8818574D01*
X8849552Y4560175D02*
Y4640177D01*
X11848236Y6918459D02*
X12340120D01*
X9342920Y6526575D02*
Y6918459D01*
X9732007D01*
X9342920Y3921259D02*
X9732007D01*
X9342920D02*
Y4310346D01*
X12340120Y3921259D02*
Y4310346D01*
X11948236Y3921259D02*
X12340120D01*
Y6526575D02*
Y6918459D01*
X11848236D02*
X12340120D01*
X9342920Y6526575D02*
Y6918459D01*
X9732007D01*
X9342920Y3921259D02*
X9732007D01*
X9342920D02*
Y4310346D01*
X12340120Y3921259D02*
Y4310346D01*
X11948236Y3921259D02*
X12340120D01*
Y6526575D02*
Y6918459D01*
X12653529Y5048973D02*
Y5128973D01*
X12684509Y5159956D02*
X12764506D01*
X12795489Y5048973D02*
Y5128973D01*
X12652942Y4911386D02*
Y4991383D01*
X12794908Y4911386D02*
Y4991383D01*
X12683920Y4880408D02*
X12763922D01*
X3639210Y8968350D02*
X3644470Y8963090D01*
Y7580520D02*
Y8963090D01*
X6262377Y4035434D02*
X6342376D01*
X6231394Y4066414D02*
Y4146411D01*
X6262377Y4177394D02*
X6342376D01*
X6399966Y4034847D02*
X6479963D01*
X6399966Y4176813D02*
X6479963D01*
X6510941Y4065825D02*
Y4145827D01*
X6910126Y3561528D02*
Y3641527D01*
X6799148Y3530545D02*
X6879145D01*
X6768165Y3561528D02*
Y3641527D01*
X6910712Y3699117D02*
Y3779114D01*
X6768747Y3699117D02*
Y3779114D01*
X6799732Y3810092D02*
X6879735D01*
X7988846Y3574328D02*
Y3654327D01*
X7877868Y3543345D02*
X7957866D01*
X7846885Y3574328D02*
Y3654327D01*
X7989433Y3711917D02*
Y3791914D01*
X7847467Y3711917D02*
Y3791914D01*
X7878453Y3822892D02*
X7958455D01*
X8295863Y5244496D02*
X8375863D01*
X8406846Y5133519D02*
Y5213516D01*
X8295863Y5102536D02*
X8375863D01*
X8158276Y5245083D02*
X8238273D01*
X8158276Y5103117D02*
X8238273D01*
X8127298Y5134103D02*
Y5214105D01*
X6733514Y5562263D02*
Y5642263D01*
X6764494Y5673246D02*
X6844491D01*
X6875474Y5562263D02*
Y5642263D01*
X6732927Y5424676D02*
Y5504674D01*
X6874893Y5424676D02*
Y5504674D01*
X6763905Y5393698D02*
X6843907D01*
X4463789Y2672913D02*
Y2752915D01*
X4494767Y2641927D02*
X4574764D01*
X4494767Y2783893D02*
X4574764D01*
X4632353Y2641346D02*
X4712353D01*
X4743336Y2672329D02*
Y2752326D01*
X4632353Y2783306D02*
X4712353D01*
X9263734Y2745673D02*
Y2825673D01*
X9294714Y2856656D02*
X9374711D01*
X9405694Y2745673D02*
Y2825673D01*
X9263147Y2608086D02*
Y2688084D01*
X9405113Y2608086D02*
Y2688084D01*
X9294125Y2577108D02*
X9374127D01*
X9122554Y2746463D02*
Y2826463D01*
X9153534Y2857446D02*
X9233531D01*
X9264514Y2746463D02*
Y2826463D01*
X9121967Y2608876D02*
Y2688874D01*
X9263932Y2608876D02*
Y2688874D01*
X9152945Y2577899D02*
X9232947D01*
X6732467Y1630894D02*
X6812467D01*
X6701484Y1661874D02*
Y1741872D01*
X6732467Y1772854D02*
X6812467D01*
X6870056Y1630307D02*
X6950054D01*
X6870056Y1772273D02*
X6950054D01*
X6981032Y1661285D02*
Y1741287D01*
X9256330Y1663736D02*
X9336330D01*
X9225347Y1694717D02*
Y1774714D01*
X9256330Y1805697D02*
X9336330D01*
X9393919Y1663150D02*
X9473916D01*
X9393919Y1805115D02*
X9473916D01*
X9504894Y1694127D02*
Y1774130D01*
X8145224Y2728173D02*
Y2808173D01*
X8176204Y2839156D02*
X8256201D01*
X8287184Y2728173D02*
Y2808173D01*
X8144637Y2590586D02*
Y2670584D01*
X8286603Y2590586D02*
Y2670584D01*
X8175615Y2559609D02*
X8255617D01*
X8002764Y2728753D02*
Y2808753D01*
X8033744Y2839736D02*
X8113741D01*
X8144724Y2728753D02*
Y2808753D01*
X8002177Y2591166D02*
Y2671164D01*
X8144143Y2591166D02*
Y2671164D01*
X8033155Y2560188D02*
X8113157D01*
X6588764Y2710173D02*
Y2790173D01*
X6619744Y2821156D02*
X6699741D01*
X6730724Y2710173D02*
Y2790173D01*
X6588177Y2572587D02*
Y2652584D01*
X6730142Y2572587D02*
Y2652584D01*
X6619155Y2541609D02*
X6699157D01*
X6736304Y2710953D02*
Y2790953D01*
X6767284Y2821936D02*
X6847281D01*
X6878264Y2710953D02*
Y2790953D01*
X6735717Y2573367D02*
Y2653364D01*
X6877682Y2573367D02*
Y2653364D01*
X6766695Y2542389D02*
X6846697D01*
X8143563Y1642369D02*
X8223562D01*
X8112580Y1673349D02*
Y1753347D01*
X8143563Y1784329D02*
X8223562D01*
X8281152Y1641782D02*
X8361149D01*
X8281152Y1783748D02*
X8361149D01*
X8392127Y1672760D02*
Y1752762D01*
X5693374Y1630127D02*
Y1710130D01*
X5582399Y1741115D02*
X5662396D01*
X5582399Y1599149D02*
X5662396D01*
X5444810Y1741697D02*
X5524809D01*
X5413827Y1630717D02*
Y1710714D01*
X5444810Y1599736D02*
X5524809D01*
X5477035Y2547939D02*
X5557037D01*
X5588022Y2578916D02*
Y2658914D01*
X5446057Y2578916D02*
Y2658914D01*
X5588604Y2716503D02*
Y2796503D01*
X5477624Y2827486D02*
X5557621D01*
X5446643Y2716503D02*
Y2796503D01*
X5337335Y2547939D02*
X5417337D01*
X5448322Y2578916D02*
Y2658914D01*
X5306357Y2578916D02*
Y2658914D01*
X5448904Y2716503D02*
Y2796503D01*
X5337924Y2827486D02*
X5417921D01*
X5306943Y2716503D02*
Y2796503D01*
X70899Y1687930D02*
X223250D01*
Y1764105D01*
X197858Y1789497D01*
X172466D01*
X147074Y1764105D01*
Y1687930D01*
Y1764105D01*
X121683Y1789497D01*
X96291D01*
X70899Y1764105D01*
Y1687930D01*
Y1840281D02*
X197858D01*
X223250Y1865672D01*
Y1916456D01*
X197858Y1941848D01*
X70899D01*
Y2094199D02*
Y1992631D01*
X223250D01*
Y2094199D01*
X147074Y1992631D02*
Y2043415D01*
X70899Y2144982D02*
Y2246549D01*
Y2195765D01*
X223250D01*
X96291Y2551251D02*
X70899Y2525859D01*
Y2475075D01*
X96291Y2449683D01*
X197858D01*
X223250Y2475075D01*
Y2525859D01*
X197858Y2551251D01*
X96291Y2703601D02*
X70899Y2678210D01*
Y2627426D01*
X96291Y2602034D01*
X197858D01*
X223250Y2627426D01*
Y2678210D01*
X197858Y2703601D01*
X223250Y2754385D02*
X70899D01*
X121683Y2805168D01*
X70899Y2855952D01*
X223250D01*
X96291Y3008303D02*
X70899Y2982911D01*
Y2932127D01*
X96291Y2906736D01*
X121683D01*
X147074Y2932127D01*
Y2982911D01*
X172466Y3008303D01*
X197858D01*
X223250Y2982911D01*
Y2932127D01*
X197858Y2906736D01*
X70899Y3211437D02*
X172466D01*
X223250Y3262221D01*
X172466Y3313004D01*
X70899D01*
X96291Y3363788D02*
X70899Y3389180D01*
Y3439963D01*
X96291Y3465355D01*
X197858D01*
X223250Y3439963D01*
Y3389180D01*
X197858Y3363788D01*
X96291D01*
X223250Y3516139D02*
X197858D01*
Y3541530D01*
X223250D01*
Y3516139D01*
X96291Y3643097D02*
X70899Y3668489D01*
Y3719273D01*
X96291Y3744665D01*
X197858D01*
X223250Y3719273D01*
Y3668489D01*
X197858Y3643097D01*
X96291D01*
X223250Y3795448D02*
Y3846232D01*
Y3820840D01*
X70899D01*
X96291Y3795448D01*
D112*
X9298390Y3516440D02*
G03*
X9298390Y3516440I-600000J0D01*
G01*
X6191510Y3484040D02*
X6354010D01*
X6191510Y3171040D02*
X6354010D01*
X4066570Y5280430D02*
Y5565430D01*
X4236570Y5280430D02*
Y5565430D01*
X3581250Y4815510D02*
Y4896010D01*
X3881250Y4815510D02*
Y4896010D01*
X3581250Y5035010D02*
Y5115510D01*
X3881250Y5035010D02*
Y5115510D01*
X6662120Y6255070D02*
X6697120D01*
X6662120Y5925070D02*
X6662120Y6255070D01*
X6662120Y5925070D02*
X6697120Y5925070D01*
X8097120Y6255070D02*
X8132120Y6255070D01*
Y5925070D02*
Y6255070D01*
X8097120Y5925070D02*
X8132120Y5925070D01*
X4971960Y7945140D02*
X5256960D01*
X4971960Y7775140D02*
X5256960D01*
X6781420Y7294920D02*
X6943920D01*
X6781420Y6981920D02*
X6943920D01*
X4512140Y4593510D02*
Y5333510D01*
Y4593510D02*
X5087140D01*
Y5333510D01*
X4512140D02*
X5087140D01*
X5635024Y4569739D02*
Y4732239D01*
X5322024Y4569739D02*
Y4732239D01*
X4134214Y5028299D02*
X4294214D01*
X4134214Y5166300D02*
X4294214D01*
X4135894Y4785259D02*
X4295894D01*
X4135894Y4923260D02*
X4295894D01*
X3184804Y5209999D02*
X3344804D01*
X3184804Y5071999D02*
X3344804D01*
X5326804Y3940889D02*
Y4103389D01*
X5639804Y3940889D02*
Y4103389D01*
X5145544Y3950709D02*
Y4110710D01*
X5283544Y3950709D02*
Y4110710D01*
X3864534Y3564269D02*
X3894034D01*
X3864534Y3964269D02*
X3894034D01*
X3494034Y3564269D02*
X3523534D01*
X3494034Y3964269D02*
X3523534D01*
X3894034Y3564269D02*
Y3593769D01*
Y3934769D02*
Y3964269D01*
X3494034Y3564269D02*
Y3593769D01*
Y3934769D02*
Y3964269D01*
X3418564Y4173919D02*
Y4333919D01*
X3280564Y4173919D02*
Y4333919D01*
X6062140Y7214850D02*
Y7374850D01*
X5924140Y7214850D02*
Y7374850D01*
X5814090Y7207320D02*
Y7367320D01*
X5676090Y7207320D02*
Y7367320D01*
X5019530Y8338710D02*
X6459530D01*
X5019530Y6538710D02*
X6459530D01*
Y8338710D01*
Y9008710D01*
X5019530D02*
X6459530D01*
X5019530Y8338710D02*
Y9008710D01*
Y6538710D02*
Y8338710D01*
X4493880Y7864310D02*
Y8030310D01*
X4183880Y7864310D02*
Y8030310D01*
X12018550Y8893400D02*
X12318550D01*
X12018550Y8576400D02*
X12318550D01*
X12247960Y8192959D02*
Y8352959D01*
X12385960Y8192959D02*
Y8352959D01*
X12835880Y5525010D02*
Y5755010D01*
X12594880Y5525010D02*
Y5755010D01*
X12880780Y3576010D02*
X12905780D01*
X12880780Y3536010D02*
Y3576010D01*
Y3636010D02*
Y3676010D01*
Y3636010D02*
X12905780D01*
Y3576010D02*
Y3636010D01*
X12899310Y6239690D02*
X12924310D01*
X12899310Y6199690D02*
Y6239690D01*
Y6299690D02*
Y6339690D01*
Y6299690D02*
X12924310D01*
Y6239690D02*
Y6299690D01*
X6289060Y4208410D02*
X6449060D01*
X6289060Y4346410D02*
X6449060D01*
X7080119Y3587360D02*
Y3747360D01*
X6942119Y3587360D02*
Y3747360D01*
X7823700Y3602870D02*
Y3762870D01*
X7685700Y3602870D02*
Y3762870D01*
X8186449Y5077230D02*
X8346450D01*
X8186449Y4939230D02*
X8346450D01*
X6566010Y5454930D02*
Y5614930D01*
X6704010Y5454930D02*
Y5614930D01*
X6275019Y5465280D02*
Y5625280D01*
X6413020Y5465280D02*
Y5625280D01*
X6014269Y5463280D02*
Y5623280D01*
X6152270Y5463280D02*
Y5623280D01*
X6064594Y4854284D02*
X6177732Y4967421D01*
X5967013Y4951865D02*
X6080151Y5065002D01*
X5918263Y4471965D02*
X6031401Y4358828D01*
X6015844Y4569546D02*
X6128982Y4456409D01*
X8190390Y3960940D02*
Y4087940D01*
X9142890Y4024440D02*
X9269890D01*
X9206390Y3960940D02*
Y4087940D01*
X6392952Y2028423D02*
Y2338423D01*
X6179953Y2028423D02*
Y2338423D01*
X7833470Y2030880D02*
Y2340880D01*
X7620470Y2030880D02*
Y2340880D01*
X5102072Y2035853D02*
Y2345853D01*
X4889073Y2035853D02*
Y2345853D01*
X8943290Y2057460D02*
Y2367460D01*
X8730290Y2057460D02*
Y2367460D01*
X9209750Y7901550D02*
Y8064050D01*
X9522750Y7901550D02*
Y8064050D01*
X6207046Y3588470D02*
Y3538486D01*
X6217043Y3528490D01*
X6237036D01*
X6247033Y3538486D01*
Y3588470D01*
X6267027Y3578473D02*
X6277023Y3588470D01*
X6297017D01*
X6307014Y3578473D01*
Y3568477D01*
X6297017Y3558480D01*
X6287020D01*
X6297017D01*
X6307014Y3548483D01*
Y3538486D01*
X6297017Y3528490D01*
X6277023D01*
X6267027Y3538486D01*
X6356997Y3528490D02*
Y3588470D01*
X6327007Y3558480D01*
X6366994D01*
X5949680Y3448516D02*
X5889700D01*
Y3478506D01*
X5899697Y3488503D01*
X5919690D01*
X5929687Y3478506D01*
Y3448516D01*
Y3468510D02*
X5949680Y3488503D01*
X5899697Y3508497D02*
X5889700Y3518493D01*
Y3538487D01*
X5899697Y3548484D01*
X5909693D01*
X5919690Y3538487D01*
X5929687Y3548484D01*
X5939684D01*
X5949680Y3538487D01*
Y3518493D01*
X5939684Y3508497D01*
X5929687D01*
X5919690Y3518493D01*
X5909693Y3508497D01*
X5899697D01*
X5919690Y3518493D02*
Y3538487D01*
X5899697Y3568477D02*
X5889700Y3578474D01*
Y3598468D01*
X5899697Y3608464D01*
X5909693D01*
X5919690Y3598468D01*
Y3588471D01*
Y3598468D01*
X5929687Y3608464D01*
X5939684D01*
X5949680Y3598468D01*
Y3578474D01*
X5939684Y3568477D01*
X6544906Y3526116D02*
X6534909Y3516120D01*
Y3496126D01*
X6544906Y3486129D01*
X6584893D01*
X6594890Y3496126D01*
Y3516120D01*
X6584893Y3526116D01*
X6594890Y3546110D02*
Y3566104D01*
Y3556107D01*
X6534909D01*
X6544906Y3546110D01*
X6594890Y3596094D02*
Y3616087D01*
Y3606090D01*
X6534909D01*
X6544906Y3596094D01*
X6594890Y3646077D02*
Y3666071D01*
Y3656074D01*
X6534909D01*
X6544906Y3646077D01*
X9971121Y8762557D02*
X9921137D01*
X9911140Y8752561D01*
Y8732567D01*
X9921137Y8722570D01*
X9971121D01*
X9961124Y8662590D02*
X9971121Y8672586D01*
Y8692580D01*
X9961124Y8702577D01*
X9951127D01*
X9941130Y8692580D01*
Y8672586D01*
X9931134Y8662590D01*
X9921137D01*
X9911140Y8672586D01*
Y8692580D01*
X9921137Y8702577D01*
X9971121Y8642596D02*
X9911140D01*
Y8612606D01*
X9921137Y8602609D01*
X9931134D01*
X9941130Y8612606D01*
Y8642596D01*
Y8612606D01*
X9951127Y8602609D01*
X9961124D01*
X9971121Y8612606D01*
Y8642596D01*
X9911140Y8582616D02*
Y8562622D01*
Y8572619D01*
X9971121D01*
X9961124Y8582616D01*
X3295627Y6971100D02*
X3285630Y6961103D01*
Y6941110D01*
X3295627Y6931113D01*
X3335614D01*
X3345610Y6941110D01*
Y6961103D01*
X3335614Y6971100D01*
X3295627Y6991093D02*
X3285630Y7001090D01*
Y7021084D01*
X3295627Y7031080D01*
X3305623D01*
X3315620Y7021084D01*
Y7011087D01*
Y7021084D01*
X3325617Y7031080D01*
X3335614D01*
X3345610Y7021084D01*
Y7001090D01*
X3335614Y6991093D01*
X3345610Y7051074D02*
Y7071068D01*
Y7061071D01*
X3285630D01*
X3295627Y7051074D01*
X4132820Y6845126D02*
X4072839D01*
Y6875116D01*
X4082836Y6885113D01*
X4102830D01*
X4112826Y6875116D01*
Y6845126D01*
Y6865119D02*
X4132820Y6885113D01*
Y6905106D02*
Y6925100D01*
Y6915103D01*
X4072839D01*
X4082836Y6905106D01*
X4132820Y6955090D02*
Y6975084D01*
Y6965087D01*
X4072839D01*
X4082836Y6955090D01*
Y7005074D02*
X4072839Y7015070D01*
Y7035064D01*
X4082836Y7045061D01*
X4122823D01*
X4132820Y7035064D01*
Y7015070D01*
X4122823Y7005074D01*
X4082836D01*
X3529360Y6843489D02*
X3469380D01*
Y6873480D01*
X3479377Y6883476D01*
X3499370D01*
X3509367Y6873480D01*
Y6843489D01*
Y6863483D02*
X3529360Y6883476D01*
X3479377Y6903470D02*
X3469380Y6913467D01*
Y6933460D01*
X3479377Y6943457D01*
X3489373D01*
X3499370Y6933460D01*
X3509367Y6943457D01*
X3519364D01*
X3529360Y6933460D01*
Y6913467D01*
X3519364Y6903470D01*
X3509367D01*
X3499370Y6913467D01*
X3489373Y6903470D01*
X3479377D01*
X3499370Y6913467D02*
Y6933460D01*
X3529360Y7003438D02*
Y6963451D01*
X3489373Y7003438D01*
X3479377D01*
X3469380Y6993441D01*
Y6973447D01*
X3479377Y6963451D01*
X4293910Y6840779D02*
X4233930D01*
Y6870770D01*
X4243926Y6880766D01*
X4263920D01*
X4273917Y6870770D01*
Y6840779D01*
Y6860773D02*
X4293910Y6880766D01*
X4233930Y6900760D02*
Y6940747D01*
X4243926D01*
X4283913Y6900760D01*
X4293910D01*
X4233930Y7000727D02*
Y6960740D01*
X4263920D01*
X4253923Y6980734D01*
Y6990731D01*
X4263920Y7000727D01*
X4283913D01*
X4293910Y6990731D01*
Y6970737D01*
X4283913Y6960740D01*
X3252506Y6223051D02*
Y6163070D01*
X3292493D01*
X3352474Y6223051D02*
X3332481Y6213054D01*
X3312487Y6193061D01*
Y6173067D01*
X3322484Y6163070D01*
X3342477D01*
X3352474Y6173067D01*
Y6183064D01*
X3342477Y6193061D01*
X3312487D01*
X4240251Y5883903D02*
X4180270D01*
Y5853913D01*
X4190267Y5843916D01*
X4230254D01*
X4240251Y5853913D01*
Y5883903D01*
X4180270Y5783936D02*
Y5823923D01*
X4220257Y5783936D01*
X4230254D01*
X4240251Y5793933D01*
Y5813926D01*
X4230254Y5823923D01*
X4414757Y6893100D02*
X4404760Y6883103D01*
Y6863109D01*
X4414757Y6853113D01*
X4454744D01*
X4464740Y6863109D01*
Y6883103D01*
X4454744Y6893100D01*
X4464740Y6913093D02*
Y6933087D01*
Y6923090D01*
X4404760D01*
X4414757Y6913093D01*
X4464740Y6963077D02*
Y6983071D01*
Y6973074D01*
X4404760D01*
X4414757Y6963077D01*
Y7013061D02*
X4404760Y7023057D01*
Y7043051D01*
X4414757Y7053048D01*
X4454744D01*
X4464740Y7043051D01*
Y7023057D01*
X4454744Y7013061D01*
X4414757D01*
X4624894Y5806569D02*
X4634891Y5816566D01*
Y5836559D01*
X4624894Y5846556D01*
X4584907D01*
X4574910Y5836559D01*
Y5816566D01*
X4584907Y5806569D01*
X4574910Y5786575D02*
Y5766582D01*
Y5776579D01*
X4634891D01*
X4624894Y5786575D01*
Y5736592D02*
X4634891Y5726595D01*
Y5706601D01*
X4624894Y5696605D01*
X4584907D01*
X4574910Y5706601D01*
Y5726595D01*
X4584907Y5736592D01*
X4624894D01*
X4584907Y5676611D02*
X4574910Y5666615D01*
Y5646621D01*
X4584907Y5636624D01*
X4624894D01*
X4634891Y5646621D01*
Y5666615D01*
X4624894Y5676611D01*
X4614897D01*
X4604900Y5666615D01*
Y5636624D01*
X4429893Y5979618D02*
X4439890Y5989615D01*
Y6009609D01*
X4429893Y6019605D01*
X4389906D01*
X4379910Y6009609D01*
Y5989615D01*
X4389906Y5979618D01*
X4379910Y5959625D02*
Y5939631D01*
Y5949628D01*
X4439890D01*
X4429893Y5959625D01*
Y5909641D02*
X4439890Y5899645D01*
Y5879651D01*
X4429893Y5869654D01*
X4389906D01*
X4379910Y5879651D01*
Y5899645D01*
X4389906Y5909641D01*
X4429893D01*
Y5849661D02*
X4439890Y5839664D01*
Y5819670D01*
X4429893Y5809674D01*
X4419897D01*
X4409900Y5819670D01*
X4399903Y5809674D01*
X4389906D01*
X4379910Y5819670D01*
Y5839664D01*
X4389906Y5849661D01*
X4399903D01*
X4409900Y5839664D01*
X4419897Y5849661D01*
X4429893D01*
X4409900Y5839664D02*
Y5819670D01*
X3771169Y6864143D02*
X3831150D01*
Y6894133D01*
X3821153Y6904130D01*
X3811156D01*
X3801160Y6894133D01*
Y6864143D01*
Y6894133D01*
X3791163Y6904130D01*
X3781166D01*
X3771169Y6894133D01*
Y6864143D01*
X3831150Y6924123D02*
Y6944117D01*
Y6934120D01*
X3771169D01*
X3781166Y6924123D01*
X3545840Y5348261D02*
Y5298277D01*
X3555837Y5288280D01*
X3575830D01*
X3585827Y5298277D01*
Y5348261D01*
X3605821Y5288280D02*
X3625814D01*
X3615817D01*
Y5348261D01*
X3605821Y5338264D01*
X3655804D02*
X3665801Y5348261D01*
X3685795D01*
X3695791Y5338264D01*
Y5298277D01*
X3685795Y5288280D01*
X3665801D01*
X3655804Y5298277D01*
Y5338264D01*
X5742047Y8183123D02*
Y8133139D01*
X5752044Y8123143D01*
X5772037D01*
X5782034Y8133139D01*
Y8183123D01*
X5842015Y8123143D02*
X5802028D01*
X5842015Y8163130D01*
Y8173126D01*
X5832018Y8183123D01*
X5812024D01*
X5802028Y8173126D01*
X5862008D02*
X5872005Y8183123D01*
X5891999D01*
X5901995Y8173126D01*
Y8163130D01*
X5891999Y8153133D01*
X5901995Y8143136D01*
Y8133139D01*
X5891999Y8123143D01*
X5872005D01*
X5862008Y8133139D01*
Y8143136D01*
X5872005Y8153133D01*
X5862008Y8163130D01*
Y8173126D01*
X5872005Y8153133D02*
X5891999D01*
X4264189Y5278206D02*
X4324170D01*
Y5308196D01*
X4314173Y5318193D01*
X4274186D01*
X4264189Y5308196D01*
Y5278206D01*
Y5338186D02*
Y5378173D01*
X4274186D01*
X4314173Y5338186D01*
X4324170D01*
X5097476Y8037310D02*
Y7977329D01*
X5127467D01*
X5137463Y7987326D01*
Y8027313D01*
X5127467Y8037310D01*
X5097476D01*
X5157457Y8027313D02*
X5167454Y8037310D01*
X5187447D01*
X5197444Y8027313D01*
Y8017316D01*
X5187447Y8007320D01*
X5177451D01*
X5187447D01*
X5197444Y7997323D01*
Y7987326D01*
X5187447Y7977329D01*
X5167454D01*
X5157457Y7987326D01*
X5446218Y8165704D02*
X5436221Y8175700D01*
X5416228D01*
X5406231Y8165704D01*
Y8125717D01*
X5416228Y8115720D01*
X5436221D01*
X5446218Y8125717D01*
X5466212Y8115720D02*
X5486205D01*
X5476208D01*
Y8175700D01*
X5466212Y8165704D01*
X5516195D02*
X5526192Y8175700D01*
X5546186D01*
X5556182Y8165704D01*
Y8125717D01*
X5546186Y8115720D01*
X5526192D01*
X5516195Y8125717D01*
Y8165704D01*
X5576176Y8115720D02*
X5596169D01*
X5586172D01*
Y8175700D01*
X5576176Y8165704D01*
X6171781Y8177003D02*
X6161784Y8187000D01*
X6141791D01*
X6131794Y8177003D01*
Y8137016D01*
X6141791Y8127020D01*
X6161784D01*
X6171781Y8137016D01*
X6191775Y8127020D02*
X6211768D01*
X6201771D01*
Y8187000D01*
X6191775Y8177003D01*
X6241758D02*
X6251755Y8187000D01*
X6271749D01*
X6281745Y8177003D01*
Y8137016D01*
X6271749Y8127020D01*
X6251755D01*
X6241758Y8137016D01*
Y8177003D01*
X6301739D02*
X6311736Y8187000D01*
X6331729D01*
X6341726Y8177003D01*
Y8137016D01*
X6331729Y8127020D01*
X6311736D01*
X6301739Y8137016D01*
Y8177003D01*
X11915951Y1622243D02*
Y1582256D01*
X11925947Y1572259D01*
X11945941D01*
X11955937Y1582256D01*
Y1622243D01*
X11945941Y1632239D01*
X11925947D01*
X11935944Y1612246D02*
X11915951Y1632239D01*
X11925947D02*
X11915951Y1622243D01*
X11895957Y1632239D02*
X11875963D01*
X11885960D01*
Y1572259D01*
X11895957Y1582256D01*
X12367487Y1622243D02*
Y1582256D01*
X12377484Y1572259D01*
X12397477D01*
X12407474Y1582256D01*
Y1622243D01*
X12397477Y1632239D01*
X12377484D01*
X12387480Y1612246D02*
X12367487Y1632239D01*
X12377484D02*
X12367487Y1622243D01*
X12307506Y1632239D02*
X12347493D01*
X12307506Y1592252D01*
Y1582256D01*
X12317503Y1572259D01*
X12337497D01*
X12347493Y1582256D01*
X10733780Y2986876D02*
X10673800D01*
Y3016866D01*
X10683797Y3026863D01*
X10703790D01*
X10713787Y3016866D01*
Y2986876D01*
Y3006870D02*
X10733780Y3026863D01*
X10673800Y3086844D02*
Y3046857D01*
X10703790D01*
X10693793Y3066850D01*
Y3076847D01*
X10703790Y3086844D01*
X10723783D01*
X10733780Y3076847D01*
Y3056853D01*
X10723783Y3046857D01*
X10673800Y3146824D02*
Y3106837D01*
X10703790D01*
X10693793Y3126831D01*
Y3136828D01*
X10703790Y3146824D01*
X10723783D01*
X10733780Y3136828D01*
Y3116834D01*
X10723783Y3106837D01*
X10078060Y2997096D02*
X10018079D01*
Y3027086D01*
X10028076Y3037083D01*
X10048070D01*
X10058066Y3027086D01*
Y2997096D01*
Y3017089D02*
X10078060Y3037083D01*
X10018079Y3097063D02*
Y3057076D01*
X10048070D01*
X10038073Y3077070D01*
Y3087067D01*
X10048070Y3097063D01*
X10068063D01*
X10078060Y3087067D01*
Y3067073D01*
X10068063Y3057076D01*
X10018079Y3157044D02*
X10028076Y3137051D01*
X10048070Y3117057D01*
X10068063D01*
X10078060Y3127054D01*
Y3147047D01*
X10068063Y3157044D01*
X10058066D01*
X10048070Y3147047D01*
Y3117057D01*
X10340600Y1813174D02*
X10400581D01*
Y1783183D01*
X10390584Y1773187D01*
X10370590D01*
X10360594Y1783183D01*
Y1813174D01*
Y1793180D02*
X10340600Y1773187D01*
X10400581Y1713206D02*
Y1753193D01*
X10370590D01*
X10380587Y1733199D01*
Y1723203D01*
X10370590Y1713206D01*
X10350597D01*
X10340600Y1723203D01*
Y1743196D01*
X10350597Y1753193D01*
X10400581Y1693213D02*
Y1653226D01*
X10390584D01*
X10350597Y1693213D01*
X10340600D01*
X11010080Y1835484D02*
X11070060D01*
Y1805494D01*
X11060063Y1795497D01*
X11040070D01*
X11030073Y1805494D01*
Y1835484D01*
Y1815490D02*
X11010080Y1795497D01*
X11070060Y1735516D02*
Y1775503D01*
X11040070D01*
X11050067Y1755510D01*
Y1745513D01*
X11040070Y1735516D01*
X11020077D01*
X11010080Y1745513D01*
Y1765507D01*
X11020077Y1775503D01*
X11060063Y1715523D02*
X11070060Y1705526D01*
Y1685533D01*
X11060063Y1675536D01*
X11050067D01*
X11040070Y1685533D01*
X11030073Y1675536D01*
X11020077D01*
X11010080Y1685533D01*
Y1705526D01*
X11020077Y1715523D01*
X11030073D01*
X11040070Y1705526D01*
X11050067Y1715523D01*
X11060063D01*
X11040070Y1705526D02*
Y1685533D01*
X12535426Y2467209D02*
Y2527190D01*
X12565417D01*
X12575413Y2517193D01*
Y2497200D01*
X12565417Y2487203D01*
X12535426D01*
X12555420D02*
X12575413Y2467209D01*
X12595407Y2527190D02*
X12635394D01*
Y2517193D01*
X12595407Y2477206D01*
Y2467209D01*
X12695374D02*
X12655387D01*
X12695374Y2507196D01*
Y2517193D01*
X12685378Y2527190D01*
X12665384D01*
X12655387Y2517193D01*
X11607937Y2461809D02*
Y2521790D01*
X11637927D01*
X11647924Y2511793D01*
Y2491800D01*
X11637927Y2481803D01*
X11607937D01*
X11627930D02*
X11647924Y2461809D01*
X11667917Y2521790D02*
X11707904D01*
Y2511793D01*
X11667917Y2471806D01*
Y2461809D01*
X11727898Y2511793D02*
X11737894Y2521790D01*
X11757888D01*
X11767885Y2511793D01*
Y2501796D01*
X11757888Y2491800D01*
X11747891D01*
X11757888D01*
X11767885Y2481803D01*
Y2471806D01*
X11757888Y2461809D01*
X11737894D01*
X11727898Y2471806D01*
X12535426Y2317189D02*
Y2377170D01*
X12565417D01*
X12575413Y2367173D01*
Y2347180D01*
X12565417Y2337183D01*
X12535426D01*
X12555420D02*
X12575413Y2317189D01*
X12595407Y2377170D02*
X12635394D01*
Y2367173D01*
X12595407Y2327186D01*
Y2317189D01*
X12685378D02*
Y2377170D01*
X12655387Y2347180D01*
X12695374D01*
X10211447Y2452960D02*
Y2402976D01*
X10221443Y2392980D01*
X10241437D01*
X10251434Y2402976D01*
Y2452960D01*
X10271427D02*
X10311414D01*
Y2442963D01*
X10271427Y2402976D01*
Y2392980D01*
X10961136Y2523320D02*
Y2473336D01*
X10971133Y2463340D01*
X10991127D01*
X11001123Y2473336D01*
Y2523320D01*
X11021117Y2513323D02*
X11031114Y2523320D01*
X11051107D01*
X11061104Y2513323D01*
Y2503327D01*
X11051107Y2493330D01*
X11061104Y2483333D01*
Y2473336D01*
X11051107Y2463340D01*
X11031114D01*
X11021117Y2473336D01*
Y2483333D01*
X11031114Y2493330D01*
X11021117Y2503327D01*
Y2513323D01*
X11031114Y2493330D02*
X11051107D01*
X525780Y1558581D02*
Y1508597D01*
X535777Y1498600D01*
X555770D01*
X565767Y1508597D01*
Y1558581D01*
X585761Y1508597D02*
X595757Y1498600D01*
X615751D01*
X625748Y1508597D01*
Y1548584D01*
X615751Y1558581D01*
X595757D01*
X585761Y1548584D01*
Y1538587D01*
X595757Y1528590D01*
X625748D01*
X6688063Y6347790D02*
X6668070D01*
X6678067D01*
Y6297807D01*
X6668070Y6287810D01*
X6658073D01*
X6648076Y6297807D01*
X6708057Y6337794D02*
X6718054Y6347790D01*
X6738047D01*
X6748044Y6337794D01*
Y6327797D01*
X6738047Y6317800D01*
X6728051D01*
X6738047D01*
X6748044Y6307803D01*
Y6297807D01*
X6738047Y6287810D01*
X6718054D01*
X6708057Y6297807D01*
X6535650Y5853804D02*
X6475670D01*
Y5823813D01*
X6485666Y5813817D01*
X6525653D01*
X6535650Y5823813D01*
Y5853804D01*
X6475670Y5763833D02*
X6535650D01*
X6505660Y5793823D01*
Y5753836D01*
X6890970Y6920394D02*
X6840986D01*
X6830990Y6910397D01*
Y6890404D01*
X6840986Y6880407D01*
X6890970D01*
X6880973Y6860414D02*
X6890970Y6850417D01*
Y6830423D01*
X6880973Y6820427D01*
X6870977D01*
X6860980Y6830423D01*
Y6840420D01*
Y6830423D01*
X6850983Y6820427D01*
X6840986D01*
X6830990Y6830423D01*
Y6850417D01*
X6840986Y6860414D01*
X6880973Y6800433D02*
X6890970Y6790436D01*
Y6770443D01*
X6880973Y6760446D01*
X6870977D01*
X6860980Y6770443D01*
Y6780439D01*
Y6770443D01*
X6850983Y6760446D01*
X6840986D01*
X6830990Y6770443D01*
Y6790436D01*
X6840986Y6800433D01*
X7173120Y6796864D02*
X7113139D01*
Y6826854D01*
X7123136Y6836851D01*
X7143130D01*
X7153126Y6826854D01*
Y6796864D01*
Y6816858D02*
X7173120Y6836851D01*
Y6856845D02*
Y6876838D01*
Y6866841D01*
X7113139D01*
X7123136Y6856845D01*
Y6906828D02*
X7113139Y6916825D01*
Y6936818D01*
X7123136Y6946815D01*
X7163123D01*
X7173120Y6936818D01*
Y6916825D01*
X7163123Y6906828D01*
X7123136D01*
X7173120Y7006796D02*
Y6966809D01*
X7133133Y7006796D01*
X7123136D01*
X7113139Y6996799D01*
Y6976805D01*
X7123136Y6966809D01*
X6579773Y6902769D02*
X6589770Y6912765D01*
Y6932759D01*
X6579773Y6942756D01*
X6539787D01*
X6529790Y6932759D01*
Y6912765D01*
X6539787Y6902769D01*
X6529790Y6882775D02*
Y6862782D01*
Y6872778D01*
X6589770D01*
X6579773Y6882775D01*
Y6832792D02*
X6589770Y6822795D01*
Y6802801D01*
X6579773Y6792805D01*
X6539787D01*
X6529790Y6802801D01*
Y6822795D01*
X6539787Y6832792D01*
X6579773D01*
X6589770Y6772811D02*
Y6732824D01*
X6579773D01*
X6539787Y6772811D01*
X6529790D01*
X4954926Y5762881D02*
Y5712897D01*
X4964923Y5702900D01*
X4984916D01*
X4994913Y5712897D01*
Y5762881D01*
X5054894Y5702900D02*
X5014907D01*
X5054894Y5742887D01*
Y5752884D01*
X5044897Y5762881D01*
X5024903D01*
X5014907Y5752884D01*
X5114874Y5762881D02*
X5074887D01*
Y5732890D01*
X5094881Y5742887D01*
X5104878D01*
X5114874Y5732890D01*
Y5712897D01*
X5104878Y5702900D01*
X5084884D01*
X5074887Y5712897D01*
X4434587Y5480023D02*
X4424590Y5470026D01*
Y5450033D01*
X4434587Y5440036D01*
X4474574D01*
X4484570Y5450033D01*
Y5470026D01*
X4474574Y5480023D01*
X4434587Y5500017D02*
X4424590Y5510013D01*
Y5530007D01*
X4434587Y5540004D01*
X4444583D01*
X4454580Y5530007D01*
X4464577Y5540004D01*
X4474574D01*
X4484570Y5530007D01*
Y5510013D01*
X4474574Y5500017D01*
X4464577D01*
X4454580Y5510013D01*
X4444583Y5500017D01*
X4434587D01*
X4454580Y5510013D02*
Y5530007D01*
X4424590Y5599984D02*
Y5559997D01*
X4454580D01*
X4444583Y5579991D01*
Y5589988D01*
X4454580Y5599984D01*
X4474574D01*
X4484570Y5589988D01*
Y5569994D01*
X4474574Y5559997D01*
X7370986Y5371790D02*
Y5321806D01*
X7380983Y5311810D01*
X7400976D01*
X7410973Y5321806D01*
Y5371790D01*
X7470954Y5311810D02*
X7430967D01*
X7470954Y5351797D01*
Y5361793D01*
X7460957Y5371790D01*
X7440963D01*
X7430967Y5361793D01*
X7490947D02*
X7500944Y5371790D01*
X7520937D01*
X7530934Y5361793D01*
Y5321806D01*
X7520937Y5311810D01*
X7500944D01*
X7490947Y5321806D01*
Y5361793D01*
X5020090Y6103133D02*
X5070074D01*
X5080070Y6113130D01*
Y6133123D01*
X5070074Y6143120D01*
X5020090D01*
X5030087Y6163113D02*
X5020090Y6173110D01*
Y6193104D01*
X5030087Y6203100D01*
X5040083D01*
X5050080Y6193104D01*
Y6183107D01*
Y6193104D01*
X5060077Y6203100D01*
X5070074D01*
X5080070Y6193104D01*
Y6173110D01*
X5070074Y6163113D01*
X5080070Y6223094D02*
Y6243088D01*
Y6233091D01*
X5020090D01*
X5030087Y6223094D01*
X8506460Y1558581D02*
Y1508597D01*
X8516457Y1498600D01*
X8536450D01*
X8546447Y1508597D01*
Y1558581D01*
X8566441Y1498600D02*
X8586434D01*
X8576437D01*
Y1558581D01*
X8566441Y1548584D01*
X8616424Y1508597D02*
X8626421Y1498600D01*
X8646415D01*
X8656411Y1508597D01*
Y1548584D01*
X8646415Y1558581D01*
X8626421D01*
X8616424Y1548584D01*
Y1538587D01*
X8626421Y1528590D01*
X8656411D01*
X4516120Y1558581D02*
Y1508597D01*
X4526117Y1498600D01*
X4546110D01*
X4556107Y1508597D01*
Y1558581D01*
X4576101Y1498600D02*
X4596094D01*
X4586097D01*
Y1558581D01*
X4576101Y1548584D01*
X4666071Y1558581D02*
X4646078Y1548584D01*
X4626084Y1528590D01*
Y1508597D01*
X4636081Y1498600D01*
X4656075D01*
X4666071Y1508597D01*
Y1518594D01*
X4656075Y1528590D01*
X4626084D01*
X5192654Y4591375D02*
X5242638D01*
X5252634Y4601372D01*
Y4621365D01*
X5242638Y4631362D01*
X5192654D01*
X5252634Y4691342D02*
Y4651355D01*
X5212647Y4691342D01*
X5202651D01*
X5192654Y4681346D01*
Y4661352D01*
X5202651Y4651355D01*
X5242638Y4711336D02*
X5252634Y4721333D01*
Y4741326D01*
X5242638Y4751323D01*
X5202651D01*
X5192654Y4741326D01*
Y4721333D01*
X5202651Y4711336D01*
X5212647D01*
X5222644Y4721333D01*
Y4751323D01*
X5674340Y4507356D02*
X5734320D01*
Y4477365D01*
X5724323Y4467369D01*
X5704330D01*
X5694333Y4477365D01*
Y4507356D01*
Y4487362D02*
X5674340Y4467369D01*
Y4447375D02*
Y4427382D01*
Y4437378D01*
X5734320D01*
X5724323Y4447375D01*
Y4397392D02*
X5734320Y4387395D01*
Y4367401D01*
X5724323Y4357405D01*
X5684336D01*
X5674340Y4367401D01*
Y4387395D01*
X5684336Y4397392D01*
X5724323D01*
Y4337411D02*
X5734320Y4327414D01*
Y4307421D01*
X5724323Y4297424D01*
X5714327D01*
X5704330Y4307421D01*
X5694333Y4297424D01*
X5684336D01*
X5674340Y4307421D01*
Y4327414D01*
X5684336Y4337411D01*
X5694333D01*
X5704330Y4327414D01*
X5714327Y4337411D01*
X5724323D01*
X5704330Y4327414D02*
Y4307421D01*
X5184664Y5049532D02*
Y5009545D01*
X5214654D01*
Y5029539D01*
Y5009545D01*
X5244644D01*
X5184664Y5069526D02*
X5244644D01*
Y5099516D01*
X5234648Y5109513D01*
X5224651D01*
X5214654Y5099516D01*
Y5069526D01*
Y5099516D01*
X5204657Y5109513D01*
X5194661D01*
X5184664Y5099516D01*
Y5069526D01*
X5194661Y5129506D02*
X5184664Y5139503D01*
Y5159496D01*
X5194661Y5169493D01*
X5204657D01*
X5214654Y5159496D01*
Y5149500D01*
Y5159496D01*
X5224651Y5169493D01*
X5234648D01*
X5244644Y5159496D01*
Y5139503D01*
X5234648Y5129506D01*
X5636244Y5413198D02*
X5646241Y5423195D01*
Y5443189D01*
X5636244Y5453185D01*
X5596257D01*
X5586260Y5443189D01*
Y5423195D01*
X5596257Y5413198D01*
X5586260Y5393205D02*
Y5373211D01*
Y5383208D01*
X5646241D01*
X5636244Y5393205D01*
Y5343221D02*
X5646241Y5333225D01*
Y5313231D01*
X5636244Y5303234D01*
X5596257D01*
X5586260Y5313231D01*
Y5333225D01*
X5596257Y5343221D01*
X5636244D01*
X5586260Y5243254D02*
Y5283241D01*
X5626247Y5243254D01*
X5636244D01*
X5646241Y5253250D01*
Y5273244D01*
X5636244Y5283241D01*
X12082616Y8986700D02*
Y8936716D01*
X12092613Y8926720D01*
X12112606D01*
X12122603Y8936716D01*
Y8986700D01*
X12182584Y8926720D02*
X12142597D01*
X12182584Y8966707D01*
Y8976703D01*
X12172587Y8986700D01*
X12152593D01*
X12142597Y8976703D01*
X12242564Y8986700D02*
X12222571Y8976703D01*
X12202577Y8956710D01*
Y8936716D01*
X12212574Y8926720D01*
X12232568D01*
X12242564Y8936716D01*
Y8946713D01*
X12232568Y8956710D01*
X12202577D01*
X12199670Y7877784D02*
X12139690D01*
Y7907775D01*
X12149687Y7917771D01*
X12169680D01*
X12179677Y7907775D01*
Y7877784D01*
Y7897778D02*
X12199670Y7917771D01*
Y7937765D02*
Y7957759D01*
Y7947762D01*
X12139690D01*
X12149687Y7937765D01*
Y7987749D02*
X12139690Y7997745D01*
Y8017739D01*
X12149687Y8027736D01*
X12189674D01*
X12199670Y8017739D01*
Y7997745D01*
X12189674Y7987749D01*
X12149687D01*
X12199670Y8077719D02*
X12139690D01*
X12169680Y8047729D01*
Y8087716D01*
X8721283Y7868868D02*
Y7928849D01*
X8751273D01*
X8761269Y7918852D01*
Y7898858D01*
X8751273Y7888862D01*
X8721283D01*
X8781263Y7858872D02*
X8821250D01*
X8841244Y7928849D02*
Y7868868D01*
Y7898858D01*
X8881231D01*
Y7928849D01*
Y7868868D01*
X8901224D02*
X8921218D01*
X8911221D01*
Y7928849D01*
X8901224Y7918852D01*
X12479136Y7967755D02*
X12469139Y7957758D01*
Y7937764D01*
X12479136Y7927768D01*
X12519123D01*
X12529120Y7937764D01*
Y7957758D01*
X12519123Y7967755D01*
X12479136Y7987748D02*
X12469139Y7997745D01*
Y8017739D01*
X12479136Y8027735D01*
X12489133D01*
X12499130Y8017739D01*
X12509126Y8027735D01*
X12519123D01*
X12529120Y8017739D01*
Y7997745D01*
X12519123Y7987748D01*
X12509126D01*
X12499130Y7997745D01*
X12489133Y7987748D01*
X12479136D01*
X12499130Y7997745D02*
Y8017739D01*
X12479136Y8047729D02*
X12469139Y8057726D01*
Y8077719D01*
X12479136Y8087716D01*
X12489133D01*
X12499130Y8077719D01*
X12509126Y8087716D01*
X12519123D01*
X12529120Y8077719D01*
Y8057726D01*
X12519123Y8047729D01*
X12509126D01*
X12499130Y8057726D01*
X12489133Y8047729D01*
X12479136D01*
X12499130Y8057726D02*
Y8077719D01*
X12322706Y7967755D02*
X12312709Y7957758D01*
Y7937764D01*
X12322706Y7927768D01*
X12362693D01*
X12372690Y7937764D01*
Y7957758D01*
X12362693Y7967755D01*
X12322706Y7987748D02*
X12312709Y7997745D01*
Y8017739D01*
X12322706Y8027735D01*
X12332703D01*
X12342700Y8017739D01*
X12352696Y8027735D01*
X12362693D01*
X12372690Y8017739D01*
Y7997745D01*
X12362693Y7987748D01*
X12352696D01*
X12342700Y7997745D01*
X12332703Y7987748D01*
X12322706D01*
X12342700Y7997745D02*
Y8017739D01*
X12312709Y8047729D02*
Y8087716D01*
X12322706D01*
X12362693Y8047729D01*
X12372690D01*
X4706053Y4554610D02*
X4686060D01*
X4696057D01*
Y4504626D01*
X4686060Y4494630D01*
X4676063D01*
X4666066Y4504626D01*
X4766034Y4494630D02*
X4726047D01*
X4766034Y4534617D01*
Y4544613D01*
X4756037Y4554610D01*
X4736044D01*
X4726047Y4544613D01*
X6556213Y8969160D02*
X6596200D01*
X6576206D01*
Y8909180D01*
X6656180Y8969160D02*
X6616193D01*
Y8939170D01*
X6636187D01*
X6616193D01*
Y8909180D01*
X6676174D02*
X6696167D01*
X6686171D01*
Y8969160D01*
X6676174Y8959163D01*
X8300740Y6774226D02*
X8240760D01*
Y6804217D01*
X8250757Y6814213D01*
X8270750D01*
X8280747Y6804217D01*
Y6774226D01*
Y6794220D02*
X8300740Y6814213D01*
X8240760Y6874194D02*
X8250757Y6854201D01*
X8270750Y6834207D01*
X8290744D01*
X8300740Y6844204D01*
Y6864197D01*
X8290744Y6874194D01*
X8280747D01*
X8270750Y6864197D01*
Y6834207D01*
X7614770Y6778566D02*
X7554790D01*
Y6808556D01*
X7564786Y6818553D01*
X7584780D01*
X7594777Y6808556D01*
Y6778566D01*
Y6798560D02*
X7614770Y6818553D01*
X7554790Y6878534D02*
Y6838547D01*
X7584780D01*
X7574783Y6858540D01*
Y6868537D01*
X7584780Y6878534D01*
X7604773D01*
X7614770Y6868537D01*
Y6848543D01*
X7604773Y6838547D01*
X7465710Y6785673D02*
X7405730D01*
Y6815663D01*
X7415727Y6825660D01*
X7435720D01*
X7445717Y6815663D01*
Y6785673D01*
Y6805667D02*
X7465710Y6825660D01*
Y6845654D02*
Y6865647D01*
Y6855650D01*
X7405730D01*
X7415727Y6845654D01*
X7976550Y6774246D02*
X7916570D01*
Y6804237D01*
X7926567Y6814233D01*
X7946560D01*
X7956557Y6804237D01*
Y6774246D01*
Y6794240D02*
X7976550Y6814233D01*
Y6864217D02*
X7916570D01*
X7946560Y6834227D01*
Y6874214D01*
X8147340Y6775676D02*
X8087359D01*
Y6805666D01*
X8097356Y6815663D01*
X8117350D01*
X8127346Y6805666D01*
Y6775676D01*
Y6795670D02*
X8147340Y6815663D01*
X8097356Y6835657D02*
X8087359Y6845653D01*
Y6865647D01*
X8097356Y6875644D01*
X8107353D01*
X8117350Y6865647D01*
Y6855650D01*
Y6865647D01*
X8127346Y6875644D01*
X8137343D01*
X8147340Y6865647D01*
Y6845653D01*
X8137343Y6835657D01*
X7326780Y6785806D02*
X7266800D01*
Y6815796D01*
X7276796Y6825793D01*
X7296790D01*
X7306787Y6815796D01*
Y6785806D01*
Y6805800D02*
X7326780Y6825793D01*
Y6885774D02*
Y6845787D01*
X7286793Y6885774D01*
X7276796D01*
X7266800Y6875777D01*
Y6855783D01*
X7276796Y6845787D01*
X7723987Y6821320D02*
X7713990Y6811323D01*
Y6791330D01*
X7723987Y6781333D01*
X7763974D01*
X7773970Y6791330D01*
Y6811323D01*
X7763974Y6821320D01*
X7773970Y6841314D02*
Y6861307D01*
Y6851310D01*
X7713990D01*
X7723987Y6841314D01*
X5730310Y4099615D02*
X5680326D01*
X5670330Y4089619D01*
Y4069625D01*
X5680326Y4059628D01*
X5730310D01*
X5670330Y4039635D02*
Y4019641D01*
Y4029638D01*
X5730310D01*
X5720313Y4039635D01*
Y3989651D02*
X5730310Y3979654D01*
Y3959661D01*
X5720313Y3949664D01*
X5710317D01*
X5700320Y3959661D01*
Y3969658D01*
Y3959661D01*
X5690323Y3949664D01*
X5680326D01*
X5670330Y3959661D01*
Y3979654D01*
X5680326Y3989651D01*
X4152131Y8024855D02*
X4102147D01*
X4092150Y8014859D01*
Y7994865D01*
X4102147Y7984868D01*
X4152131D01*
X4092150Y7964875D02*
Y7944881D01*
Y7954878D01*
X4152131D01*
X4142134Y7964875D01*
X4092150Y7874904D02*
Y7914891D01*
X4132137Y7874904D01*
X4142134D01*
X4152131Y7884901D01*
Y7904895D01*
X4142134Y7914891D01*
X6029170Y7490504D02*
X5969190D01*
Y7520494D01*
X5979187Y7530491D01*
X5999180D01*
X6009177Y7520494D01*
Y7490504D01*
Y7510498D02*
X6029170Y7530491D01*
Y7550485D02*
Y7570478D01*
Y7560481D01*
X5969190D01*
X5979187Y7550485D01*
Y7600468D02*
X5969190Y7610465D01*
Y7630458D01*
X5979187Y7640455D01*
X6019174D01*
X6029170Y7630458D01*
Y7610465D01*
X6019174Y7600468D01*
X5979187D01*
Y7660449D02*
X5969190Y7670445D01*
Y7690439D01*
X5979187Y7700436D01*
X6019174D01*
X6029170Y7690439D01*
Y7670445D01*
X6019174Y7660449D01*
X5979187D01*
X5768920Y7497006D02*
X5708940D01*
Y7526996D01*
X5718936Y7536993D01*
X5738930D01*
X5748927Y7526996D01*
Y7497006D01*
Y7516999D02*
X5768920Y7536993D01*
X5758923Y7556986D02*
X5768920Y7566983D01*
Y7586977D01*
X5758923Y7596973D01*
X5718936D01*
X5708940Y7586977D01*
Y7566983D01*
X5718936Y7556986D01*
X5728933D01*
X5738930Y7566983D01*
Y7596973D01*
X5758923Y7616967D02*
X5768920Y7626964D01*
Y7646957D01*
X5758923Y7656954D01*
X5718936D01*
X5708940Y7646957D01*
Y7626964D01*
X5718936Y7616967D01*
X5728933D01*
X5738930Y7626964D01*
Y7656954D01*
X5232283Y3816067D02*
X5242280Y3826064D01*
Y3846057D01*
X5232283Y3856054D01*
X5192296D01*
X5182300Y3846057D01*
Y3826064D01*
X5192296Y3816067D01*
X5182300Y3766083D02*
X5242280D01*
X5212290Y3796073D01*
Y3756086D01*
X5242280Y3736093D02*
Y3696106D01*
X5232283D01*
X5192296Y3736093D01*
X5182300D01*
X4324140Y8515373D02*
X4314143Y8525370D01*
X4294149D01*
X4284153Y8515373D01*
Y8505377D01*
X4294149Y8495380D01*
X4314143D01*
X4324140Y8485383D01*
Y8475386D01*
X4314143Y8465390D01*
X4294149D01*
X4284153Y8475386D01*
X4344133Y8525370D02*
Y8465390D01*
X4364127Y8485383D01*
X4384120Y8465390D01*
Y8525370D01*
X4404114Y8465390D02*
X4424107D01*
X4414111D01*
Y8525370D01*
X4404114Y8515373D01*
X3318719Y5783573D02*
X3308722Y5793570D01*
X3288729D01*
X3278732Y5783573D01*
Y5743586D01*
X3288729Y5733590D01*
X3308722D01*
X3318719Y5743586D01*
X3368703Y5733590D02*
Y5793570D01*
X3338713Y5763580D01*
X3378700D01*
X3398693Y5783573D02*
X3408690Y5793570D01*
X3428684D01*
X3438680Y5783573D01*
Y5773577D01*
X3428684Y5763580D01*
X3438680Y5753583D01*
Y5743586D01*
X3428684Y5733590D01*
X3408690D01*
X3398693Y5743586D01*
Y5753583D01*
X3408690Y5763580D01*
X3398693Y5773577D01*
Y5783573D01*
X3408690Y5763580D02*
X3428684D01*
X5594356Y8730800D02*
Y8680817D01*
X5604353Y8670820D01*
X5624346D01*
X5634343Y8680817D01*
Y8730800D01*
X5694324Y8670820D02*
X5654337D01*
X5694324Y8710807D01*
Y8720803D01*
X5684327Y8730800D01*
X5664333D01*
X5654337Y8720803D01*
X5744308Y8670820D02*
Y8730800D01*
X5714317Y8700810D01*
X5754304D01*
X8084820Y4266221D02*
Y4206240D01*
X8124807D01*
X8184788Y4256224D02*
X8174791Y4266221D01*
X8154797D01*
X8144801Y4256224D01*
Y4246227D01*
X8154797Y4236230D01*
X8174791D01*
X8184788Y4226234D01*
Y4216237D01*
X8174791Y4206240D01*
X8154797D01*
X8144801Y4216237D01*
X8204781Y4206240D02*
X8224775D01*
X8214778D01*
Y4266221D01*
X8204781Y4256224D01*
X761861Y9047546D02*
X741868D01*
X751865D01*
Y8997562D01*
X741868Y8987565D01*
X731871D01*
X721874Y8997562D01*
X781855Y8987565D02*
X801849D01*
X791852D01*
Y9047546D01*
X781855Y9037549D01*
X12024316Y7070540D02*
Y7020556D01*
X12034313Y7010560D01*
X12054306D01*
X12064303Y7020556D01*
Y7070540D01*
X12124284Y7010560D02*
X12084297D01*
X12124284Y7050547D01*
Y7060543D01*
X12114287Y7070540D01*
X12094293D01*
X12084297Y7060543D01*
X12184264Y7010560D02*
X12144277D01*
X12184264Y7050547D01*
Y7060543D01*
X12174267Y7070540D01*
X12154274D01*
X12144277Y7060543D01*
X12946841Y5714137D02*
X12896857D01*
X12886861Y5704140D01*
Y5684147D01*
X12896857Y5674150D01*
X12946841D01*
X12886861Y5614170D02*
Y5654157D01*
X12926846Y5614170D01*
X12936844D01*
X12946841Y5624166D01*
Y5644160D01*
X12936844Y5654157D01*
X12886861Y5594176D02*
Y5574182D01*
Y5584179D01*
X12946841D01*
X12936844Y5594176D01*
X10201340Y7060546D02*
X10141360D01*
Y7090536D01*
X10151357Y7100533D01*
X10171350D01*
X10181347Y7090536D01*
Y7060546D01*
Y7080540D02*
X10201340Y7100533D01*
X10191344Y7120527D02*
X10201340Y7130523D01*
Y7150517D01*
X10191344Y7160514D01*
X10151357D01*
X10141360Y7150517D01*
Y7130523D01*
X10151357Y7120527D01*
X10161353D01*
X10171350Y7130523D01*
Y7160514D01*
X10201340Y7220494D02*
Y7180507D01*
X10161353Y7220494D01*
X10151357D01*
X10141360Y7210498D01*
Y7190504D01*
X10151357Y7180507D01*
X9998650Y7072992D02*
X9938669D01*
Y7102983D01*
X9948666Y7112979D01*
X9968660D01*
X9978656Y7102983D01*
Y7072992D01*
Y7092986D02*
X9998650Y7112979D01*
X9988653Y7132973D02*
X9998650Y7142970D01*
Y7162963D01*
X9988653Y7172960D01*
X9948666D01*
X9938669Y7162963D01*
Y7142970D01*
X9948666Y7132973D01*
X9958663D01*
X9968660Y7142970D01*
Y7172960D01*
X9998650Y7192954D02*
Y7212947D01*
Y7202950D01*
X9938669D01*
X9948666Y7192954D01*
X10099690Y7062996D02*
X10039709D01*
Y7092986D01*
X10049706Y7102983D01*
X10069700D01*
X10079696Y7092986D01*
Y7062996D01*
Y7082989D02*
X10099690Y7102983D01*
X10089693Y7122976D02*
X10099690Y7132973D01*
Y7152967D01*
X10089693Y7162963D01*
X10049706D01*
X10039709Y7152967D01*
Y7132973D01*
X10049706Y7122976D01*
X10059703D01*
X10069700Y7132973D01*
Y7162963D01*
X10049706Y7182957D02*
X10039709Y7192954D01*
Y7212947D01*
X10049706Y7222944D01*
X10089693D01*
X10099690Y7212947D01*
Y7192954D01*
X10089693Y7182957D01*
X10049706D01*
X12749656Y7536319D02*
Y7596300D01*
X12779647D01*
X12789643Y7586303D01*
Y7566310D01*
X12779647Y7556313D01*
X12749656D01*
X12769650D02*
X12789643Y7536319D01*
X12809637Y7586303D02*
X12819633Y7596300D01*
X12839627D01*
X12849625Y7586303D01*
Y7576306D01*
X12839627Y7566310D01*
X12849625Y7556313D01*
Y7546316D01*
X12839627Y7536319D01*
X12819633D01*
X12809637Y7546316D01*
Y7556313D01*
X12819633Y7566310D01*
X12809637Y7576306D01*
Y7586303D01*
X12819633Y7566310D02*
X12839627D01*
X12869617Y7586303D02*
X12879614Y7596300D01*
X12899608D01*
X12909604Y7586303D01*
Y7576306D01*
X12899608Y7566310D01*
X12909604Y7556313D01*
Y7546316D01*
X12899608Y7536319D01*
X12879614D01*
X12869617Y7546316D01*
Y7556313D01*
X12879614Y7566310D01*
X12869617Y7576306D01*
Y7586303D01*
X12879614Y7566310D02*
X12899608D01*
X12748276Y7374339D02*
Y7434320D01*
X12778267D01*
X12788263Y7424323D01*
Y7404330D01*
X12778267Y7394333D01*
X12748276D01*
X12768270D02*
X12788263Y7374339D01*
X12808257Y7424323D02*
X12818254Y7434320D01*
X12838248D01*
X12848244Y7424323D01*
Y7414326D01*
X12838248Y7404330D01*
X12848244Y7394333D01*
Y7384336D01*
X12838248Y7374339D01*
X12818254D01*
X12808257Y7384336D01*
Y7394333D01*
X12818254Y7404330D01*
X12808257Y7414326D01*
Y7424323D01*
X12818254Y7404330D02*
X12838248D01*
X12908224Y7434320D02*
X12888231Y7424323D01*
X12868237Y7404330D01*
Y7384336D01*
X12878233Y7374339D01*
X12898228D01*
X12908224Y7384336D01*
Y7394333D01*
X12898228Y7404330D01*
X12868237D01*
X12813921Y7040287D02*
X12873901D01*
Y7010297D01*
X12863904Y7000300D01*
X12843910D01*
X12833914Y7010297D01*
Y7040287D01*
Y7020294D02*
X12813921Y7000300D01*
X12863904Y6980307D02*
X12873901Y6970310D01*
Y6950317D01*
X12863904Y6940320D01*
X12853906D01*
X12843910Y6950317D01*
X12833914Y6940320D01*
X12823917D01*
X12813921Y6950317D01*
Y6970310D01*
X12823917Y6980307D01*
X12833914D01*
X12843910Y6970310D01*
X12853906Y6980307D01*
X12863904D01*
X12843910Y6970310D02*
Y6950317D01*
X12873901Y6880339D02*
Y6920326D01*
X12843910D01*
X12853906Y6900333D01*
Y6890336D01*
X12843910Y6880339D01*
X12823917D01*
X12813921Y6890336D01*
Y6910330D01*
X12823917Y6920326D01*
X11955824Y7622543D02*
X11915837D01*
X11905840Y7612546D01*
Y7592553D01*
X11915837Y7582556D01*
X11955824D01*
X11965820Y7592553D01*
Y7612546D01*
X11945827Y7602549D02*
X11965820Y7622543D01*
Y7612546D02*
X11955824Y7622543D01*
X11965820Y7672527D02*
X11905840D01*
X11935830Y7642536D01*
Y7682523D01*
X12702841Y7036264D02*
X12642860D01*
Y6996277D01*
X12692844Y6976283D02*
X12702841Y6966286D01*
Y6946293D01*
X12692844Y6936296D01*
X12682847D01*
X12672850Y6946293D01*
Y6956289D01*
Y6946293D01*
X12662854Y6936296D01*
X12652857D01*
X12642860Y6946293D01*
Y6966286D01*
X12652857Y6976283D01*
X10140043Y8884380D02*
X10120050D01*
X10130047D01*
Y8834396D01*
X10120050Y8824400D01*
X10110053D01*
X10100057Y8834396D01*
X10160037Y8874383D02*
X10170034Y8884380D01*
X10190027D01*
X10200024Y8874383D01*
Y8864387D01*
X10190027Y8854390D01*
X10200024Y8844393D01*
Y8834396D01*
X10190027Y8824400D01*
X10170034D01*
X10160037Y8834396D01*
Y8844393D01*
X10170034Y8854390D01*
X10160037Y8864387D01*
Y8874383D01*
X10170034Y8854390D02*
X10190027D01*
X12508614Y3797651D02*
X12488620D01*
X12498617D01*
Y3747667D01*
X12488620Y3737670D01*
X12478623D01*
X12468627Y3747667D01*
X12528607Y3797651D02*
X12568594D01*
Y3787654D01*
X12528607Y3747667D01*
Y3737670D01*
X12983510Y6440607D02*
Y6460600D01*
Y6450603D01*
X12933527D01*
X12923531Y6460600D01*
Y6470597D01*
X12933527Y6480594D01*
X12983510Y6380626D02*
X12973514Y6400619D01*
X12953520Y6420613D01*
X12933527D01*
X12923531Y6410616D01*
Y6390623D01*
X12933527Y6380626D01*
X12943524D01*
X12953520Y6390623D01*
Y6420613D01*
X10040320Y8402403D02*
X10030323Y8412400D01*
X10010329D01*
X10000333Y8402403D01*
Y8362416D01*
X10010329Y8352420D01*
X10030323D01*
X10040320Y8362416D01*
X10060313Y8352420D02*
Y8412400D01*
X10090304D01*
X10100300Y8402403D01*
Y8382410D01*
X10090304Y8372413D01*
X10060313D01*
X10080307D02*
X10100300Y8352420D01*
X10120294D02*
X10140288D01*
X10130291D01*
Y8412400D01*
X10120294Y8402403D01*
X10096633Y7893357D02*
X10106630Y7903354D01*
Y7923347D01*
X10096633Y7933344D01*
X10056646D01*
X10046650Y7923347D01*
Y7903354D01*
X10056646Y7893357D01*
X10096633Y7873363D02*
X10106630Y7863367D01*
Y7843373D01*
X10096633Y7833377D01*
X10086637D01*
X10076640Y7843373D01*
X10066643Y7833377D01*
X10056646D01*
X10046650Y7843373D01*
Y7863367D01*
X10056646Y7873363D01*
X10066643D01*
X10076640Y7863367D01*
X10086637Y7873363D01*
X10096633D01*
X10076640Y7863367D02*
Y7843373D01*
X10046650Y7783393D02*
X10106630D01*
X10076640Y7813383D01*
Y7773396D01*
X9988234Y7891627D02*
X9998230Y7901624D01*
Y7921617D01*
X9988234Y7931614D01*
X9948247D01*
X9938250Y7921617D01*
Y7901624D01*
X9948247Y7891627D01*
X9988234Y7871633D02*
X9998230Y7861637D01*
Y7841643D01*
X9988234Y7831647D01*
X9978237D01*
X9968240Y7841643D01*
X9958243Y7831647D01*
X9948247D01*
X9938250Y7841643D01*
Y7861637D01*
X9948247Y7871633D01*
X9958243D01*
X9968240Y7861637D01*
X9978237Y7871633D01*
X9988234D01*
X9968240Y7861637D02*
Y7841643D01*
X9988234Y7811653D02*
X9998230Y7801656D01*
Y7781663D01*
X9988234Y7771666D01*
X9978237D01*
X9968240Y7781663D01*
Y7791659D01*
Y7781663D01*
X9958243Y7771666D01*
X9948247D01*
X9938250Y7781663D01*
Y7801656D01*
X9948247Y7811653D01*
X10215353Y7893357D02*
X10225350Y7903354D01*
Y7923347D01*
X10215353Y7933344D01*
X10175366D01*
X10165370Y7923347D01*
Y7903354D01*
X10175366Y7893357D01*
X10215353Y7873363D02*
X10225350Y7863367D01*
Y7843373D01*
X10215353Y7833377D01*
X10205357D01*
X10195360Y7843373D01*
X10185363Y7833377D01*
X10175366D01*
X10165370Y7843373D01*
Y7863367D01*
X10175366Y7873363D01*
X10185363D01*
X10195360Y7863367D01*
X10205357Y7873363D01*
X10215353D01*
X10195360Y7863367D02*
Y7843373D01*
X10165370Y7773396D02*
Y7813383D01*
X10205357Y7773396D01*
X10215353D01*
X10225350Y7783393D01*
Y7803386D01*
X10215353Y7813383D01*
X9844576Y7108690D02*
X9834580Y7098693D01*
Y7078699D01*
X9844576Y7068703D01*
X9884563D01*
X9894560Y7078699D01*
Y7098693D01*
X9884563Y7108690D01*
X9844576Y7128683D02*
X9834580Y7138680D01*
Y7158674D01*
X9844576Y7168670D01*
X9854573D01*
X9864570Y7158674D01*
X9874566Y7168670D01*
X9884563D01*
X9894560Y7158674D01*
Y7138680D01*
X9884563Y7128683D01*
X9874566D01*
X9864570Y7138680D01*
X9854573Y7128683D01*
X9844576D01*
X9864570Y7138680D02*
Y7158674D01*
X9894560Y7188664D02*
Y7208657D01*
Y7198660D01*
X9834580D01*
X9844576Y7188664D01*
X12707573Y5276184D02*
X12697576Y5286180D01*
X12677583D01*
X12667586Y5276184D01*
Y5236197D01*
X12677583Y5226200D01*
X12697576D01*
X12707573Y5236197D01*
X12727567Y5276184D02*
X12737563Y5286180D01*
X12757557D01*
X12767554Y5276184D01*
Y5266187D01*
X12757557Y5256190D01*
X12767554Y5246193D01*
Y5236197D01*
X12757557Y5226200D01*
X12737563D01*
X12727567Y5236197D01*
Y5246193D01*
X12737563Y5256190D01*
X12727567Y5266187D01*
Y5276184D01*
X12737563Y5256190D02*
X12757557D01*
X12787547Y5276184D02*
X12797544Y5286180D01*
X12817537D01*
X12827534Y5276184D01*
Y5236197D01*
X12817537Y5226200D01*
X12797544D01*
X12787547Y5236197D01*
Y5276184D01*
X8637663Y4456513D02*
X8627667Y4466510D01*
X8607673D01*
X8597676Y4456513D01*
Y4416526D01*
X8607673Y4406530D01*
X8627667D01*
X8637663Y4416526D01*
X8657657Y4466510D02*
X8697644D01*
Y4456513D01*
X8657657Y4416526D01*
Y4406530D01*
X8717637Y4416526D02*
X8727634Y4406530D01*
X8747628D01*
X8757624Y4416526D01*
Y4456513D01*
X8747628Y4466510D01*
X8727634D01*
X8717637Y4456513D01*
Y4446517D01*
X8727634Y4436520D01*
X8757624D01*
X12806987Y3885327D02*
X12816985Y3875330D01*
X12836977D01*
X12846974Y3885327D01*
Y3925314D01*
X12836977Y3935310D01*
X12816985D01*
X12806987Y3925314D01*
X12786993Y3875330D02*
X12747006D01*
Y3885327D01*
X12786993Y3925314D01*
Y3935310D01*
X12727013Y3885327D02*
X12717016Y3875330D01*
X12697022D01*
X12687026Y3885327D01*
Y3895323D01*
X12697022Y3905320D01*
X12687026Y3915317D01*
Y3925314D01*
X12697022Y3935310D01*
X12717016D01*
X12727013Y3925314D01*
Y3915317D01*
X12717016Y3905320D01*
X12727013Y3895323D01*
Y3885327D01*
X12717016Y3905320D02*
X12697022D01*
X9154593Y4897737D02*
X9164590Y4907734D01*
Y4927727D01*
X9154593Y4937724D01*
X9114606D01*
X9104610Y4927727D01*
Y4907734D01*
X9114606Y4897737D01*
X9164590Y4877743D02*
Y4837756D01*
X9154593D01*
X9114606Y4877743D01*
X9104610D01*
X9164590Y4817763D02*
Y4777776D01*
X9154593D01*
X9114606Y4817763D01*
X9104610D01*
X4819690Y7585642D02*
X4759710D01*
Y7615633D01*
X4769706Y7625629D01*
X4789700D01*
X4799697Y7615633D01*
Y7585642D01*
Y7605636D02*
X4819690Y7625629D01*
X4769706Y7645623D02*
X4759710Y7655620D01*
Y7675613D01*
X4769706Y7685610D01*
X4779703D01*
X4789700Y7675613D01*
X4799697Y7685610D01*
X4809693D01*
X4819690Y7675613D01*
Y7655620D01*
X4809693Y7645623D01*
X4799697D01*
X4789700Y7655620D01*
X4779703Y7645623D01*
X4769706D01*
X4789700Y7655620D02*
Y7675613D01*
X4819690Y7705604D02*
Y7725597D01*
Y7715600D01*
X4759710D01*
X4769706Y7705604D01*
X4163510Y7565156D02*
X4103530D01*
Y7595146D01*
X4113526Y7605143D01*
X4133520D01*
X4143516Y7595146D01*
Y7565156D01*
Y7585149D02*
X4163510Y7605143D01*
X4113526Y7625136D02*
X4103530Y7635133D01*
Y7655127D01*
X4113526Y7665123D01*
X4123523D01*
X4133520Y7655127D01*
X4143516Y7665123D01*
X4153513D01*
X4163510Y7655127D01*
Y7635133D01*
X4153513Y7625136D01*
X4143516D01*
X4133520Y7635133D01*
X4123523Y7625136D01*
X4113526D01*
X4133520Y7635133D02*
Y7655127D01*
X4113526Y7685117D02*
X4103530Y7695114D01*
Y7715107D01*
X4113526Y7725104D01*
X4153513D01*
X4163510Y7715107D01*
Y7695114D01*
X4153513Y7685117D01*
X4113526D01*
X2941890Y3770769D02*
Y3830750D01*
X2971881D01*
X2981877Y3820753D01*
Y3800759D01*
X2971881Y3790763D01*
X2941890D01*
X2961884D02*
X2981877Y3770769D01*
X3041858Y3830750D02*
X3021864Y3820753D01*
X3001871Y3800759D01*
Y3780766D01*
X3011867Y3770769D01*
X3031861D01*
X3041858Y3780766D01*
Y3790763D01*
X3031861Y3800759D01*
X3001871D01*
X3101838Y3770769D02*
X3061851D01*
X3101838Y3810756D01*
Y3820753D01*
X3091842Y3830750D01*
X3071848D01*
X3061851Y3820753D01*
X2950014Y3665900D02*
Y3725880D01*
X2980004D01*
X2990001Y3715883D01*
Y3695890D01*
X2980004Y3685893D01*
X2950014D01*
X2970008D02*
X2990001Y3665900D01*
X3049982Y3725880D02*
X3029988Y3715883D01*
X3009995Y3695890D01*
Y3675896D01*
X3019991Y3665900D01*
X3039985D01*
X3049982Y3675896D01*
Y3685893D01*
X3039985Y3695890D01*
X3009995D01*
X3069975Y3665900D02*
X3089969D01*
X3079972D01*
Y3725880D01*
X3069975Y3715883D01*
X2939336Y3561040D02*
Y3621020D01*
X2969326D01*
X2979323Y3611023D01*
Y3591030D01*
X2969326Y3581033D01*
X2939336D01*
X2959330D02*
X2979323Y3561040D01*
X3039304Y3621020D02*
X3019310Y3611023D01*
X2999317Y3591030D01*
Y3571036D01*
X3009313Y3561040D01*
X3029307D01*
X3039304Y3571036D01*
Y3581033D01*
X3029307Y3591030D01*
X2999317D01*
X3059297Y3611023D02*
X3069294Y3621020D01*
X3089287D01*
X3099284Y3611023D01*
Y3571036D01*
X3089287Y3561040D01*
X3069294D01*
X3059297Y3571036D01*
Y3611023D01*
X2922330Y4950439D02*
Y5010419D01*
X2952320D01*
X2962317Y5000423D01*
Y4980429D01*
X2952320Y4970433D01*
X2922330D01*
X2942324D02*
X2962317Y4950439D01*
X3022298Y5010419D02*
X2982311D01*
Y4980429D01*
X3002304Y4990426D01*
X3012301D01*
X3022298Y4980429D01*
Y4960436D01*
X3012301Y4950439D01*
X2992307D01*
X2982311Y4960436D01*
X3042291D02*
X3052288Y4950439D01*
X3072282D01*
X3082278Y4960436D01*
Y5000423D01*
X3072282Y5010419D01*
X3052288D01*
X3042291Y5000423D01*
Y4990426D01*
X3052288Y4980429D01*
X3082278D01*
X4406236Y5069933D02*
X4396239Y5059936D01*
Y5039942D01*
X4406236Y5029946D01*
X4446223D01*
X4456220Y5039942D01*
Y5059936D01*
X4446223Y5069933D01*
X4406236Y5089926D02*
X4396239Y5099923D01*
Y5119917D01*
X4406236Y5129913D01*
X4416233D01*
X4426230Y5119917D01*
Y5109920D01*
Y5119917D01*
X4436226Y5129913D01*
X4446223D01*
X4456220Y5119917D01*
Y5099923D01*
X4446223Y5089926D01*
X4456220Y5179897D02*
X4396239D01*
X4426230Y5149907D01*
Y5189894D01*
X4405661Y4820342D02*
X4395664Y4810346D01*
Y4790352D01*
X4405661Y4780355D01*
X4445648D01*
X4455644Y4790352D01*
Y4810346D01*
X4445648Y4820342D01*
X4405661Y4840336D02*
X4395664Y4850333D01*
Y4870326D01*
X4405661Y4880323D01*
X4415657D01*
X4425654Y4870326D01*
Y4860330D01*
Y4870326D01*
X4435651Y4880323D01*
X4445648D01*
X4455644Y4870326D01*
Y4850333D01*
X4445648Y4840336D01*
X4395664Y4940304D02*
Y4900317D01*
X4425654D01*
X4415657Y4920310D01*
Y4930307D01*
X4425654Y4940304D01*
X4445648D01*
X4455644Y4930307D01*
Y4910313D01*
X4445648Y4900317D01*
X2959117Y5186393D02*
X2949120Y5196390D01*
X2929127D01*
X2919130Y5186393D01*
Y5146406D01*
X2929127Y5136409D01*
X2949120D01*
X2959117Y5146406D01*
X2979111Y5186393D02*
X2989107Y5196390D01*
X3009101D01*
X3019098Y5186393D01*
Y5176396D01*
X3009101Y5166399D01*
X2999104D01*
X3009101D01*
X3019098Y5156403D01*
Y5146406D01*
X3009101Y5136409D01*
X2989107D01*
X2979111Y5146406D01*
X3079078Y5196390D02*
X3059085Y5186393D01*
X3039091Y5166399D01*
Y5146406D01*
X3049088Y5136409D01*
X3069081D01*
X3079078Y5146406D01*
Y5156403D01*
X3069081Y5166399D01*
X3039091D01*
X2948917Y4826333D02*
X2938920Y4836330D01*
X2918927D01*
X2908930Y4826333D01*
Y4786346D01*
X2918927Y4776349D01*
X2938920D01*
X2948917Y4786346D01*
X2968911Y4826333D02*
X2978907Y4836330D01*
X2998901D01*
X3008898Y4826333D01*
Y4816336D01*
X2998901Y4806339D01*
X2988904D01*
X2998901D01*
X3008898Y4796343D01*
Y4786346D01*
X2998901Y4776349D01*
X2978907D01*
X2968911Y4786346D01*
X3028891Y4836330D02*
X3068878D01*
Y4826333D01*
X3028891Y4786346D01*
Y4776349D01*
X3910485Y5803591D02*
Y5743610D01*
X3950472D01*
X3970466D02*
X3990459D01*
X3980462D01*
Y5803591D01*
X3970466Y5793594D01*
X3417917Y1602937D02*
X3427914Y1592940D01*
X3447908D01*
X3457904Y1602937D01*
Y1642924D01*
X3447908Y1652920D01*
X3427914D01*
X3417917Y1642924D01*
X3397924Y1602937D02*
X3387927Y1592940D01*
X3367933D01*
X3357937Y1602937D01*
Y1612933D01*
X3367933Y1622930D01*
X3377930D01*
X3367933D01*
X3357937Y1632927D01*
Y1642924D01*
X3367933Y1652920D01*
X3387927D01*
X3397924Y1642924D01*
X3297956Y1652920D02*
X3337943D01*
X3297956Y1612933D01*
Y1602937D01*
X3307953Y1592940D01*
X3327946D01*
X3337943Y1602937D01*
X4897957Y2685747D02*
X4907954Y2675750D01*
X4927948D01*
X4937944Y2685747D01*
Y2725734D01*
X4927948Y2735730D01*
X4907954D01*
X4897957Y2725734D01*
X4877964Y2685747D02*
X4867967Y2675750D01*
X4847974D01*
X4837977Y2685747D01*
Y2695743D01*
X4847974Y2705740D01*
X4857970D01*
X4847974D01*
X4837977Y2715737D01*
Y2725734D01*
X4847974Y2735730D01*
X4867967D01*
X4877964Y2725734D01*
X4817983Y2685747D02*
X4807987Y2675750D01*
X4787993D01*
X4777996Y2685747D01*
Y2695743D01*
X4787993Y2705740D01*
X4797990D01*
X4787993D01*
X4777996Y2715737D01*
Y2725734D01*
X4787993Y2735730D01*
X4807987D01*
X4817983Y2725734D01*
X3327431Y4475503D02*
X3317434Y4465506D01*
Y4445512D01*
X3327431Y4435516D01*
X3367418D01*
X3377414Y4445512D01*
Y4465506D01*
X3367418Y4475503D01*
X3327431Y4495496D02*
X3317434Y4505493D01*
Y4525487D01*
X3327431Y4535483D01*
X3337427D01*
X3347424Y4525487D01*
Y4515490D01*
Y4525487D01*
X3357421Y4535483D01*
X3367418D01*
X3377414Y4525487D01*
Y4505493D01*
X3367418Y4495496D01*
X3327431Y4555477D02*
X3317434Y4565473D01*
Y4585467D01*
X3327431Y4595464D01*
X3337427D01*
X3347424Y4585467D01*
X3357421Y4595464D01*
X3367418D01*
X3377414Y4585467D01*
Y4565473D01*
X3367418Y4555477D01*
X3357421D01*
X3347424Y4565473D01*
X3337427Y4555477D01*
X3327431D01*
X3347424Y4565473D02*
Y4585467D01*
X4054870Y4470052D02*
X4044874Y4460056D01*
Y4440062D01*
X4054870Y4430065D01*
X4094857D01*
X4104854Y4440062D01*
Y4460056D01*
X4094857Y4470052D01*
X4054870Y4490046D02*
X4044874Y4500043D01*
Y4520036D01*
X4054870Y4530033D01*
X4064867D01*
X4074864Y4520036D01*
Y4510039D01*
Y4520036D01*
X4084861Y4530033D01*
X4094857D01*
X4104854Y4520036D01*
Y4500043D01*
X4094857Y4490046D01*
Y4550026D02*
X4104854Y4560023D01*
Y4580017D01*
X4094857Y4590013D01*
X4054870D01*
X4044874Y4580017D01*
Y4560023D01*
X4054870Y4550026D01*
X4064867D01*
X4074864Y4560023D01*
Y4590013D01*
X4612133Y3064373D02*
X4602136Y3074370D01*
X4582143D01*
X4572146Y3064373D01*
Y3024386D01*
X4582143Y3014390D01*
X4602136D01*
X4612133Y3024386D01*
X4662117Y3014390D02*
Y3074370D01*
X4632127Y3044380D01*
X4672114D01*
X4692107Y3064373D02*
X4702104Y3074370D01*
X4722097D01*
X4732094Y3064373D01*
Y3024386D01*
X4722097Y3014390D01*
X4702104D01*
X4692107Y3024386D01*
Y3064373D01*
X4254260Y2964498D02*
X4244264Y2954502D01*
Y2934508D01*
X4254260Y2924511D01*
X4294247D01*
X4304244Y2934508D01*
Y2954502D01*
X4294247Y2964498D01*
X4304244Y3014482D02*
X4244264D01*
X4274254Y2984492D01*
Y3024479D01*
X4304244Y3044472D02*
Y3064466D01*
Y3054469D01*
X4244264D01*
X4254260Y3044472D01*
X3769080Y4473022D02*
X3759083Y4463025D01*
Y4443032D01*
X3769080Y4433035D01*
X3809067D01*
X3819064Y4443032D01*
Y4463025D01*
X3809067Y4473022D01*
X3819064Y4523006D02*
X3759083D01*
X3789074Y4493016D01*
Y4533003D01*
X3819064Y4592983D02*
Y4552996D01*
X3779077Y4592983D01*
X3769080D01*
X3759083Y4582987D01*
Y4562993D01*
X3769080Y4552996D01*
X3911241Y4471712D02*
X3901244Y4461716D01*
Y4441722D01*
X3911241Y4431725D01*
X3951228D01*
X3961224Y4441722D01*
Y4461716D01*
X3951228Y4471712D01*
X3961224Y4521696D02*
X3901244D01*
X3931234Y4491706D01*
Y4531693D01*
X3911241Y4551687D02*
X3901244Y4561683D01*
Y4581677D01*
X3911241Y4591674D01*
X3921237D01*
X3931234Y4581677D01*
Y4571680D01*
Y4581677D01*
X3941231Y4591674D01*
X3951228D01*
X3961224Y4581677D01*
Y4561683D01*
X3951228Y4551687D01*
X4098961Y2960112D02*
X4088964Y2950116D01*
Y2930122D01*
X4098961Y2920125D01*
X4138948D01*
X4148944Y2930122D01*
Y2950116D01*
X4138948Y2960112D01*
X4148944Y3010096D02*
X4088964D01*
X4118954Y2980106D01*
Y3020093D01*
X4148944Y3070077D02*
X4088964D01*
X4118954Y3040086D01*
Y3080073D01*
X3479870Y4471712D02*
X3469873Y4461715D01*
Y4441722D01*
X3479870Y4431725D01*
X3519857D01*
X3529854Y4441722D01*
Y4461715D01*
X3519857Y4471712D01*
X3529854Y4521696D02*
X3469873D01*
X3499864Y4491706D01*
Y4531693D01*
X3469873Y4591673D02*
Y4551686D01*
X3499864D01*
X3489867Y4571680D01*
Y4581677D01*
X3499864Y4591673D01*
X3519857D01*
X3529854Y4581677D01*
Y4561683D01*
X3519857Y4551686D01*
X3624131Y4475583D02*
X3614134Y4465586D01*
Y4445592D01*
X3624131Y4435596D01*
X3664118D01*
X3674114Y4445592D01*
Y4465586D01*
X3664118Y4475583D01*
X3674114Y4525567D02*
X3614134D01*
X3644124Y4495576D01*
Y4535563D01*
X3614134Y4595544D02*
X3624131Y4575550D01*
X3644124Y4555557D01*
X3664118D01*
X3674114Y4565553D01*
Y4585547D01*
X3664118Y4595544D01*
X3654121D01*
X3644124Y4585547D01*
Y4555557D01*
X5874891Y4669614D02*
X5874892Y4683752D01*
X5860754Y4697889D01*
X5846616D01*
X5818341Y4669614D01*
Y4655476D01*
X5832479Y4641339D01*
X5846616D01*
X5924373Y4634270D02*
X5903167Y4641339D01*
X5874892D01*
X5860754Y4627201D01*
Y4613064D01*
X5874892Y4598926D01*
X5889029D01*
X5896098Y4605995D01*
Y4620132D01*
X5874892Y4641339D01*
X5896098Y4577720D02*
X5910236Y4563582D01*
X5903167Y4570651D01*
X5945579Y4613064D01*
X5931442D01*
X6055843Y5808124D02*
X6045846Y5818120D01*
X6025853D01*
X6015856Y5808124D01*
Y5768137D01*
X6025853Y5758140D01*
X6045846D01*
X6055843Y5768137D01*
X6115824Y5818120D02*
X6095830Y5808124D01*
X6075837Y5788130D01*
Y5768137D01*
X6085833Y5758140D01*
X6105827D01*
X6115824Y5768137D01*
Y5778133D01*
X6105827Y5788130D01*
X6075837D01*
X6175804Y5758140D02*
X6135817D01*
X6175804Y5798127D01*
Y5808124D01*
X6165808Y5818120D01*
X6145814D01*
X6135817Y5808124D01*
X5871817Y4781472D02*
X5857680Y4781473D01*
X5843542Y4767335D01*
Y4753197D01*
X5871817Y4724922D01*
X5885955D01*
X5900093Y4739060D01*
Y4753197D01*
X5907161Y4830954D02*
X5900093Y4809748D01*
Y4781473D01*
X5914230Y4767335D01*
X5928368D01*
X5942505Y4781473D01*
Y4795610D01*
X5935436Y4802679D01*
X5921299D01*
X5900093Y4781473D01*
X5928368Y4838023D02*
Y4852160D01*
X5942505Y4866298D01*
X5956643Y4866298D01*
X5963711Y4859229D01*
Y4845091D01*
X5956643Y4838023D01*
X5963711Y4845091D01*
X5977849D01*
X5984918Y4838023D01*
Y4823885D01*
X5970780Y4809748D01*
X5956643D01*
X6310463Y5802893D02*
X6300466Y5812890D01*
X6280473D01*
X6270476Y5802893D01*
Y5762906D01*
X6280473Y5752910D01*
X6300466D01*
X6310463Y5762906D01*
X6370444Y5812890D02*
X6350450Y5802893D01*
X6330457Y5782900D01*
Y5762906D01*
X6340453Y5752910D01*
X6360447D01*
X6370444Y5762906D01*
Y5772903D01*
X6360447Y5782900D01*
X6330457D01*
X6420428Y5752910D02*
Y5812890D01*
X6390437Y5782900D01*
X6430424D01*
X4251977Y7606743D02*
X4241980Y7596746D01*
Y7576752D01*
X4251977Y7566756D01*
X4291963D01*
X4301960Y7576752D01*
Y7596746D01*
X4291963Y7606743D01*
X4241980Y7666723D02*
X4251977Y7646730D01*
X4271970Y7626736D01*
X4291963D01*
X4301960Y7636733D01*
Y7656727D01*
X4291963Y7666723D01*
X4281967D01*
X4271970Y7656727D01*
Y7626736D01*
X4241980Y7726704D02*
Y7686717D01*
X4271970D01*
X4261973Y7706711D01*
Y7716707D01*
X4271970Y7726704D01*
X4291963D01*
X4301960Y7716707D01*
Y7696714D01*
X4291963Y7686717D01*
X7621354Y3453387D02*
X7631350Y3463384D01*
Y3483377D01*
X7621354Y3493374D01*
X7581367D01*
X7571370Y3483377D01*
Y3463384D01*
X7581367Y3453387D01*
X7631350Y3393406D02*
X7621354Y3413400D01*
X7601360Y3433393D01*
X7581367D01*
X7571370Y3423397D01*
Y3403403D01*
X7581367Y3393406D01*
X7591364D01*
X7601360Y3403403D01*
Y3433393D01*
X7631350Y3333426D02*
X7621354Y3353419D01*
X7601360Y3373413D01*
X7581367D01*
X7571370Y3363416D01*
Y3343423D01*
X7581367Y3333426D01*
X7591364D01*
X7601360Y3343423D01*
Y3373413D01*
X6808816Y3327453D02*
X6798820Y3317456D01*
Y3297463D01*
X6808816Y3287466D01*
X6848803D01*
X6858800Y3297463D01*
Y3317456D01*
X6848803Y3327453D01*
X6798820Y3387433D02*
X6808816Y3367440D01*
X6828810Y3347446D01*
X6848803D01*
X6858800Y3357443D01*
Y3377437D01*
X6848803Y3387433D01*
X6838806D01*
X6828810Y3377437D01*
Y3347446D01*
X6798820Y3407427D02*
Y3447414D01*
X6808816D01*
X6848803Y3407427D01*
X6858800D01*
X6982866Y3327453D02*
X6972869Y3317456D01*
Y3297463D01*
X6982866Y3287466D01*
X7022853D01*
X7032850Y3297463D01*
Y3317456D01*
X7022853Y3327453D01*
X6972869Y3387433D02*
X6982866Y3367440D01*
X7002860Y3347446D01*
X7022853D01*
X7032850Y3357443D01*
Y3377437D01*
X7022853Y3387433D01*
X7012856D01*
X7002860Y3377437D01*
Y3347446D01*
X6982866Y3407427D02*
X6972869Y3417424D01*
Y3437417D01*
X6982866Y3447414D01*
X6992863D01*
X7002860Y3437417D01*
X7012856Y3447414D01*
X7022853D01*
X7032850Y3437417D01*
Y3417424D01*
X7022853Y3407427D01*
X7012856D01*
X7002860Y3417424D01*
X6992863Y3407427D01*
X6982866D01*
X7002860Y3417424D02*
Y3437417D01*
X6015233Y4134843D02*
X6005236Y4144840D01*
X5985243D01*
X5975246Y4134843D01*
Y4094856D01*
X5985243Y4084860D01*
X6005236D01*
X6015233Y4094856D01*
X6075214Y4144840D02*
X6055220Y4134843D01*
X6035227Y4114850D01*
Y4094856D01*
X6045223Y4084860D01*
X6065217D01*
X6075214Y4094856D01*
Y4104853D01*
X6065217Y4114850D01*
X6035227D01*
X6095207Y4094856D02*
X6105204Y4084860D01*
X6125198D01*
X6135194Y4094856D01*
Y4134843D01*
X6125198Y4144840D01*
X6105204D01*
X6095207Y4134843D01*
Y4124847D01*
X6105204Y4114850D01*
X6135194D01*
X6009823Y4286263D02*
X5999826Y4296260D01*
X5979833D01*
X5969836Y4286263D01*
Y4246276D01*
X5979833Y4236280D01*
X5999826D01*
X6009823Y4246276D01*
X6029817Y4296260D02*
X6069804D01*
Y4286263D01*
X6029817Y4246276D01*
Y4236280D01*
X6089797Y4286263D02*
X6099794Y4296260D01*
X6119788D01*
X6129784Y4286263D01*
Y4246276D01*
X6119788Y4236280D01*
X6099794D01*
X6089797Y4246276D01*
Y4286263D01*
X6824753Y5822920D02*
X6834750Y5832917D01*
Y5852910D01*
X6824753Y5862907D01*
X6784766D01*
X6774770Y5852910D01*
Y5832917D01*
X6784766Y5822920D01*
X6834750Y5802926D02*
Y5762939D01*
X6824753D01*
X6784766Y5802926D01*
X6774770D01*
Y5742946D02*
Y5722952D01*
Y5732949D01*
X6834750D01*
X6824753Y5742946D01*
X6664354Y5821757D02*
X6674351Y5831753D01*
Y5851747D01*
X6664354Y5861744D01*
X6624367D01*
X6614370Y5851747D01*
Y5831753D01*
X6624367Y5821757D01*
X6674351Y5801763D02*
Y5761776D01*
X6664354D01*
X6624367Y5801763D01*
X6614370D01*
Y5701796D02*
Y5741783D01*
X6654357Y5701796D01*
X6664354D01*
X6674351Y5711792D01*
Y5731786D01*
X6664354Y5741783D01*
X8227633Y5347883D02*
X8217636Y5357880D01*
X8197643D01*
X8187646Y5347883D01*
Y5307896D01*
X8197643Y5297900D01*
X8217636D01*
X8227633Y5307896D01*
X8247627Y5357880D02*
X8287614D01*
Y5347883D01*
X8247627Y5307896D01*
Y5297900D01*
X8307607Y5347883D02*
X8317604Y5357880D01*
X8337597D01*
X8347594Y5347883D01*
Y5337887D01*
X8337597Y5327890D01*
X8327601D01*
X8337597D01*
X8347594Y5317893D01*
Y5307896D01*
X8337597Y5297900D01*
X8317604D01*
X8307607Y5307896D01*
X8225913Y4882823D02*
X8215917Y4892820D01*
X8195923D01*
X8185926Y4882823D01*
Y4842836D01*
X8195923Y4832840D01*
X8215917D01*
X8225913Y4842836D01*
X8245907Y4892820D02*
X8285894D01*
Y4882823D01*
X8245907Y4842836D01*
Y4832840D01*
X8335878D02*
Y4892820D01*
X8305887Y4862830D01*
X8345874D01*
X7940273Y3479347D02*
X7950270Y3489344D01*
Y3509337D01*
X7940273Y3519334D01*
X7900286D01*
X7890289Y3509337D01*
Y3489344D01*
X7900286Y3479347D01*
X7950270Y3459354D02*
Y3419367D01*
X7940273D01*
X7900286Y3459354D01*
X7890289D01*
X7950270Y3359386D02*
Y3399373D01*
X7920280D01*
X7930276Y3379379D01*
Y3369383D01*
X7920280Y3359386D01*
X7900286D01*
X7890289Y3369383D01*
Y3389376D01*
X7900286Y3399373D01*
X7763224Y3466047D02*
X7773221Y3476044D01*
Y3496037D01*
X7763224Y3506034D01*
X7723237D01*
X7713240Y3496037D01*
Y3476044D01*
X7723237Y3466047D01*
X7773221Y3446053D02*
Y3406066D01*
X7763224D01*
X7723237Y3446053D01*
X7713240D01*
X7773221Y3346086D02*
X7763224Y3366079D01*
X7743230Y3386073D01*
X7723237D01*
X7713240Y3376076D01*
Y3356082D01*
X7723237Y3346086D01*
X7733234D01*
X7743230Y3356082D01*
Y3386073D01*
X4428233Y2643175D02*
Y2583195D01*
X4458223D01*
X4468220Y2593191D01*
Y2633178D01*
X4458223Y2643175D01*
X4428233D01*
X4488214Y2583195D02*
X4508207D01*
X4498210D01*
Y2643175D01*
X4488214Y2633178D01*
X2211687Y7842541D02*
X2171700D01*
Y7812550D01*
X2191694D01*
X2171700D01*
Y7782560D01*
X2231681D02*
X2251674D01*
X2241677D01*
Y7842541D01*
X2231681Y7832544D01*
X4291142Y4331711D02*
Y4271730D01*
X4331129D01*
X4391110D02*
X4351123D01*
X4391110Y4311717D01*
Y4321714D01*
X4381113Y4331711D01*
X4361119D01*
X4351123Y4321714D01*
X9678070Y8052583D02*
X9738051D01*
Y8022593D01*
X9728054Y8012596D01*
X9708060D01*
X9698064Y8022593D01*
Y8052583D01*
Y8032590D02*
X9678070Y8012596D01*
X9728054Y7992603D02*
X9738051Y7982606D01*
Y7962612D01*
X9728054Y7952616D01*
X9718057D01*
X9708060Y7962612D01*
X9698064Y7952616D01*
X9688067D01*
X9678070Y7962612D01*
Y7982606D01*
X9688067Y7992603D01*
X9698064D01*
X9708060Y7982606D01*
X9718057Y7992603D01*
X9728054D01*
X9708060Y7982606D02*
Y7962612D01*
X9015070Y7961568D02*
X8955089D01*
Y7991558D01*
X8965086Y8001555D01*
X8985080D01*
X8995076Y7991558D01*
Y7961568D01*
Y7981561D02*
X9015070Y8001555D01*
X9005073Y8021548D02*
X9015070Y8031545D01*
Y8051539D01*
X9005073Y8061535D01*
X8965086D01*
X8955089Y8051539D01*
Y8031545D01*
X8965086Y8021548D01*
X8975083D01*
X8985080Y8031545D01*
Y8061535D01*
X11607937Y2307629D02*
Y2367610D01*
X11637927D01*
X11647924Y2357613D01*
Y2337620D01*
X11637927Y2327623D01*
X11607937D01*
X11627930D02*
X11647924Y2307629D01*
X11697908D02*
Y2367610D01*
X11667917Y2337620D01*
X11707904D01*
X11727898Y2367610D02*
X11767885D01*
Y2357613D01*
X11727898Y2317626D01*
Y2307629D01*
X579176Y6702020D02*
Y6762000D01*
X609166D01*
X619163Y6752004D01*
Y6732010D01*
X609166Y6722013D01*
X579176D01*
X599170D02*
X619163Y6702020D01*
X669147D02*
Y6762000D01*
X639157Y6732010D01*
X679144D01*
X699137Y6752004D02*
X709134Y6762000D01*
X729128D01*
X739124Y6752004D01*
Y6742007D01*
X729128Y6732010D01*
X739124Y6722013D01*
Y6712017D01*
X729128Y6702020D01*
X709134D01*
X699137Y6712017D01*
Y6722013D01*
X709134Y6732010D01*
X699137Y6742007D01*
Y6752004D01*
X709134Y6732010D02*
X729128D01*
X2945130Y3479269D02*
Y3539250D01*
X2975121D01*
X2985117Y3529253D01*
Y3509260D01*
X2975121Y3499263D01*
X2945130D01*
X2965124D02*
X2985117Y3479269D01*
X3045098Y3539250D02*
X3025104Y3529253D01*
X3005111Y3509260D01*
Y3489266D01*
X3015108Y3479269D01*
X3035101D01*
X3045098Y3489266D01*
Y3499263D01*
X3035101Y3509260D01*
X3005111D01*
X3065091Y3529253D02*
X3075088Y3539250D01*
X3095082D01*
X3105078Y3529253D01*
Y3519256D01*
X3095082Y3509260D01*
X3085085D01*
X3095082D01*
X3105078Y3499263D01*
Y3489266D01*
X3095082Y3479269D01*
X3075088D01*
X3065091Y3489266D01*
X2942260Y3364899D02*
Y3424880D01*
X2972251D01*
X2982247Y3414883D01*
Y3394889D01*
X2972251Y3384893D01*
X2942260D01*
X2962254D02*
X2982247Y3364899D01*
X3042228Y3424880D02*
X3022234Y3414883D01*
X3002241Y3394889D01*
Y3374896D01*
X3012238Y3364899D01*
X3032231D01*
X3042228Y3374896D01*
Y3384893D01*
X3032231Y3394889D01*
X3002241D01*
X3092212Y3364899D02*
Y3424880D01*
X3062221Y3394889D01*
X3102208D01*
X3400294Y2955825D02*
X3340314D01*
Y2985816D01*
X3350311Y2995812D01*
X3370304D01*
X3380301Y2985816D01*
Y2955825D01*
Y2975819D02*
X3400294Y2995812D01*
X3340314Y3055793D02*
X3350311Y3035800D01*
X3370304Y3015806D01*
X3390298D01*
X3400294Y3025803D01*
Y3045796D01*
X3390298Y3055793D01*
X3380301D01*
X3370304Y3045796D01*
Y3015806D01*
X3340314Y3115774D02*
Y3075787D01*
X3370304D01*
X3360307Y3095780D01*
Y3105777D01*
X3370304Y3115774D01*
X3390298D01*
X3400294Y3105777D01*
Y3085783D01*
X3390298Y3075787D01*
X3487734Y2946877D02*
X3427754D01*
Y2976867D01*
X3437751Y2986864D01*
X3457744D01*
X3467741Y2976867D01*
Y2946877D01*
Y2966871D02*
X3487734Y2986864D01*
X3427754Y3046845D02*
X3437751Y3026851D01*
X3457744Y3006858D01*
X3477738D01*
X3487734Y3016854D01*
Y3036848D01*
X3477738Y3046845D01*
X3467741D01*
X3457744Y3036848D01*
Y3006858D01*
X3427754Y3106825D02*
X3437751Y3086832D01*
X3457744Y3066838D01*
X3477738D01*
X3487734Y3076835D01*
Y3096828D01*
X3477738Y3106825D01*
X3467741D01*
X3457744Y3096828D01*
Y3066838D01*
X4003634Y2955505D02*
X3943654D01*
Y2985496D01*
X3953651Y2995492D01*
X3973644D01*
X3983641Y2985496D01*
Y2955505D01*
Y2975499D02*
X4003634Y2995492D01*
X3943654Y3055473D02*
X3953651Y3035480D01*
X3973644Y3015486D01*
X3993638D01*
X4003634Y3025483D01*
Y3045476D01*
X3993638Y3055473D01*
X3983641D01*
X3973644Y3045476D01*
Y3015486D01*
X3943654Y3075467D02*
Y3115454D01*
X3953651D01*
X3993638Y3075467D01*
X4003634D01*
X3636520Y3093304D02*
X3696501D01*
Y3063313D01*
X3686504Y3053317D01*
X3666510D01*
X3656514Y3063313D01*
Y3093304D01*
Y3073310D02*
X3636520Y3053317D01*
X3696501Y2993336D02*
X3686504Y3013330D01*
X3666510Y3033323D01*
X3646517D01*
X3636520Y3023326D01*
Y3003333D01*
X3646517Y2993336D01*
X3656514D01*
X3666510Y3003333D01*
Y3033323D01*
X3686504Y2973343D02*
X3696501Y2963346D01*
Y2943352D01*
X3686504Y2933356D01*
X3676507D01*
X3666510Y2943352D01*
X3656514Y2933356D01*
X3646517D01*
X3636520Y2943352D01*
Y2963346D01*
X3646517Y2973343D01*
X3656514D01*
X3666510Y2963346D01*
X3676507Y2973343D01*
X3686504D01*
X3666510Y2963346D02*
Y2943352D01*
X3539134Y3102293D02*
X3599115D01*
Y3072303D01*
X3589118Y3062306D01*
X3569124D01*
X3559128Y3072303D01*
Y3102293D01*
Y3082299D02*
X3539134Y3062306D01*
X3599115Y3002325D02*
X3589118Y3022319D01*
X3569124Y3042312D01*
X3549131D01*
X3539134Y3032316D01*
Y3012322D01*
X3549131Y3002325D01*
X3559128D01*
X3569124Y3012322D01*
Y3042312D01*
X3549131Y2982332D02*
X3539134Y2972335D01*
Y2952342D01*
X3549131Y2942345D01*
X3589118D01*
X3599115Y2952342D01*
Y2972335D01*
X3589118Y2982332D01*
X3579121D01*
X3569124Y2972335D01*
Y2942345D01*
X3830674Y3115551D02*
X3890654D01*
Y3085561D01*
X3880657Y3075564D01*
X3860664D01*
X3850667Y3085561D01*
Y3115551D01*
Y3095557D02*
X3830674Y3075564D01*
X3890654Y3055570D02*
Y3015584D01*
X3880657D01*
X3840671Y3055570D01*
X3830674D01*
X3880657Y2995590D02*
X3890654Y2985593D01*
Y2965600D01*
X3880657Y2955603D01*
X3840671D01*
X3830674Y2965600D01*
Y2985593D01*
X3840671Y2995590D01*
X3880657D01*
X3741774Y3105554D02*
X3801754D01*
Y3075564D01*
X3791757Y3065567D01*
X3771764D01*
X3761767Y3075564D01*
Y3105554D01*
Y3085561D02*
X3741774Y3065567D01*
X3801754Y3045574D02*
Y3005587D01*
X3791757D01*
X3751770Y3045574D01*
X3741774D01*
Y2985593D02*
Y2965600D01*
Y2975597D01*
X3801754D01*
X3791757Y2985593D01*
X4557240Y7656153D02*
X4547243Y7666150D01*
X4527250D01*
X4517253Y7656153D01*
Y7646157D01*
X4527250Y7636160D01*
X4547243D01*
X4557240Y7626163D01*
Y7616166D01*
X4547243Y7606170D01*
X4527250D01*
X4517253Y7616166D01*
X4577234Y7606170D02*
X4597227D01*
X4587230D01*
Y7666150D01*
X4577234Y7656153D01*
X382223Y5815460D02*
X422210D01*
X402217D01*
Y5755479D01*
X442204D02*
X462197D01*
X452201D01*
Y5815460D01*
X442204Y5805463D01*
X9445946Y7728880D02*
Y7678897D01*
X9455943Y7668900D01*
X9475937D01*
X9485933Y7678897D01*
Y7728880D01*
X9545914Y7668900D02*
X9505927D01*
X9545914Y7708887D01*
Y7718883D01*
X9535917Y7728880D01*
X9515924D01*
X9505927Y7718883D01*
X3980165Y3995180D02*
Y3945196D01*
X3990162Y3935199D01*
X4010156D01*
X4020152Y3945196D01*
Y3995180D01*
X4040146Y3935199D02*
X4060139D01*
X4050143D01*
Y3995180D01*
X4040146Y3985183D01*
X4090129Y3935199D02*
X4110123D01*
X4100126D01*
Y3995180D01*
X4090129Y3985183D01*
X6397033Y4978580D02*
X6382895Y4907892D01*
X6425308Y4950305D02*
X6354620Y4936167D01*
X6425308Y4865480D02*
X6397033Y4893755D01*
X6453583D01*
X6460652Y4900824D01*
X6460652Y4914961D01*
X6446514Y4929099D01*
X6432377D01*
X5862762Y5291460D02*
Y5281463D01*
X5882756Y5261470D01*
X5902749Y5281463D01*
Y5291460D01*
X5882756Y5261470D02*
Y5231480D01*
X5922743D02*
X5942737D01*
X5932740D01*
Y5291460D01*
X5922743Y5281463D01*
X6413464Y2527550D02*
Y2477567D01*
X6423461Y2467570D01*
X6443455D01*
X6453451Y2477567D01*
Y2527550D01*
X6473445Y2467570D02*
X6493439D01*
X6483442D01*
Y2527550D01*
X6473445Y2517554D01*
X6523429Y2527550D02*
X6563416D01*
Y2517554D01*
X6523429Y2477567D01*
Y2467570D01*
X7873325Y2544450D02*
Y2494466D01*
X7883321Y2484470D01*
X7903315D01*
X7913312Y2494466D01*
Y2544450D01*
X7933305Y2484470D02*
X7953299D01*
X7943302D01*
Y2544450D01*
X7933305Y2534453D01*
X7983289D02*
X7993286Y2544450D01*
X8013279D01*
X8023276Y2534453D01*
Y2524457D01*
X8013279Y2514460D01*
X8023276Y2504463D01*
Y2494466D01*
X8013279Y2484470D01*
X7993286D01*
X7983289Y2494466D01*
Y2504463D01*
X7993286Y2514460D01*
X7983289Y2524457D01*
Y2534453D01*
X7993286Y2514460D02*
X8013279D01*
X8932565Y2539861D02*
Y2489877D01*
X8942561Y2479880D01*
X8962555D01*
X8972552Y2489877D01*
Y2539861D01*
X8992545Y2479880D02*
X9012539D01*
X9002542D01*
Y2539861D01*
X8992545Y2529864D01*
X9072519Y2479880D02*
Y2539861D01*
X9042529Y2509870D01*
X9082516D01*
X7094143Y1734004D02*
X7084146Y1744001D01*
X7064153D01*
X7054156Y1734004D01*
Y1694017D01*
X7064153Y1684020D01*
X7084146D01*
X7094143Y1694017D01*
X7154124Y1744001D02*
X7114137D01*
Y1714010D01*
X7134130Y1724007D01*
X7144127D01*
X7154124Y1714010D01*
Y1694017D01*
X7144127Y1684020D01*
X7124133D01*
X7114137Y1694017D01*
X7174117D02*
X7184114Y1684020D01*
X7204108D01*
X7214104Y1694017D01*
Y1734004D01*
X7204108Y1744001D01*
X7184114D01*
X7174117Y1734004D01*
Y1724007D01*
X7184114Y1714010D01*
X7214104D01*
X8505239Y1732779D02*
X8495242Y1742776D01*
X8475248D01*
X8465252Y1732779D01*
Y1692792D01*
X8475248Y1682795D01*
X8495242D01*
X8505239Y1692792D01*
X8565219Y1742776D02*
X8545226Y1732779D01*
X8525232Y1712785D01*
Y1692792D01*
X8535229Y1682795D01*
X8555222D01*
X8565219Y1692792D01*
Y1702789D01*
X8555222Y1712785D01*
X8525232D01*
X8585213Y1732779D02*
X8595209Y1742776D01*
X8615203D01*
X8625200Y1732779D01*
Y1692792D01*
X8615203Y1682795D01*
X8595209D01*
X8585213Y1692792D01*
Y1732779D01*
X6491066Y2671723D02*
X6481069Y2661726D01*
Y2641733D01*
X6491066Y2631736D01*
X6531053D01*
X6541050Y2641733D01*
Y2661726D01*
X6531053Y2671723D01*
X6481069Y2731704D02*
Y2691717D01*
X6511060D01*
X6501063Y2711710D01*
Y2721707D01*
X6511060Y2731704D01*
X6531053D01*
X6541050Y2721707D01*
Y2701713D01*
X6531053Y2691717D01*
X6481069Y2791684D02*
X6491066Y2771691D01*
X6511060Y2751697D01*
X6531053D01*
X6541050Y2761694D01*
Y2781688D01*
X6531053Y2791684D01*
X6521056D01*
X6511060Y2781688D01*
Y2751697D01*
X6929207Y2671723D02*
X6919210Y2661727D01*
Y2641733D01*
X6929207Y2631736D01*
X6969194D01*
X6979190Y2641733D01*
Y2661727D01*
X6969194Y2671723D01*
X6919210Y2731704D02*
Y2691717D01*
X6949200D01*
X6939203Y2711711D01*
Y2721707D01*
X6949200Y2731704D01*
X6969194D01*
X6979190Y2721707D01*
Y2701714D01*
X6969194Y2691717D01*
X6919210Y2791685D02*
Y2751698D01*
X6949200D01*
X6939203Y2771691D01*
Y2781688D01*
X6949200Y2791685D01*
X6969194D01*
X6979190Y2781688D01*
Y2761694D01*
X6969194Y2751698D01*
X8042637Y2920673D02*
X8032640Y2910676D01*
Y2890683D01*
X8042637Y2880686D01*
X8082624D01*
X8092620Y2890683D01*
Y2910676D01*
X8082624Y2920673D01*
X8032640Y2980654D02*
Y2940667D01*
X8062630D01*
X8052633Y2960660D01*
Y2970657D01*
X8062630Y2980654D01*
X8082624D01*
X8092620Y2970657D01*
Y2950663D01*
X8082624Y2940667D01*
X8042637Y3000647D02*
X8032640Y3010644D01*
Y3030638D01*
X8042637Y3040634D01*
X8052633D01*
X8062630Y3030638D01*
X8072627Y3040634D01*
X8082624D01*
X8092620Y3030638D01*
Y3010644D01*
X8082624Y3000647D01*
X8072627D01*
X8062630Y3010644D01*
X8052633Y3000647D01*
X8042637D01*
X8062630Y3010644D02*
Y3030638D01*
X8206917Y2911443D02*
X8196920Y2901446D01*
Y2881452D01*
X8206917Y2871456D01*
X8246903D01*
X8256900Y2881452D01*
Y2901446D01*
X8246903Y2911443D01*
X8196920Y2971423D02*
Y2931436D01*
X8226910D01*
X8216913Y2951430D01*
Y2961427D01*
X8226910Y2971423D01*
X8246903D01*
X8256900Y2961427D01*
Y2941433D01*
X8246903Y2931436D01*
X8196920Y2991417D02*
Y3031404D01*
X8206917D01*
X8246903Y2991417D01*
X8256900D01*
X9618006Y1754146D02*
X9608009Y1764143D01*
X9588015D01*
X9578019Y1754146D01*
Y1714159D01*
X9588015Y1704162D01*
X9608009D01*
X9618006Y1714159D01*
X9677986Y1764143D02*
X9637999D01*
Y1734153D01*
X9657993Y1744149D01*
X9667990D01*
X9677986Y1734153D01*
Y1714159D01*
X9667990Y1704162D01*
X9647996D01*
X9637999Y1714159D01*
X9697980Y1754146D02*
X9707977Y1764143D01*
X9727970D01*
X9737967Y1754146D01*
Y1744149D01*
X9727970Y1734153D01*
X9717973D01*
X9727970D01*
X9737967Y1724156D01*
Y1714159D01*
X9727970Y1704162D01*
X9707977D01*
X9697980Y1714159D01*
X9172977Y2969013D02*
X9162980Y2959016D01*
Y2939023D01*
X9172977Y2929026D01*
X9212964D01*
X9222960Y2939023D01*
Y2959016D01*
X9212964Y2969013D01*
X9162980Y3028994D02*
Y2989007D01*
X9192970D01*
X9182973Y3009000D01*
Y3018997D01*
X9192970Y3028994D01*
X9212964D01*
X9222960Y3018997D01*
Y2999003D01*
X9212964Y2989007D01*
X9172977Y3048987D02*
X9162980Y3058984D01*
Y3078978D01*
X9172977Y3088974D01*
X9212964D01*
X9222960Y3078978D01*
Y3058984D01*
X9212964Y3048987D01*
X9172977D01*
X9314156Y2980923D02*
X9304159Y2970926D01*
Y2950932D01*
X9314156Y2940936D01*
X9354143D01*
X9364140Y2950932D01*
Y2970926D01*
X9354143Y2980923D01*
X9364140Y3030907D02*
X9304159D01*
X9334150Y3000916D01*
Y3040903D01*
X9354143Y3060897D02*
X9364140Y3070894D01*
Y3090887D01*
X9354143Y3100884D01*
X9314156D01*
X9304159Y3090887D01*
Y3070894D01*
X9314156Y3060897D01*
X9324153D01*
X9334150Y3070894D01*
Y3100884D01*
X5149984Y2539130D02*
Y2489146D01*
X5159981Y2479150D01*
X5179975D01*
X5189971Y2489146D01*
Y2539130D01*
X5209965Y2479150D02*
X5229959D01*
X5219962D01*
Y2539130D01*
X5209965Y2529133D01*
X5299936Y2539130D02*
X5259949D01*
Y2509140D01*
X5279942Y2519137D01*
X5289939D01*
X5299936Y2509140D01*
Y2489146D01*
X5289939Y2479150D01*
X5269945D01*
X5259949Y2489146D01*
X6316443Y1836749D02*
X6256462D01*
Y1866739D01*
X6266459Y1876736D01*
X6286452D01*
X6296449Y1866739D01*
Y1836749D01*
Y1856742D02*
X6316443Y1876736D01*
X6256462Y1896729D02*
Y1936716D01*
X6266459D01*
X6306446Y1896729D01*
X6316443D01*
X6266459Y1956710D02*
X6256462Y1966707D01*
Y1986700D01*
X6266459Y1996697D01*
X6276456D01*
X6286452Y1986700D01*
X6296449Y1996697D01*
X6306446D01*
X6316443Y1986700D01*
Y1966707D01*
X6306446Y1956710D01*
X6296449D01*
X6286452Y1966707D01*
X6276456Y1956710D01*
X6266459D01*
X6286452Y1966707D02*
Y1986700D01*
X7756960Y1750306D02*
X7696980D01*
Y1780296D01*
X7706977Y1790293D01*
X7726970D01*
X7736967Y1780296D01*
Y1750306D01*
Y1770300D02*
X7756960Y1790293D01*
X7696980Y1810287D02*
Y1850274D01*
X7706977D01*
X7746964Y1810287D01*
X7756960D01*
X7746964Y1870267D02*
X7756960Y1880264D01*
Y1900258D01*
X7746964Y1910254D01*
X7706977D01*
X7696980Y1900258D01*
Y1880264D01*
X7706977Y1870267D01*
X7716973D01*
X7726970Y1880264D01*
Y1910254D01*
X5025563Y1755279D02*
X4965582D01*
Y1785269D01*
X4975579Y1795266D01*
X4995572D01*
X5005569Y1785269D01*
Y1755279D01*
Y1775272D02*
X5025563Y1795266D01*
X4965582Y1815259D02*
Y1855246D01*
X4975579D01*
X5015566Y1815259D01*
X5025563D01*
X4965582Y1875240D02*
Y1915227D01*
X4975579D01*
X5015566Y1875240D01*
X5025563D01*
X8866780Y1764186D02*
X8806800D01*
Y1794176D01*
X8816796Y1804173D01*
X8836790D01*
X8846786Y1794176D01*
Y1764186D01*
Y1784180D02*
X8866780Y1804173D01*
X8806800Y1824167D02*
Y1864153D01*
X8816796D01*
X8856783Y1824167D01*
X8866780D01*
X8806800Y1924134D02*
X8816796Y1904141D01*
X8836790Y1884147D01*
X8856783D01*
X8866780Y1894144D01*
Y1914137D01*
X8856783Y1924134D01*
X8846786D01*
X8836790Y1914137D01*
Y1884147D01*
X5196885Y1690146D02*
X5186889Y1700143D01*
X5166895D01*
X5156898Y1690146D01*
Y1650159D01*
X5166895Y1640162D01*
X5186889D01*
X5196885Y1650159D01*
X5256866Y1700143D02*
X5216879D01*
Y1670153D01*
X5236873Y1680149D01*
X5246869D01*
X5256866Y1670153D01*
Y1650159D01*
X5246869Y1640162D01*
X5226876D01*
X5216879Y1650159D01*
X5306850Y1640162D02*
Y1700143D01*
X5276860Y1670153D01*
X5316847D01*
X5242534Y2740397D02*
X5252531Y2750393D01*
Y2770387D01*
X5242534Y2780384D01*
X5202547D01*
X5192550Y2770387D01*
Y2750393D01*
X5202547Y2740397D01*
X5252531Y2680416D02*
Y2720403D01*
X5222540D01*
X5232537Y2700409D01*
Y2690413D01*
X5222540Y2680416D01*
X5202547D01*
X5192550Y2690413D01*
Y2710406D01*
X5202547Y2720403D01*
X5192550Y2620435D02*
Y2660422D01*
X5232537Y2620435D01*
X5242534D01*
X5252531Y2630432D01*
Y2650426D01*
X5242534Y2660422D01*
X5699423Y2730420D02*
X5709420Y2740417D01*
Y2760410D01*
X5699423Y2770407D01*
X5659436D01*
X5649440Y2760410D01*
Y2740417D01*
X5659436Y2730420D01*
X5709420Y2670439D02*
Y2710426D01*
X5679430D01*
X5689427Y2690433D01*
Y2680436D01*
X5679430Y2670439D01*
X5659436D01*
X5649440Y2680436D01*
Y2700430D01*
X5659436Y2710426D01*
X5649440Y2650446D02*
Y2630452D01*
Y2640449D01*
X5709420D01*
X5699423Y2650446D01*
D138*
X6027260Y3422040D02*
G03*
X6027260Y3422040I-10000J0D01*
G01*
X4161570Y5722930D02*
G03*
X4161570Y5722930I-10000J0D01*
G01*
X3861250Y5205010D02*
G03*
X3861250Y5205010I-10000J0D01*
G01*
X7832520Y6356570D02*
G03*
X7832520Y6356570I-10000J0D01*
G01*
X4824460Y7860140D02*
G03*
X4824460Y7860140I-10000J0D01*
G01*
X7128170Y7043920D02*
G03*
X7128170Y7043920I-10000J0D01*
G01*
X4474480Y7598960D02*
G03*
X4474480Y7598960I-10000J0D01*
G01*
X4862140Y4518510D02*
G03*
X4862140Y4518510I-10000J0D01*
G01*
X5394024Y4395489D02*
G03*
X5394024Y4395489I-10000J0D01*
G01*
X5398804Y3766639D02*
G03*
X5398804Y3766639I-10000J0D01*
G01*
X3406534Y3889269D02*
G03*
X3406534Y3889269I-10000J0D01*
G01*
X4954530Y6942710D02*
G03*
X4954530Y6942710I-10000J0D01*
G01*
X4448880Y8187310D02*
G03*
X4448880Y8187310I-10000J0D01*
G01*
X11953050Y8834900D02*
G03*
X11953050Y8834900I-10000J0D01*
G01*
X12650380Y5387510D02*
G03*
X12650380Y5387510I-10000J0D01*
G01*
X12499780Y3608010D02*
G03*
X12499780Y3608010I-10000J0D01*
G01*
X12518310Y6271690D02*
G03*
X12518310Y6271690I-10000J0D01*
G01*
X2367909Y7298481D02*
G03*
X2367909Y7149820I0J-74331D01*
G01*
Y7299818D02*
G03*
X2377647Y7447838I0J74331D01*
G01*
X9470750Y8238300D02*
G03*
X9470750Y8238300I-10000J0D01*
G01*
X3877030Y6515200D02*
X3992030D01*
X3842030Y6520200D02*
Y6810200D01*
X3777030D02*
X3842030D01*
X3777030Y6520200D02*
Y6810200D01*
Y6520200D02*
X3842030D01*
X12507490Y2111750D02*
Y2231749D01*
X12209990Y2076749D02*
X12504990D01*
X12209990Y2016750D02*
Y2076749D01*
Y2016750D02*
X12504990D01*
Y2076749D01*
X12065950Y2111750D02*
Y2231749D01*
X11768450Y2076749D02*
X12063451D01*
X11768450Y2016750D02*
Y2076749D01*
Y2016750D02*
X12063451D01*
Y2076749D01*
X6876059Y4120940D02*
Y5050940D01*
Y4120940D02*
X7806060D01*
Y5050940D01*
X6876059D02*
X7806060D01*
X4686580Y7209460D02*
Y7509460D01*
X4436580Y7209460D02*
Y7509460D01*
X5329994Y5071649D02*
X5434994D01*
X4506994Y3560379D02*
X5236994D01*
X4506994Y3130379D02*
X5296994D01*
X8637480Y4776930D02*
Y5506930D01*
X9067480Y4776930D02*
Y5566930D01*
X12532830Y3977900D02*
Y4767900D01*
X12962830Y4037900D02*
Y4767900D01*
X12178710Y7338430D02*
X12238710D01*
X12178710D02*
Y7633430D01*
X12238710D01*
Y7338430D02*
Y7633430D01*
X12273710Y7335930D02*
X12393710D01*
X2597911Y6869818D02*
Y7539820D01*
X2167909Y6869818D02*
X2597911D01*
X2167909D02*
Y7709817D01*
X2597911D01*
Y7539820D02*
Y7709817D01*
D139*
X3226150Y6490193D02*
G03*
X3241390Y6474953I15240J0D01*
G01*
X3391631D02*
G03*
X3406871Y6490193I0J15240D01*
G01*
X3241390Y6867672D02*
G03*
X3226150Y6852432I0J-15240D01*
G01*
X3406871D02*
G03*
X3391631Y6867672I-15240J0D01*
G01*
X4718721Y6370030D02*
G03*
X4703481Y6385270I-15240J0D01*
G01*
X4515439D02*
G03*
X4500199Y6370030I0J-15240D01*
G01*
X4703481Y5872551D02*
G03*
X4718721Y5887791I0J15240D01*
G01*
X4500199D02*
G03*
X4515439Y5872551I15240J0D01*
G01*
X10087311Y2367120D02*
G03*
X10087311Y2529620I0J81250D01*
G01*
X10760800Y2373981D02*
G03*
X10760800Y2536480I0J81250D01*
G01*
X4747070Y5600080D02*
G03*
X4747070Y5600080I-10160J0D01*
G01*
X5971050Y3222666D02*
Y3294469D01*
X5871330Y3222666D02*
X5971050D01*
X5871330D02*
Y3294469D01*
X5971050Y3339711D02*
Y3411515D01*
X5871330D02*
X5971050D01*
X5871330Y3339711D02*
Y3411515D01*
X3575250Y6721078D02*
Y6816966D01*
X3443130D02*
X3575250D01*
X3443130Y6721078D02*
Y6816966D01*
X3575250Y6539948D02*
Y6635836D01*
X3443130Y6539948D02*
X3575250D01*
X3443130D02*
Y6635836D01*
X4040530Y6539948D02*
Y6635836D01*
Y6539948D02*
X4172650D01*
Y6635836D01*
X4040530Y6721078D02*
Y6816966D01*
X4172650D01*
Y6721078D02*
Y6816966D01*
X3406871Y6490193D02*
Y6631193D01*
X3226150Y6490193D02*
Y6631193D01*
X3241390Y6474953D02*
X3391631D01*
X3406871Y6711432D02*
Y6852432D01*
X3226150Y6711432D02*
Y6852432D01*
X3241390Y6867672D02*
X3391631D01*
X4108400Y6006190D02*
Y6291590D01*
X4293800Y6006190D02*
Y6291590D01*
X4199899Y6539948D02*
Y6635836D01*
Y6539948D02*
X4332020D01*
Y6635836D01*
X4199899Y6721078D02*
Y6816966D01*
X4332020D01*
Y6721078D02*
Y6816966D01*
X4500199Y6221532D02*
Y6370030D01*
X4718721Y6221532D02*
Y6370030D01*
X4515439Y6385270D02*
X4703481D01*
X4500199Y5887791D02*
Y6036289D01*
X4718721Y5887791D02*
Y6036289D01*
X4515439Y5872551D02*
X4703481D01*
X12235604Y2562450D02*
X12331492D01*
X12235604Y2430330D02*
Y2562450D01*
Y2430330D02*
X12331492D01*
X12416734Y2562450D02*
X12512622D01*
Y2430330D02*
Y2562450D01*
X12416734Y2430330D02*
X12512622D01*
X11796618Y2410040D02*
X11892506D01*
X11796618Y2277919D02*
Y2410040D01*
Y2277919D02*
X11892506D01*
X11977748Y2410040D02*
X12073635D01*
Y2277919D02*
Y2410040D01*
X11977748Y2277919D02*
X12073635D01*
X6419089Y5501044D02*
X6564331D01*
X6564331Y5460599D02*
X6564331Y5635844D01*
X6419089D02*
X6419089Y5460599D01*
X10804740Y2986941D02*
Y3082829D01*
Y2986941D02*
X10936860D01*
Y3082829D01*
X10804740Y3168071D02*
Y3263959D01*
X10936860D01*
Y3168071D02*
Y3263959D01*
X10130340Y2995771D02*
Y3091659D01*
Y2995771D02*
X10262460D01*
Y3091659D01*
X10130340Y3176901D02*
Y3272789D01*
X10262460D01*
Y3176901D02*
Y3272789D01*
X10127140Y1598951D02*
Y1694839D01*
Y1598951D02*
X10259260D01*
Y1694839D01*
X10127140Y1780081D02*
Y1875969D01*
X10259260D01*
Y1780081D02*
Y1875969D01*
X10931930Y1780081D02*
Y1875969D01*
X10799810D02*
X10931930D01*
X10799810Y1780081D02*
Y1875969D01*
X10931930Y1598951D02*
Y1694839D01*
X10799810Y1598951D02*
X10931930D01*
X10799810D02*
Y1694839D01*
X11975152Y2431129D02*
X12071039D01*
Y2563250D01*
X11975152D02*
X12071039D01*
X11794022Y2431129D02*
X11889909D01*
X11794022D02*
Y2563250D01*
X11889909D01*
X12234728Y2410050D02*
X12330615D01*
X12234728Y2277930D02*
Y2410050D01*
Y2277930D02*
X12330615D01*
X12415858Y2410050D02*
X12511745D01*
Y2277930D02*
Y2410050D01*
X12415858Y2277930D02*
X12511745D01*
X10087311Y2190230D02*
X10562550D01*
Y2706510D01*
X10087311D02*
X10562550D01*
X10087311Y2190230D02*
Y2706510D01*
X10760800Y2197090D02*
X11236040D01*
Y2713370D01*
X10760800D02*
X11236040D01*
X10760800Y2197090D02*
Y2713370D01*
X7193080Y7071226D02*
Y7143029D01*
X7093360Y7071226D02*
X7193080D01*
X7093360D02*
Y7143029D01*
X7193080Y7188271D02*
Y7260075D01*
X7093360D02*
X7193080D01*
X7093360Y7188271D02*
Y7260075D01*
X4869691Y7407401D02*
Y7503289D01*
X4737570D02*
X4869691D01*
X4737570Y7407401D02*
Y7503289D01*
X4869691Y7226271D02*
Y7322159D01*
X4737570Y7226271D02*
X4869691D01*
X4737570D02*
Y7322159D01*
X4193291Y7417181D02*
Y7513069D01*
X4061170D02*
X4193291D01*
X4061170Y7417181D02*
Y7513069D01*
X4193291Y7236051D02*
Y7331939D01*
X4061170Y7236051D02*
X4193291D01*
X4061170D02*
Y7331939D01*
X4876616Y5643190D02*
X4979145D01*
X4876616Y5406970D02*
X4979145D01*
X3747984Y1721518D02*
X4170132D01*
Y2553368D01*
X3124668Y1721518D02*
X3546816Y1721518D01*
X3124668Y2553368D02*
X3124668Y1721518D01*
X3956518Y2766982D02*
X4170132Y2553368D01*
X3747984Y2766982D02*
X3956518D01*
X3124668Y2553368D02*
X3338283Y2766982D01*
X3546816Y2766982D01*
X3127905Y5046860D02*
X3223793D01*
X3127905Y4914739D02*
Y5046860D01*
Y4914739D02*
X3223793D01*
X3309035Y5046860D02*
X3404923D01*
Y4914739D02*
Y5046860D01*
X3309035Y4914739D02*
X3404923D01*
X5436126Y4299160D02*
X5507929D01*
X5436126D02*
Y4398880D01*
X5507929D01*
X5553171Y4299160D02*
X5624975D01*
Y4398880D01*
X5553171D02*
X5624975D01*
X3923784Y3274001D02*
Y3345804D01*
X4023504D01*
Y3274001D02*
Y3345804D01*
X3923784Y3156955D02*
Y3228758D01*
Y3156955D02*
X4023504D01*
Y3228758D01*
X3821624Y3157053D02*
Y3228856D01*
X3721904Y3157053D02*
X3821624D01*
X3721904D02*
Y3228856D01*
X3821624Y3274099D02*
Y3345902D01*
X3721904D02*
X3821624D01*
X3721904Y3274099D02*
Y3345902D01*
X3923224Y3157053D02*
Y3228856D01*
X3823504Y3157053D02*
X3923224D01*
X3823504D02*
Y3228856D01*
X3923224Y3274099D02*
Y3345902D01*
X3823504D02*
X3923224D01*
X3823504Y3274099D02*
Y3345902D01*
X3618984Y3156495D02*
Y3228298D01*
X3519264Y3156495D02*
X3618984D01*
X3519264D02*
Y3228298D01*
X3618984Y3273541D02*
Y3345344D01*
X3519264D02*
X3618984D01*
X3519264Y3273541D02*
Y3345344D01*
X3620424Y3274280D02*
Y3346084D01*
X3720144D01*
Y3274280D02*
Y3346084D01*
X3620424Y3157235D02*
Y3229038D01*
Y3157235D02*
X3720144D01*
Y3229038D01*
X3320444Y3274321D02*
Y3346124D01*
X3420164D01*
Y3274321D02*
Y3346124D01*
X3320444Y3157275D02*
Y3229078D01*
Y3157275D02*
X3420164D01*
Y3229078D01*
X3420584Y3272891D02*
Y3344694D01*
X3520304D01*
Y3272891D02*
Y3344694D01*
X3420584Y3155845D02*
Y3227648D01*
Y3155845D02*
X3520304D01*
Y3227648D01*
X3144856Y3545830D02*
X3216659D01*
X3144856D02*
Y3645550D01*
X3216659D01*
X3261901Y3545830D02*
X3333705D01*
Y3645550D01*
X3261901D02*
X3333705D01*
X3144060Y3743579D02*
X3215863D01*
X3144060D02*
Y3843300D01*
X3215863D01*
X3261105Y3743579D02*
X3332909D01*
Y3843300D01*
X3261105D02*
X3332909D01*
X3144607Y3646050D02*
X3216410D01*
X3144607D02*
Y3745770D01*
X3216410D01*
X3261653Y3646050D02*
X3333456D01*
Y3745770D01*
X3261653D02*
X3333456D01*
X3260755Y3444750D02*
X3332559D01*
Y3345029D02*
Y3444750D01*
X3260755Y3345029D02*
X3332559D01*
X3143710Y3444750D02*
X3215513D01*
X3143710Y3345029D02*
Y3444750D01*
Y3345029D02*
X3215513D01*
X3261236Y3545200D02*
X3333039D01*
Y3445479D02*
Y3545200D01*
X3261236Y3445479D02*
X3333039D01*
X3144190Y3545200D02*
X3215993D01*
X3144190Y3445479D02*
Y3545200D01*
Y3445479D02*
X3215993D01*
X8337531Y7161957D02*
Y7257845D01*
X8205410D02*
X8337531D01*
X8205410Y7161957D02*
Y7257845D01*
X8337531Y6980828D02*
Y7076715D01*
X8205410Y6980828D02*
X8337531D01*
X8205410D02*
Y7076715D01*
X7875210Y6980828D02*
Y7076715D01*
Y6980828D02*
X8007331D01*
Y7076715D01*
X7875210Y7161957D02*
Y7257845D01*
X8007331D01*
Y7161957D02*
Y7257845D01*
X8040310Y6980828D02*
Y7076715D01*
Y6980828D02*
X8172431D01*
Y7076715D01*
X8040310Y7161957D02*
Y7257845D01*
X8172431D01*
Y7161957D02*
Y7257845D01*
X7231120Y6984111D02*
Y7079999D01*
Y6984111D02*
X7363241D01*
Y7079999D01*
X7231120Y7165241D02*
Y7261129D01*
X7363241D01*
Y7165241D02*
Y7261129D01*
X7511960Y6983427D02*
Y7079315D01*
Y6983427D02*
X7644081D01*
Y7079315D01*
X7511960Y7164557D02*
Y7260445D01*
X7644081D01*
Y7164557D02*
Y7260445D01*
X7372250Y6984111D02*
Y7079999D01*
Y6984111D02*
X7504371D01*
Y7079999D01*
X7372250Y7165241D02*
Y7261129D01*
X7504371D01*
Y7165241D02*
Y7261129D01*
X12087000Y8124481D02*
Y8220369D01*
Y8124481D02*
X12219120D01*
Y8220369D01*
X12087000Y8305611D02*
Y8401499D01*
X12219120D01*
Y8305611D02*
Y8401499D01*
X12602955Y6583742D02*
X12618198Y6568500D01*
X12719841D01*
X12735076Y6583742D01*
X12719841Y6851974D02*
X12735076Y6836744D01*
X12618198Y6851974D02*
X12719841D01*
X12602955Y6836744D02*
X12618198Y6851974D01*
X12891600Y6751955D02*
Y6847843D01*
X12759480D02*
X12891600D01*
X12759480Y6751955D02*
Y6847843D01*
X12891600Y6570825D02*
Y6666713D01*
X12759480Y6570825D02*
X12891600D01*
X12759480D02*
Y6666713D01*
X12431741Y7639350D02*
X12527629D01*
X12431741Y7507229D02*
Y7639350D01*
Y7507229D02*
X12527629D01*
X12612871Y7639350D02*
X12708759D01*
Y7507229D02*
Y7639350D01*
X12612871Y7507229D02*
X12708759D01*
X12431741Y7469890D02*
X12527629D01*
X12431741Y7337769D02*
Y7469890D01*
Y7337769D02*
X12527629D01*
X12612871Y7469890D02*
X12708759D01*
Y7337769D02*
Y7469890D01*
X12612871Y7337769D02*
X12708759D01*
X10189030Y8055260D02*
Y8215280D01*
X10049354D02*
X10082326D01*
X9942650Y8055260D02*
Y8215280D01*
X9925840Y7271714D02*
Y7343517D01*
X9826120Y7271714D02*
X9925840D01*
X9826120D02*
Y7343517D01*
X9925840Y7388759D02*
Y7460563D01*
X9826120D02*
X9925840D01*
X9826120Y7388759D02*
Y7460563D01*
X10023450Y7388081D02*
Y7459884D01*
X10123170D01*
Y7388081D02*
Y7459884D01*
X10023450Y7271035D02*
Y7342839D01*
Y7271035D02*
X10123170D01*
Y7342839D01*
X10127790Y7388283D02*
Y7460086D01*
X10227510D01*
Y7388283D02*
Y7460086D01*
X10127790Y7271237D02*
Y7343040D01*
Y7271237D02*
X10227510D01*
Y7343040D01*
X9925320Y7388421D02*
Y7460224D01*
X10025040D01*
Y7388421D02*
Y7460224D01*
X9925320Y7271375D02*
Y7343179D01*
Y7271375D02*
X10025040D01*
Y7343179D01*
X10123671Y7550575D02*
Y7622379D01*
X10023950Y7550575D02*
X10123671D01*
X10023950D02*
Y7622379D01*
X10123671Y7667621D02*
Y7739424D01*
X10023950D02*
X10123671D01*
X10023950Y7667621D02*
Y7739424D01*
X10237800Y7550575D02*
Y7622379D01*
X10138080Y7550575D02*
X10237800D01*
X10138080D02*
Y7622379D01*
X10237800Y7667621D02*
Y7739424D01*
X10138080D02*
X10237800D01*
X10138080Y7667621D02*
Y7739424D01*
X10011381Y7550575D02*
Y7622379D01*
X9911660Y7550575D02*
X10011381D01*
X9911660D02*
Y7622379D01*
X10011381Y7667621D02*
Y7739424D01*
X9911660D02*
X10011381D01*
X9911660Y7667621D02*
Y7739424D01*
X4270670Y1935677D02*
X4329351D01*
X4589229D02*
X4647910D01*
X4270670D02*
Y2484418D01*
X4647910Y1935677D02*
Y2484418D01*
X9535150Y8025143D02*
Y8096946D01*
X9634870D01*
Y8025143D02*
Y8096946D01*
X9535150Y7908097D02*
Y7979900D01*
Y7908097D02*
X9634870D01*
Y7979900D01*
X9061200Y8017383D02*
Y8089186D01*
X9160920D01*
Y8017383D02*
Y8089186D01*
X9061200Y7900337D02*
Y7972141D01*
Y7900337D02*
X9160920D01*
Y7972141D01*
X6245878Y4996107D02*
X6509421Y4732564D01*
X6200390Y4423552D02*
X6509421Y4732564D01*
X6082716Y4541226D02*
X6200390Y4423552D01*
X5938973Y4684969D02*
X6082716Y4541226D01*
X5938973Y4684969D02*
X6245878Y4996107D01*
X6562233Y1900403D02*
Y1990774D01*
Y1900403D02*
X6652604D01*
X6562233Y2325272D02*
Y2415642D01*
X6652604D01*
X7077472Y1900403D02*
Y1990774D01*
X6987101Y1900403D02*
X7077472D01*
Y2325272D02*
Y2415642D01*
X6987101D02*
X7077472D01*
X5708921Y2423072D02*
X5799292D01*
Y2332701D02*
Y2423072D01*
X5708921Y1907833D02*
X5799292D01*
Y1998204D01*
X5284053Y2423072D02*
X5374424D01*
X5284053Y2332701D02*
Y2423072D01*
Y1907833D02*
X5374424D01*
X5284053D02*
Y1998204D01*
X7982806Y1912366D02*
Y2002736D01*
Y1912366D02*
X8073177D01*
X7982806Y2337234D02*
Y2427605D01*
X8073177D01*
X8498045Y1912366D02*
Y2002736D01*
X8407674Y1912366D02*
X8498045D01*
Y2337234D02*
Y2427605D01*
X8407674D02*
X8498045D01*
X9108273Y1933733D02*
Y2024104D01*
Y1933733D02*
X9198644D01*
X9108273Y2358602D02*
Y2448972D01*
X9198644D01*
X9623512Y1933733D02*
Y2024104D01*
X9533141Y1933733D02*
X9623512D01*
Y2358602D02*
Y2448972D01*
X9533141D02*
X9623512D01*
D140*
X5973729Y7757793D02*
G03*
X5973729Y7757793I-12700J0D01*
G01*
X6437712Y5214172D02*
G03*
X6437712Y5224172I0J5000D01*
G01*
D02*
G03*
X6437712Y5214172I0J-5000D01*
G01*
X5898638Y7782482D02*
X5898639Y7767887D01*
X5898638Y7877480D02*
X5898639Y7873312D01*
Y7968308D02*
Y7972474D01*
Y8063304D02*
Y8077889D01*
X5718636Y7767887D02*
X5718637Y7782482D01*
Y7873310D02*
Y7972474D01*
Y8063302D02*
Y8077889D01*
X5898639Y8077889D01*
X5718636Y7767887D02*
X5898639D01*
X6177712Y5319172D02*
X6257711D01*
X6177712Y5169172D02*
X6257711D01*
D141*
X6731060Y5035940D02*
G03*
X6731060Y5035940I-12500J0D01*
G01*
D142*
X10091504Y2067370D02*
G03*
X10091504Y2067370I-15011J0D01*
G01*
X10764994Y2074230D02*
G03*
X10764994Y2074230I-15011J0D01*
G01*
D143*
X11814010Y7083559D02*
G03*
X11814010Y7083559I-19990J0D01*
G01*
D02*
G03*
X11814010Y7083559I-19990J0D01*
G01*
D144*
X6505147Y2288020D02*
G03*
X6505147Y2288020I-7493J0D01*
G01*
X5226966Y2295450D02*
G03*
X5226966Y2295450I-7493J0D01*
G01*
X7925719Y2299982D02*
G03*
X7925719Y2299982I-7493J0D01*
G01*
X9051187Y2321350D02*
G03*
X9051187Y2321350I-7493J0D01*
G01*
D145*
X6419089Y5635844D02*
X6438711D01*
X6543709D02*
X6564331D01*
X12602955Y6583742D02*
Y6659942D01*
Y6760544D02*
Y6836744D01*
X12735076Y6760544D02*
Y6836744D01*
Y6583742D02*
Y6659942D01*
X4270670Y2311648D02*
X4647910D01*
X6246371Y5038518D02*
X6282292Y5002597D01*
X6210450D02*
X6246371Y5038518D01*
D146*
X4158801Y5873720D02*
X4243440Y5958360D01*
Y5873720D02*
X4158801Y5958360D01*
X4201121Y5873720D02*
Y5958360D01*
X4243440Y5916040D02*
X4158801D01*
X9877261Y7966995D02*
X9961900Y8051634D01*
Y7966995D02*
X9877261Y8051634D01*
X9919581Y7966995D02*
Y8051634D01*
X9961900Y8009315D02*
X9877261D01*
D147*
X9029570Y6924355D02*
X9042899Y6937684D01*
X9069557D01*
X9082886Y6924355D01*
Y6911026D01*
X9069557Y6897697D01*
X9056228D01*
X9069557D01*
X9082886Y6884368D01*
Y6871039D01*
X9069557Y6857710D01*
X9042899D01*
X9029570Y6871039D01*
X9109544Y6937684D02*
Y6884368D01*
X9136202Y6857710D01*
X9162860Y6884368D01*
Y6937684D01*
X9189518Y6924355D02*
X9202847Y6937684D01*
X9229506D01*
X9242834Y6924355D01*
Y6911026D01*
X9229506Y6897697D01*
X9216176D01*
X9229506D01*
X9242834Y6884368D01*
Y6871039D01*
X9229506Y6857710D01*
X9202847D01*
X9189518Y6871039D01*
X9082886Y7176688D02*
X9069557Y7190017D01*
X9042899D01*
X9029570Y7176688D01*
Y7163359D01*
X9042899Y7150030D01*
X9069557D01*
X9082886Y7136701D01*
Y7123372D01*
X9069557Y7110043D01*
X9042899D01*
X9029570Y7123372D01*
X9109544Y7190017D02*
Y7110043D01*
X9136202Y7136701D01*
X9162860Y7110043D01*
Y7190017D01*
X9189518D02*
Y7110043D01*
X9229506D01*
X9242834Y7123372D01*
Y7176688D01*
X9229506Y7190017D01*
X9189518D01*
X9269493D02*
X9296151D01*
X9282822D01*
Y7110043D01*
X9269493D01*
X9296151D01*
X9376125Y7190017D02*
X9349467D01*
X9336138Y7176688D01*
Y7123372D01*
X9349467Y7110043D01*
X9376125D01*
X9389454Y7123372D01*
Y7176688D01*
X9376125Y7190017D01*
X9082886Y7429022D02*
X9069557Y7442351D01*
X9042899D01*
X9029570Y7429022D01*
Y7415693D01*
X9042899Y7402364D01*
X9069557D01*
X9082886Y7389034D01*
Y7375706D01*
X9069557Y7362376D01*
X9042899D01*
X9029570Y7375706D01*
X9109544Y7442351D02*
Y7362376D01*
X9136202Y7389034D01*
X9162860Y7362376D01*
Y7442351D01*
X9242834Y7429022D02*
X9229506Y7442351D01*
X9202847D01*
X9189518Y7429022D01*
Y7375706D01*
X9202847Y7362376D01*
X9229506D01*
X9242834Y7375706D01*
X9269493Y7442351D02*
Y7362376D01*
X9322809D01*
X9349467Y7442351D02*
Y7362376D01*
Y7389034D01*
X9402783Y7442351D01*
X9362796Y7402364D01*
X9402783Y7362376D01*
X9082886Y7681355D02*
X9069557Y7694684D01*
X9042899D01*
X9029570Y7681355D01*
Y7628039D01*
X9042899Y7614710D01*
X9069557D01*
X9082886Y7628039D01*
Y7654697D01*
X9056228D01*
X9109544Y7614710D02*
Y7694684D01*
X9162860Y7614710D01*
Y7694684D01*
X9189518D02*
Y7614710D01*
X9229506D01*
X9242834Y7628039D01*
Y7681355D01*
X9229506Y7694684D01*
X9189518D01*
%TF.MD5,57a2a39cc697bea626a55c1fbee75705*%
M02*
