%TF.GenerationSoftware,Altium Limited,Altium Designer,22.5.1 (42)*%
G04 Layer_Color=0*
%FSLAX45Y45*%
%MOMM*%
%TF.SameCoordinates,BCC7A4F8-9605-4868-ACEC-D28EECC8EA53*%
%TF.FilePolarity,Positive*%
%TF.FileFunction,NonPlated,1,4,NPTH,Drill*%
%TF.Part,Single*%
G01*
G75*
%TA.AperFunction,ComponentDrill*%
%ADD224C,0.70002*%
%ADD225C,3.30002*%
%ADD226C,1.00000*%
%ADD227C,0.90002*%
G36*
X2745740Y4894440D02*
Y6895690D01*
X2847690D01*
Y4895617D01*
X2745740Y4894440D01*
D02*
G37*
G36*
X4995100Y9098032D02*
Y8262170D01*
X6494140D01*
Y9098032D01*
X4995100D01*
D02*
G37*
G36*
X12338945Y8526128D02*
Y8468083D01*
X12448755D01*
X12448755Y8526079D01*
X12338945Y8526128D01*
D02*
G37*
G36*
X11904760Y8524917D02*
Y8466870D01*
X11978920D01*
X11978920Y8524883D01*
X11904760Y8524917D01*
D02*
G37*
G36*
X12393850Y9000651D02*
Y8468083D01*
X12465530D01*
X12465530Y9000619D01*
X12393850Y9000651D01*
D02*
G37*
G36*
X11843990Y8999661D02*
Y8467093D01*
X11915670D01*
X11915670Y8999628D01*
X11843990Y8999661D01*
D02*
G37*
D224*
X9662526Y8495270D02*
D03*
X9084524D02*
D03*
D225*
X1321690Y8364060D02*
D03*
X2621713D02*
D03*
D226*
X8055227Y8579330D02*
D03*
X7257210D02*
D03*
D227*
X11496988Y8723327D02*
D03*
X10647002D02*
D03*
%TF.MD5,d7d80129f3e66595bac3d6bc334e543e*%
M02*
