%TF.GenerationSoftware,Altium Limited,Altium Designer,22.5.1 (42)*%
G04 Layer_Color=255*
%FSLAX45Y45*%
%MOMM*%
%TF.SameCoordinates,BCC7A4F8-9605-4868-ACEC-D28EECC8EA53*%
%TF.FilePolarity,Positive*%
%TF.FileFunction,Pads,Top*%
%TF.Part,Single*%
G01*
G75*
%TA.AperFunction,SMDPad,CuDef*%
G04:AMPARAMS|DCode=11|XSize=1.21mm|YSize=0.59mm|CornerRadius=0.07375mm|HoleSize=0mm|Usage=FLASHONLY|Rotation=0.000|XOffset=0mm|YOffset=0mm|HoleType=Round|Shape=RoundedRectangle|*
%AMROUNDEDRECTD11*
21,1,1.21000,0.44250,0,0,0.0*
21,1,1.06250,0.59000,0,0,0.0*
1,1,0.14750,0.53125,-0.22125*
1,1,0.14750,-0.53125,-0.22125*
1,1,0.14750,-0.53125,0.22125*
1,1,0.14750,0.53125,0.22125*
%
%ADD11ROUNDEDRECTD11*%
%ADD12R,0.54000X0.56566*%
%ADD13R,0.90000X0.80000*%
%ADD14R,0.60000X1.10000*%
%ADD15R,0.30000X1.10000*%
%ADD16R,1.90000X2.50000*%
%ADD17R,0.86401X0.80648*%
%ADD18R,1.15000X0.60000*%
%ADD19R,1.35001X1.41000*%
%ADD20R,1.00000X1.05320*%
%ADD21R,1.72799X1.48501*%
%ADD22R,2.50000X1.90000*%
%ADD23R,0.73000X1.21000*%
%ADD24R,0.80648X0.86401*%
%ADD25R,0.60000X1.20000*%
G04:AMPARAMS|DCode=26|XSize=1.65mm|YSize=2.4mm|CornerRadius=0.04125mm|HoleSize=0mm|Usage=FLASHONLY|Rotation=270.000|XOffset=0mm|YOffset=0mm|HoleType=Round|Shape=RoundedRectangle|*
%AMROUNDEDRECTD26*
21,1,1.65000,2.31750,0,0,270.0*
21,1,1.56750,2.40000,0,0,270.0*
1,1,0.08250,-1.15875,-0.78375*
1,1,0.08250,-1.15875,0.78375*
1,1,0.08250,1.15875,0.78375*
1,1,0.08250,1.15875,-0.78375*
%
%ADD26ROUNDEDRECTD26*%
G04:AMPARAMS|DCode=27|XSize=0.6mm|YSize=0.24mm|CornerRadius=0.03mm|HoleSize=0mm|Usage=FLASHONLY|Rotation=270.000|XOffset=0mm|YOffset=0mm|HoleType=Round|Shape=RoundedRectangle|*
%AMROUNDEDRECTD27*
21,1,0.60000,0.18000,0,0,270.0*
21,1,0.54000,0.24000,0,0,270.0*
1,1,0.06000,-0.09000,-0.27000*
1,1,0.06000,-0.09000,0.27000*
1,1,0.06000,0.09000,0.27000*
1,1,0.06000,0.09000,-0.27000*
%
%ADD27ROUNDEDRECTD27*%
%ADD28R,0.40000X1.60000*%
%ADD29R,1.40000X2.90000*%
%ADD30R,1.21000X0.73000*%
%ADD31R,1.10000X0.60000*%
%ADD32R,0.70000X1.60000*%
%ADD33R,1.60000X1.40000*%
%ADD34R,1.20000X2.20000*%
%ADD35R,1.20000X1.40000*%
G04:AMPARAMS|DCode=36|XSize=1.475mm|YSize=0.3mm|CornerRadius=0.075mm|HoleSize=0mm|Usage=FLASHONLY|Rotation=90.000|XOffset=0mm|YOffset=0mm|HoleType=Round|Shape=RoundedRectangle|*
%AMROUNDEDRECTD36*
21,1,1.47500,0.15000,0,0,90.0*
21,1,1.32500,0.30000,0,0,90.0*
1,1,0.15000,0.07500,0.66250*
1,1,0.15000,0.07500,-0.66250*
1,1,0.15000,-0.07500,-0.66250*
1,1,0.15000,-0.07500,0.66250*
%
%ADD36ROUNDEDRECTD36*%
%ADD37R,1.47500X0.30000*%
%ADD38R,0.30000X1.47500*%
%ADD39R,0.75001X1.00000*%
G04:AMPARAMS|DCode=40|XSize=1.7mm|YSize=0.8mm|CornerRadius=0.2mm|HoleSize=0mm|Usage=FLASHONLY|Rotation=180.000|XOffset=0mm|YOffset=0mm|HoleType=Round|Shape=RoundedRectangle|*
%AMROUNDEDRECTD40*
21,1,1.70000,0.40000,0,0,180.0*
21,1,1.30000,0.80000,0,0,180.0*
1,1,0.40000,-0.65000,0.20000*
1,1,0.40000,0.65000,0.20000*
1,1,0.40000,0.65000,-0.20000*
1,1,0.40000,-0.65000,-0.20000*
%
%ADD40ROUNDEDRECTD40*%
%ADD41R,0.88900X1.29540*%
%ADD42R,0.71120X0.25400*%
%ADD43R,1.65100X4.50088*%
G04:AMPARAMS|DCode=44|XSize=1.21mm|YSize=0.59mm|CornerRadius=0.07375mm|HoleSize=0mm|Usage=FLASHONLY|Rotation=90.000|XOffset=0mm|YOffset=0mm|HoleType=Round|Shape=RoundedRectangle|*
%AMROUNDEDRECTD44*
21,1,1.21000,0.44250,0,0,90.0*
21,1,1.06250,0.59000,0,0,90.0*
1,1,0.14750,0.22125,0.53125*
1,1,0.14750,0.22125,-0.53125*
1,1,0.14750,-0.22125,-0.53125*
1,1,0.14750,-0.22125,0.53125*
%
%ADD44ROUNDEDRECTD44*%
G04:AMPARAMS|DCode=45|XSize=1.45mm|YSize=1.15mm|CornerRadius=0.2875mm|HoleSize=0mm|Usage=FLASHONLY|Rotation=0.000|XOffset=0mm|YOffset=0mm|HoleType=Round|Shape=RoundedRectangle|*
%AMROUNDEDRECTD45*
21,1,1.45000,0.57500,0,0,0.0*
21,1,0.87500,1.15000,0,0,0.0*
1,1,0.57500,0.43750,-0.28750*
1,1,0.57500,-0.43750,-0.28750*
1,1,0.57500,-0.43750,0.28750*
1,1,0.57500,0.43750,0.28750*
%
%ADD45ROUNDEDRECTD45*%
G04:AMPARAMS|DCode=46|XSize=0.94mm|YSize=1.02mm|CornerRadius=0.094mm|HoleSize=0mm|Usage=FLASHONLY|Rotation=180.000|XOffset=0mm|YOffset=0mm|HoleType=Round|Shape=RoundedRectangle|*
%AMROUNDEDRECTD46*
21,1,0.94000,0.83200,0,0,180.0*
21,1,0.75200,1.02000,0,0,180.0*
1,1,0.18800,-0.37600,0.41600*
1,1,0.18800,0.37600,0.41600*
1,1,0.18800,0.37600,-0.41600*
1,1,0.18800,-0.37600,-0.41600*
%
%ADD46ROUNDEDRECTD46*%
%ADD47R,0.80000X0.90000*%
%ADD48R,0.56566X0.54000*%
G04:AMPARAMS|DCode=49|XSize=0.94mm|YSize=1.02mm|CornerRadius=0.094mm|HoleSize=0mm|Usage=FLASHONLY|Rotation=270.000|XOffset=0mm|YOffset=0mm|HoleType=Round|Shape=RoundedRectangle|*
%AMROUNDEDRECTD49*
21,1,0.94000,0.83200,0,0,270.0*
21,1,0.75200,1.02000,0,0,270.0*
1,1,0.18800,-0.41600,-0.37600*
1,1,0.18800,-0.41600,0.37600*
1,1,0.18800,0.41600,0.37600*
1,1,0.18800,0.41600,-0.37600*
%
%ADD49ROUNDEDRECTD49*%
%ADD50R,2.30000X2.45000*%
G04:AMPARAMS|DCode=51|XSize=0.86mm|YSize=0.27mm|CornerRadius=0.03375mm|HoleSize=0mm|Usage=FLASHONLY|Rotation=90.000|XOffset=0mm|YOffset=0mm|HoleType=Round|Shape=RoundedRectangle|*
%AMROUNDEDRECTD51*
21,1,0.86000,0.20250,0,0,90.0*
21,1,0.79250,0.27000,0,0,90.0*
1,1,0.06750,0.10125,0.39625*
1,1,0.06750,0.10125,-0.39625*
1,1,0.06750,-0.10125,-0.39625*
1,1,0.06750,-0.10125,0.39625*
%
%ADD51ROUNDEDRECTD51*%
G04:AMPARAMS|DCode=52|XSize=0.86mm|YSize=0.27mm|CornerRadius=0.03375mm|HoleSize=0mm|Usage=FLASHONLY|Rotation=0.000|XOffset=0mm|YOffset=0mm|HoleType=Round|Shape=RoundedRectangle|*
%AMROUNDEDRECTD52*
21,1,0.86000,0.20250,0,0,0.0*
21,1,0.79250,0.27000,0,0,0.0*
1,1,0.06750,0.39625,-0.10125*
1,1,0.06750,-0.39625,-0.10125*
1,1,0.06750,-0.39625,0.10125*
1,1,0.06750,0.39625,0.10125*
%
%ADD52ROUNDEDRECTD52*%
%ADD53R,2.45000X2.45000*%
G04:AMPARAMS|DCode=54|XSize=1.24mm|YSize=0.55mm|CornerRadius=0.1375mm|HoleSize=0mm|Usage=FLASHONLY|Rotation=270.000|XOffset=0mm|YOffset=0mm|HoleType=Round|Shape=RoundedRectangle|*
%AMROUNDEDRECTD54*
21,1,1.24000,0.27500,0,0,270.0*
21,1,0.96500,0.55000,0,0,270.0*
1,1,0.27500,-0.13750,-0.48250*
1,1,0.27500,-0.13750,0.48250*
1,1,0.27500,0.13750,0.48250*
1,1,0.27500,0.13750,-0.48250*
%
%ADD54ROUNDEDRECTD54*%
G04:AMPARAMS|DCode=55|XSize=0.71mm|YSize=0.53mm|CornerRadius=0.06625mm|HoleSize=0mm|Usage=FLASHONLY|Rotation=0.000|XOffset=0mm|YOffset=0mm|HoleType=Round|Shape=RoundedRectangle|*
%AMROUNDEDRECTD55*
21,1,0.71000,0.39750,0,0,0.0*
21,1,0.57750,0.53000,0,0,0.0*
1,1,0.13250,0.28875,-0.19875*
1,1,0.13250,-0.28875,-0.19875*
1,1,0.13250,-0.28875,0.19875*
1,1,0.13250,0.28875,0.19875*
%
%ADD55ROUNDEDRECTD55*%
G04:AMPARAMS|DCode=56|XSize=1.12mm|YSize=0.27mm|CornerRadius=0.03375mm|HoleSize=0mm|Usage=FLASHONLY|Rotation=90.000|XOffset=0mm|YOffset=0mm|HoleType=Round|Shape=RoundedRectangle|*
%AMROUNDEDRECTD56*
21,1,1.12000,0.20250,0,0,90.0*
21,1,1.05250,0.27000,0,0,90.0*
1,1,0.06750,0.10125,0.52625*
1,1,0.06750,0.10125,-0.52625*
1,1,0.06750,-0.10125,-0.52625*
1,1,0.06750,-0.10125,0.52625*
%
%ADD56ROUNDEDRECTD56*%
%ADD57R,0.60000X1.30000*%
%ADD58R,0.80000X1.30000*%
%ADD59R,1.00000X2.10000*%
%ADD60R,2.20000X1.05000*%
%ADD61R,1.05000X1.00000*%
%TA.AperFunction,BGAPad,CuDef*%
%ADD62R,3.09999X3.09999*%
%TA.AperFunction,SMDPad,CuDef*%
%ADD63R,0.70000X2.00000*%
%ADD64R,2.00000X0.70000*%
%ADD65R,1.60000X1.10000*%
%ADD66R,1.10000X1.60000*%
%ADD67R,2.00000X0.70000*%
%ADD68R,2.45000X2.30000*%
%ADD69R,0.86401X0.80000*%
%ADD70R,1.20000X0.60000*%
%ADD71R,0.30480X0.87630*%
%ADD72R,1.00000X1.80000*%
G04:AMPARAMS|DCode=73|XSize=0.94mm|YSize=1.02mm|CornerRadius=0.094mm|HoleSize=0mm|Usage=FLASHONLY|Rotation=45.000|XOffset=0mm|YOffset=0mm|HoleType=Round|Shape=RoundedRectangle|*
%AMROUNDEDRECTD73*
21,1,0.94000,0.83200,0,0,45.0*
21,1,0.75200,1.02000,0,0,45.0*
1,1,0.18800,0.56003,-0.02829*
1,1,0.18800,0.02829,-0.56003*
1,1,0.18800,-0.56003,0.02829*
1,1,0.18800,-0.02829,0.56003*
%
%ADD73ROUNDEDRECTD73*%
G04:AMPARAMS|DCode=74|XSize=0.94mm|YSize=1.02mm|CornerRadius=0.094mm|HoleSize=0mm|Usage=FLASHONLY|Rotation=315.000|XOffset=0mm|YOffset=0mm|HoleType=Round|Shape=RoundedRectangle|*
%AMROUNDEDRECTD74*
21,1,0.94000,0.83200,0,0,315.0*
21,1,0.75200,1.02000,0,0,315.0*
1,1,0.18800,-0.02829,-0.56003*
1,1,0.18800,-0.56003,-0.02829*
1,1,0.18800,0.02829,0.56003*
1,1,0.18800,0.56003,0.02829*
%
%ADD74ROUNDEDRECTD74*%
G04:AMPARAMS|DCode=75|XSize=0.94mm|YSize=1.77mm|CornerRadius=0.0658mm|HoleSize=0mm|Usage=FLASHONLY|Rotation=90.000|XOffset=0mm|YOffset=0mm|HoleType=Round|Shape=RoundedRectangle|*
%AMROUNDEDRECTD75*
21,1,0.94000,1.63840,0,0,90.0*
21,1,0.80840,1.77000,0,0,90.0*
1,1,0.13160,0.81920,0.40420*
1,1,0.13160,0.81920,-0.40420*
1,1,0.13160,-0.81920,-0.40420*
1,1,0.13160,-0.81920,0.40420*
%
%ADD75ROUNDEDRECTD75*%
G04:AMPARAMS|DCode=76|XSize=1.09mm|YSize=1.77mm|CornerRadius=0.0763mm|HoleSize=0mm|Usage=FLASHONLY|Rotation=90.000|XOffset=0mm|YOffset=0mm|HoleType=Round|Shape=RoundedRectangle|*
%AMROUNDEDRECTD76*
21,1,1.09000,1.61740,0,0,90.0*
21,1,0.93740,1.77000,0,0,90.0*
1,1,0.15260,0.80870,0.46870*
1,1,0.15260,0.80870,-0.46870*
1,1,0.15260,-0.80870,-0.46870*
1,1,0.15260,-0.80870,0.46870*
%
%ADD76ROUNDEDRECTD76*%
%ADD77O,0.84699X0.36401*%
%ADD78R,2.19240X2.04749*%
G04:AMPARAMS|DCode=79|XSize=1.4mm|YSize=1.2mm|CornerRadius=0mm|HoleSize=0mm|Usage=FLASHONLY|Rotation=225.000|XOffset=0mm|YOffset=0mm|HoleType=Round|Shape=Rectangle|*
%AMROTATEDRECTD79*
4,1,4,0.07071,0.91924,0.91924,0.07071,-0.07071,-0.91924,-0.91924,-0.07071,0.07071,0.91924,0.0*
%
%ADD79ROTATEDRECTD79*%

%ADD80R,3.25001X3.25001*%
%ADD81O,0.36401X0.84699*%
%TA.AperFunction,ComponentPad*%
%ADD85O,1.20000X2.00000*%
%ADD86O,1.20000X1.80000*%
%ADD87C,0.70002*%
%ADD88C,3.30002*%
%ADD89C,2.50000*%
%ADD90C,2.49936*%
%ADD91C,1.99898*%
%TA.AperFunction,ViaPad*%
%ADD92C,4.00000*%
%TA.AperFunction,ComponentPad*%
%ADD93R,2.00000X1.70000*%
%ADD94O,2.00000X1.70000*%
%ADD95C,1.00000*%
%ADD96C,1.52400*%
%ADD97O,1.52400X2.00000*%
%ADD98C,1.50800*%
%ADD99R,1.50800X1.50800*%
%ADD100C,1.70000*%
%ADD101R,1.70000X1.70000*%
%ADD102C,1.50000*%
%ADD103R,1.50000X1.50000*%
%ADD104C,0.90002*%
%ADD105C,1.40800*%
%ADD106O,2.00000X1.50000*%
D11*
X6147260Y3422540D02*
D03*
Y3327540D02*
D03*
Y3232540D02*
D03*
X6398260D02*
D03*
Y3327540D02*
D03*
Y3422540D02*
D03*
X6737170Y7043420D02*
D03*
Y7138420D02*
D03*
Y7233420D02*
D03*
X6988170D02*
D03*
Y7138420D02*
D03*
Y7043420D02*
D03*
D12*
X5921190Y3360372D02*
D03*
Y3273809D02*
D03*
X7143220Y7208932D02*
D03*
Y7122369D02*
D03*
X3973644Y3208098D02*
D03*
Y3294661D02*
D03*
X3771764Y3294759D02*
D03*
Y3208196D02*
D03*
X3873364Y3294759D02*
D03*
Y3208196D02*
D03*
X3569124Y3294201D02*
D03*
Y3207638D02*
D03*
X3670284Y3208378D02*
D03*
Y3294941D02*
D03*
X3370304Y3208418D02*
D03*
Y3294981D02*
D03*
X3470444Y3206988D02*
D03*
Y3293551D02*
D03*
X9875980Y7409420D02*
D03*
Y7322857D02*
D03*
X10073310Y7322178D02*
D03*
Y7408741D02*
D03*
X10177650Y7322380D02*
D03*
Y7408943D02*
D03*
X9975180Y7322518D02*
D03*
Y7409081D02*
D03*
X10073810Y7688282D02*
D03*
Y7601718D02*
D03*
X10187940Y7688282D02*
D03*
Y7601718D02*
D03*
X9961520Y7688282D02*
D03*
Y7601718D02*
D03*
X9585010Y7959240D02*
D03*
X9111060Y7951480D02*
D03*
X9585010Y8045803D02*
D03*
X9111060Y8038043D02*
D03*
D13*
X6586580Y3263770D02*
D03*
Y3403750D02*
D03*
X4432120Y6754020D02*
D03*
Y6614040D02*
D03*
X4405490Y6124770D02*
D03*
Y6264749D02*
D03*
X6160130Y7848700D02*
D03*
X6160130Y7988680D02*
D03*
X5501431Y7851063D02*
D03*
Y7991043D02*
D03*
X4620920Y5591870D02*
D03*
Y5451891D02*
D03*
X6561180Y7046100D02*
D03*
Y7186080D02*
D03*
X4319540Y7303600D02*
D03*
Y7443579D02*
D03*
X5594884Y4985009D02*
D03*
Y5124989D02*
D03*
X3354040Y5632779D02*
D03*
Y5492800D02*
D03*
X4261554Y3331179D02*
D03*
Y3191199D02*
D03*
X4118954Y3190599D02*
D03*
Y3330579D02*
D03*
X3497354Y4182280D02*
D03*
Y4322259D02*
D03*
X3791604Y4183590D02*
D03*
Y4323569D02*
D03*
X3934144Y4182280D02*
D03*
Y4322259D02*
D03*
X4076014Y4184910D02*
D03*
Y4324889D02*
D03*
X3648414Y4182930D02*
D03*
Y4322909D02*
D03*
X7596990Y3758910D02*
D03*
Y3618930D02*
D03*
X7743120Y7051947D02*
D03*
Y7191926D02*
D03*
X12489990Y8327407D02*
D03*
Y8187428D02*
D03*
X12723945Y5089400D02*
D03*
Y4949420D02*
D03*
X6839709Y3741080D02*
D03*
Y3601101D02*
D03*
X7918430Y3753880D02*
D03*
Y3613901D02*
D03*
X6803930Y5462710D02*
D03*
Y5602690D02*
D03*
X9334150Y2786100D02*
D03*
Y2646120D02*
D03*
X9192970Y2786890D02*
D03*
Y2646910D02*
D03*
X8215640Y2768600D02*
D03*
Y2628620D02*
D03*
X8073180Y2769180D02*
D03*
Y2629200D02*
D03*
X6659180Y2750600D02*
D03*
Y2610621D02*
D03*
X6806720Y2751380D02*
D03*
Y2611401D02*
D03*
X5517060Y2616950D02*
D03*
Y2756930D02*
D03*
X5377360Y2616950D02*
D03*
Y2756930D02*
D03*
D14*
X9693529Y8388260D02*
D03*
X9053531D02*
D03*
X9613529D02*
D03*
X9133530D02*
D03*
D15*
X9498531D02*
D03*
X9198532D02*
D03*
X9448531D02*
D03*
X9348531D02*
D03*
X9398531D02*
D03*
X9298531D02*
D03*
X9548531D02*
D03*
X9248531D02*
D03*
D16*
X3505323Y6166710D02*
D03*
X3915330D02*
D03*
X3543343Y5546180D02*
D03*
X3953350D02*
D03*
D17*
X3509190Y6753781D02*
D03*
Y6603133D02*
D03*
X4106590D02*
D03*
Y6753781D02*
D03*
X4265960Y6603133D02*
D03*
Y6753781D02*
D03*
X10870800Y3050126D02*
D03*
X10196400Y3058956D02*
D03*
X10865870Y1662136D02*
D03*
X10193200D02*
D03*
Y1812784D02*
D03*
X10865870D02*
D03*
X10870800Y3200774D02*
D03*
X10196400Y3209604D02*
D03*
X4803630Y7440104D02*
D03*
Y7289456D02*
D03*
X4127230Y7449883D02*
D03*
Y7299236D02*
D03*
X8271470Y7194660D02*
D03*
Y7044013D02*
D03*
X7941270D02*
D03*
Y7194660D02*
D03*
X8106370Y7044013D02*
D03*
Y7194660D02*
D03*
X7297180Y7047296D02*
D03*
Y7197944D02*
D03*
X7578020Y7046613D02*
D03*
Y7197260D02*
D03*
X7438310Y7047296D02*
D03*
Y7197944D02*
D03*
X12153060Y8187666D02*
D03*
Y8338314D02*
D03*
X12825540Y6784658D02*
D03*
Y6634010D02*
D03*
D18*
X3684530Y6570200D02*
D03*
Y6760200D02*
D03*
X3934530D02*
D03*
Y6665200D02*
D03*
Y6570200D02*
D03*
D19*
X3316510Y6571310D02*
D03*
Y6771315D02*
D03*
D20*
X4201100Y6301550D02*
D03*
Y5996230D02*
D03*
D21*
X4609460Y6288161D02*
D03*
Y5969660D02*
D03*
D22*
X4767840Y4214603D02*
D03*
Y3804596D02*
D03*
D23*
X4151570Y5590929D02*
D03*
Y5254930D02*
D03*
D24*
X12449437Y2496390D02*
D03*
X12298789D02*
D03*
X11859803Y2343980D02*
D03*
X12010450D02*
D03*
X12297913Y2343990D02*
D03*
X11857207Y2497190D02*
D03*
X12448560Y2343990D02*
D03*
X12007854Y2497190D02*
D03*
X3191090Y4980800D02*
D03*
X3341738D02*
D03*
X12494926Y7573290D02*
D03*
X12645574D02*
D03*
X12494926Y7403829D02*
D03*
X12645574D02*
D03*
D25*
X12357490Y1921750D02*
D03*
X12262490Y2171750D02*
D03*
X12452490D02*
D03*
X11915951Y1921750D02*
D03*
X11820950Y2171750D02*
D03*
X12010951D02*
D03*
D26*
X3731250Y4965510D02*
D03*
D27*
X3831250Y4825510D02*
D03*
X3781250D02*
D03*
X3731250D02*
D03*
X3681250D02*
D03*
X3631250D02*
D03*
Y5105510D02*
D03*
X3681250D02*
D03*
X3731250D02*
D03*
X3781250D02*
D03*
X3831250D02*
D03*
D28*
X6972120Y5980070D02*
D03*
X7022120Y6220070D02*
D03*
X7072120Y5980070D02*
D03*
X7122120Y6220070D02*
D03*
X7172120Y5980070D02*
D03*
X7222120Y6220070D02*
D03*
X7272120Y5980070D02*
D03*
X7322120Y6220070D02*
D03*
X7372120Y5980070D02*
D03*
X7422120Y6220070D02*
D03*
X7472120Y5980070D02*
D03*
X7522120Y6220070D02*
D03*
X7572120Y5980070D02*
D03*
X7622120Y6220070D02*
D03*
X7672120Y5980070D02*
D03*
X7722120Y6220070D02*
D03*
X7772120Y5980070D02*
D03*
X7822120Y6220070D02*
D03*
D29*
X6802120Y6100070D02*
D03*
X7992120Y6100070D02*
D03*
D30*
X5282460Y7860140D02*
D03*
X4946460D02*
D03*
D31*
X5678632Y7827897D02*
D03*
X5678632Y8017889D02*
D03*
X5938651Y8017889D02*
D03*
Y7922893D02*
D03*
Y7827897D02*
D03*
D32*
X8107221Y7529332D02*
D03*
X7337223D02*
D03*
X7447222D02*
D03*
X7557222D02*
D03*
X7997221D02*
D03*
X7777222D02*
D03*
X8217221D02*
D03*
X7667222D02*
D03*
X7887221D02*
D03*
D33*
X6877223Y7579334D02*
D03*
D34*
X6787221Y8539332D02*
D03*
X8337218D02*
D03*
D35*
X8336918Y7579332D02*
D03*
D36*
X7066060Y5159740D02*
D03*
X7116059D02*
D03*
X7216059D02*
D03*
X7266059D02*
D03*
X7316060D02*
D03*
X7366059D02*
D03*
X7416060D02*
D03*
X7466059D02*
D03*
X7516059D02*
D03*
X7566060D02*
D03*
X7616059D02*
D03*
X7666060D02*
D03*
X7716059D02*
D03*
X6966059D02*
D03*
X7166060D02*
D03*
X7016059D02*
D03*
D37*
X7914859Y4610940D02*
D03*
Y4560940D02*
D03*
Y4510940D02*
D03*
Y4460940D02*
D03*
Y4410940D02*
D03*
Y4360940D02*
D03*
Y4310940D02*
D03*
Y4260940D02*
D03*
Y4210940D02*
D03*
X6767260Y4460940D02*
D03*
Y4510940D02*
D03*
Y4560940D02*
D03*
Y4610940D02*
D03*
Y4910940D02*
D03*
X7914859Y4960940D02*
D03*
X6767260Y4360940D02*
D03*
X7914859Y4660940D02*
D03*
Y4710940D02*
D03*
X6767260Y4810940D02*
D03*
Y4860940D02*
D03*
X7914859D02*
D03*
Y4760940D02*
D03*
X6767260Y4660940D02*
D03*
Y4210940D02*
D03*
Y4260940D02*
D03*
Y4310940D02*
D03*
Y4710940D02*
D03*
Y4760940D02*
D03*
X7914859Y4910940D02*
D03*
X6767260Y4410940D02*
D03*
X7914859Y4810940D02*
D03*
X6767260Y4960940D02*
D03*
D38*
X7566060Y4012140D02*
D03*
X7516059D02*
D03*
X7466059D02*
D03*
X7416060D02*
D03*
X7366059D02*
D03*
X7316060D02*
D03*
X7716059D02*
D03*
X7066060D02*
D03*
X7616059D02*
D03*
X7116059D02*
D03*
X7166060D02*
D03*
X6966059D02*
D03*
X7266059D02*
D03*
X7216059D02*
D03*
X7666060D02*
D03*
X7016059D02*
D03*
D39*
X6491710Y5428461D02*
D03*
Y5662979D02*
D03*
D40*
X4561580Y7189460D02*
D03*
Y7529460D02*
D03*
D41*
X4927880Y5525080D02*
D03*
D42*
X5028210Y5600080D02*
D03*
Y5550080D02*
D03*
Y5500080D02*
D03*
Y5450080D02*
D03*
X4827550D02*
D03*
Y5500080D02*
D03*
Y5550080D02*
D03*
Y5600080D02*
D03*
D43*
X3647400Y2694338D02*
D03*
Y1794162D02*
D03*
D44*
X5383524Y4776489D02*
D03*
X5478524D02*
D03*
X5573524D02*
D03*
Y4525489D02*
D03*
X5478524D02*
D03*
X5383524D02*
D03*
X5388304Y3896639D02*
D03*
X5483304D02*
D03*
X5578304D02*
D03*
Y4147639D02*
D03*
X5483304D02*
D03*
X5388304D02*
D03*
X9366250Y8108300D02*
D03*
X9461250Y7857300D02*
D03*
Y8108300D02*
D03*
X9271250Y7857300D02*
D03*
Y8108300D02*
D03*
X9366250Y7857300D02*
D03*
D45*
X5382494Y5161649D02*
D03*
Y4981649D02*
D03*
D46*
X4135214Y5097299D02*
D03*
X4293214D02*
D03*
X4136894Y4854260D02*
D03*
X4294894D02*
D03*
X3343804Y5140999D02*
D03*
X3185804D02*
D03*
X6448060Y4277410D02*
D03*
X6290060D02*
D03*
X8187449Y5008230D02*
D03*
X8345450D02*
D03*
D47*
X3335644Y4802989D02*
D03*
X3195664D02*
D03*
X8640561Y4600200D02*
D03*
X8780540D02*
D03*
X6441929Y4105850D02*
D03*
X6301950D02*
D03*
X8196310Y5174080D02*
D03*
X8336289D02*
D03*
X4672780Y2712890D02*
D03*
X4532801D02*
D03*
X6772040Y1701310D02*
D03*
X6912020D02*
D03*
X9295903Y1734153D02*
D03*
X9435882D02*
D03*
X8183136Y1712785D02*
D03*
X8323115D02*
D03*
X5624362Y1670153D02*
D03*
X5484383D02*
D03*
D48*
X5573832Y4349020D02*
D03*
X5487268D02*
D03*
X3282562Y3595690D02*
D03*
X3195998D02*
D03*
X3281766Y3793439D02*
D03*
X3195203D02*
D03*
X3282313Y3695910D02*
D03*
X3195750D02*
D03*
X3194853Y3394889D02*
D03*
X3281416D02*
D03*
X3195333Y3495339D02*
D03*
X3281896D02*
D03*
D49*
X5214544Y3951709D02*
D03*
Y4109710D02*
D03*
X3349564Y4332919D02*
D03*
Y4174919D02*
D03*
X5993140Y7373850D02*
D03*
Y7215850D02*
D03*
X5745090Y7366320D02*
D03*
Y7208320D02*
D03*
X12316960Y8193959D02*
D03*
Y8351959D02*
D03*
X7011119Y3746360D02*
D03*
Y3588360D02*
D03*
X7754700Y3761870D02*
D03*
Y3603870D02*
D03*
X6635010Y5455930D02*
D03*
Y5613930D02*
D03*
X6344020Y5466280D02*
D03*
Y5624280D02*
D03*
X6083270Y5464280D02*
D03*
Y5622280D02*
D03*
D50*
X4561994Y3345379D02*
D03*
X5181994D02*
D03*
D51*
X3569034Y3570769D02*
D03*
X3619034D02*
D03*
X3669034D02*
D03*
X3719034D02*
D03*
X3769034D02*
D03*
X3819034D02*
D03*
Y3957769D02*
D03*
X3769034D02*
D03*
X3719034D02*
D03*
X3669034D02*
D03*
X3619034D02*
D03*
X3569034D02*
D03*
D52*
X3500534Y3889269D02*
D03*
Y3839269D02*
D03*
Y3789269D02*
D03*
Y3739269D02*
D03*
Y3689269D02*
D03*
Y3639269D02*
D03*
X3887534D02*
D03*
Y3689269D02*
D03*
Y3739269D02*
D03*
Y3789269D02*
D03*
Y3839269D02*
D03*
Y3889269D02*
D03*
D53*
X3694034Y3764269D02*
D03*
D54*
X4433880Y8063310D02*
D03*
X4338880D02*
D03*
X4243880D02*
D03*
Y7831310D02*
D03*
X4338880D02*
D03*
X4433880D02*
D03*
D55*
X12070050Y8834900D02*
D03*
Y8734900D02*
D03*
Y8634900D02*
D03*
X12267050D02*
D03*
Y8734900D02*
D03*
Y8834900D02*
D03*
D56*
X12640380Y5780510D02*
D03*
X12690380D02*
D03*
X12740380D02*
D03*
X12790380D02*
D03*
Y5499510D02*
D03*
X12740380D02*
D03*
X12690380D02*
D03*
X12640380D02*
D03*
D57*
X10749999Y7500317D02*
D03*
X10845000D02*
D03*
D58*
X10972000D02*
D03*
X11099000D02*
D03*
X11226000D02*
D03*
X11353000D02*
D03*
X11480000D02*
D03*
D59*
X11647000Y7648317D02*
D03*
X10347000D02*
D03*
X11647000Y8848318D02*
D03*
X10347000D02*
D03*
D60*
X12750780Y3753510D02*
D03*
Y3458510D02*
D03*
X12769310Y6417190D02*
D03*
Y6122190D02*
D03*
D61*
X12598280Y3606010D02*
D03*
X12616810Y6269690D02*
D03*
D62*
X10241521Y5619858D02*
D03*
Y4819860D02*
D03*
X11041520Y5219859D02*
D03*
X10641521D02*
D03*
Y5619858D02*
D03*
X11041520D02*
D03*
X11441519D02*
D03*
Y5219859D02*
D03*
Y4819860D02*
D03*
X11041520D02*
D03*
X10641521D02*
D03*
X10241521Y5219859D02*
D03*
Y6019857D02*
D03*
X10641521D02*
D03*
X11041520D02*
D03*
X11441519D02*
D03*
X10241521Y5619858D02*
D03*
Y4819860D02*
D03*
X11041520Y5219859D02*
D03*
X10641521D02*
D03*
Y5619858D02*
D03*
X11041520D02*
D03*
X11441519D02*
D03*
Y5219859D02*
D03*
Y4819860D02*
D03*
X11041520D02*
D03*
X10641521D02*
D03*
X10241521Y5219859D02*
D03*
Y6019857D02*
D03*
X10641521D02*
D03*
X11041520D02*
D03*
X11441519D02*
D03*
D63*
X9790112Y3924865D02*
D03*
X9890112D02*
D03*
X9990112D02*
D03*
X10090112D02*
D03*
X10190112D02*
D03*
X10290111D02*
D03*
X10390111D02*
D03*
X10490111D02*
D03*
X10590111D02*
D03*
X10690111D02*
D03*
X10790111D02*
D03*
X10890110D02*
D03*
X10990110D02*
D03*
X11090135D02*
D03*
X11190135D02*
D03*
X11290109D02*
D03*
X11390109D02*
D03*
X11490109D02*
D03*
X11590109D02*
D03*
X11690109D02*
D03*
X11790108D02*
D03*
X11890108D02*
D03*
X9790112Y6914852D02*
D03*
X9890112D02*
D03*
X9990112D02*
D03*
X10090112D02*
D03*
X10190112D02*
D03*
X10290111D02*
D03*
X10390111D02*
D03*
X10490111D02*
D03*
X10590111D02*
D03*
X10690111D02*
D03*
X10790111D02*
D03*
X10890110D02*
D03*
X10990110D02*
D03*
X11090135D02*
D03*
X11190135D02*
D03*
X11290109D02*
D03*
X11490109D02*
D03*
X11390109D02*
D03*
X11590109D02*
D03*
X11690109D02*
D03*
X11790108D02*
D03*
X9790112Y3924865D02*
D03*
X9890112D02*
D03*
X9990112D02*
D03*
X10090112D02*
D03*
X10190112D02*
D03*
X10290111D02*
D03*
X10390111D02*
D03*
X10490111D02*
D03*
X10590111D02*
D03*
X10690111D02*
D03*
X10790111D02*
D03*
X10890110D02*
D03*
X10990110D02*
D03*
X11090135D02*
D03*
X11190135D02*
D03*
X11290109D02*
D03*
X11390109D02*
D03*
X11490109D02*
D03*
X11590109D02*
D03*
X11690109D02*
D03*
X11790108D02*
D03*
X11890108D02*
D03*
X9790112Y6914852D02*
D03*
X9890112D02*
D03*
X9990112D02*
D03*
X10090112D02*
D03*
X10190112D02*
D03*
X10290111D02*
D03*
X10390111D02*
D03*
X10490111D02*
D03*
X10590111D02*
D03*
X10690111D02*
D03*
X10790111D02*
D03*
X10890110D02*
D03*
X10990110D02*
D03*
X11090135D02*
D03*
X11190135D02*
D03*
X11290109D02*
D03*
X11490109D02*
D03*
X11390109D02*
D03*
X11590109D02*
D03*
X11690109D02*
D03*
X11790108D02*
D03*
D64*
X12336513Y4368451D02*
D03*
Y4468451D02*
D03*
Y4568451D02*
D03*
Y4668450D02*
D03*
Y4768450D02*
D03*
Y4868450D02*
D03*
Y4968450D02*
D03*
Y5068450D02*
D03*
Y5168449D02*
D03*
Y5268449D02*
D03*
Y5368449D02*
D03*
Y5468449D02*
D03*
Y5568449D02*
D03*
Y5668474D02*
D03*
Y5768474D02*
D03*
Y5868448D02*
D03*
Y5968448D02*
D03*
Y6068448D02*
D03*
Y6168447D02*
D03*
Y6268447D02*
D03*
Y6368447D02*
D03*
Y6468447D02*
D03*
Y4368451D02*
D03*
Y4468451D02*
D03*
Y4568451D02*
D03*
Y4668450D02*
D03*
Y4768450D02*
D03*
Y4868450D02*
D03*
Y4968450D02*
D03*
Y5068450D02*
D03*
Y5168449D02*
D03*
Y5268449D02*
D03*
Y5368449D02*
D03*
Y5468449D02*
D03*
Y5568449D02*
D03*
Y5668474D02*
D03*
Y5768474D02*
D03*
Y5868448D02*
D03*
Y5968448D02*
D03*
Y6068448D02*
D03*
Y6168447D02*
D03*
Y6268447D02*
D03*
Y6368447D02*
D03*
Y6468447D02*
D03*
D65*
X12041518Y4788465D02*
D03*
Y4968450D02*
D03*
Y5148460D02*
D03*
Y5328469D02*
D03*
Y5508454D02*
D03*
Y5688464D02*
D03*
Y5868448D02*
D03*
Y6048458D02*
D03*
X9641523D02*
D03*
Y5868448D02*
D03*
Y5688464D02*
D03*
Y5508454D02*
D03*
Y5328469D02*
D03*
Y5148460D02*
D03*
Y4968450D02*
D03*
Y4788465D02*
D03*
X12041518D02*
D03*
Y4968450D02*
D03*
Y5148460D02*
D03*
Y5328469D02*
D03*
Y5508454D02*
D03*
Y5688464D02*
D03*
Y5868448D02*
D03*
Y6048458D02*
D03*
X9641523D02*
D03*
Y5868448D02*
D03*
Y5688464D02*
D03*
Y5508454D02*
D03*
Y5328469D02*
D03*
Y5148460D02*
D03*
Y4968450D02*
D03*
Y4788465D02*
D03*
D66*
X11470119Y6619856D02*
D03*
X11290109D02*
D03*
X11110125D02*
D03*
X10930115D02*
D03*
X10750131D02*
D03*
X10570121D02*
D03*
X10390111D02*
D03*
X10210127D02*
D03*
Y4219861D02*
D03*
X10390111D02*
D03*
X10570121D02*
D03*
X10750131D02*
D03*
X10930115D02*
D03*
X11110125D02*
D03*
X11290109D02*
D03*
X11470119D02*
D03*
Y6619856D02*
D03*
X11290109D02*
D03*
X11110125D02*
D03*
X10930115D02*
D03*
X10750131D02*
D03*
X10570121D02*
D03*
X10390111D02*
D03*
X10210127D02*
D03*
Y4219861D02*
D03*
X10390111D02*
D03*
X10570121D02*
D03*
X10750131D02*
D03*
X10930115D02*
D03*
X11110125D02*
D03*
X11290109D02*
D03*
X11470119D02*
D03*
D67*
X9346527Y4368451D02*
D03*
Y4468451D02*
D03*
Y4568451D02*
D03*
Y4668450D02*
D03*
Y4768450D02*
D03*
Y4868450D02*
D03*
Y4968450D02*
D03*
Y5068450D02*
D03*
Y5168449D02*
D03*
Y5268449D02*
D03*
Y5368449D02*
D03*
Y5568449D02*
D03*
Y5468449D02*
D03*
Y5668474D02*
D03*
Y5768474D02*
D03*
Y5868448D02*
D03*
Y5968448D02*
D03*
Y6068448D02*
D03*
Y6168447D02*
D03*
Y6268447D02*
D03*
Y6368447D02*
D03*
Y6468447D02*
D03*
Y4368451D02*
D03*
Y4468451D02*
D03*
Y4568451D02*
D03*
Y4668450D02*
D03*
Y4768450D02*
D03*
Y4868450D02*
D03*
Y4968450D02*
D03*
Y5068450D02*
D03*
Y5168449D02*
D03*
Y5268449D02*
D03*
Y5368449D02*
D03*
Y5568449D02*
D03*
Y5468449D02*
D03*
Y5668474D02*
D03*
Y5768474D02*
D03*
Y5868448D02*
D03*
Y5968448D02*
D03*
Y6068448D02*
D03*
Y6168447D02*
D03*
Y6268447D02*
D03*
Y6368447D02*
D03*
Y6468447D02*
D03*
D68*
X8852480Y4831930D02*
D03*
Y5451930D02*
D03*
X12747830Y4092900D02*
D03*
Y4712900D02*
D03*
D69*
X12669940Y6780900D02*
D03*
Y6640920D02*
D03*
D70*
X12333710Y7390930D02*
D03*
Y7580930D02*
D03*
X12083710Y7485930D02*
D03*
D71*
X10000840Y8024145D02*
D03*
X10065840D02*
D03*
X10130840D02*
D03*
Y8246395D02*
D03*
X10000840D02*
D03*
D72*
X6092711Y5244172D02*
D03*
X6342711D02*
D03*
D73*
X6128234Y5015504D02*
D03*
X6016511Y4903781D02*
D03*
D74*
X6079484Y4408326D02*
D03*
X5967761Y4520049D02*
D03*
D75*
X6286453Y2337423D02*
D03*
X7726970Y2339880D02*
D03*
X4995572Y2344853D02*
D03*
X8836790Y2366460D02*
D03*
D76*
X6286453Y2036923D02*
D03*
X7726970Y2039380D02*
D03*
X4995572Y2044353D02*
D03*
X8836790Y2065960D02*
D03*
D77*
X9116043Y2191353D02*
D03*
Y2126352D02*
D03*
Y2321352D02*
D03*
Y2256354D02*
D03*
X5291823Y2165453D02*
D03*
Y2100451D02*
D03*
Y2295452D02*
D03*
Y2230454D02*
D03*
X7990576Y2169985D02*
D03*
Y2104984D02*
D03*
Y2299985D02*
D03*
Y2234986D02*
D03*
X6570003Y2158023D02*
D03*
Y2093022D02*
D03*
Y2288023D02*
D03*
Y2223024D02*
D03*
X7069702Y2288023D02*
D03*
Y2223024D02*
D03*
Y2158023D02*
D03*
Y2093022D02*
D03*
Y2028023D02*
D03*
X6570003D02*
D03*
X5291823Y2035453D02*
D03*
X5791522D02*
D03*
Y2100451D02*
D03*
Y2165453D02*
D03*
Y2230454D02*
D03*
Y2295452D02*
D03*
X8490275Y2299985D02*
D03*
Y2234986D02*
D03*
Y2169985D02*
D03*
Y2104984D02*
D03*
Y2039986D02*
D03*
X7990576D02*
D03*
X9615742Y2321352D02*
D03*
Y2256354D02*
D03*
Y2191353D02*
D03*
Y2126352D02*
D03*
Y2061353D02*
D03*
X9116043D02*
D03*
D78*
X4459290Y1973980D02*
D03*
Y2446115D02*
D03*
D79*
X6086759Y4696830D02*
D03*
X6366053Y4728649D02*
D03*
X6242319Y4852390D02*
D03*
X6210504Y4573093D02*
D03*
D80*
X6819853Y2158023D02*
D03*
X5541672Y2165453D02*
D03*
X8240425Y2169985D02*
D03*
X9365893Y2191353D02*
D03*
D81*
X6689853Y2407873D02*
D03*
X6754851D02*
D03*
X6819853D02*
D03*
X6884854D02*
D03*
X6949852D02*
D03*
Y1908173D02*
D03*
X6884854D02*
D03*
X6819853D02*
D03*
X6754851D02*
D03*
X6689853D02*
D03*
X5411673Y1915603D02*
D03*
X5476671D02*
D03*
X5541672D02*
D03*
X5606674D02*
D03*
X5671672D02*
D03*
Y2415302D02*
D03*
X5606674D02*
D03*
X5541672D02*
D03*
X5476671D02*
D03*
X5411673D02*
D03*
X8110426Y2419835D02*
D03*
X8175424D02*
D03*
X8240425D02*
D03*
X8305427D02*
D03*
X8370425D02*
D03*
Y1920136D02*
D03*
X8305427D02*
D03*
X8240425D02*
D03*
X8175424D02*
D03*
X8110426D02*
D03*
X9235893Y2441202D02*
D03*
X9300891D02*
D03*
X9365893D02*
D03*
X9430894D02*
D03*
X9495892D02*
D03*
Y1941503D02*
D03*
X9430894D02*
D03*
X9365893D02*
D03*
X9300891D02*
D03*
X9235893D02*
D03*
D85*
X9806031Y8443257D02*
D03*
X8941029Y8443261D02*
D03*
D86*
X9806031Y8863260D02*
D03*
X8941029D02*
D03*
D87*
X9662526Y8495270D02*
D03*
X9084524D02*
D03*
D88*
X1321690Y8364060D02*
D03*
X2621713D02*
D03*
D89*
X1541707Y7944071D02*
D03*
X2401716D02*
D03*
X4697384Y8446950D02*
D03*
X3997386D02*
D03*
X1554413Y998280D02*
D03*
X919413D02*
D03*
X2189413D02*
D03*
X2824413D02*
D03*
X3459413D02*
D03*
X4094413D02*
D03*
X4909398D02*
D03*
X5544398D02*
D03*
X6179398D02*
D03*
X6814398D02*
D03*
X7449398D02*
D03*
X8084398D02*
D03*
X8899383D02*
D03*
X9534383D02*
D03*
X10169383D02*
D03*
X10804383D02*
D03*
X11439383D02*
D03*
X12074383D02*
D03*
D90*
X650810Y5328270D02*
D03*
X2555810D02*
D03*
X1285810Y2026270D02*
D03*
X2555810D02*
D03*
D91*
X1425850Y6562510D02*
D03*
X2177550Y6366310D02*
D03*
D92*
X300000Y300000D02*
D03*
X12700000Y300002D02*
D03*
X12699998Y8700002D02*
D03*
X299998Y8700000D02*
D03*
D93*
X8853710Y6897850D02*
D03*
D94*
Y7151850D02*
D03*
Y7659850D02*
D03*
Y7405850D02*
D03*
D95*
X8055227Y8579330D02*
D03*
X7257210D02*
D03*
D96*
X4572391Y8696963D02*
D03*
X4122379D02*
D03*
D97*
X10451930Y2067370D02*
D03*
Y2829370D02*
D03*
X11125420Y2074230D02*
D03*
Y2836230D02*
D03*
X10871420D02*
D03*
X10197930Y2829370D02*
D03*
Y2067370D02*
D03*
X10871420Y2074230D02*
D03*
D98*
X4852140Y5088510D02*
D03*
D99*
Y4838510D02*
D03*
D100*
X5250560Y6015340D02*
D03*
Y6269340D02*
D03*
X5504560Y6015340D02*
D03*
Y6269340D02*
D03*
X5758560Y6015340D02*
D03*
Y6269340D02*
D03*
X6012560Y6015340D02*
D03*
Y6269340D02*
D03*
X6266560Y6015340D02*
D03*
D101*
Y6269340D02*
D03*
D102*
X6131530Y6688710D02*
D03*
X5877530D02*
D03*
X5623530D02*
D03*
X5369530D02*
D03*
X5623530Y6942710D02*
D03*
X5877530D02*
D03*
X6131530D02*
D03*
D103*
X5369530D02*
D03*
D104*
X11496988Y8723327D02*
D03*
X10647002D02*
D03*
D105*
X8373390Y3516440D02*
D03*
X9023390D02*
D03*
D106*
X2382910Y7539820D02*
D03*
Y7039821D02*
D03*
%TF.MD5,adbbb359d0a7258342614c2d1ad6e987*%
M02*
