%TF.GenerationSoftware,Altium Limited,Altium Designer,22.5.1 (42)*%
G04 Layer_Color=32768*
%FSLAX45Y45*%
%MOMM*%
%TF.SameCoordinates,BCC7A4F8-9605-4868-ACEC-D28EECC8EA53*%
%TF.FilePolarity,Positive*%
%TF.FileFunction,Other,Mechanical_15*%
%TF.Part,Single*%
G01*
G75*
%TA.AperFunction,NonConductor*%
%ADD111C,0.25400*%
%ADD139C,0.15240*%
%ADD140C,0.10000*%
%ADD143C,0.40000*%
%ADD144C,0.15001*%
%ADD218C,0.25001*%
%ADD219C,1.40000*%
%ADD220C,0.05000*%
%ADD221C,0.05080*%
%ADD222C,0.00254*%
G36*
X3975373Y9404865D02*
X3978887Y9401343D01*
X3978884Y9398856D01*
X3978882Y9396368D01*
X3975360Y9392854D01*
X3970385Y9392860D01*
X3966871Y9396381D01*
X3966874Y9398869D01*
X3966876Y9401356D01*
X3970398Y9404870D01*
X3975373Y9404865D01*
D02*
G37*
G36*
X11514073Y8748985D02*
X11522524Y8740455D01*
X11527043Y8729330D01*
X11526987Y8723327D01*
Y8723326D01*
X11527043Y8717323D01*
X11522524Y8706198D01*
X11514073Y8697669D01*
X11502990Y8693048D01*
X11490983D01*
X11479900Y8697669D01*
X11471448Y8706198D01*
X11466930Y8717323D01*
X11466985Y8723326D01*
X11466930Y8729330D01*
X11471448Y8740455D01*
X11479900Y8748985D01*
X11490983Y8753605D01*
X11502990D01*
X11514073Y8748985D01*
D02*
G37*
G36*
X10664087D02*
X10672539Y8740455D01*
X10677057Y8729330D01*
X10677002Y8723327D01*
Y8723326D01*
X10677057Y8717323D01*
X10672539Y8706198D01*
X10664087Y8697669D01*
X10653004Y8693048D01*
X10640997D01*
X10629914Y8697669D01*
X10621463Y8706198D01*
X10616944Y8717323D01*
X10617000Y8723326D01*
X10616944Y8729330D01*
X10621463Y8740455D01*
X10629914Y8748985D01*
X10640997Y8753605D01*
X10653004D01*
X10664087Y8748985D01*
D02*
G37*
G36*
X4607392Y8681961D02*
X4537392D01*
Y8711961D01*
X4607392D01*
Y8681961D01*
D02*
G37*
G36*
X4157380D02*
X4087380D01*
Y8711961D01*
X4157380D01*
Y8681961D01*
D02*
G37*
G36*
X4717384Y8396950D02*
X4677384D01*
Y8496950D01*
X4717384D01*
Y8396950D01*
D02*
G37*
G36*
X4017386D02*
X3977386D01*
Y8496950D01*
X4017386D01*
Y8396950D01*
D02*
G37*
G36*
X5729642Y7997889D02*
X5668642D01*
X5668642Y8037889D01*
X5712642Y8037889D01*
Y8037889D01*
X5729642D01*
Y7997889D01*
D02*
G37*
G36*
X5948641D02*
X5904641D01*
X5887640Y7997889D01*
X5887641Y8037889D01*
X5948641D01*
X5948641Y7997889D01*
D02*
G37*
G36*
X10168940Y8227980D02*
X10201730D01*
Y8042560D01*
X10168940D01*
Y7965090D01*
X9962740D01*
Y8042560D01*
X9929950D01*
Y8227980D01*
X9962740D01*
Y8305450D01*
X10168940D01*
Y8227980D01*
D02*
G37*
G36*
X5904641Y7942893D02*
X5948641D01*
Y7902893D01*
X5904641Y7902893D01*
D01*
X5887640D01*
Y7942893D01*
X5904641Y7942893D01*
D02*
G37*
G36*
X3078898Y9319836D02*
X3082471Y9316263D01*
X3084404Y9311596D01*
Y9309070D01*
Y9109070D01*
Y9106544D01*
X3082471Y9101876D01*
X3078898Y9098303D01*
X3074230Y9096370D01*
X2909403D01*
Y8951770D01*
X3024230D01*
X3028898Y8949837D01*
X3032471Y8946264D01*
X3034404Y8941596D01*
Y8939070D01*
Y8789068D01*
Y8786542D01*
X3032471Y8781874D01*
X3028898Y8778301D01*
X3024230Y8776368D01*
X3004404D01*
Y7884333D01*
Y7873812D01*
X2996965Y7866372D01*
X2556866D01*
X2549427Y7873812D01*
Y7884333D01*
X2556866Y7891772D01*
X2979004D01*
Y8789068D01*
Y8791594D01*
X2980938Y8796262D01*
X2984510Y8799834D01*
X2989178Y8801768D01*
X3009004D01*
Y8926370D01*
X2894177D01*
X2889509Y8928304D01*
X2885937Y8931876D01*
X2884003Y8936544D01*
Y8939070D01*
Y9109070D01*
Y9111596D01*
X2885937Y9116264D01*
X2889509Y9119836D01*
X2894177Y9121770D01*
X3059004D01*
Y9296370D01*
X884409D01*
Y9121770D01*
X1049233D01*
X1053901Y9119836D01*
X1057473Y9116264D01*
X1059407Y9111596D01*
Y9109070D01*
Y8939070D01*
Y8936544D01*
X1057473Y8931876D01*
X1053901Y8928304D01*
X1049233Y8926370D01*
X934409D01*
Y8801768D01*
X954235D01*
X958902Y8799834D01*
X962475Y8796262D01*
X964409Y8791594D01*
Y8789068D01*
Y7891772D01*
X1386536D01*
X1393976Y7884333D01*
Y7873812D01*
X1386536Y7866372D01*
X949182D01*
X944514Y7868306D01*
X940942Y7871878D01*
X939009Y7876546D01*
Y7879072D01*
Y8776368D01*
X919182D01*
X914515Y8778301D01*
X910942Y8781874D01*
X909009Y8786542D01*
Y8789068D01*
Y8939070D01*
Y8941596D01*
X910942Y8946264D01*
X914515Y8949837D01*
X919182Y8951770D01*
X1034007D01*
Y9096370D01*
X869182D01*
X864515Y9098303D01*
X860942Y9101876D01*
X859009Y9106544D01*
Y9109070D01*
Y9309070D01*
Y9311596D01*
X860942Y9316263D01*
X864515Y9319836D01*
X869182Y9321770D01*
X3074230D01*
X3078898Y9319836D01*
D02*
G37*
G36*
X5948641Y7807897D02*
X5904641D01*
Y7807897D01*
X5887641Y7807897D01*
X5887640Y7847897D01*
X5948641D01*
Y7807897D01*
D02*
G37*
G36*
X5729642D02*
X5713641Y7807897D01*
D01*
X5668642D01*
X5668642Y7847897D01*
X5729642D01*
Y7807897D01*
D02*
G37*
G36*
X5954630Y7780370D02*
Y7777884D01*
Y7775399D01*
X5951115Y7771884D01*
X5946145D01*
X5942630Y7775399D01*
Y7777884D01*
Y7780370D01*
X5946145Y7783884D01*
X5951115D01*
X5954630Y7780370D01*
D02*
G37*
G36*
X12341517Y6925850D02*
X12343964Y6925799D01*
X12347391Y6922302D01*
Y6917406D01*
X12343964Y6913909D01*
X12341517Y6913859D01*
X12339070Y6913909D01*
X12335644Y6917406D01*
Y6922302D01*
X12339070Y6925799D01*
X12341517Y6925850D01*
X12341517D01*
X12341517D01*
D01*
D02*
G37*
G36*
Y6913859D02*
X12341517D01*
X12341517D01*
D01*
D02*
G37*
G36*
X11820121Y6819861D02*
X11760121D01*
Y6919861D01*
X11820121D01*
Y6819861D01*
D02*
G37*
G36*
X11720121D02*
X11660121D01*
Y6919861D01*
X11720121D01*
Y6819861D01*
D02*
G37*
G36*
X11620122D02*
X11560122D01*
Y6919861D01*
X11620122D01*
Y6819861D01*
D02*
G37*
G36*
X11520122D02*
X11460122D01*
Y6919861D01*
X11520122D01*
Y6819861D01*
D02*
G37*
G36*
X11420122D02*
X11360122D01*
Y6919861D01*
X11420122D01*
Y6819861D01*
D02*
G37*
G36*
X11320122D02*
X11260122D01*
Y6919861D01*
X11320122D01*
Y6819861D01*
D02*
G37*
G36*
X11220122D02*
X11160122D01*
Y6919861D01*
X11220122D01*
Y6819861D01*
D02*
G37*
G36*
X11120123D02*
X11060123D01*
Y6919861D01*
X11120123D01*
Y6819861D01*
D02*
G37*
G36*
X11020120D02*
X10960120D01*
Y6919861D01*
X11020120D01*
Y6819861D01*
D02*
G37*
G36*
X10920120D02*
X10860121D01*
Y6919861D01*
X10920120D01*
Y6819861D01*
D02*
G37*
G36*
X10820121D02*
X10760121D01*
Y6919861D01*
X10820121D01*
Y6819861D01*
D02*
G37*
G36*
X10720121D02*
X10660121D01*
Y6919861D01*
X10720121D01*
Y6819861D01*
D02*
G37*
G36*
X10620121D02*
X10560121D01*
Y6919861D01*
X10620121D01*
Y6819861D01*
D02*
G37*
G36*
X10520121D02*
X10460121D01*
Y6919861D01*
X10520121D01*
Y6819861D01*
D02*
G37*
G36*
X10420121D02*
X10360122D01*
Y6919861D01*
X10420121D01*
Y6819861D01*
D02*
G37*
G36*
X10320122D02*
X10260122D01*
Y6919861D01*
X10320122D01*
Y6819861D01*
D02*
G37*
G36*
X10220122D02*
X10160122D01*
Y6919861D01*
X10220122D01*
Y6819861D01*
D02*
G37*
G36*
X10120122D02*
X10060122D01*
Y6919861D01*
X10120122D01*
Y6819861D01*
D02*
G37*
G36*
X10020122D02*
X9960122D01*
Y6919861D01*
X10020122D01*
Y6819861D01*
D02*
G37*
G36*
X9920122D02*
X9860123D01*
Y6919861D01*
X9920122D01*
Y6819861D01*
D02*
G37*
G36*
X9820123D02*
X9760123D01*
Y6919861D01*
X9820123D01*
Y6819861D01*
D02*
G37*
G36*
X932962Y6820514D02*
Y6817989D01*
Y6815464D01*
X929391Y6811893D01*
X924341D01*
X920770Y6815464D01*
Y6817989D01*
Y6820514D01*
X924341Y6824085D01*
X929391D01*
X932962Y6820514D01*
D02*
G37*
G36*
X12709940Y6760897D02*
X12629940D01*
Y6790900D01*
X12709940D01*
Y6760897D01*
D02*
G37*
G36*
Y6636910D02*
X12712388Y6636857D01*
X12715813Y6633355D01*
X12715809Y6628457D01*
X12712378Y6624961D01*
X12709930Y6624913D01*
X12707481Y6624966D01*
X12704057Y6628468D01*
X12704059Y6630920D01*
X12629940D01*
Y6660923D01*
X12709940D01*
Y6636910D01*
D02*
G37*
G36*
X11520119Y6544858D02*
X11420119D01*
Y6694860D01*
X11520119D01*
Y6544858D01*
D02*
G37*
G36*
X11340120D02*
X11240120D01*
Y6694860D01*
X11340120D01*
Y6544858D01*
D02*
G37*
G36*
X11160120D02*
X11060120D01*
Y6694860D01*
X11160120D01*
Y6544858D01*
D02*
G37*
G36*
X10980120D02*
X10880120D01*
Y6694860D01*
X10980120D01*
Y6544858D01*
D02*
G37*
G36*
X10800121D02*
X10700121D01*
Y6694860D01*
X10800121D01*
Y6544858D01*
D02*
G37*
G36*
X10620121D02*
X10520121D01*
Y6694860D01*
X10620121D01*
Y6544858D01*
D02*
G37*
G36*
X10440121D02*
X10340122D01*
Y6694860D01*
X10440121D01*
Y6544858D01*
D02*
G37*
G36*
X10260122D02*
X10160122D01*
Y6694860D01*
X10260122D01*
Y6544858D01*
D02*
G37*
G36*
X1455243Y6604601D02*
X1469319Y6590525D01*
X1476937Y6572134D01*
Y6562181D01*
Y6552228D01*
X1469319Y6533837D01*
X1455243Y6519761D01*
X1436852Y6512143D01*
X1416946D01*
X1398554Y6519761D01*
X1384479Y6533837D01*
X1376861Y6552228D01*
Y6562181D01*
Y6572134D01*
X1384479Y6590525D01*
X1398554Y6604601D01*
X1416946Y6612219D01*
X1436852D01*
X1455243Y6604601D01*
D02*
G37*
G36*
X12341520Y6438460D02*
X12241520D01*
Y6498459D01*
X12341520D01*
Y6438460D01*
D02*
G37*
G36*
X9441515D02*
X9341515D01*
Y6498459D01*
X9441515D01*
Y6438460D01*
D02*
G37*
G36*
X6399556Y6394839D02*
X6399557Y6392354D01*
X6399557Y6389871D01*
X6396045Y6386357D01*
X6391077Y6386356D01*
X6387564Y6389868D01*
X6387563Y6392352D01*
X6387562Y6394836D01*
X6391075Y6398350D01*
X6396043Y6398351D01*
X6399556Y6394839D01*
D02*
G37*
G36*
X12341520Y6338460D02*
X12241520D01*
Y6398460D01*
X12341520D01*
Y6338460D01*
D02*
G37*
G36*
X9441515D02*
X9341515D01*
Y6398460D01*
X9441515D01*
Y6338460D01*
D02*
G37*
G36*
X2207456Y6408130D02*
X2221532Y6394054D01*
X2229150Y6375663D01*
Y6365710D01*
Y6355757D01*
X2221532Y6337366D01*
X2207456Y6323290D01*
X2189065Y6315672D01*
X2169159D01*
X2150768Y6323290D01*
X2136692Y6337366D01*
X2129074Y6355757D01*
Y6365710D01*
Y6375663D01*
X2136692Y6394054D01*
X2150768Y6408130D01*
X2169159Y6415748D01*
X2189065D01*
X2207456Y6408130D01*
D02*
G37*
G36*
X12341520Y6238460D02*
X12241520D01*
Y6298460D01*
X12341520D01*
Y6238460D01*
D02*
G37*
G36*
X9441515D02*
X9341515D01*
Y6298460D01*
X9441515D01*
Y6238460D01*
D02*
G37*
G36*
X6298559Y6237341D02*
X6234561D01*
Y6301339D01*
X6298559D01*
Y6237341D01*
D02*
G37*
G36*
X6044559D02*
X5980561D01*
Y6301339D01*
X6044559D01*
Y6237341D01*
D02*
G37*
G36*
X5790559D02*
X5726561D01*
Y6301339D01*
X5790559D01*
Y6237341D01*
D02*
G37*
G36*
X5536559D02*
X5472561D01*
Y6301339D01*
X5536559D01*
Y6237341D01*
D02*
G37*
G36*
X5282559D02*
X5218561D01*
Y6301339D01*
X5282559D01*
Y6237341D01*
D02*
G37*
G36*
X12341520Y6138460D02*
X12241520D01*
Y6198460D01*
X12341520D01*
Y6138460D01*
D02*
G37*
G36*
X9441515D02*
X9341515D01*
Y6198460D01*
X9441515D01*
Y6138460D01*
D02*
G37*
G36*
X3980329Y6056710D02*
X3860329D01*
Y6276710D01*
X3980329D01*
Y6056710D01*
D02*
G37*
G36*
X3560324D02*
X3440325D01*
Y6276710D01*
X3560324D01*
Y6056710D01*
D02*
G37*
G36*
X12341520Y6038460D02*
X12241520D01*
Y6098460D01*
X12341520D01*
Y6038460D01*
D02*
G37*
G36*
X9441515D02*
X9341515D01*
Y6098460D01*
X9441515D01*
Y6038460D01*
D02*
G37*
G36*
X12116521Y5998458D02*
X11966519D01*
Y6098458D01*
X12116521D01*
Y5998458D01*
D02*
G37*
G36*
X9716521D02*
X9566519D01*
Y6098458D01*
X9716521D01*
Y5998458D01*
D02*
G37*
G36*
X6298559Y5983341D02*
X6234561D01*
Y6047339D01*
X6298559D01*
Y5983341D01*
D02*
G37*
G36*
X6044559D02*
X5980561D01*
Y6047339D01*
X6044559D01*
Y5983341D01*
D02*
G37*
G36*
X5790559D02*
X5726561D01*
Y6047339D01*
X5790559D01*
Y5983341D01*
D02*
G37*
G36*
X5536559D02*
X5472561D01*
Y6047339D01*
X5536559D01*
Y5983341D01*
D02*
G37*
G36*
X5282559D02*
X5218561D01*
Y6047339D01*
X5282559D01*
Y5983341D01*
D02*
G37*
G36*
X12341520Y5938461D02*
X12241520D01*
Y5998460D01*
X12341520D01*
Y5938461D01*
D02*
G37*
G36*
X9441515D02*
X9341515D01*
Y5998460D01*
X9441515D01*
Y5938461D01*
D02*
G37*
G36*
X4276500Y6304290D02*
X4306500D01*
Y5993490D01*
X4276500D01*
Y5918170D01*
X4125700D01*
Y5993490D01*
X4095700D01*
Y6304290D01*
X4125700D01*
Y6379610D01*
X4276500D01*
Y6304290D01*
D02*
G37*
G36*
X3446321Y5909200D02*
X3446321Y5906715D01*
X3446322Y5904231D01*
X3442809Y5900717D01*
X3437841Y5900716D01*
X3434327Y5904229D01*
X3434326Y5906713D01*
X3434325Y5909197D01*
X3437838Y5912711D01*
X3442807Y5912713D01*
X3446321Y5909200D01*
D02*
G37*
G36*
X11596520Y5864856D02*
X11286518D01*
Y6174858D01*
X11596520D01*
Y5864856D01*
D02*
G37*
G36*
X11196521D02*
X10886519D01*
Y6174858D01*
X11196521D01*
Y5864856D01*
D02*
G37*
G36*
X10796521D02*
X10486520D01*
Y6174858D01*
X10796521D01*
Y5864856D01*
D02*
G37*
G36*
X10396522D02*
X10086520D01*
Y6174858D01*
X10396522D01*
Y5864856D01*
D02*
G37*
G36*
X12341520Y5838461D02*
X12241520D01*
Y5898461D01*
X12341520D01*
Y5838461D01*
D02*
G37*
G36*
X9441515D02*
X9341515D01*
Y5898461D01*
X9441515D01*
Y5838461D01*
D02*
G37*
G36*
X12116521Y5818458D02*
X11966519D01*
Y5918458D01*
X12116521D01*
Y5818458D01*
D02*
G37*
G36*
X9716521D02*
X9566519D01*
Y5918458D01*
X9716521D01*
Y5818458D01*
D02*
G37*
G36*
X12341520Y5738461D02*
X12241520D01*
Y5798461D01*
X12341520D01*
Y5738461D01*
D02*
G37*
G36*
X9441515D02*
X9341515D01*
Y5798461D01*
X9441515D01*
Y5738461D01*
D02*
G37*
G36*
X2892106Y5692491D02*
Y5687441D01*
X2888535Y5683870D01*
X2883485D01*
X2879914Y5687441D01*
Y5692491D01*
X2883485Y5696062D01*
X2888535D01*
X2892106Y5692491D01*
D02*
G37*
G36*
X12341520Y5638461D02*
X12241520D01*
Y5698461D01*
X12341520D01*
Y5638461D01*
D02*
G37*
G36*
X9441515D02*
X9341515D01*
Y5698461D01*
X9441515D01*
Y5638461D01*
D02*
G37*
G36*
X12116521Y5638459D02*
X11966519D01*
Y5738458D01*
X12116521D01*
Y5638459D01*
D02*
G37*
G36*
X9716521D02*
X9566519D01*
Y5738458D01*
X9716521D01*
Y5638459D01*
D02*
G37*
G36*
X6507720Y5643223D02*
D01*
X6507720Y5632225D01*
X6475718D01*
Y5643223D01*
Y5673225D01*
X6507720D01*
Y5643223D01*
D02*
G37*
G36*
X12341520Y5538459D02*
X12241520D01*
Y5598459D01*
X12341520D01*
Y5538459D01*
D02*
G37*
G36*
X9441515D02*
X9341515D01*
Y5598459D01*
X9441515D01*
Y5538459D01*
D02*
G37*
G36*
X11596520Y5464857D02*
X11286518D01*
Y5774859D01*
X11596520D01*
Y5464857D01*
D02*
G37*
G36*
X11196521D02*
X10886519D01*
Y5774859D01*
X11196521D01*
Y5464857D01*
D02*
G37*
G36*
X10796521D02*
X10486520D01*
Y5774859D01*
X10796521D01*
Y5464857D01*
D02*
G37*
G36*
X10396522D02*
X10086520D01*
Y5774859D01*
X10396522D01*
Y5464857D01*
D02*
G37*
G36*
X12116521Y5458459D02*
X11966519D01*
Y5558459D01*
X12116521D01*
Y5458459D01*
D02*
G37*
G36*
X9716521D02*
X9566519D01*
Y5558459D01*
X9716521D01*
Y5458459D01*
D02*
G37*
G36*
X6507720Y5452223D02*
Y5423223D01*
X6475718D01*
Y5453221D01*
D01*
X6475719Y5464224D01*
X6507720D01*
Y5452223D01*
D02*
G37*
G36*
X12341520Y5438459D02*
X12241520D01*
Y5498459D01*
X12341520D01*
Y5438459D01*
D02*
G37*
G36*
X9441515D02*
X9341515D01*
Y5498459D01*
X9441515D01*
Y5438459D01*
D02*
G37*
G36*
X4018349Y5436180D02*
X3898349D01*
Y5656180D01*
X4018349D01*
Y5436180D01*
D02*
G37*
G36*
X3598344D02*
X3478345D01*
Y5656180D01*
X3598344D01*
Y5436180D01*
D02*
G37*
G36*
X6562712Y5425707D02*
Y5420736D01*
X6559197Y5417221D01*
X6554226D01*
X6550711Y5420736D01*
Y5425707D01*
X6554226Y5429223D01*
X6559197D01*
X6562712Y5425707D01*
D02*
G37*
G36*
X5058690Y5638180D02*
X5089170D01*
Y5411980D01*
X5058690D01*
Y5394270D01*
X4797070D01*
Y5411980D01*
X4766590D01*
Y5638180D01*
X4797070D01*
Y5655890D01*
X5058690D01*
Y5638180D01*
D02*
G37*
G36*
X12341520Y5338459D02*
X12241520D01*
Y5398459D01*
X12341520D01*
Y5338459D01*
D02*
G37*
G36*
X9441515D02*
X9341515D01*
Y5398459D01*
X9441515D01*
Y5338459D01*
D02*
G37*
G36*
X3484341Y5288670D02*
X3484341Y5286185D01*
X3484342Y5283701D01*
X3480829Y5280187D01*
X3475861Y5280186D01*
X3472347Y5283699D01*
X3472346Y5286183D01*
X3472345Y5288667D01*
X3475858Y5292181D01*
X3480827Y5292182D01*
X3484341Y5288670D01*
D02*
G37*
G36*
X12116521Y5278459D02*
X11966519D01*
Y5378459D01*
X12116521D01*
Y5278459D01*
D02*
G37*
G36*
X9716521D02*
X9566519D01*
Y5378459D01*
X9716521D01*
Y5278459D01*
D02*
G37*
G36*
X2580908Y5388863D02*
X2595735Y5380302D01*
X2607842Y5368196D01*
X2616403Y5353369D01*
X2620834Y5336831D01*
Y5319709D01*
X2616403Y5303172D01*
X2607842Y5288345D01*
X2595735Y5276238D01*
X2580908Y5267677D01*
X2564371Y5263246D01*
X2547249D01*
X2530711Y5267677D01*
X2515884Y5276238D01*
X2503778Y5288345D01*
X2495217Y5303172D01*
X2490786Y5319709D01*
Y5336831D01*
X2495217Y5353369D01*
X2503778Y5368196D01*
X2515884Y5380302D01*
X2530711Y5388863D01*
X2547249Y5393294D01*
X2564371D01*
X2580908Y5388863D01*
D02*
G37*
G36*
X675908D02*
X690735Y5380302D01*
X702842Y5368196D01*
X711403Y5353369D01*
X715834Y5336831D01*
Y5319709D01*
X711403Y5303172D01*
X702842Y5288345D01*
X690735Y5276238D01*
X675908Y5267677D01*
X659371Y5263246D01*
X642249D01*
X625711Y5267677D01*
X610884Y5276238D01*
X598778Y5288345D01*
X590217Y5303172D01*
X585786Y5319709D01*
Y5336831D01*
X590217Y5353369D01*
X598778Y5368196D01*
X610884Y5380302D01*
X625711Y5388863D01*
X642249Y5393294D01*
X659371D01*
X675908Y5388863D01*
D02*
G37*
G36*
X12341520Y5238459D02*
X12241520D01*
Y5298459D01*
X12341520D01*
Y5238459D01*
D02*
G37*
G36*
X9441515D02*
X9341515D01*
Y5298459D01*
X9441515D01*
Y5238459D01*
D02*
G37*
G36*
X12341520Y5138460D02*
X12241520D01*
Y5198460D01*
X12341520D01*
Y5138460D01*
D02*
G37*
G36*
X9441515D02*
X9341515D01*
Y5198460D01*
X9441515D01*
Y5138460D01*
D02*
G37*
G36*
X12116521Y5098460D02*
X11966519D01*
Y5198460D01*
X12116521D01*
Y5098460D01*
D02*
G37*
G36*
X9716521D02*
X9566519D01*
Y5198460D01*
X9716521D01*
Y5098460D01*
D02*
G37*
G36*
X11596520Y5064858D02*
X11286518D01*
Y5374860D01*
X11596520D01*
Y5064858D01*
D02*
G37*
G36*
X11196521D02*
X10886519D01*
Y5374860D01*
X11196521D01*
Y5064858D01*
D02*
G37*
G36*
X10796521D02*
X10486520D01*
Y5374860D01*
X10796521D01*
Y5064858D01*
D02*
G37*
G36*
X10396522D02*
X10086520D01*
Y5374860D01*
X10396522D01*
Y5064858D01*
D02*
G37*
G36*
X12341520Y5038460D02*
X12241520D01*
Y5098460D01*
X12341520D01*
Y5038460D01*
D02*
G37*
G36*
X9441515D02*
X9341515D01*
Y5098460D01*
X9441515D01*
Y5038460D01*
D02*
G37*
G36*
X12341520Y4938460D02*
X12241520D01*
Y4998460D01*
X12341520D01*
Y4938460D01*
D02*
G37*
G36*
X9441515D02*
X9341515D01*
Y4998460D01*
X9441515D01*
Y4938460D01*
D02*
G37*
G36*
X12116521Y4918460D02*
X11966519D01*
Y5018460D01*
X12116521D01*
Y4918460D01*
D02*
G37*
G36*
X9716521D02*
X9566519D01*
Y5018460D01*
X9716521D01*
Y4918460D01*
D02*
G37*
G36*
X6311404Y4873546D02*
X6308859Y4871001D01*
X6306314Y4868456D01*
X6301224Y4873546D01*
X6303769Y4876091D01*
X6306314Y4878636D01*
X6311404Y4873546D01*
D02*
G37*
G36*
X6308861Y4865909D02*
X6306314Y4863362D01*
X6298677Y4870999D01*
X6301224Y4873546D01*
X6308861Y4865909D01*
D02*
G37*
G36*
X6308859Y4860817D02*
X6306314Y4858272D01*
X6298677Y4865909D01*
X6301222Y4868454D01*
X6308859Y4860817D01*
D02*
G37*
G36*
X6306314Y4858272D02*
X6303769Y4855727D01*
X6306314Y4853182D01*
X6303767Y4850635D01*
X6301222Y4848090D01*
X6298677Y4845545D01*
X6257948Y4886274D01*
X6260493Y4888819D01*
X6263038Y4891364D01*
X6265585Y4893911D01*
X6268130Y4896456D01*
X6306314Y4858272D01*
D02*
G37*
G36*
X12341520Y4838460D02*
X12241520D01*
Y4898460D01*
X12341520D01*
Y4838460D01*
D02*
G37*
G36*
X9441515D02*
X9341515D01*
Y4898460D01*
X9441515D01*
Y4838460D01*
D02*
G37*
G36*
X12341520Y4738460D02*
X12241520D01*
Y4798460D01*
X12341520D01*
Y4738460D01*
D02*
G37*
G36*
X12116521D02*
X11966519D01*
Y4838460D01*
X12116521D01*
Y4738460D01*
D02*
G37*
G36*
X9716521D02*
X9566519D01*
Y4838460D01*
X9716521D01*
Y4738460D01*
D02*
G37*
G36*
X9441515D02*
X9341515D01*
Y4798460D01*
X9441515D01*
Y4738460D01*
D02*
G37*
G36*
X11596520Y4664859D02*
X11286518D01*
Y4974861D01*
X11596520D01*
Y4664859D01*
D02*
G37*
G36*
X11196521D02*
X10886519D01*
Y4974861D01*
X11196521D01*
Y4664859D01*
D02*
G37*
G36*
X10796521D02*
X10486520D01*
Y4974861D01*
X10796521D01*
Y4664859D01*
D02*
G37*
G36*
X10396522D02*
X10086520D01*
Y4974861D01*
X10396522D01*
Y4664859D01*
D02*
G37*
G36*
X12341520Y4638461D02*
X12241520D01*
Y4698461D01*
X12341520D01*
Y4638461D01*
D02*
G37*
G36*
X9441515D02*
X9341515D01*
Y4698461D01*
X9441515D01*
Y4638461D01*
D02*
G37*
G36*
X12341520Y4538461D02*
X12241520D01*
Y4598461D01*
X12341520D01*
Y4538461D01*
D02*
G37*
G36*
X9441515D02*
X9341515D01*
Y4598461D01*
X9441515D01*
Y4538461D01*
D02*
G37*
G36*
X12341520Y4438461D02*
X12241520D01*
Y4498461D01*
X12341520D01*
Y4438461D01*
D02*
G37*
G36*
X9441515D02*
X9341515D01*
Y4498461D01*
X9441515D01*
Y4438461D01*
D02*
G37*
G36*
X12341520Y4338461D02*
X12241520D01*
Y4398461D01*
X12341520D01*
Y4338461D01*
D02*
G37*
G36*
X9441515D02*
X9341515D01*
Y4398461D01*
X9441515D01*
Y4338461D01*
D02*
G37*
G36*
X4513841Y4282088D02*
X4513843Y4277119D01*
X4510330Y4273605D01*
X4507845Y4273605D01*
X4505361Y4273604D01*
X4501847Y4277117D01*
X4501846Y4282085D01*
X4505359Y4285600D01*
X4507843Y4285600D01*
X4510327Y4285601D01*
X4513841Y4282088D01*
D02*
G37*
G36*
X4877840Y4159602D02*
X4657840D01*
Y4279602D01*
X4877840D01*
Y4159602D01*
D02*
G37*
G36*
X11520119Y4144857D02*
X11420119D01*
Y4294860D01*
X11520119D01*
Y4144857D01*
D02*
G37*
G36*
X11340120D02*
X11240120D01*
Y4294860D01*
X11340120D01*
Y4144857D01*
D02*
G37*
G36*
X11160120D02*
X11060120D01*
Y4294860D01*
X11160120D01*
Y4144857D01*
D02*
G37*
G36*
X10980120D02*
X10880120D01*
Y4294860D01*
X10980120D01*
Y4144857D01*
D02*
G37*
G36*
X10800121D02*
X10700121D01*
Y4294860D01*
X10800121D01*
Y4144857D01*
D02*
G37*
G36*
X10620121D02*
X10520121D01*
Y4294860D01*
X10620121D01*
Y4144857D01*
D02*
G37*
G36*
X10440121D02*
X10340122D01*
Y4294860D01*
X10440121D01*
Y4144857D01*
D02*
G37*
G36*
X10260122D02*
X10160122D01*
Y4294860D01*
X10260122D01*
Y4144857D01*
D02*
G37*
G36*
X11920121Y3919857D02*
X11860121D01*
Y4019856D01*
X11920121D01*
Y3919857D01*
D02*
G37*
G36*
X11820121D02*
X11760121D01*
Y4019856D01*
X11820121D01*
Y3919857D01*
D02*
G37*
G36*
X11720121D02*
X11660121D01*
Y4019856D01*
X11720121D01*
Y3919857D01*
D02*
G37*
G36*
X11620122D02*
X11560122D01*
Y4019856D01*
X11620122D01*
Y3919857D01*
D02*
G37*
G36*
X11520122D02*
X11460122D01*
Y4019856D01*
X11520122D01*
Y3919857D01*
D02*
G37*
G36*
X11420122D02*
X11360122D01*
Y4019856D01*
X11420122D01*
Y3919857D01*
D02*
G37*
G36*
X11320122D02*
X11260122D01*
Y4019856D01*
X11320122D01*
Y3919857D01*
D02*
G37*
G36*
X11220122D02*
X11160122D01*
Y4019856D01*
X11220122D01*
Y3919857D01*
D02*
G37*
G36*
X11120123D02*
X11060123D01*
Y4019856D01*
X11120123D01*
Y3919857D01*
D02*
G37*
G36*
X11020120D02*
X10960120D01*
Y4019856D01*
X11020120D01*
Y3919857D01*
D02*
G37*
G36*
X10920120D02*
X10860121D01*
Y4019856D01*
X10920120D01*
Y3919857D01*
D02*
G37*
G36*
X10820121D02*
X10760121D01*
Y4019856D01*
X10820121D01*
Y3919857D01*
D02*
G37*
G36*
X10720121D02*
X10660121D01*
Y4019856D01*
X10720121D01*
Y3919857D01*
D02*
G37*
G36*
X10620121D02*
X10560121D01*
Y4019856D01*
X10620121D01*
Y3919857D01*
D02*
G37*
G36*
X10520121D02*
X10460121D01*
Y4019856D01*
X10520121D01*
Y3919857D01*
D02*
G37*
G36*
X10420121D02*
X10360122D01*
Y4019856D01*
X10420121D01*
Y3919857D01*
D02*
G37*
G36*
X10320122D02*
X10260122D01*
Y4019856D01*
X10320122D01*
Y3919857D01*
D02*
G37*
G36*
X10220122D02*
X10160122D01*
Y4019856D01*
X10220122D01*
Y3919857D01*
D02*
G37*
G36*
X10120122D02*
X10060122D01*
Y4019856D01*
X10120122D01*
Y3919857D01*
D02*
G37*
G36*
X10020122D02*
X9960122D01*
Y4019856D01*
X10020122D01*
Y3919857D01*
D02*
G37*
G36*
X9920122D02*
X9860123D01*
Y4019856D01*
X9920122D01*
Y3919857D01*
D02*
G37*
G36*
X9820123D02*
X9760123D01*
Y4019856D01*
X9820123D01*
Y3919857D01*
D02*
G37*
G36*
X4877840Y3739598D02*
X4657840D01*
Y3859598D01*
X4877840D01*
Y3739598D01*
D02*
G37*
G36*
X3138384Y2811671D02*
Y2806621D01*
X3134813Y2803050D01*
X3129763D01*
X3126192Y2806621D01*
Y2811671D01*
X3129763Y2815242D01*
X3134813D01*
X3138384Y2811671D01*
D02*
G37*
G36*
X11200421Y2779723D02*
X11050419D01*
Y2848729D01*
X11200421D01*
Y2779723D01*
D02*
G37*
G36*
X10946421D02*
X10796419D01*
Y2848729D01*
X10946421D01*
Y2779723D01*
D02*
G37*
G36*
X10526931Y2772863D02*
X10376929D01*
Y2841869D01*
X10526931D01*
Y2772863D01*
D02*
G37*
G36*
X10272931D02*
X10122929D01*
Y2841869D01*
X10272931D01*
Y2772863D01*
D02*
G37*
G36*
X3694898Y2474374D02*
X3599902D01*
Y2809146D01*
X3694898D01*
Y2474374D01*
D02*
G37*
G36*
X4285285Y2477491D02*
X4285289Y2472519D01*
X4281776Y2469000D01*
X4279290Y2468998D01*
X4276804Y2468996D01*
X4273285Y2472509D01*
X4273281Y2477481D01*
X4276794Y2481000D01*
X4279280Y2481002D01*
X4281766Y2481004D01*
X4285285Y2477491D01*
D02*
G37*
G36*
X4560791Y2360997D02*
X4357789D01*
Y2474998D01*
X4560791D01*
Y2360997D01*
D02*
G37*
G36*
X10774420Y2061733D02*
Y2061733D01*
D01*
Y2061733D01*
D02*
G37*
G36*
X11200421Y2061731D02*
X11050419D01*
Y2130737D01*
X11200421D01*
Y2061731D01*
D02*
G37*
G36*
X10946421D02*
X10796419D01*
Y2130737D01*
X10946421D01*
Y2061731D01*
D02*
G37*
G36*
X10774369Y2064181D02*
X10774420Y2061733D01*
X10774369Y2059286D01*
X10770872Y2055860D01*
X10765976D01*
X10762479Y2059286D01*
X10762429Y2061733D01*
X10762479Y2064181D01*
X10765976Y2067607D01*
X10770872D01*
X10774369Y2064181D01*
D02*
G37*
G36*
X10100930Y2054873D02*
Y2054873D01*
D01*
Y2054873D01*
D02*
G37*
G36*
X10526931Y2054871D02*
X10376929D01*
Y2123877D01*
X10526931D01*
Y2054871D01*
D02*
G37*
G36*
X10272931D02*
X10122929D01*
Y2123877D01*
X10272931D01*
Y2054871D01*
D02*
G37*
G36*
X10100880Y2057320D02*
X10100930Y2054873D01*
X10100880Y2052426D01*
X10097382Y2049000D01*
X10092487D01*
X10088989Y2052426D01*
X10088939Y2054873D01*
X10088989Y2057320D01*
X10092487Y2060747D01*
X10097382D01*
X10100880Y2057320D01*
D02*
G37*
G36*
X2580908Y2086863D02*
X2595735Y2078302D01*
X2607842Y2066196D01*
X2616403Y2051369D01*
X2620834Y2034831D01*
Y2017709D01*
X2616403Y2001172D01*
X2607842Y1986345D01*
X2595735Y1974238D01*
X2580908Y1965677D01*
X2564371Y1961246D01*
X2547249D01*
X2530711Y1965677D01*
X2515884Y1974238D01*
X2503778Y1986345D01*
X2495217Y2001172D01*
X2490786Y2017709D01*
Y2034831D01*
X2495217Y2051369D01*
X2503778Y2066196D01*
X2515884Y2078302D01*
X2530711Y2086863D01*
X2547249Y2091294D01*
X2564371D01*
X2580908Y2086863D01*
D02*
G37*
G36*
X1310908D02*
X1325735Y2078302D01*
X1337842Y2066196D01*
X1346403Y2051369D01*
X1350834Y2034831D01*
Y2017709D01*
X1346403Y2001172D01*
X1337842Y1986345D01*
X1325735Y1974238D01*
X1310908Y1965677D01*
X1294371Y1961246D01*
X1277249D01*
X1260711Y1965677D01*
X1245884Y1974238D01*
X1233778Y1986345D01*
X1225217Y2001172D01*
X1220786Y2017709D01*
Y2034831D01*
X1225217Y2051369D01*
X1233778Y2066196D01*
X1245884Y2078302D01*
X1260711Y2086863D01*
X1277249Y2091294D01*
X1294371D01*
X1310908Y2086863D01*
D02*
G37*
G36*
X4560791Y1945098D02*
X4357789D01*
Y2059098D01*
X4560791D01*
Y1945098D01*
D02*
G37*
G36*
X3694898Y2014126D02*
X3694898Y1679354D01*
X3599902D01*
Y2014126D01*
X3694898Y2014126D01*
D02*
G37*
G36*
X12129384Y963279D02*
X12019384D01*
Y1033279D01*
X12129384D01*
Y963279D01*
D02*
G37*
G36*
X11494384D02*
X11384384D01*
Y1033279D01*
X11494384D01*
Y963279D01*
D02*
G37*
G36*
X10859384D02*
X10749384D01*
Y1033279D01*
X10859384D01*
Y963279D01*
D02*
G37*
G36*
X10224384D02*
X10114384D01*
Y1033279D01*
X10224384D01*
Y963279D01*
D02*
G37*
G36*
X9589384D02*
X9479384D01*
Y1033279D01*
X9589384D01*
Y963279D01*
D02*
G37*
G36*
X8954384D02*
X8844384D01*
Y1033279D01*
X8954384D01*
Y963279D01*
D02*
G37*
G36*
X8139399D02*
X8029399D01*
Y1033279D01*
X8139399D01*
Y963279D01*
D02*
G37*
G36*
X7504399D02*
X7394399D01*
Y1033279D01*
X7504399D01*
Y963279D01*
D02*
G37*
G36*
X6869399D02*
X6759399D01*
Y1033279D01*
X6869399D01*
Y963279D01*
D02*
G37*
G36*
X6234399D02*
X6124399D01*
Y1033279D01*
X6234399D01*
Y963279D01*
D02*
G37*
G36*
X5599399D02*
X5489399D01*
Y1033279D01*
X5599399D01*
Y963279D01*
D02*
G37*
G36*
X4964399D02*
X4854399D01*
Y1033279D01*
X4964399D01*
Y963279D01*
D02*
G37*
G36*
X4149414D02*
X4039414D01*
Y1033279D01*
X4149414D01*
Y963279D01*
D02*
G37*
G36*
X3514414D02*
X3404414D01*
Y1033279D01*
X3514414D01*
Y963279D01*
D02*
G37*
G36*
X2879414D02*
X2769414D01*
Y1033279D01*
X2879414D01*
Y963279D01*
D02*
G37*
G36*
X2244414D02*
X2134414D01*
Y1033279D01*
X2244414D01*
Y963279D01*
D02*
G37*
G36*
X1609414D02*
X1499414D01*
Y1033279D01*
X1609414D01*
Y963279D01*
D02*
G37*
G36*
X974414D02*
X864414D01*
Y1033279D01*
X974414D01*
Y963279D01*
D02*
G37*
G36*
X8512872Y15752D02*
X8512873Y13268D01*
X8512874Y10784D01*
X8509361Y7270D01*
X8504393Y7269D01*
X8500880Y10782D01*
X8500879Y13266D01*
X8500879Y15750D01*
X8504391Y19263D01*
X8509359Y19264D01*
X8512872Y15752D01*
D02*
G37*
G36*
X4522888D02*
X4522888Y13268D01*
X4522889Y10784D01*
X4519377Y7270D01*
X4514409Y7269D01*
X4510895Y10782D01*
X4510894Y13266D01*
X4510894Y15750D01*
X4514406Y19263D01*
X4519374Y19264D01*
X4522888Y15752D01*
D02*
G37*
G36*
X532903D02*
X532903Y13268D01*
X532904Y10784D01*
X529392Y7270D01*
X524424Y7269D01*
X520910Y10782D01*
X520910Y13266D01*
X520909Y15750D01*
X524421Y19263D01*
X529389Y19264D01*
X532903Y15752D01*
D02*
G37*
D111*
X6205218Y4900481D02*
G03*
X6205218Y4900481I-12700J0D01*
G01*
D139*
X4306500Y5993490D02*
Y6304290D01*
X4276500D02*
X4306500D01*
X4095700D02*
X4125700D01*
X4095700Y5993490D02*
Y6304290D01*
Y5993490D02*
X4125700D01*
X4276500D02*
X4306500D01*
X4276500Y5918170D02*
Y5993490D01*
Y6304290D02*
Y6379610D01*
X4125700D02*
X4276500D01*
X4125700Y6304290D02*
Y6379610D01*
Y5918170D02*
Y5993490D01*
Y5918170D02*
X4276500D01*
X4797070Y5394270D02*
X5058690D01*
Y5411980D01*
Y5638180D02*
Y5655890D01*
X4797070D02*
X5058690D01*
X4797070Y5638180D02*
Y5655890D01*
Y5394270D02*
Y5411980D01*
X4766590D02*
X4797070D01*
X5058690D02*
X5089170D01*
Y5638180D01*
X5058690D02*
X5089170D01*
X4766590D02*
X4797070D01*
X4766590Y5411980D02*
Y5638180D01*
X10168940Y8042560D02*
X10201730D01*
X10168940Y7965090D02*
Y8042560D01*
X9962740Y7965090D02*
X10168940D01*
X9962740D02*
Y8042560D01*
X9929950D02*
X9962740D01*
X9929950D02*
Y8227980D01*
X9962740D01*
Y8305450D01*
X10168940D01*
Y8227980D02*
Y8305450D01*
Y8227980D02*
X10201730D01*
Y8042560D02*
Y8227980D01*
D140*
X6450720Y5111180D02*
Y5382180D01*
X6006720D02*
X6450720D01*
X6006720Y5111180D02*
Y5382180D01*
Y5111180D02*
X6450720D01*
D143*
X7277200Y8579330D02*
G03*
X7277200Y8579330I-19990J0D01*
G01*
X8075217D02*
G03*
X8075217Y8579330I-19990J0D01*
G01*
D144*
X6547336Y2288020D02*
G03*
X6547336Y2288020I-7493J0D01*
G01*
X5269156Y2295450D02*
G03*
X5269156Y2295450I-7493J0D01*
G01*
X7967909Y2299982D02*
G03*
X7967909Y2299982I-7493J0D01*
G01*
X9093376Y2321350D02*
G03*
X9093376Y2321350I-7493J0D01*
G01*
D218*
X9675023Y8495270D02*
G03*
X9675023Y8495270I-12497J0D01*
G01*
X9097020D02*
G03*
X9097020Y8495270I-12497J0D01*
G01*
D219*
X1391692Y8364060D02*
G03*
X1391692Y8364060I-70002J0D01*
G01*
X2691715D02*
G03*
X2691715Y8364060I-70002J0D01*
G01*
D220*
X9323390Y3516440D02*
G03*
X9323390Y3516440I-625000J0D01*
G01*
X6061760Y3156290D02*
Y3498790D01*
Y3156290D02*
X6483760D01*
Y3498790D01*
X6061760D02*
X6483760D01*
X4017030Y6495200D02*
Y6835200D01*
X3602030D02*
X4017030D01*
X3602030Y6495200D02*
Y6835200D01*
Y6495200D02*
X4017030D01*
X4261570Y5169430D02*
Y5676430D01*
X4041570Y5169430D02*
X4261570D01*
X4041570D02*
Y5676430D01*
X4261570D01*
X12177491Y2256750D02*
X12537490D01*
X12177491Y1836749D02*
Y2256750D01*
Y1836749D02*
X12537490D01*
Y2256750D01*
X11735951D02*
X12095950D01*
X11735951Y1836749D02*
Y2256750D01*
Y1836749D02*
X12095950D01*
Y2256750D01*
X3536250Y4770510D02*
X3926250D01*
X3536250Y5160510D02*
X3926250D01*
X3536250Y4770510D02*
Y5160510D01*
X3926250Y4770510D02*
Y5160510D01*
X7867120Y6325070D02*
X7867120Y6280070D01*
X6977120Y6325070D02*
X7867120D01*
X6977120D02*
X6977120Y6280070D01*
X6637120Y6280070D02*
X6977120Y6280070D01*
X6637120Y5900070D02*
X6637120Y6280070D01*
X6637120Y5900070D02*
X6927120D01*
Y5875070D02*
Y5900070D01*
Y5875070D02*
X7817120D01*
Y5900070D01*
X8157120D01*
X8157120Y6280070D01*
X7867120Y6280070D02*
X8157120Y6280070D01*
X4860960Y7750140D02*
Y7970140D01*
Y7750140D02*
X5367960D01*
Y7970140D01*
X4860960D02*
X5367960D01*
X6668559Y3913440D02*
Y5258440D01*
Y3913440D02*
X8013560D01*
Y5258440D01*
X6668559D02*
X8013560D01*
X6651670Y6967170D02*
X7073670D01*
X6651670D02*
Y7309670D01*
X7073670D01*
Y6967170D02*
Y7309670D01*
X4487140Y4568510D02*
Y5358510D01*
X5112140D01*
Y4568510D02*
Y5358510D01*
X4487140Y4568510D02*
X5112140D01*
X5307274Y4439989D02*
Y4861989D01*
X5649774D01*
Y4439989D02*
Y4861989D01*
X5307274Y4439989D02*
X5649774D01*
X5482494Y4899149D02*
Y5244149D01*
X5282494Y4899149D02*
X5482494D01*
X5282494D02*
Y5244149D01*
X5482494D01*
X4063214Y5021299D02*
X4365214D01*
X4063214D02*
Y5173300D01*
X4365214D01*
Y5021299D02*
Y5173300D01*
X4064894Y4778259D02*
X4366894D01*
X4064894D02*
Y4930260D01*
X4366894D01*
Y4778259D02*
Y4930260D01*
X3113804Y5216999D02*
X3415804D01*
Y5064999D02*
Y5216999D01*
X3113804Y5064999D02*
X3415804D01*
X3113804D02*
Y5216999D01*
X5312054Y3811139D02*
X5654554D01*
Y4233139D01*
X5312054D02*
X5654554D01*
X5312054Y3811139D02*
Y4233139D01*
X5138544Y4181709D02*
X5290544D01*
X5138544Y3879710D02*
Y4181709D01*
Y3879710D02*
X5290544D01*
Y4181709D01*
X5321994Y3095379D02*
Y3595379D01*
X4421994D02*
X5321994D01*
X4421994Y3095379D02*
Y3595379D01*
Y3095379D02*
X5321994D01*
X3432534Y3502769D02*
X3955534D01*
X3432534Y4025769D02*
X3955534D01*
X3432534Y3502769D02*
Y4025769D01*
X3955534Y3502769D02*
Y4025769D01*
X3425564Y4102919D02*
Y4404919D01*
X3273564Y4102919D02*
X3425564D01*
X3273564D02*
Y4404919D01*
X3425564D01*
X5917140Y7143850D02*
X6069140D01*
Y7445850D01*
X5917140D02*
X6069140D01*
X5917140Y7143850D02*
Y7445850D01*
X5669090Y7136320D02*
X5821090D01*
Y7438320D01*
X5669090D02*
X5821090D01*
X5669090Y7136320D02*
Y7438320D01*
X4994530Y9033710D02*
X6484530D01*
Y6513710D02*
Y9033710D01*
X4994530Y6513710D02*
X6484530D01*
X4994530D02*
Y9033710D01*
X4486880Y8055310D02*
Y8150310D01*
Y8055310D02*
X4513880D01*
Y7839310D02*
Y8055310D01*
X4486880Y7839310D02*
X4513880D01*
X4486880Y7744310D02*
Y7839310D01*
X4190880Y7744310D02*
Y7839310D01*
X4163880D02*
X4190880D01*
X4163880D02*
Y8055310D01*
X4190880D01*
Y8150310D01*
X4486880D01*
X4190880Y7744310D02*
X4486880D01*
X11993550Y8559900D02*
Y8909900D01*
Y8559900D02*
X12343550D01*
Y8909900D01*
X11993550D02*
X12343550D01*
X12240960Y8121959D02*
Y8423959D01*
X12392960D01*
Y8121959D02*
Y8423959D01*
X12240960Y8121959D02*
X12392960D01*
X12590380Y5861510D02*
X12840379D01*
X12590380Y5418510D02*
X12840379D01*
Y5861510D01*
X12590380Y5418510D02*
Y5861510D01*
X12885780Y3381010D02*
Y3451010D01*
X12905780D01*
Y3661010D02*
Y3761010D01*
X12885780D02*
X12905780D01*
X12885780D02*
Y3831010D01*
X12905780Y3661010D02*
X12930780D01*
Y3551010D02*
Y3661010D01*
X12905780Y3551010D02*
X12930780D01*
X12905780Y3451010D02*
Y3551010D01*
X12615780Y3831010D02*
X12885780D01*
X12615780Y3761010D02*
Y3831010D01*
X12595780Y3761010D02*
X12615780D01*
X12595780Y3451010D02*
Y3531010D01*
Y3451010D02*
X12615780D01*
Y3381010D02*
Y3451010D01*
Y3381010D02*
X12885780D01*
X12520780Y3531010D02*
X12595780D01*
X12520780D02*
Y3681010D01*
X12595780D01*
Y3761010D01*
X12904311Y6044690D02*
Y6114690D01*
X12924310D01*
Y6324690D02*
Y6424690D01*
X12904311D02*
X12924310D01*
X12904311D02*
Y6494690D01*
X12924310Y6324690D02*
X12949310D01*
Y6214690D02*
Y6324690D01*
X12924310Y6214690D02*
X12949310D01*
X12924310Y6114690D02*
Y6214690D01*
X12634310Y6494690D02*
X12904311D01*
X12634310Y6424690D02*
Y6494690D01*
X12614310Y6424690D02*
X12634310D01*
X12614310Y6114690D02*
Y6194690D01*
Y6114690D02*
X12634310D01*
Y6044690D02*
Y6114690D01*
Y6044690D02*
X12904311D01*
X12539310Y6194690D02*
X12614310D01*
X12539310D02*
Y6344690D01*
X12614310D01*
Y6424690D01*
X8602480Y5591930D02*
X9102480D01*
X8602480Y4691930D02*
Y5591930D01*
Y4691930D02*
X9102480D01*
Y5591930D01*
X12497830Y3952900D02*
Y4852900D01*
X12997830D01*
Y3952900D02*
Y4852900D01*
X12497830Y3952900D02*
X12997830D01*
X11998710Y7305930D02*
X12418710D01*
X11998710D02*
Y7665930D01*
X12418710D01*
Y7305930D02*
Y7665930D01*
X6218060Y4201410D02*
Y4353410D01*
Y4201410D02*
X6520060D01*
Y4353410D01*
X6218060D02*
X6520060D01*
X6935119Y3516360D02*
X7087119D01*
Y3818360D01*
X6935119D02*
X7087119D01*
X6935119Y3516360D02*
Y3818360D01*
X7678700Y3531870D02*
X7830700D01*
Y3833870D01*
X7678700D02*
X7830700D01*
X7678700Y3531870D02*
Y3833870D01*
X8417450Y4932230D02*
Y5084230D01*
X8115450D02*
X8417450D01*
X8115450Y4932230D02*
Y5084230D01*
Y4932230D02*
X8417450D01*
X6559010Y5685930D02*
X6711010D01*
X6559010Y5383930D02*
Y5685930D01*
Y5383930D02*
X6711010D01*
Y5685930D01*
X6268019Y5696280D02*
X6420020D01*
X6268019Y5394280D02*
Y5696280D01*
Y5394280D02*
X6420020D01*
Y5696280D01*
X6007269Y5694280D02*
X6159270D01*
X6007269Y5392280D02*
Y5694280D01*
Y5392280D02*
X6159270D01*
Y5694280D01*
X5911859Y4906610D02*
X6019339Y4799130D01*
X6232886Y5012676D01*
X6125405Y5120156D02*
X6232886Y5012676D01*
X5911859Y4906610D02*
X6125405Y5120156D01*
X5863109Y4517220D02*
X5970590Y4624700D01*
X5863109Y4517220D02*
X6076655Y4303674D01*
X6184136Y4411154D01*
X5970590Y4624700D02*
X6184136Y4411154D01*
X6172452Y1957423D02*
X6400453D01*
Y2409423D01*
X6172452D02*
X6400453D01*
X6172452Y1957423D02*
Y2409423D01*
X7612970Y1959880D02*
X7840970D01*
Y2411880D01*
X7612970D02*
X7840970D01*
X7612970Y1959880D02*
Y2411880D01*
X4881572Y1964853D02*
X5109572D01*
Y2416853D01*
X4881572D02*
X5109572D01*
X4881572Y1964853D02*
Y2416853D01*
X8722790Y1986460D02*
X8950790D01*
Y2438460D01*
X8722790D02*
X8950790D01*
X8722790Y1986460D02*
Y2438460D01*
X9537500Y7771800D02*
Y8193800D01*
X9195000Y7771800D02*
X9537500D01*
X9195000D02*
Y8193800D01*
X9537500D01*
D221*
X3450327Y6426710D02*
X3970326D01*
Y5906711D02*
Y6426710D01*
X3450327Y5906711D02*
X3970326D01*
X3450327D02*
Y6426710D01*
X320610Y5689966D02*
X2886010D01*
X320610Y1664574D02*
Y5689966D01*
Y1664574D02*
X2886010D01*
Y5689966D01*
X926866Y6817989D02*
X2652034Y6817989D01*
Y6112377D02*
Y6817989D01*
X926866Y6112377D02*
X2652034D01*
X926866D02*
X926866Y6817989D01*
X5027840Y3749600D02*
Y4269599D01*
X4507841Y3749600D02*
X5027840D01*
X4507841D02*
Y4269599D01*
X5027840D01*
X3488347Y5806179D02*
X4008346D01*
Y5286180D02*
Y5806179D01*
X3488347Y5286180D02*
X4008346D01*
X3488347D02*
Y5806179D01*
X5728649Y8067886D02*
X5888649Y8067887D01*
X5888649Y7777884D01*
X5728649D02*
X5888649D01*
X5728649D02*
Y8067886D01*
X3972885Y8318957D02*
X4012885D01*
Y8598858D01*
X4682883D01*
Y8313857D02*
Y8598858D01*
Y8313857D02*
X4722883D01*
Y8948857D01*
X4516884D02*
X4722883D01*
X4516884D02*
Y9398856D01*
X4177886D02*
X4516884D01*
X4177886Y8948857D02*
Y9398856D01*
X3972885Y8948857D02*
X4177886D01*
X3972885Y8318957D02*
Y8948857D01*
X6426711Y5463223D02*
X6426712Y5633223D01*
X6426711Y5463223D02*
X6556711D01*
Y5633223D01*
X6426712D02*
X6556711D01*
X10094931Y2123369D02*
X10554930D01*
Y2773371D01*
X10094931D02*
X10554930D01*
X10094931Y2123369D02*
Y2773371D01*
X10768420Y2130229D02*
X11228420D01*
Y2780231D01*
X10768420D02*
X11228420D01*
X10768420Y2130229D02*
Y2780231D01*
X526914Y13266D02*
Y1423263D01*
X4486909D01*
Y13266D02*
Y1423263D01*
X526914Y13266D02*
X4486909D01*
X4162512Y2553368D02*
X4162513Y1729138D01*
X3132288Y1729138D02*
X4162513Y1729138D01*
X3132288Y1729138D02*
Y2553368D01*
X3956518Y2759362D02*
X4162512Y2553368D01*
X3132288D02*
X3338282Y2759362D01*
X3956518D01*
X5123560Y6392340D02*
X6393560D01*
X5123560Y5892341D02*
Y6392340D01*
Y5892341D02*
X6393560D01*
Y6392340D01*
X4516899Y13266D02*
Y1423263D01*
X8476894D01*
Y13266D02*
Y1423263D01*
X4516899Y13266D02*
X8476894D01*
X8506884D02*
Y1423263D01*
X12466879D01*
Y13266D02*
Y1423263D01*
X8506884Y13266D02*
X12466879D01*
X9341521Y3919859D02*
Y6919858D01*
Y3919859D02*
X12341520D01*
Y6919858D01*
X9341521D02*
X12341520D01*
X9341521Y3919859D02*
Y6919858D01*
Y3919859D02*
X12341520D01*
Y6919858D01*
X9341521D02*
X12341520D01*
X12629927Y6790910D02*
X12709927D01*
X12629927Y6630910D02*
Y6790910D01*
Y6630910D02*
X12709927D01*
Y6790910D01*
X4279290Y1980048D02*
Y2440047D01*
Y1980048D02*
X4639290D01*
Y2440047D01*
X4279290D02*
X4639290D01*
D222*
X3551700Y6678482D02*
X3551750Y6678432D01*
X4064030Y6678482D02*
X4064081Y6678432D01*
X4223399Y6678482D02*
X4223450Y6678432D01*
X4528470Y6128936D02*
X4528521Y6128885D01*
X12374088Y2538899D02*
X12374138Y2538950D01*
X11935101Y2386489D02*
X11935152Y2386540D01*
X8818760Y7278875D02*
X8818810Y7278825D01*
X10828240Y3125475D02*
X10828291Y3125425D01*
X10153840Y3134305D02*
X10153891Y3134255D01*
X10235710Y1737485D02*
X10235760Y1737435D01*
X10908380Y1737485D02*
X10908430Y1737435D01*
X11932505Y2539699D02*
X11932556Y2539750D01*
X12373211Y2386499D02*
X12373262Y2386550D01*
X4846140Y7364805D02*
X4846190Y7364755D01*
X4169740Y7374585D02*
X4169790Y7374534D01*
X3266389Y4938239D02*
X3266439Y4938290D01*
X8228910Y7119362D02*
X8228961Y7119311D01*
X7983780Y7119362D02*
X7983831Y7119311D01*
X8148880Y7119362D02*
X8148931Y7119311D01*
X7339690Y7122645D02*
X7339741Y7122595D01*
X7620530Y7121962D02*
X7620581Y7121911D01*
X7480820Y7122645D02*
X7480870Y7122595D01*
X12195569Y8263015D02*
X12195620Y8262965D01*
X12868050Y6709359D02*
X12868100Y6709308D01*
X12570225Y7530729D02*
X12570276Y7530780D01*
X12570225Y7361269D02*
X12570276Y7361320D01*
%TF.MD5,8e7fd742a4b95518b785a612ebe10261*%
M02*
