%TF.GenerationSoftware,Altium Limited,Altium Designer,22.5.1 (42)*%
G04 Layer_Color=16711935*
%FSLAX45Y45*%
%MOMM*%
%TF.SameCoordinates,BCC7A4F8-9605-4868-ACEC-D28EECC8EA53*%
%TF.FilePolarity,Positive*%
%TF.FileFunction,Other,Mechanical_13*%
%TF.Part,Single*%
G01*
G75*
%TA.AperFunction,NonConductor*%
%ADD112C,0.12700*%
%ADD138C,0.20000*%
%ADD140C,0.10000*%
%ADD146C,0.07620*%
%ADD214C,0.00000*%
%ADD215C,0.02540*%
D112*
X9298390Y3516440D02*
G03*
X9298390Y3516440I-600000J0D01*
G01*
X6191510Y3473790D02*
X6354010D01*
Y3181290D02*
Y3473790D01*
X6191510Y3181290D02*
X6354010D01*
X6191510D02*
Y3473790D01*
X4236570Y5280430D02*
Y5565430D01*
X4066570Y5280430D02*
X4236570D01*
X4066570D02*
Y5565430D01*
X4236570D01*
X3581250Y4815510D02*
X3881250D01*
X3581250Y5115510D02*
X3881250D01*
X3581250Y4815510D02*
Y5115510D01*
X3881250Y4815510D02*
Y5115510D01*
X6662120Y6255070D02*
X8132120Y6255070D01*
X6662120Y5925070D02*
X6662120Y6255070D01*
X6662120Y5925070D02*
X8132120D01*
Y6255070D01*
X4971960Y7775140D02*
Y7945140D01*
Y7775140D02*
X5256960D01*
Y7945140D01*
X4971960D02*
X5256960D01*
X6943920Y6992170D02*
Y7284670D01*
X6781420D02*
X6943920D01*
X6781420Y6992170D02*
Y7284670D01*
Y6992170D02*
X6943920D01*
X4512140Y4593510D02*
Y5333510D01*
Y4593510D02*
X5087140D01*
Y5333510D01*
X4512140D02*
X5087140D01*
X5332274Y4569739D02*
X5624774D01*
Y4732239D01*
X5332274D02*
X5624774D01*
X5332274Y4569739D02*
Y4732239D01*
X4124214Y5047300D02*
X4304214D01*
X4124214Y5147299D02*
X4304214D01*
X4124214Y5047300D02*
Y5147299D01*
X4304214Y5047300D02*
Y5147299D01*
X4125894Y4804260D02*
X4305894D01*
X4125894Y4904259D02*
X4305894D01*
X4125894Y4804260D02*
Y4904259D01*
X4305894Y4804260D02*
Y4904259D01*
X3174804Y5190999D02*
X3354804D01*
X3174804Y5090999D02*
X3354804D01*
Y5190999D01*
X3174804Y5090999D02*
Y5190999D01*
X5337054Y3940889D02*
Y4103389D01*
X5629554D01*
Y3940889D02*
Y4103389D01*
X5337054Y3940889D02*
X5629554D01*
X5164544Y4120710D02*
X5264544D01*
X5164544Y3940709D02*
X5264544D01*
X5164544D02*
Y4120710D01*
X5264544Y3940709D02*
Y4120710D01*
X3494034Y3564269D02*
X3894034D01*
X3494034Y3964269D02*
X3894034D01*
Y3564269D02*
Y3964269D01*
X3494034Y3564269D02*
Y3964269D01*
X3399564Y4163919D02*
Y4343919D01*
X3299564Y4163919D02*
Y4343919D01*
Y4163919D02*
X3399564D01*
X3299564Y4343919D02*
X3399564D01*
X5943140Y7204850D02*
X6043140D01*
X5943140Y7384850D02*
X6043140D01*
Y7204850D02*
Y7384850D01*
X5943140Y7204850D02*
Y7384850D01*
X5695090Y7197320D02*
X5795090D01*
X5695090Y7377320D02*
X5795090D01*
Y7197320D02*
Y7377320D01*
X5695090Y7197320D02*
Y7377320D01*
X5019530Y8338710D02*
X6459530D01*
X5019530Y6538710D02*
X6459530D01*
Y8338710D01*
Y9008710D01*
X5019530D02*
X6459530D01*
X5019530Y8338710D02*
Y9008710D01*
Y6538710D02*
Y8338710D01*
X4188880Y8030310D02*
X4488880D01*
Y7864310D02*
Y8030310D01*
X4188880Y7864310D02*
X4488880D01*
X4188880D02*
Y8030310D01*
X12018550Y8884900D02*
X12318550D01*
Y8584900D02*
Y8884900D01*
X12018550Y8584900D02*
X12318550D01*
X12018550D02*
Y8884900D01*
X12266960Y8182959D02*
Y8362959D01*
X12366960Y8182959D02*
Y8362959D01*
X12266960D02*
X12366960D01*
X12266960Y8182959D02*
X12366960D01*
X12615380Y5755010D02*
X12815379D01*
X12615380Y5525010D02*
X12815379D01*
Y5755010D01*
X12615380Y5525010D02*
Y5755010D01*
X12880780Y3576010D02*
X12905780D01*
X12880780Y3476010D02*
Y3576010D01*
X12840781Y3476010D02*
X12880780D01*
X12840781Y3456010D02*
Y3476010D01*
X12660780Y3456010D02*
X12840781D01*
X12660780D02*
Y3476010D01*
X12620780D02*
X12660780D01*
X12620780D02*
Y3576010D01*
X12595780D02*
X12620780D01*
X12595780D02*
Y3636010D01*
X12620780D01*
Y3736010D01*
X12660780D01*
Y3756010D01*
X12840781D01*
Y3736010D02*
Y3756010D01*
Y3736010D02*
X12880780D01*
Y3636010D02*
Y3736010D01*
Y3636010D02*
X12905780D01*
Y3576010D02*
Y3636010D01*
X12899310Y6239690D02*
X12924310D01*
X12899310Y6139690D02*
Y6239690D01*
X12859309Y6139690D02*
X12899310D01*
X12859309Y6119690D02*
Y6139690D01*
X12679310Y6119690D02*
X12859309D01*
X12679310D02*
Y6139690D01*
X12639310D02*
X12679310D01*
X12639310D02*
Y6239690D01*
X12614310D02*
X12639310D01*
X12614310D02*
Y6299690D01*
X12639310D01*
Y6399690D01*
X12679310D01*
Y6419690D01*
X12859309D01*
Y6399690D02*
Y6419690D01*
Y6399690D02*
X12899310D01*
Y6299690D02*
Y6399690D01*
Y6299690D02*
X12924310D01*
Y6239690D02*
Y6299690D01*
X6279060Y4227410D02*
Y4327410D01*
X6459060Y4227410D02*
Y4327410D01*
X6279060Y4227410D02*
X6459060D01*
X6279060Y4327410D02*
X6459060D01*
X6961119Y3577360D02*
X7061119D01*
X6961119Y3757360D02*
X7061119D01*
Y3577360D02*
Y3757360D01*
X6961119Y3577360D02*
Y3757360D01*
X7704700Y3592870D02*
X7804700D01*
X7704700Y3772870D02*
X7804700D01*
Y3592870D02*
Y3772870D01*
X7704700Y3592870D02*
Y3772870D01*
X8356450Y4958230D02*
Y5058230D01*
X8176449Y4958230D02*
Y5058230D01*
X8356450D01*
X8176449Y4958230D02*
X8356450D01*
X6585010Y5624930D02*
X6685010D01*
X6585010Y5444930D02*
X6685010D01*
X6585010D02*
Y5624930D01*
X6685010Y5444930D02*
Y5624930D01*
X6294020Y5635280D02*
X6394019D01*
X6294020Y5455280D02*
X6394019D01*
X6294020D02*
Y5635280D01*
X6394019Y5455280D02*
Y5635280D01*
X6033270Y5633280D02*
X6133269D01*
X6033270Y5453280D02*
X6133269D01*
X6033270D02*
Y5633280D01*
X6133269Y5453280D02*
Y5633280D01*
X5973377Y4931358D02*
X6044088Y4860648D01*
X6100657Y5058638D02*
X6171367Y4987927D01*
X6044088Y4860648D02*
X6171367Y4987927D01*
X5973377Y4931358D02*
X6100657Y5058638D01*
X5924627Y4492472D02*
X5995338Y4563182D01*
X6051907Y4365192D02*
X6122617Y4435903D01*
X5924627Y4492472D02*
X6051907Y4365192D01*
X5995338Y4563182D02*
X6122617Y4435903D01*
X8190390Y3960940D02*
Y4087940D01*
X9142890Y4024440D02*
X9269890D01*
X9206390Y3960940D02*
Y4087940D01*
X6198452Y2018423D02*
X6374453D01*
X6198452Y2348423D02*
X6374453D01*
Y2018423D02*
Y2348423D01*
X6198452Y2018423D02*
Y2348423D01*
X7638970Y2020880D02*
X7814970D01*
X7638970Y2350880D02*
X7814970D01*
Y2020880D02*
Y2350880D01*
X7638970Y2020880D02*
Y2350880D01*
X4907572Y2025853D02*
X5083573D01*
X4907572Y2355853D02*
X5083573D01*
Y2025853D02*
Y2355853D01*
X4907572Y2025853D02*
Y2355853D01*
X8748790Y2047460D02*
X8924790D01*
X8748790Y2377460D02*
X8924790D01*
Y2047460D02*
Y2377460D01*
X8748790Y2047460D02*
Y2377460D01*
X9220000Y8064050D02*
X9512500D01*
X9220000Y7901550D02*
Y8064050D01*
Y7901550D02*
X9512500D01*
Y8064050D01*
D138*
X6027260Y3422040D02*
G03*
X6027260Y3422040I-10000J0D01*
G01*
X4161570Y5722930D02*
G03*
X4161570Y5722930I-10000J0D01*
G01*
X3861250Y5205010D02*
G03*
X3861250Y5205010I-10000J0D01*
G01*
X7832520Y6356570D02*
G03*
X7832520Y6356570I-10000J0D01*
G01*
X4824460Y7860140D02*
G03*
X4824460Y7860140I-10000J0D01*
G01*
X7128170Y7043920D02*
G03*
X7128170Y7043920I-10000J0D01*
G01*
X4862140Y4518510D02*
G03*
X4862140Y4518510I-10000J0D01*
G01*
X5394024Y4395489D02*
G03*
X5394024Y4395489I-10000J0D01*
G01*
X5398804Y3766639D02*
G03*
X5398804Y3766639I-10000J0D01*
G01*
X3406534Y3889269D02*
G03*
X3406534Y3889269I-10000J0D01*
G01*
X4954530Y6942710D02*
G03*
X4954530Y6942710I-10000J0D01*
G01*
X4448880Y8187310D02*
G03*
X4448880Y8187310I-10000J0D01*
G01*
X11953050Y8834900D02*
G03*
X11953050Y8834900I-10000J0D01*
G01*
X12650380Y5387510D02*
G03*
X12650380Y5387510I-10000J0D01*
G01*
X12499780Y3608010D02*
G03*
X12499780Y3608010I-10000J0D01*
G01*
X12518310Y6271690D02*
G03*
X12518310Y6271690I-10000J0D01*
G01*
X9470750Y8238300D02*
G03*
X9470750Y8238300I-10000J0D01*
G01*
X4436580Y7209460D02*
X4686580D01*
Y7509460D01*
X4436580D02*
X4686580D01*
X4436580Y7209460D02*
Y7509460D01*
X6377711Y5169172D02*
Y5319172D01*
X6057712D02*
X6377711D01*
X6057712Y5169172D02*
Y5319172D01*
Y5169172D02*
X6377711D01*
D140*
X3794530Y6520200D02*
X3889530Y6615200D01*
Y6520200D02*
Y6810200D01*
X3729530D02*
X3889530D01*
X3729530Y6520200D02*
Y6810200D01*
Y6520200D02*
X3889530D01*
X12409990Y2126750D02*
X12504990Y2031750D01*
X12209990Y2126750D02*
X12504990D01*
X12209990Y1966749D02*
Y2126750D01*
Y1966749D02*
X12504990D01*
Y2126750D01*
X11968451D02*
X12063451Y2031750D01*
X11768450Y2126750D02*
X12063451D01*
X11768450Y1966749D02*
Y2126750D01*
Y1966749D02*
X12063451D01*
Y2126750D01*
X6841059Y5035940D02*
X6891059Y5085940D01*
X6841059Y4085940D02*
Y5085940D01*
Y4085940D02*
X7841060D01*
Y5085940D01*
X6841059D02*
X7841060D01*
X5444994Y4971649D02*
Y5171649D01*
X5319994Y4971649D02*
X5444994D01*
X5319994D02*
Y5171649D01*
X5444994D01*
X5121994Y3130379D02*
X5236994Y3245379D01*
Y3130379D02*
Y3560379D01*
X4506994D02*
X5236994D01*
X4506994Y3130379D02*
Y3560379D01*
Y3130379D02*
X5236994D01*
X8952480Y5506930D02*
X9067480Y5391930D01*
X8637480Y5506930D02*
X9067480D01*
X8637480Y4776930D02*
Y5506930D01*
Y4776930D02*
X9067480D01*
Y5506930D01*
X12532830Y4037900D02*
Y4767900D01*
X12962830D01*
Y4037900D02*
Y4767900D01*
X12532830Y4037900D02*
X12962830D01*
X12532830Y4152900D02*
X12647830Y4037900D01*
X12128710Y7338430D02*
X12288710D01*
X12128710D02*
Y7633430D01*
X12288710D01*
Y7338430D02*
Y7633430D01*
X12193710Y7338430D02*
X12288710Y7433430D01*
D146*
X4158801Y6012540D02*
X4243440Y6097180D01*
Y6012540D02*
X4158801Y6097180D01*
X4201121Y6012540D02*
Y6097180D01*
X4243440Y6054860D02*
X4158801D01*
X9986481Y8061610D02*
X10071121Y8146249D01*
Y8061610D02*
X9986481Y8146249D01*
X10028801Y8061610D02*
Y8146249D01*
X10071121Y8103930D02*
X9986481D01*
D214*
X4897400Y5630490D02*
G03*
X4958360Y5630490I30480J0D01*
G01*
X4870730Y5600080D02*
G03*
X4870730Y5600080I-7620J0D01*
G01*
X9955350Y8104790D02*
G03*
X9955350Y8165750I0J30480D01*
G01*
D215*
X4121100Y6018890D02*
X4281100D01*
X4121100D02*
Y6278890D01*
X4281100D01*
Y6018890D02*
Y6278890D01*
X4241100Y6018890D02*
X4281100Y6058890D01*
X4121100D02*
X4161100Y6018890D01*
X4151100Y6278890D02*
Y6333890D01*
X4251100D01*
Y6278890D02*
Y6333890D01*
X4151100Y6278890D02*
X4251100D01*
Y5963890D02*
Y6018890D01*
X4151100Y5963890D02*
X4251100D01*
X4151100D02*
Y6018890D01*
X4251100D01*
X4822470Y5419670D02*
Y5630490D01*
X5033290D01*
Y5419670D02*
Y5630490D01*
X4822470Y5419670D02*
X5033290D01*
X9985600Y8067960D02*
X10016080D01*
X9985600Y8015890D02*
Y8067960D01*
Y8015890D02*
X10016080D01*
Y8067960D01*
X10050600D02*
X10081080D01*
X10050600Y8015890D02*
Y8067960D01*
Y8015890D02*
X10081080D01*
Y8067960D01*
X10115600D02*
X10146080D01*
X10115600Y8015890D02*
Y8067960D01*
Y8015890D02*
X10146080D01*
Y8067960D01*
X10115600Y8202580D02*
X10146080D01*
Y8254650D01*
X10115600D02*
X10146080D01*
X10115600Y8202580D02*
Y8254650D01*
X9985600Y8202580D02*
X10016080D01*
Y8254650D01*
X9985600D02*
X10016080D01*
X9985600Y8202580D02*
Y8254650D01*
X10176330Y8067960D02*
Y8202580D01*
X9955350D02*
X10176330D01*
X9955350Y8067960D02*
Y8202580D01*
Y8067960D02*
X10176330D01*
%TF.MD5,8a2b254cb0807270ad436edc57052bcd*%
M02*
